<?xml version="1.0" standalone="no"?>
<!DOCTYPE svg PUBLIC "-//W3C//DTD SVG 1.1//EN" "http://www.w3.org/Graphics/SVG/1.1/DTD/svg11.dtd" >
<svg xmlns="http://www.w3.org/2000/svg">
<metadata></metadata>
<defs>
<font id="lf_press_sans_lightregular" horiz-adv-x="1024" >
<font-face units-per-em="2048" ascent="1536" descent="-512" />
<missing-glyph horiz-adv-x="368" />
<glyph horiz-adv-x="2048" />
<glyph horiz-adv-x="2048" />
<glyph unicode="&#xd;" horiz-adv-x="2048" />
<glyph unicode=" "  horiz-adv-x="368" />
<glyph unicode="&#x09;" horiz-adv-x="368" />
<glyph unicode="&#xa0;" horiz-adv-x="368" />
<glyph unicode="!" horiz-adv-x="514" d="M193 0v150h126v-150h-126zM205 1317h96l-20 -928h-56z" />
<glyph unicode="&#x22;" horiz-adv-x="536" d="M80 926l20 391h90l-45 -391h-65zM346 926l21 391h90l-45 -391h-66z" />
<glyph unicode="#" d="M119 442v76h149l49 283h-198v76h213l78 442h75l-77 -442h282l78 442h76l-78 -442h139v-76h-153l-50 -283h203v-76h-215l-78 -442h-75l77 442h-282l-78 -442h-76l78 442h-137zM344 518h283l49 283h-283z" />
<glyph unicode="$" d="M133 1006q0 127 94.5 209t241.5 96v211h76v-207q87 -2 243 -39v-94q-125 51 -243 57v-543q60 -34 96 -56t84.5 -59t75 -70t46 -79t19.5 -96q0 -77 -26.5 -141t-72 -107.5t-101.5 -72t-121 -42.5v-206h-76v196q-12 -2 -35 -2q-58 0 -143.5 14.5t-149.5 32.5v94 q66 -28 149 -47.5t150 -19.5h29v606q-64 33 -100.5 53.5t-88 57.5t-79 70t-48 81.5t-20.5 102.5zM219 1024q0 -46 19 -87.5t56.5 -77t77.5 -63t97 -59.5v500q-105 -12 -177.5 -74.5t-72.5 -138.5zM545 47q100 26 165.5 93.5t65.5 172.5q0 49 -17.5 91.5t-52.5 77.5t-71.5 61 t-89.5 57v-553z" />
<glyph unicode="%" horiz-adv-x="1734" d="M102 934q0 96 26.5 171.5t71 120.5t99.5 68t117 23t117 -23t99.5 -68t70.5 -120.5t26 -171.5q0 -196 -90 -301t-223 -105q-64 0 -119.5 24t-99.5 71.5t-69.5 127.5t-25.5 183zM186 926q0 -152 63 -241t167 -89t166.5 89t62.5 241q0 155 -60.5 239t-168.5 84t-169 -84 t-61 -239zM334 -63l971 1415h88l-967 -1415h-92zM1006 377q0 96 26 171.5t70.5 120.5t99.5 68t117 23t117 -23t99.5 -68t70.5 -120.5t26 -171.5q0 -196 -90 -301t-223 -105q-64 0 -119 24t-99 71.5t-69.5 127.5t-25.5 183zM1090 369q0 -152 62.5 -241t166.5 -89t166.5 89 t62.5 241q0 155 -60.5 239t-168.5 84t-168.5 -84t-60.5 -239z" />
<glyph unicode="&#x26;" horiz-adv-x="1175" d="M74 270q0 77 29 144t83 120t113 92t135 76l-4 7q-154 183 -154 321q0 157 91 240.5t243 83.5q76 0 136 -26t95.5 -68.5t53.5 -93t18 -103.5q0 -42 -12.5 -81t-30 -68.5t-49.5 -60.5t-58 -51t-68.5 -45t-67 -38t-68.5 -35l336 -397q116 155 166 342h82q-41 -206 -201 -396 l199 -233h-113l-145 170q-204 -201 -441 -201q-60 0 -113.5 10.5t-100.5 34t-81 58t-53.5 85.5t-19.5 113zM158 283q0 -124 80 -185t227 -61q98 0 194.5 50t178.5 138l-359 424q-321 -153 -321 -366zM360 1038q0 -120 125 -266l31 -37q48 24 81 42t81 50.5t77.5 63.5 t51.5 74t22 88q0 110 -62.5 171.5t-162.5 61.5q-110 0 -177 -67.5t-67 -180.5z" />
<glyph unicode="'" horiz-adv-x="270" d="M80 926l20 391h90l-45 -391h-65z" />
<glyph unicode="(" horiz-adv-x="516" d="M184 487q0 230 70.5 482.5t161.5 429.5h71q-84 -178 -144 -423t-60 -489q0 -234 61 -489.5t143 -425.5h-71q-97 158 -164.5 415.5t-67.5 499.5z" />
<glyph unicode=")" horiz-adv-x="516" d="M29 -428q82 170 143 425.5t61 489.5q0 244 -60 489t-144 423h71q91 -177 161.5 -429.5t70.5 -482.5q0 -242 -67.5 -499.5t-164.5 -415.5h-71z" />
<glyph unicode="*" horiz-adv-x="720" d="M41 1059l22 65l277 -102l-12 295h69l-12 -295l277 104l18 -69l-281 -78l185 -231l-60 -39l-162 243l-163 -245l-56 43l183 229z" />
<glyph unicode="+" d="M150 588v71h325v326h72v-326h327v-71h-327v-328h-72v328h-325z" />
<glyph unicode="," horiz-adv-x="270" d="M51 -242l70 242h-49v150h127v-130l-88 -262h-60z" />
<glyph unicode="-" horiz-adv-x="483" d="M41 469v72h401v-72h-401z" />
<glyph unicode="." horiz-adv-x="270" d="M72 0v150h127v-150h-127z" />
<glyph unicode="/" horiz-adv-x="665" d="M0 -68l584 1426h82l-582 -1426h-84z" />
<glyph unicode="0" d="M133 645q0 349 96 510.5t297 161.5t298.5 -162t97.5 -510t-97.5 -512t-298.5 -164t-297 164t-96 512zM217 645q0 -169 20.5 -288t62 -188.5t96.5 -100.5t130 -31t130.5 31t97.5 100.5t63 188.5t21 288q0 170 -21 289t-63 187.5t-97.5 99t-130.5 30.5t-130 -30.5 t-96.5 -99t-62 -187.5t-20.5 -289z" />
<glyph unicode="1" d="M229 0v74h254v1149h-254v73h338v-1222h254v-74h-592z" />
<glyph unicode="2" d="M135 0v84l383 459q15 18 61 71.5t62 74t48 65t44 72.5t23.5 68t11.5 79q0 122 -86.5 197t-239.5 75q-123 0 -274 -51v76q47 19 130.5 33t176.5 14q163 0 271 -88t108 -246q0 -35 -7.5 -70.5t-15 -62t-29.5 -63.5t-34 -56.5t-46 -62.5t-47.5 -59t-56.5 -66l-399 -469h678 v-74h-762z" />
<glyph unicode="3" d="M147 0v76q89 2 161 7.5t147.5 18.5t131 36t101 57t69 84.5t23.5 115.5q0 66 -28.5 117t-72 80t-101.5 47.5t-109 24.5t-104 6h-86v71h81q175 0 275 64.5t100 195.5q0 123 -82.5 186.5t-226.5 63.5q-84 0 -264 -37v72q171 31 274 31q175 0 279 -78.5t104 -222.5 q0 -67 -20 -122.5t-53 -90.5t-69 -57t-75 -31v-10q262 -64 262 -304q0 -92 -38.5 -163t-102.5 -115t-158 -72t-195 -39t-223 -12z" />
<glyph unicode="4" d="M76 344v55l475 897h82l-455 -878h606v362l41 195h39v-975h-80v344h-708z" />
<glyph unicode="5" d="M197 0v76q127 3 229.5 23.5t184.5 60.5t127.5 108t45.5 160q0 268 -399 268h-164v600h576v-67h-500v-459h100q224 0 347.5 -86t123.5 -248q0 -118 -54.5 -204.5t-151.5 -135t-211.5 -71.5t-253.5 -25z" />
<glyph unicode="6" d="M125 463q0 323 170.5 544t468.5 330v-71q-98 -42 -177 -91.5t-149.5 -116.5t-121.5 -155.5t-78 -195.5q56 28 138.5 49.5t162.5 21.5q203 0 296 -101t93 -280q0 -205 -106.5 -316.5t-295.5 -111.5q-105 0 -184.5 40t-125.5 110t-68.5 156.5t-22.5 187.5zM209 461 q0 -89 18.5 -163.5t56.5 -134t102 -93t149 -33.5q152 0 230.5 94.5t78.5 265.5q0 316 -316 316q-115 0 -305 -70q-14 -100 -14 -182z" />
<glyph unicode="7" d="M98 1223v73h799v-49l-526 -1247h-86l526 1223h-713z" />
<glyph unicode="8" d="M109 295q0 216 307 391q-123 75 -182.5 156t-59.5 182q0 93 49.5 161t125.5 100t167 32q134 0 232 -79t98 -216q0 -54 -24.5 -105t-69 -94t-85.5 -73.5t-96 -63.5q44 -24 69.5 -38.5t67.5 -41t67 -47t55.5 -51.5t47 -60t28.5 -66t12 -77q0 -144 -121.5 -240t-294.5 -96 q-103 0 -191 36.5t-145 112.5t-57 177zM193 299q0 -120 90 -191t227 -71q83 0 156.5 32t120.5 93.5t47 138.5q0 46 -22.5 89.5t-47 72t-84 69t-86.5 56t-103 56.5q-2 2 -3.5 2.5t-4 2t-4.5 2.5q-67 -42 -114 -78t-88.5 -80t-62.5 -92.5t-21 -101.5zM256 1036 q0 -97 59.5 -167.5t198.5 -149.5q55 35 93 64.5t76.5 69t58.5 84.5t20 95q0 103 -74 161t-176 58q-106 0 -181 -57t-75 -158z" />
<glyph unicode="9" d="M135 889q0 213 94.5 320.5t292.5 107.5q106 0 181.5 -34.5t119 -100t63 -150.5t19.5 -196q0 -285 -146 -515t-407 -344v84q355 183 439 523q-129 -70 -297 -70q-180 0 -269.5 101.5t-89.5 273.5zM219 903q0 -161 71 -239t240 -78q142 0 275 63q16 98 16 197 q0 206 -73.5 305.5t-243.5 99.5q-285 0 -285 -348z" />
<glyph unicode=":" horiz-adv-x="270" d="M72 0v150h127v-150h-127zM72 758v149h127v-149h-127z" />
<glyph unicode=";" horiz-adv-x="270" d="M51 -242l70 242h-49v150h127v-130l-88 -262h-60zM72 758v149h127v-149h-127z" />
<glyph unicode="&#x3c;" horiz-adv-x="962" d="M150 590v69l724 373v-84l-632 -323l632 -344v-84z" />
<glyph unicode="=" d="M150 457v71h724v-71h-724zM150 711v71h724v-71h-724z" />
<glyph unicode="&#x3e;" horiz-adv-x="962" d="M150 197v84l632 344l-632 323v84l724 -373v-69z" />
<glyph unicode="?" horiz-adv-x="782" d="M98 1241v78q126 35 242 35q165 0 261.5 -72t96.5 -229q0 -67 -26 -133.5t-63 -123.5t-74.5 -115t-65 -130.5t-29.5 -147.5h-78q2 84 29 163t63.5 139t73 116t61.5 114t25 112q0 115 -75 177t-205 62q-107 0 -236 -45zM328 0v150h127v-150h-127z" />
<glyph unicode="@" horiz-adv-x="1499" d="M72 397q0 141 49.5 267.5t137.5 220.5t219.5 149.5t285.5 55.5q140 0 262.5 -47.5t210.5 -131t139 -201.5t51 -253q0 -217 -92 -351.5t-237 -134.5q-43 0 -77.5 26t-43.5 73q-49 -40 -119 -70.5t-145 -30.5q-136 0 -210.5 61.5t-74.5 176.5q0 117 75.5 179.5t225.5 62.5 h246v108q0 182 -230 182q-59 0 -128 -15t-117 -36v82q132 37 250 37q159 0 234 -59.5t75 -192.5v-395q0 -71 15 -97t54 -26q92 0 153.5 117t61.5 299q0 247 -163.5 408t-417.5 161q-175 0 -314 -81t-215.5 -223t-76.5 -317q0 -284 165.5 -460.5t432.5 -176.5q178 0 293 68 l34 -51q-141 -84 -350 -84q-137 0 -257.5 49t-209.5 137.5t-140.5 221.5t-51.5 292zM512 209q0 -85 55.5 -128.5t155.5 -43.5q68 0 138 30.5t114 67.5v246h-244q-119 0 -169 -42.5t-50 -129.5z" />
<glyph unicode="A" horiz-adv-x="1128" d="M12 0l488 1317h127l481 -1317h-92l-166 455h-578l-166 -455h-94zM299 526h526l-256 711h-8z" />
<glyph unicode="B" horiz-adv-x="1067" d="M164 0v1317h375q190 0 289.5 -73.5t99.5 -235.5q0 -98 -63.5 -184t-141.5 -107v-8q131 -21 209 -104t78 -214q0 -97 -36.5 -173t-99.5 -123t-143 -71t-172 -24h-395zM252 72h301q161 0 265 83t104 234q0 130 -101 202.5t-264 72.5h-305v-592zM252 735h274 q129 0 221.5 72.5t92.5 187.5q0 118 -77 184t-233 66h-278v-510z" />
<glyph unicode="C" horiz-adv-x="1007" d="M92 678q0 185 40 315.5t120.5 209.5t193 115t265.5 36q116 0 260 -33v-82q-180 45 -271 45q-128 0 -221 -32t-160 -102.5t-100 -188t-33 -283.5q0 -338 112.5 -491.5t385.5 -153.5q119 0 297 57v-82q-160 -45 -311 -45q-134 0 -234 32.5t-165.5 91t-105.5 149.5 t-56.5 197.5t-16.5 244.5z" />
<glyph unicode="D" horiz-adv-x="1271" d="M164 0v1317h379q142 0 252.5 -34t181.5 -92t117 -141.5t65 -176.5t19 -203q0 -322 -163 -496t-468 -174h-383zM252 72h303q261 0 395.5 155t134.5 443q0 575 -542 575h-291v-1173z" />
<glyph unicode="E" horiz-adv-x="952" d="M164 0v1317h731v-72h-643v-514h522v-72h-522v-587h659v-72h-747z" />
<glyph unicode="F" horiz-adv-x="987" d="M164 0v1317h790v-72h-702v-534h582v-72h-582v-639h-88z" />
<glyph unicode="G" horiz-adv-x="1267" d="M123 678q0 129 21 231.5t69.5 187.5t124.5 141t188 87t258 31q164 0 312 -45v-92q-169 65 -328 65q-553 0 -553 -606q0 -336 130 -490.5t417 -154.5q109 0 282 51v582h95v-641q-230 -64 -408 -64q-309 0 -458.5 173.5t-149.5 543.5z" />
<glyph unicode="H" horiz-adv-x="1280" d="M164 0v1317h88v-586h776v586h88v-1317h-88v659h-776v-659h-88z" />
<glyph unicode="I" horiz-adv-x="432" d="M172 0v1317h88v-1317h-88z" />
<glyph unicode="J" horiz-adv-x="411" d="M-16 -274q92 3 136 54t44 157v1380h84v-1378q0 -278 -264 -281v68z" />
<glyph unicode="K" horiz-adv-x="1128" d="M172 0v1317h88v-1317h-88zM348 680l592 639h117l-592 -639l618 -680h-122z" />
<glyph unicode="L" horiz-adv-x="931" d="M164 0v1317h88v-1245h659v-72h-747z" />
<glyph unicode="M" horiz-adv-x="1632" d="M164 0v1317h162l489 -1219l500 1219h153v-1317h-86v1260l-516 -1260h-100l-516 1260v-1260h-86z" />
<glyph unicode="N" horiz-adv-x="1335" d="M164 0v1317h123l803 -1176v1176h81v-1317h-90l-835 1231v-1231h-82z" />
<glyph unicode="O" horiz-adv-x="1347" d="M121 657q0 190 36 325t109.5 217t176 119.5t243.5 37.5q142 0 245 -37.5t176.5 -119.5t109.5 -217t36 -325t-36 -324.5t-109.5 -216t-176.5 -118.5t-245 -37q-141 0 -243.5 37t-176 118.5t-109.5 216t-36 324.5zM215 657q0 -327 113 -475.5t358 -148.5q246 0 359.5 148.5 t113.5 475.5q0 326 -114 476.5t-359 150.5t-358 -150t-113 -477z" />
<glyph unicode="P" horiz-adv-x="1083" d="M164 0v1317h473q198 0 294.5 -94.5t96.5 -266.5q0 -104 -35 -181t-97 -121t-139 -64.5t-169 -20.5h-336v-569h-88zM252 641h346q96 0 171.5 32.5t123 103.5t47.5 173q0 144 -85 219.5t-245 75.5h-358v-604z" />
<glyph unicode="Q" horiz-adv-x="1347" d="M121 657q0 190 36 325t109.5 217t176 119.5t243.5 37.5q142 0 245 -37.5t176.5 -119.5t109.5 -217t36 -325q0 -296 -89.5 -457t-266.5 -212q354 -191 526 -232v-96q-71 13 -207 71.5t-233 114.5l-203 121q-47 -6 -94 -6q-141 0 -243.5 37t-176 118.5t-109.5 216 t-36 324.5zM215 657q0 -327 113 -475.5t358 -148.5q246 0 359.5 148.5t113.5 475.5q0 326 -114 476.5t-359 150.5t-358 -150t-113 -477z" />
<glyph unicode="R" horiz-adv-x="1130" d="M164 0v1317h420q199 0 299 -95t100 -266q0 -158 -73 -249.5t-226 -122.5l422 -584h-115l-401 567h-338v-567h-88zM252 637h299q163 0 250.5 81t87.5 243q0 146 -80.5 215t-257.5 69h-299v-608z" />
<glyph unicode="S" horiz-adv-x="868" d="M78 1047q0 141 113.5 225t281.5 84q104 0 260 -39v-94q-59 25 -135.5 42t-138.5 17q-120 0 -207.5 -65.5t-87.5 -151.5q0 -49 22 -93.5t59.5 -81t86 -71.5t102.5 -68t107.5 -66.5t102 -71t86 -78t59.5 -92t22 -107.5q0 -93 -38.5 -167t-102 -118t-138 -67t-153.5 -23 q-58 0 -143.5 14.5t-149.5 32.5v94q66 -28 149 -47.5t150 -19.5q48 0 95 10.5t90.5 33t77 54.5t53.5 78.5t20 101.5q0 68 -35.5 127t-92 102.5t-125 85t-137.5 83.5t-125.5 88.5t-92 110t-35.5 137.5z" />
<glyph unicode="T" horiz-adv-x="1091" d="M41 1245v72h1010v-72h-461v-1245h-88v1245h-461z" />
<glyph unicode="U" horiz-adv-x="1228" d="M160 393v924h88v-924q0 -87 18.5 -152t50 -104t80 -63t99.5 -32.5t118 -8.5t118.5 8.5t100 32.5t79.5 63t50 104t19 152v924h88v-924q0 -123 -31 -208.5t-92.5 -133t-141.5 -68t-190 -20.5t-189.5 20.5t-141 68t-92.5 133t-31 208.5z" />
<glyph unicode="V" horiz-adv-x="1120" d="M12 1317h94l455 -1237h8l447 1237h92l-481 -1317h-127z" />
<glyph unicode="W" horiz-adv-x="1652" d="M8 1317h90l336 -1223l340 1223h105l340 -1223l335 1223h91l-373 -1317h-115l-334 1206l-334 -1206h-110z" />
<glyph unicode="X" horiz-adv-x="1097" d="M12 0l484 670l-463 647h106l416 -582l408 582h102l-459 -651l479 -666h-106l-432 598l-432 -598h-103z" />
<glyph unicode="Y" horiz-adv-x="1040" d="M51 1317h103l368 -662l391 662h99l-447 -750v-567h-88v567z" />
<glyph unicode="Z" horiz-adv-x="1009" d="M53 0v68l762 1177h-752v72h857v-70l-766 -1175h817v-72h-918z" />
<glyph unicode="[" horiz-adv-x="538" d="M174 -430v1829h346v-70h-262v-1689h262v-70h-346z" />
<glyph unicode="\" horiz-adv-x="665" d="M0 1358h82l584 -1426h-84z" />
<glyph unicode="]" horiz-adv-x="538" d="M18 -360h263v1689h-263v70h347v-1829h-347v70z" />
<glyph unicode="^" horiz-adv-x="600" d="M82 907l154 467h129l153 -467h-80l-139 391l-139 -391h-78z" />
<glyph unicode="_" horiz-adv-x="847" d="M0 -180h848v-72h-848v72z" />
<glyph unicode="`" horiz-adv-x="311" d="M41 1374h100l129 -268h-75z" />
<glyph unicode="a" horiz-adv-x="923" d="M72 242q0 135 86 205.5t258 70.5h289v131q0 115 -68 168t-203 53q-144 0 -278 -55v80q158 43 282 43q181 0 265.5 -68t84.5 -223v-647h-83v84q-53 -46 -136 -80.5t-176 -34.5q-152 0 -236.5 70.5t-84.5 202.5zM158 244q0 -102 64 -154.5t184 -52.5q87 0 168 32.5 t131 75.5v306h-287q-143 0 -201.5 -51.5t-58.5 -155.5z" />
<glyph unicode="b" horiz-adv-x="1048" d="M139 6v1393h84v-535q127 74 295 74q191 0 304.5 -115.5t113.5 -333.5q0 -136 -37.5 -237.5t-106.5 -162.5t-158.5 -90.5t-199.5 -29.5q-151 0 -295 37zM223 68q105 -31 213 -31q191 0 303.5 107.5t112.5 334.5q0 200 -92.5 295.5t-253.5 95.5q-168 0 -283 -67v-735z" />
<glyph unicode="c" horiz-adv-x="794" d="M94 442q0 241 115 368.5t328 127.5q96 0 186 -25v-75q-38 12 -93 22t-89 10q-363 0 -363 -428q0 -203 100.5 -304t270.5 -101q85 0 194 37v-72q-111 -33 -219 -33q-211 0 -320.5 122.5t-109.5 350.5z" />
<glyph unicode="d" horiz-adv-x="1026" d="M94 457q0 233 116.5 357t328.5 124q79 0 156 -19t112 -40v520h84v-1399h-84v72q-57 -41 -139 -72t-170 -31q-196 0 -300 123t-104 365zM178 459q0 -422 338 -422q76 0 159.5 30t131.5 66v674q-31 23 -107 43t-145 20q-184 0 -280.5 -104t-96.5 -307z" />
<glyph unicode="e" horiz-adv-x="944" d="M94 475q0 228 98 345.5t285 117.5q167 0 260.5 -96.5t93.5 -284.5v-106h-651q0 -95 21.5 -169t55.5 -118.5t82 -73t96 -39t102 -10.5q120 0 254 49v-78q-130 -41 -271 -41q-70 0 -129 13.5t-115 49t-95.5 91t-63 145t-23.5 205.5zM182 518h570v25q0 327 -277 327 q-134 0 -213.5 -88t-79.5 -264z" />
<glyph unicode="f" horiz-adv-x="536" d="M29 840v67h157v215q0 135 74 206t209 71q63 0 106 -13v-69q-47 14 -106 14q-102 0 -150.5 -50t-48.5 -159v-215h244v-67h-244v-840h-84v840h-157z" />
<glyph unicode="g" horiz-adv-x="909" d="M59 -193q0 151 144 228q-70 44 -70 131q0 85 90 192q-100 86 -100 252q0 154 89.5 241t252.5 87q85 0 166 -31h278v-67h-180q78 -87 78 -230q0 -153 -89.5 -240t-252.5 -87q-120 0 -197 45q-55 -70 -55 -142q0 -64 44 -89t124 -25h217q145 0 223 -58t78 -174 q0 -64 -23 -114t-62.5 -83t-95.5 -54.5t-118 -30.5t-133 -9q-86 0 -157 14t-128.5 43.5t-90 80.5t-32.5 120zM143 -178q0 -70 47 -117.5t117.5 -67.5t159.5 -20q348 0 348 217q0 80 -55.5 123t-165.5 43h-217q-85 0 -137 18q-97 -88 -97 -196zM207 610q0 -123 63.5 -191.5 t194.5 -68.5t194.5 68.5t63.5 191.5t-63.5 191.5t-194.5 68.5t-194.5 -68.5t-63.5 -191.5z" />
<glyph unicode="h" horiz-adv-x="997" d="M135 0v1399h84v-557q61 36 160 69t188 33q136 0 215.5 -77.5t79.5 -231.5v-635h-86v631q0 116 -60 175.5t-167 59.5q-154 0 -330 -90v-776h-84z" />
<glyph unicode="i" horiz-adv-x="378" d="M147 0v907h84v-907h-84zM147 1155v162h84v-162h-84z" />
<glyph unicode="j" horiz-adv-x="354" d="M-117 -379q24 -4 54 -4q101 0 149.5 51t48.5 160v1079h84v-1077q0 -145 -69 -213t-205 -68q-27 0 -62 5v67zM135 1155v162h84v-162h-84z" />
<glyph unicode="k" horiz-adv-x="890" d="M172 0v1399h84v-1399h-84zM305 481v8l438 418h105l-440 -418l507 -489h-116z" />
<glyph unicode="l" horiz-adv-x="378" d="M147 0v1399h84v-1399h-84z" />
<glyph unicode="m" horiz-adv-x="1536" d="M135 0v907h84v-65q174 102 328 102q164 0 229 -110q72 40 168 75t184 35q275 0 275 -309v-635h-84v631q0 235 -209 235q-128 0 -311 -86q22 -64 22 -145v-635h-84v631q0 235 -209 235q-147 0 -309 -90v-776h-84z" />
<glyph unicode="n" horiz-adv-x="997" d="M135 0v907h84v-65q61 36 160 69t188 33q136 0 215.5 -77.5t79.5 -231.5v-635h-84v631q0 116 -61 175.5t-168 59.5q-154 0 -330 -90v-776h-84z" />
<glyph unicode="o" horiz-adv-x="1003" d="M94 465q0 473 408 473q407 0 407 -473q0 -264 -101 -380t-306 -116t-306.5 116t-101.5 380zM178 465q0 -107 18 -185.5t46 -124t72 -73t87.5 -36.5t100.5 -9t100.5 9t87 36.5t72 73t46 124t17.5 185.5q0 115 -23 195t-67 125.5t-100.5 65t-132.5 19.5t-132.5 -19.5 t-101 -65t-67.5 -125.5t-23 -195z" />
<glyph unicode="p" horiz-adv-x="1048" d="M139 -451v1358h84v-41q144 72 316 72q59 0 112 -12t106.5 -43.5t92 -81t62.5 -130t24 -184.5q0 -135 -37.5 -236.5t-105 -161.5t-152.5 -89t-188 -29q-128 0 -230 19v-441h-84zM223 68q105 -31 213 -31q68 0 127.5 13.5t113.5 46t92 82t60.5 126.5t22.5 174 q0 206 -89.5 298.5t-242.5 92.5q-185 0 -297 -63v-739z" />
<glyph unicode="q" horiz-adv-x="1048" d="M94 457q0 233 123.5 357t349.5 124q156 0 324 -47v-1342h-84v523q-57 -41 -139 -72t-170 -31q-196 0 -300 123t-104 365zM178 459q0 -216 85 -317t253 -101q76 0 159.5 30t131.5 66v692q-128 35 -248 35q-185 0 -283 -101.5t-98 -303.5z" />
<glyph unicode="r" horiz-adv-x="610" d="M135 0v907h84v-119q70 60 173 105t192 45v-88h-35q-70 0 -147 -29.5t-116 -55t-67 -48.5v-717h-84z" />
<glyph unicode="s" horiz-adv-x="696" d="M63 4v84q123 -49 236 -49q48 0 89.5 9t77.5 28.5t56.5 54.5t20.5 82q0 72 -52.5 125t-189.5 117q-114 54 -170.5 115t-56.5 145q0 104 85.5 164.5t221.5 60.5q82 0 188 -27v-79q-101 38 -204 38q-81 0 -144 -39t-63 -104q0 -69 44 -114.5t165 -102.5 q141 -66 200.5 -130.5t59.5 -160.5q0 -63 -28 -112t-75 -78.5t-102 -44.5t-113 -15q-134 0 -246 33z" />
<glyph unicode="t" horiz-adv-x="634" d="M20 840v67h166v281h82v-281h346v-67h-346v-576q0 -117 45 -171t136 -54q81 0 182 33v-72q-104 -31 -189 -31q-133 0 -194.5 68t-61.5 231v572h-166z" />
<glyph unicode="u" horiz-adv-x="997" d="M135 272v635h86v-631q0 -116 60.5 -175.5t167.5 -59.5q153 0 329 90v776h84v-907h-84v66q-62 -36 -160.5 -69.5t-187.5 -33.5q-136 0 -215.5 77.5t-79.5 231.5z" />
<glyph unicode="v" horiz-adv-x="868" d="M18 907h91l333 -841l322 841h86l-356 -907h-107z" />
<glyph unicode="w" horiz-adv-x="1335" d="M20 907h93l258 -796l258 796h90l260 -796l254 796h82l-289 -907h-96l-260 791l-254 -791h-94z" />
<glyph unicode="x" horiz-adv-x="821" d="M0 0l360 463l-340 444h103l295 -385l289 385h94l-334 -446l354 -461h-106l-307 399l-310 -399h-98z" />
<glyph unicode="y" horiz-adv-x="847" d="M8 907h90l332 -790l328 790h82l-561 -1358h-91l201 471z" />
<glyph unicode="z" horiz-adv-x="739" d="M33 0v57l559 783h-549v67h647v-61l-557 -778h590v-68h-690z" />
<glyph unicode="{" horiz-adv-x="620" d="M10 440v84q47 0 80.5 4.5t69.5 20t58 43t36 76.5t14 118v277q0 195 83.5 273.5t250.5 78.5v-78q-125 0 -187.5 -59.5t-62.5 -185.5v-275q0 -263 -166 -325v-19q90 -34 128 -110.5t38 -196.5v-293q0 -252 250 -252v-67q-82 0 -141 16.5t-104 55t-67 107.5t-22 169v276 q0 69 -14 118t-36 76.5t-58 43t-69.5 20t-80.5 4.5z" />
<glyph unicode="|" horiz-adv-x="514" d="M215 -451v2048h84v-2048h-84z" />
<glyph unicode="}" horiz-adv-x="620" d="M18 -379q250 0 250 252v293q0 120 38 196.5t128 110.5v19q-166 62 -166 325v275q0 126 -62.5 185.5t-187.5 59.5v78q167 0 250.5 -78.5t83.5 -273.5v-277q0 -69 14 -118t36 -76.5t58 -43t69.5 -20t80.5 -4.5v-84q-47 0 -80.5 -4.5t-69.5 -20t-58 -43t-36 -76.5t-14 -118 v-276q0 -100 -22 -169t-67 -107.5t-104 -55t-141 -16.5v67z" />
<glyph unicode="~" horiz-adv-x="962" d="M57 461q14 105 80.5 174.5t169.5 69.5q44 0 88 -19.5t79.5 -46.5t69.5 -54.5t69 -47t65 -19.5q130 0 156 162h67q-42 -244 -225 -244q-54 0 -111.5 30.5t-98.5 67t-87.5 67t-81.5 30.5q-70 0 -114 -49t-50 -121h-76z" />
<glyph unicode="&#xa1;" horiz-adv-x="514" d="M193 758v149h126v-149h-126zM205 -410l20 928h56l20 -928h-96z" />
<glyph unicode="&#xa2;" d="M166 442q0 215 102 341.5t283 148.5v217h84v-211q132 -5 205 -25v-75q-36 12 -103 22t-104 10q-177 0 -280 -103t-103 -325q0 -201 109 -303t282 -102q48 0 114 12t105 25v-72q-114 -30 -225 -33v-202h-84v206q-184 19 -284.5 141t-100.5 328z" />
<glyph unicode="&#xa3;" d="M137 0v72h211v587h-211v72h211v191q0 111 23 189t67 122.5t101 64t133 19.5q84 0 186 -29v-80q-92 37 -196 37q-66 0 -113 -28t-71.5 -77t-35 -102.5t-10.5 -117.5v-189h379v-72h-379v-587h514v-72h-809z" />
<glyph unicode="&#xa4;" d="M129 377l104 106q-75 101 -75 219q0 124 80 224l-109 110l53 56l111 -109q110 78 219 78q114 0 219 -78l111 109l55 -56l-111 -112q78 -101 78 -222q0 -115 -73 -217l104 -108l-53 -51l-111 106q-93 -86 -219 -86q-123 0 -223 84l-107 -104zM240 702q0 -114 76.5 -197 t193.5 -83q118 0 196 81.5t78 198.5q0 120 -76 201.5t-196 81.5q-122 0 -197 -81t-75 -202z" />
<glyph unicode="&#xa5;" d="M92 1296h98l332 -641l355 641h94l-375 -671h287v-72h-318v-182h318v-72h-318v-299h-88v299h-319v72h319v182h-319v72h288z" />
<glyph unicode="&#xa6;" horiz-adv-x="563" d="M240 422h84v-852h-84v852zM240 618v756h84v-756h-84z" />
<glyph unicode="&#xa7;" d="M123 621q0 155 215 253q-79 59 -119.5 112.5t-40.5 113.5q0 114 89.5 174.5t228.5 60.5q75 0 165.5 -22t153.5 -53v-89q-77 42 -164.5 69.5t-152.5 27.5q-55 0 -107.5 -16.5t-90.5 -54.5t-38 -89q0 -97 150 -195l290 -194q43 -29 69 -50t57.5 -53t47 -69.5t15.5 -79.5 q0 -43 -18.5 -81.5t-52.5 -69.5t-63.5 -51t-68.5 -42q160 -122 160 -246q0 -73 -33.5 -129t-89 -87.5t-117.5 -46.5t-127 -15q-164 0 -323 90v92q182 -114 338 -114q109 0 188.5 47.5t79.5 132.5q0 130 -172 248l-244 161q-45 30 -74.5 52.5t-69 59t-60.5 75.5t-21 78z M209 639q0 -101 153 -201l277 -180q33 19 55.5 35t52 41.5t45 56t15.5 62.5q0 101 -143 198l-267 185q-81 -36 -134.5 -87t-53.5 -110z" />
<glyph unicode="&#xa8;" horiz-adv-x="411" d="M41 1155v162h84v-162h-84zM287 1155v162h84v-162h-84z" />
<glyph unicode="&#xa9;" horiz-adv-x="1447" d="M51 649q0 136 51.5 261t140 218t214.5 148t268 55t268 -55t214 -148t139 -218t51 -261q0 -183 -86.5 -338t-241.5 -247.5t-344 -92.5q-142 0 -268 54.5t-214.5 146t-140 216t-51.5 261.5zM139 651q0 -173 75.5 -313.5t210 -220.5t300.5 -80q165 0 299 80t210.5 220.5 t76.5 313.5q0 172 -76.5 313t-211 221.5t-298.5 80.5q-166 0 -300.5 -81t-210 -221.5t-75.5 -312.5zM410 664q0 174 95 273t283 99q77 0 170 -28v-70q-142 29 -184 29q-129 0 -198.5 -82t-69.5 -221q0 -138 79 -233t206 -95q74 0 172 41v-78q-107 -31 -187 -31 q-171 0 -268.5 107.5t-97.5 288.5z" />
<glyph unicode="&#xaa;" horiz-adv-x="741" d="M66 414v67h565v-67h-565zM66 809q0 104 70.5 159.5t205.5 55.5h205v76q0 92 -48.5 129t-154.5 37q-77 0 -213 -41v75q109 33 231 33q269 0 269 -221v-506h-80v66q-122 -80 -232 -80q-51 0 -94.5 11.5t-80 36t-57.5 68t-21 101.5zM152 805q0 -72 51.5 -109t138.5 -37 q51 0 114.5 22t90.5 42v238h-207q-99 0 -143.5 -39t-44.5 -117z" />
<glyph unicode="&#xab;" horiz-adv-x="942" d="M141 475l226 350h86l-205 -350l205 -350h-86zM510 475l225 350h86l-205 -350l205 -350h-86z" />
<glyph unicode="&#xac;" d="M150 588v71h724v-399h-71v328h-653z" />
<glyph unicode="&#xad;" horiz-adv-x="0" />
<glyph unicode="&#xae;" horiz-adv-x="1447" d="M51 649q0 136 51.5 261t140 218t214.5 148t268 55t268 -55t214 -148t139 -218t51 -261q0 -183 -86.5 -338t-241.5 -247.5t-344 -92.5q-142 0 -268 54.5t-214.5 146t-140 216t-51.5 261.5zM139 651q0 -173 75.5 -313.5t210 -220.5t300.5 -80q165 0 299 80t210.5 220.5 t76.5 313.5q0 172 -76.5 313t-211 221.5t-298.5 80.5q-166 0 -300.5 -81t-210 -221.5t-75.5 -312.5zM479 283v747h295q108 0 173 -55.5t65 -153.5q0 -89 -52.5 -144t-134.5 -71l240 -323h-104l-226 313h-172v-313h-84zM563 662h185q32 0 60 7.5t54 24.5t41 50t15 79 q0 69 -42 105.5t-114 36.5h-199v-303z" />
<glyph unicode="&#xaf;" horiz-adv-x="503" d="M41 1249v68h422v-68h-422z" />
<glyph unicode="&#xb0;" horiz-adv-x="735" d="M59 1010q0 127 91 217t219 90t218.5 -90t90.5 -217t-90.5 -217.5t-218.5 -90.5t-219 90.5t-91 217.5zM143 1010q0 -94 66.5 -163t159.5 -69t157 68.5t64 163.5t-64 163t-157 68t-159.5 -68.5t-66.5 -162.5z" />
<glyph unicode="&#xb1;" d="M150 0v72h724v-72h-724zM150 588v71h325v326h72v-326h327v-71h-327v-328h-72v328h-325z" />
<glyph unicode="&#xb2;" horiz-adv-x="819" d="M137 590v61l271 238q124 111 124 213q0 64 -54.5 102.5t-129.5 38.5q-65 0 -182 -31v80q85 25 192 25q124 0 194.5 -52t70.5 -155q0 -134 -152 -264l-215 -182h389v-74h-508z" />
<glyph unicode="&#xb3;" horiz-adv-x="819" d="M139 569v78q72 1 128 5t112.5 15t93 29.5t59.5 49.5t23 73q0 34 -11.5 57.5t-29 37t-47 21t-58 9.5t-69.5 2h-55v68h51q113 0 156 31.5t43 95.5q0 56 -45 79t-132 23q-56 0 -213 -33v74q140 33 228 33q252 0 252 -174q0 -103 -101 -156q60 -22 90.5 -59.5t30.5 -106.5 q0 -74 -37.5 -124.5t-109.5 -77.5t-157.5 -38t-201.5 -12z" />
<glyph unicode="&#xb4;" horiz-adv-x="311" d="M41 1106l129 268h100l-153 -268h-76z" />
<glyph unicode="&#xb6;" horiz-adv-x="878" d="M61 1012q0 82 30.5 149.5t100.5 111.5t170 44h476v-33l-88 -51q-24 -14 -33.5 -25t-9.5 -34v-1604h-78v1673h-164v-1673h-78v1139q-109 0 -184.5 43.5t-108.5 110.5t-33 149z" />
<glyph unicode="&#xb7;" horiz-adv-x="264" d="M68 580v149h127v-149h-127z" />
<glyph unicode="&#xb8;" horiz-adv-x="688" d="M217 -362q92 0 135 27.5t43 84.5q0 42 -43 70.5t-112 34.5l47 145h65l-26 -96q64 -16 104.5 -54t40.5 -96q0 -172 -254 -172v56z" />
<glyph unicode="&#xb9;" horiz-adv-x="819" d="M186 590v74h183v557h-183v77h273v-634h180v-74h-453z" />
<glyph unicode="&#xba;" horiz-adv-x="792" d="M66 414v67h661v-67h-661zM66 973q0 175 92.5 267.5t238.5 92.5q147 0 239.5 -92.5t92.5 -267.5q0 -195 -91 -288t-241 -93t-240.5 93t-90.5 288zM150 973q0 -173 66 -243.5t181 -70.5t181.5 70.5t66.5 243.5q0 146 -70.5 219.5t-177.5 73.5t-177 -73.5t-70 -219.5z" />
<glyph unicode="&#xbb;" horiz-adv-x="942" d="M121 125l205 350l-205 350h86l225 -350l-225 -350h-86zM489 125l205 350l-205 350h86l226 -350l-226 -350h-86z" />
<glyph unicode="&#xbc;" horiz-adv-x="1720" d="M186 590v74h183v557h-183v77h273v-634h180v-74h-453zM383 -63l938 1415h80l-934 -1415h-84zM1051 174v59l252 494h88l-248 -483h323v176l66 112h24v-532h-90v174h-415z" />
<glyph unicode="&#xbd;" horiz-adv-x="1720" d="M186 590v74h183v557h-183v77h273v-634h180v-74h-453zM352 -63l938 1415h80l-934 -1415h-84zM1038 0v61l271 238q125 111 125 213q0 64 -55 102.5t-130 38.5q-68 0 -182 -30v79q85 25 193 25q124 0 194 -52t70 -155q0 -134 -152 -264l-215 -182h389v-74h-508z" />
<glyph unicode="&#xbe;" horiz-adv-x="1720" d="M139 569v78q72 1 128 5t112.5 15t93 29.5t59.5 49.5t23 73q0 34 -11.5 57.5t-29 37t-47 21t-58 9.5t-69.5 2h-55v68h51q113 0 156 31.5t43 95.5q0 56 -45 79t-132 23q-56 0 -213 -33v74q140 33 228 33q252 0 252 -174q0 -103 -101 -156q60 -22 90.5 -59.5t30.5 -106.5 q0 -74 -37.5 -124.5t-109.5 -77.5t-157.5 -38t-201.5 -12zM389 -63l938 1415h80l-934 -1415h-84zM1051 174v59l252 494h88l-248 -483h323v176l66 112h24v-532h-90v174h-415z" />
<glyph unicode="&#xbf;" horiz-adv-x="782" d="M84 -145q0 67 26 133.5t63 123t74.5 114.5t65 130.5t29.5 147.5h78q-2 -84 -29 -163t-63.5 -139t-73 -115.5t-61.5 -113.5t-25 -112q0 -115 75.5 -177.5t205.5 -62.5q106 0 235 45v-78q-122 -34 -242 -34q-165 0 -261.5 72t-96.5 229zM328 758v149h127v-149h-127z" />
<glyph unicode="&#xc0;" horiz-adv-x="1128" d="M12 0l488 1317h127l481 -1317h-92l-166 455h-578l-166 -455h-94zM299 526h526l-256 711h-8zM362 1784h101l129 -268h-76z" />
<glyph unicode="&#xc1;" horiz-adv-x="1128" d="M12 0l488 1317h127l481 -1317h-92l-166 455h-578l-166 -455h-94zM299 526h526l-256 711h-8zM535 1516l129 268h100l-154 -268h-75z" />
<glyph unicode="&#xc2;" horiz-adv-x="1128" d="M12 0l488 1317h127l481 -1317h-92l-166 455h-578l-166 -455h-94zM299 526h526l-256 711h-8zM346 1516l160 268h117l159 -268h-75l-144 192l-143 -192h-74z" />
<glyph unicode="&#xc3;" horiz-adv-x="1128" d="M12 0l488 1317h127l481 -1317h-92l-166 455h-578l-166 -455h-94zM260 1589q22 60 73 108t105 48q46 0 133 -38t134 -38q40 0 62.5 22.5t27.5 53.5h71q-13 -61 -61 -108.5t-107 -47.5q-50 0 -140 41t-132 41q-29 0 -54 -26.5t-36 -55.5h-76zM299 526h526l-256 711h-8z" />
<glyph unicode="&#xc4;" horiz-adv-x="1128" d="M12 0l488 1317h127l481 -1317h-92l-166 455h-578l-166 -455h-94zM299 526h526l-256 711h-8zM399 1565v161h84v-161h-84zM645 1565v161h84v-161h-84z" />
<glyph unicode="&#xc5;" horiz-adv-x="1128" d="M12 0l453 1223q-43 26 -68.5 67.5t-25.5 91.5q0 76 56 130.5t132 54.5q78 0 136.5 -48t58.5 -122q0 -54 -25.5 -99.5t-69.5 -72.5l449 -1225h-92l-166 455h-578l-166 -455h-94zM299 526h526l-241 670h-39zM449 1382q0 -54 31.5 -86t84.5 -32q50 0 80.5 32t30.5 84 q0 54 -31.5 87.5t-85.5 33.5q-51 0 -80.5 -34.5t-29.5 -84.5z" />
<glyph unicode="&#xc6;" horiz-adv-x="1591" d="M-18 0l651 1317h901v-72h-623v-514h502v-72h-502v-587h639v-72h-727v455h-528l-221 -455h-92zM330 526h493v719h-141z" />
<glyph unicode="&#xc7;" horiz-adv-x="1007" d="M92 678q0 185 40 315.5t120.5 209.5t193 115t265.5 36q116 0 260 -33v-82q-180 45 -271 45q-128 0 -221 -32t-160 -102.5t-100 -188t-33 -283.5q0 -338 112.5 -491.5t385.5 -153.5q119 0 297 57v-82q-160 -45 -307 -45l-17 -59q64 -16 105 -54t41 -96q0 -172 -254 -172 v56q92 0 135 27.5t43 84.5q0 42 -43.5 70.5t-112.5 34.5l35 110q-118 7 -207 43.5t-147 96t-94 148t-51 191t-15 234.5z" />
<glyph unicode="&#xc8;" horiz-adv-x="952" d="M164 0v1317h731v-72h-643v-514h522v-72h-522v-587h659v-72h-747zM360 1784h101l129 -268h-76z" />
<glyph unicode="&#xc9;" horiz-adv-x="952" d="M164 0v1317h731v-72h-643v-514h522v-72h-522v-587h659v-72h-747zM360 1516l129 268h101l-154 -268h-76z" />
<glyph unicode="&#xca;" horiz-adv-x="952" d="M164 0v1317h731v-72h-643v-514h522v-72h-522v-587h659v-72h-747zM258 1516l160 268h117l159 -268h-76l-143 192l-143 -192h-74z" />
<glyph unicode="&#xcb;" horiz-adv-x="952" d="M164 0v1317h731v-72h-643v-514h522v-72h-522v-587h659v-72h-747zM356 1565v161h84v-161h-84zM602 1565v161h84v-161h-84z" />
<glyph unicode="&#xcc;" horiz-adv-x="432" d="M100 1784h101l129 -268h-76zM172 0v1317h88v-1317h-88z" />
<glyph unicode="&#xcd;" horiz-adv-x="432" d="M100 1516l129 268h101l-154 -268h-76zM172 0v1317h88v-1317h-88z" />
<glyph unicode="&#xce;" horiz-adv-x="432" d="M-2 1516l160 268h116l160 -268h-76l-143 192l-143 -192h-74zM172 0v1317h88v-1317h-88z" />
<glyph unicode="&#xcf;" horiz-adv-x="432" d="M51 1565v161h84v-161h-84zM172 0v1317h88v-1317h-88zM297 1565v161h84v-161h-84z" />
<glyph unicode="&#xd0;" horiz-adv-x="1271" d="M61 659v72h103v586h379q142 0 252.5 -34t181.5 -92t117 -141.5t65 -176.5t19 -203q0 -322 -163 -496t-468 -174h-383v659h-103zM252 72h303q261 0 395.5 155t134.5 443q0 575 -542 575h-291v-514h272v-72h-272v-587z" />
<glyph unicode="&#xd1;" horiz-adv-x="1335" d="M164 0v1317h123l803 -1176v1176h81v-1317h-90l-835 1231v-1231h-82zM365 1589q22 60 73 108t105 48q46 0 132.5 -38t133.5 -38q40 0 62.5 22.5t27.5 53.5h72q-13 -61 -61 -108.5t-107 -47.5q-51 0 -141 41t-132 41q-29 0 -54 -26.5t-36 -55.5h-75z" />
<glyph unicode="&#xd2;" horiz-adv-x="1347" d="M121 657q0 190 36 325t109.5 217t176 119.5t243.5 37.5q142 0 245 -37.5t176.5 -119.5t109.5 -217t36 -325t-36 -324.5t-109.5 -216t-176.5 -118.5t-245 -37q-141 0 -243.5 37t-176 118.5t-109.5 216t-36 324.5zM215 657q0 -327 113 -475.5t358 -148.5q246 0 359.5 148.5 t113.5 475.5q0 326 -114 476.5t-359 150.5t-358 -150t-113 -477zM559 1784h100l129 -268h-75z" />
<glyph unicode="&#xd3;" horiz-adv-x="1347" d="M121 657q0 190 36 325t109.5 217t176 119.5t243.5 37.5q142 0 245 -37.5t176.5 -119.5t109.5 -217t36 -325t-36 -324.5t-109.5 -216t-176.5 -118.5t-245 -37q-141 0 -243.5 37t-176 118.5t-109.5 216t-36 324.5zM215 657q0 -327 113 -475.5t358 -148.5q246 0 359.5 148.5 t113.5 475.5q0 326 -114 476.5t-359 150.5t-358 -150t-113 -477zM559 1516l129 268h100l-153 -268h-76z" />
<glyph unicode="&#xd4;" horiz-adv-x="1347" d="M121 657q0 190 36 325t109.5 217t176 119.5t243.5 37.5q142 0 245 -37.5t176.5 -119.5t109.5 -217t36 -325t-36 -324.5t-109.5 -216t-176.5 -118.5t-245 -37q-141 0 -243.5 37t-176 118.5t-109.5 216t-36 324.5zM215 657q0 -327 113 -475.5t358 -148.5q246 0 359.5 148.5 t113.5 475.5q0 326 -114 476.5t-359 150.5t-358 -150t-113 -477zM455 1516l159 268h117l160 -268h-76l-143 192l-144 -192h-73z" />
<glyph unicode="&#xd5;" horiz-adv-x="1347" d="M121 657q0 190 36 325t109.5 217t176 119.5t243.5 37.5q142 0 245 -37.5t176.5 -119.5t109.5 -217t36 -325t-36 -324.5t-109.5 -216t-176.5 -118.5t-245 -37q-141 0 -243.5 37t-176 118.5t-109.5 216t-36 324.5zM215 657q0 -327 113 -475.5t358 -148.5q246 0 359.5 148.5 t113.5 475.5q0 326 -114 476.5t-359 150.5t-358 -150t-113 -477zM371 1589q22 60 73 108t105 48q46 0 132.5 -38t133.5 -38q40 0 62.5 22.5t27.5 53.5h72q-13 -61 -61 -108.5t-107 -47.5q-51 0 -141 41t-131 41q-29 0 -54.5 -26.5t-36.5 -55.5h-75z" />
<glyph unicode="&#xd6;" horiz-adv-x="1347" d="M121 657q0 190 36 325t109.5 217t176 119.5t243.5 37.5q142 0 245 -37.5t176.5 -119.5t109.5 -217t36 -325t-36 -324.5t-109.5 -216t-176.5 -118.5t-245 -37q-141 0 -243.5 37t-176 118.5t-109.5 216t-36 324.5zM215 657q0 -327 113 -475.5t358 -148.5q246 0 359.5 148.5 t113.5 475.5q0 326 -114 476.5t-359 150.5t-358 -150t-113 -477zM508 1565v161h84v-161h-84zM754 1565v161h84v-161h-84z" />
<glyph unicode="&#xd7;" d="M229 393l232 230l-232 229l52 51l229 -229l231 231l52 -51l-232 -231l232 -232l-52 -51l-231 231l-229 -229z" />
<glyph unicode="&#xd8;" horiz-adv-x="1347" d="M121 657q0 190 36 325t109.5 217t176 119.5t243.5 37.5q142 0 245 -37.5t176.5 -119.5t109.5 -217t36 -325t-36 -324.5t-109.5 -216t-176.5 -118.5t-245 -37q-141 0 -243.5 37t-176 118.5t-109.5 216t-36 324.5zM215 657q0 -325 113 -477l686 987q-111 117 -328 117 q-245 0 -358 -150t-113 -477zM379 125q111 -92 307 -92q246 0 359.5 148.5t113.5 475.5q0 295 -94 447z" />
<glyph unicode="&#xd9;" horiz-adv-x="1228" d="M160 393v924h88v-924q0 -87 18.5 -152t50 -104t80 -63t99.5 -32.5t118 -8.5t118.5 8.5t100 32.5t79.5 63t50 104t19 152v924h88v-924q0 -123 -31 -208.5t-92.5 -133t-141.5 -68t-190 -20.5t-189.5 20.5t-141 68t-92.5 133t-31 208.5zM500 1784h100l129 -268h-76z" />
<glyph unicode="&#xda;" horiz-adv-x="1228" d="M160 393v924h88v-924q0 -87 18.5 -152t50 -104t80 -63t99.5 -32.5t118 -8.5t118.5 8.5t100 32.5t79.5 63t50 104t19 152v924h88v-924q0 -123 -31 -208.5t-92.5 -133t-141.5 -68t-190 -20.5t-189.5 20.5t-141 68t-92.5 133t-31 208.5zM500 1516l129 268h100l-154 -268h-75 z" />
<glyph unicode="&#xdb;" horiz-adv-x="1228" d="M160 393v924h88v-924q0 -87 18.5 -152t50 -104t80 -63t99.5 -32.5t118 -8.5t118.5 8.5t100 32.5t79.5 63t50 104t19 152v924h88v-924q0 -123 -31 -208.5t-92.5 -133t-141.5 -68t-190 -20.5t-189.5 20.5t-141 68t-92.5 133t-31 208.5zM395 1516l160 268h117l159 -268h-75 l-144 192l-143 -192h-74z" />
<glyph unicode="&#xdc;" horiz-adv-x="1228" d="M160 393v924h88v-924q0 -87 18.5 -152t50 -104t80 -63t99.5 -32.5t118 -8.5t118.5 8.5t100 32.5t79.5 63t50 104t19 152v924h88v-924q0 -123 -31 -208.5t-92.5 -133t-141.5 -68t-190 -20.5t-189.5 20.5t-141 68t-92.5 133t-31 208.5zM449 1565v161h83v-161h-83zM694 1565 v161h84v-161h-84z" />
<glyph unicode="&#xdd;" horiz-adv-x="1040" d="M51 1317h103l368 -662l391 662h99l-447 -750v-567h-88v567zM406 1516l129 268h100l-154 -268h-75z" />
<glyph unicode="&#xde;" horiz-adv-x="1083" d="M164 0v1317h88v-246h385q198 0 294.5 -94.5t96.5 -265.5q0 -104 -35 -181t-97 -121t-139 -64.5t-169 -20.5h-336v-324h-88zM252 395h346q148 0 245 79.5t97 230.5q0 144 -85 219t-245 75h-358v-604z" />
<glyph unicode="&#xdf;" horiz-adv-x="993" d="M135 0v938q0 240 82.5 350.5t274.5 110.5q160 0 240.5 -95t80.5 -257q0 -77 -25 -185q-65 10 -108 10q-81 0 -144 -39t-63 -104q0 -69 44 -114.5t165 -102.5q141 -66 200.5 -130.5t59.5 -160.5q0 -82 -49 -141t-119 -84t-149 -25q-134 0 -246 33v84q123 -49 235 -49 q48 0 89.5 9t77.5 28.5t56.5 54.5t20.5 82q0 72 -52.5 125t-189.5 117q-114 54 -170.5 115t-56.5 145q0 104 85.5 164.5t221.5 60.5h21q12 67 12 104q0 130 -61 203.5t-185 73.5q-137 0 -200.5 -83.5t-63.5 -270.5v-967h-84z" />
<glyph unicode="&#xe0;" horiz-adv-x="923" d="M72 242q0 135 86 205.5t258 70.5h289v131q0 115 -68 168t-203 53q-144 0 -278 -55v80q158 43 282 43q181 0 265.5 -68t84.5 -223v-647h-83v84q-53 -46 -136 -80.5t-176 -34.5q-152 0 -236.5 70.5t-84.5 202.5zM158 244q0 -102 64 -154.5t184 -52.5q87 0 168 32.5 t131 75.5v306h-287q-143 0 -201.5 -51.5t-58.5 -155.5zM346 1374h100l129 -268h-75z" />
<glyph unicode="&#xe1;" horiz-adv-x="923" d="M72 242q0 135 86 205.5t258 70.5h289v131q0 115 -68 168t-203 53q-144 0 -278 -55v80q158 43 282 43q181 0 265.5 -68t84.5 -223v-647h-83v84q-53 -46 -136 -80.5t-176 -34.5q-152 0 -236.5 70.5t-84.5 202.5zM158 244q0 -102 64 -154.5t184 -52.5q87 0 168 32.5 t131 75.5v306h-287q-143 0 -201.5 -51.5t-58.5 -155.5zM346 1106l129 268h100l-153 -268h-76z" />
<glyph unicode="&#xe2;" horiz-adv-x="923" d="M72 242q0 135 86 205.5t258 70.5h289v131q0 115 -68 168t-203 53q-144 0 -278 -55v80q158 43 282 43q181 0 265.5 -68t84.5 -223v-647h-83v84q-53 -46 -136 -80.5t-176 -34.5q-152 0 -236.5 70.5t-84.5 202.5zM158 244q0 -102 64 -154.5t184 -52.5q87 0 168 32.5 t131 75.5v306h-287q-143 0 -201.5 -51.5t-58.5 -155.5zM244 1106l159 268h117l160 -268h-76l-143 192l-144 -192h-73z" />
<glyph unicode="&#xe3;" horiz-adv-x="923" d="M72 242q0 135 86 205.5t258 70.5h289v131q0 115 -68 168t-203 53q-144 0 -278 -55v80q158 43 282 43q181 0 265.5 -68t84.5 -223v-647h-83v84q-53 -46 -136 -80.5t-176 -34.5q-152 0 -236.5 70.5t-84.5 202.5zM158 244q0 -102 64 -154.5t184 -52.5q87 0 168 32.5 t131 75.5v306h-287q-143 0 -201.5 -51.5t-58.5 -155.5zM158 1180q22 60 73 107.5t105 47.5q46 0 132.5 -37.5t133.5 -37.5q40 0 62.5 22t27.5 53h72q-13 -61 -61 -108t-107 -47q-50 0 -140 41t-132 41q-29 0 -54.5 -26.5t-36.5 -55.5h-75z" />
<glyph unicode="&#xe4;" horiz-adv-x="923" d="M72 242q0 135 86 205.5t258 70.5h289v131q0 115 -68 168t-203 53q-144 0 -278 -55v80q158 43 282 43q181 0 265.5 -68t84.5 -223v-647h-83v84q-53 -46 -136 -80.5t-176 -34.5q-152 0 -236.5 70.5t-84.5 202.5zM158 244q0 -102 64 -154.5t184 -52.5q87 0 168 32.5 t131 75.5v306h-287q-143 0 -201.5 -51.5t-58.5 -155.5zM297 1155v162h84v-162h-84zM543 1155v162h84v-162h-84z" />
<glyph unicode="&#xe5;" horiz-adv-x="923" d="M72 242q0 135 86 205.5t258 70.5h289v131q0 115 -68 168t-203 53q-144 0 -278 -55v80q158 43 282 43q181 0 265.5 -68t84.5 -223v-647h-83v84q-53 -46 -136 -80.5t-176 -34.5q-152 0 -236.5 70.5t-84.5 202.5zM158 244q0 -102 64 -154.5t184 -52.5q87 0 168 32.5 t131 75.5v306h-287q-143 0 -201.5 -51.5t-58.5 -155.5zM270 1249q0 76 56.5 130.5t132.5 54.5q78 0 136 -48t58 -122q0 -84 -55.5 -142.5t-136.5 -58.5q-77 0 -134 55t-57 131zM340 1249q0 -54 36 -90.5t89 -36.5q50 0 84.5 36.5t34.5 88.5q0 54 -35.5 91.5t-89.5 37.5 q-51 0 -85 -39t-34 -88z" />
<glyph unicode="&#xe6;" horiz-adv-x="1550" d="M72 240q0 272 356 272h277v137q0 122 -70.5 171.5t-210.5 49.5q-134 0 -268 -55v76q172 47 293 47q141 0 216.5 -41.5t100.5 -134.5q97 176 315 176q357 0 357 -381v-102h-652q0 -100 21.5 -175.5t56.5 -120t86 -72t101.5 -37t111.5 -9.5q92 0 234 45v-72 q-136 -43 -271 -43q-243 0 -348 170q-91 -84 -180 -127t-225 -43q-137 0 -219 69.5t-82 199.5zM158 244q0 -103 60 -154t185 -51q99 0 182.5 40t168.5 114q-46 108 -49 258h-267q-280 0 -280 -207zM788 518h570v25q0 99 -21 166t-61.5 101t-87 47t-109.5 13q-139 0 -215 -89 t-76 -263z" />
<glyph unicode="&#xe7;" horiz-adv-x="794" d="M94 442q0 241 115 368.5t328 127.5q96 0 186 -25v-75q-38 12 -93 22t-89 10q-363 0 -363 -428q0 -203 100.5 -304t270.5 -101q85 0 194 37v-72q-111 -33 -219 -33h-6l-18 -65q64 -16 104.5 -54t40.5 -96q0 -172 -254 -172v56q92 0 135 27.5t43 84.5q0 42 -43 70.5 t-112 34.5l39 118q-176 20 -267.5 141t-91.5 328z" />
<glyph unicode="&#xe8;" horiz-adv-x="944" d="M94 475q0 228 98 345.5t285 117.5q167 0 260.5 -96.5t93.5 -284.5v-106h-651q0 -95 21.5 -169t55.5 -118.5t82 -73t96 -39t102 -10.5q120 0 254 49v-78q-130 -41 -271 -41q-70 0 -129 13.5t-115 49t-95.5 91t-63 145t-23.5 205.5zM182 518h570v25q0 327 -277 327 q-134 0 -213.5 -88t-79.5 -264zM356 1374h101l129 -268h-76z" />
<glyph unicode="&#xe9;" horiz-adv-x="944" d="M94 475q0 228 98 345.5t285 117.5q167 0 260.5 -96.5t93.5 -284.5v-106h-651q0 -95 21.5 -169t55.5 -118.5t82 -73t96 -39t102 -10.5q120 0 254 49v-78q-130 -41 -271 -41q-70 0 -129 13.5t-115 49t-95.5 91t-63 145t-23.5 205.5zM182 518h570v25q0 327 -277 327 q-134 0 -213.5 -88t-79.5 -264zM356 1106l129 268h101l-154 -268h-76z" />
<glyph unicode="&#xea;" horiz-adv-x="944" d="M94 475q0 228 98 345.5t285 117.5q167 0 260.5 -96.5t93.5 -284.5v-106h-651q0 -95 21.5 -169t55.5 -118.5t82 -73t96 -39t102 -10.5q120 0 254 49v-78q-130 -41 -271 -41q-70 0 -129 13.5t-115 49t-95.5 91t-63 145t-23.5 205.5zM182 518h570v25q0 327 -277 327 q-134 0 -213.5 -88t-79.5 -264zM254 1106l160 268h116l160 -268h-76l-143 192l-143 -192h-74z" />
<glyph unicode="&#xeb;" horiz-adv-x="944" d="M94 475q0 228 98 345.5t285 117.5q167 0 260.5 -96.5t93.5 -284.5v-106h-651q0 -95 21.5 -169t55.5 -118.5t82 -73t96 -39t102 -10.5q120 0 254 49v-78q-130 -41 -271 -41q-70 0 -129 13.5t-115 49t-95.5 91t-63 145t-23.5 205.5zM182 518h570v25q0 327 -277 327 q-134 0 -213.5 -88t-79.5 -264zM307 1155v162h84v-162h-84zM553 1155v162h84v-162h-84z" />
<glyph unicode="&#xec;" horiz-adv-x="378" d="M74 1374h100l129 -268h-76zM147 0v907h84v-907h-84z" />
<glyph unicode="&#xed;" horiz-adv-x="378" d="M74 1106l129 268h100l-153 -268h-76zM147 0v907h84v-907h-84z" />
<glyph unicode="&#xee;" horiz-adv-x="378" d="M-29 1106l160 268h117l160 -268h-76l-144 192l-143 -192h-74zM147 0v907h84v-907h-84z" />
<glyph unicode="&#xef;" horiz-adv-x="378" d="M25 1155v162h84v-162h-84zM147 0v907h84v-907h-84zM270 1155v162h84v-162h-84z" />
<glyph unicode="&#xf0;" horiz-adv-x="1003" d="M94 465q0 473 408 473q67 0 130 -19t101 -45q-24 69 -93.5 162t-160.5 183l-176 -76l-27 65l146 62q-85 76 -170 129h143q75 -58 115 -92l162 69l28 -63l-135 -58q70 -70 128 -149.5t108.5 -178t79 -217.5t28.5 -245q0 -264 -101 -380t-306 -116t-306.5 116t-101.5 380z M178 465q0 -107 18 -185.5t46 -124t72 -73t87.5 -36.5t100.5 -9t100.5 9t87 36.5t72 73t46 124t17.5 185.5q0 115 -23 195t-67 125.5t-100.5 65t-132.5 19.5t-132.5 -19.5t-101 -65t-67.5 -125.5t-23 -195z" />
<glyph unicode="&#xf1;" horiz-adv-x="997" d="M135 0v907h84v-65q61 36 160 69t188 33q136 0 215.5 -77.5t79.5 -231.5v-635h-84v631q0 116 -61 175.5t-168 59.5q-154 0 -330 -90v-776h-84zM195 1180q22 60 73 107.5t105 47.5q46 0 132.5 -37.5t133.5 -37.5q41 0 63 22t27 53h72q-13 -61 -61 -108t-107 -47 q-51 0 -141 41t-132 41q-29 0 -54 -26.5t-36 -55.5h-75z" />
<glyph unicode="&#xf2;" horiz-adv-x="1003" d="M94 465q0 473 408 473q407 0 407 -473q0 -264 -101 -380t-306 -116t-306.5 116t-101.5 380zM178 465q0 -107 18 -185.5t46 -124t72 -73t87.5 -36.5t100.5 -9t100.5 9t87 36.5t72 73t46 124t17.5 185.5q0 115 -23 195t-67 125.5t-100.5 65t-132.5 19.5t-132.5 -19.5 t-101 -65t-67.5 -125.5t-23 -195zM387 1374h100l129 -268h-75z" />
<glyph unicode="&#xf3;" horiz-adv-x="1003" d="M94 465q0 473 408 473q407 0 407 -473q0 -264 -101 -380t-306 -116t-306.5 116t-101.5 380zM178 465q0 -107 18 -185.5t46 -124t72 -73t87.5 -36.5t100.5 -9t100.5 9t87 36.5t72 73t46 124t17.5 185.5q0 115 -23 195t-67 125.5t-100.5 65t-132.5 19.5t-132.5 -19.5 t-101 -65t-67.5 -125.5t-23 -195zM387 1106l129 268h100l-153 -268h-76z" />
<glyph unicode="&#xf4;" horiz-adv-x="1003" d="M94 465q0 473 408 473q407 0 407 -473q0 -264 -101 -380t-306 -116t-306.5 116t-101.5 380zM178 465q0 -107 18 -185.5t46 -124t72 -73t87.5 -36.5t100.5 -9t100.5 9t87 36.5t72 73t46 124t17.5 185.5q0 115 -23 195t-67 125.5t-100.5 65t-132.5 19.5t-132.5 -19.5 t-101 -65t-67.5 -125.5t-23 -195zM283 1106l159 268h117l160 -268h-76l-143 192l-144 -192h-73z" />
<glyph unicode="&#xf5;" horiz-adv-x="1003" d="M94 465q0 473 408 473q407 0 407 -473q0 -264 -101 -380t-306 -116t-306.5 116t-101.5 380zM178 465q0 -107 18 -185.5t46 -124t72 -73t87.5 -36.5t100.5 -9t100.5 9t87 36.5t72 73t46 124t17.5 185.5q0 115 -23 195t-67 125.5t-100.5 65t-132.5 19.5t-132.5 -19.5 t-101 -65t-67.5 -125.5t-23 -195zM199 1180q22 60 73 107.5t105 47.5q46 0 132.5 -37.5t133.5 -37.5q41 0 63 22t27 53h72q-13 -61 -61 -108t-107 -47q-51 0 -141 41t-131 41q-29 0 -54.5 -26.5t-36.5 -55.5h-75z" />
<glyph unicode="&#xf6;" horiz-adv-x="1003" d="M94 465q0 473 408 473q407 0 407 -473q0 -264 -101 -380t-306 -116t-306.5 116t-101.5 380zM178 465q0 -107 18 -185.5t46 -124t72 -73t87.5 -36.5t100.5 -9t100.5 9t87 36.5t72 73t46 124t17.5 185.5q0 115 -23 195t-67 125.5t-100.5 65t-132.5 19.5t-132.5 -19.5 t-101 -65t-67.5 -125.5t-23 -195zM336 1155v162h84v-162h-84zM582 1155v162h84v-162h-84z" />
<glyph unicode="&#xf7;" d="M150 588v71h724v-71h-724zM449 164v149h126v-149h-126zM449 922v149h126v-149h-126z" />
<glyph unicode="&#xf8;" horiz-adv-x="1003" d="M94 465q0 473 408 473q407 0 407 -473q0 -264 -101 -380t-306 -116t-306.5 116t-101.5 380zM178 465q0 -215 70 -318l467 658q-76 65 -213 65q-76 0 -132.5 -19.5t-101 -65t-67.5 -125.5t-23 -195zM293 96q72 -59 209 -59q57 0 100.5 9t87 36.5t72 73t46 124t17.5 185.5 q0 183 -63 285z" />
<glyph unicode="&#xf9;" horiz-adv-x="997" d="M135 272v635h86v-631q0 -116 60.5 -175.5t167.5 -59.5q153 0 329 90v776h84v-907h-84v66q-62 -36 -160.5 -69.5t-187.5 -33.5q-136 0 -215.5 77.5t-79.5 231.5zM383 1374h100l129 -268h-75z" />
<glyph unicode="&#xfa;" horiz-adv-x="997" d="M135 272v635h86v-631q0 -116 60.5 -175.5t167.5 -59.5q153 0 329 90v776h84v-907h-84v66q-62 -36 -160.5 -69.5t-187.5 -33.5q-136 0 -215.5 77.5t-79.5 231.5zM383 1106l129 268h100l-153 -268h-76z" />
<glyph unicode="&#xfb;" horiz-adv-x="997" d="M135 272v635h86v-631q0 -116 60.5 -175.5t167.5 -59.5q153 0 329 90v776h84v-907h-84v66q-62 -36 -160.5 -69.5t-187.5 -33.5q-136 0 -215.5 77.5t-79.5 231.5zM281 1106l159 268h117l160 -268h-76l-143 192l-144 -192h-73z" />
<glyph unicode="&#xfc;" horiz-adv-x="997" d="M135 272v635h86v-631q0 -116 60.5 -175.5t167.5 -59.5q153 0 329 90v776h84v-907h-84v66q-62 -36 -160.5 -69.5t-187.5 -33.5q-136 0 -215.5 77.5t-79.5 231.5zM334 1155v162h84v-162h-84zM580 1155v162h84v-162h-84z" />
<glyph unicode="&#xfd;" horiz-adv-x="847" d="M8 907h90l332 -790l328 790h82l-561 -1358h-91l201 471zM309 1106l129 268h101l-154 -268h-76z" />
<glyph unicode="&#xfe;" horiz-adv-x="1048" d="M139 -451v1850h84v-533q144 72 316 72q59 0 112 -12t106.5 -43.5t92 -81t62.5 -130t24 -184.5q0 -135 -37.5 -236.5t-105 -161.5t-152.5 -89t-188 -29q-128 0 -230 19v-441h-84zM223 68q105 -31 213 -31q68 0 127.5 13.5t113.5 46t92 82t60.5 126.5t22.5 174 q0 206 -89.5 298.5t-242.5 92.5q-185 0 -297 -63v-739z" />
<glyph unicode="&#xff;" horiz-adv-x="847" d="M8 907h90l332 -790l328 790h82l-561 -1358h-91l201 471zM258 1155v162h84v-162h-84zM504 1155v162h84v-162h-84z" />
<glyph unicode="&#x152;" horiz-adv-x="1726" d="M94 670q0 110 19 203t65 176.5t117 141.5t181.5 92t252.5 34h940v-72h-643v-514h522v-72h-522v-587h660v-72h-961q-305 0 -468 174t-163 496zM186 670q0 -288 135 -443t396 -155h221v1173h-209q-543 0 -543 -575z" />
<glyph unicode="&#x153;" horiz-adv-x="1671" d="M94 465q0 473 408 473q278 0 362 -225q80 225 340 225q167 0 261 -96.5t94 -284.5v-106h-652q0 -95 21.5 -169t55.5 -118.5t82 -73t96 -39t102 -10.5q120 0 254 49v-78q-130 -41 -271 -41q-285 0 -377 238q-40 -126 -131.5 -183t-236.5 -57q-205 0 -306.5 116t-101.5 380 zM178 465q0 -107 18 -185.5t46 -124t72 -73t87.5 -36.5t100.5 -9t100.5 9t87 36.5t72 73t46 124t17.5 185.5q0 115 -23 195t-67 125.5t-100.5 65t-132.5 19.5t-132.5 -19.5t-101 -65t-67.5 -125.5t-23 -195zM909 518h570v25q0 327 -277 327q-134 0 -213.5 -88t-79.5 -264z " />
<glyph unicode="&#x178;" horiz-adv-x="1040" d="M51 1317h103l368 -662l391 662h99l-447 -750v-567h-88v567zM354 1565v161h84v-161h-84zM600 1565v161h84v-161h-84z" />
<glyph unicode="&#x2c6;" horiz-adv-x="600" d="M82 1106l160 268h116l160 -268h-76l-143 192l-143 -192h-74z" />
<glyph unicode="&#x2dc;" horiz-adv-x="688" d="M41 1180q22 60 73 107.5t105 47.5q46 0 132.5 -37.5t133.5 -37.5q41 0 63 22t27 53h72q-13 -61 -61 -108t-107 -47q-51 0 -141 41t-131 41q-29 0 -54 -26.5t-36 -55.5h-76z" />
<glyph unicode="&#x2000;" horiz-adv-x="892" />
<glyph unicode="&#x2001;" horiz-adv-x="1784" />
<glyph unicode="&#x2002;" horiz-adv-x="892" />
<glyph unicode="&#x2003;" horiz-adv-x="1784" />
<glyph unicode="&#x2004;" horiz-adv-x="594" />
<glyph unicode="&#x2005;" horiz-adv-x="446" />
<glyph unicode="&#x2006;" horiz-adv-x="297" />
<glyph unicode="&#x2007;" horiz-adv-x="297" />
<glyph unicode="&#x2008;" horiz-adv-x="223" />
<glyph unicode="&#x2009;" horiz-adv-x="356" />
<glyph unicode="&#x200a;" horiz-adv-x="99" />
<glyph unicode="&#x2010;" horiz-adv-x="483" d="M41 469v72h401v-72h-401z" />
<glyph unicode="&#x2011;" horiz-adv-x="483" d="M41 469v72h401v-72h-401z" />
<glyph unicode="&#x2012;" horiz-adv-x="483" d="M41 469v72h401v-72h-401z" />
<glyph unicode="&#x2013;" d="M0 506v72h1024v-72h-1024z" />
<glyph unicode="&#x2014;" horiz-adv-x="2048" d="M0 506v72h2048v-72h-2048z" />
<glyph unicode="&#x2018;" horiz-adv-x="270" d="M51 926v129l88 262h60l-70 -242h49v-149h-127z" />
<glyph unicode="&#x2019;" horiz-adv-x="270" d="M51 926l70 241h-49v150h127v-129l-88 -262h-60z" />
<glyph unicode="&#x201a;" horiz-adv-x="270" d="M51 -242l70 242h-49v150h127v-130l-88 -262h-60z" />
<glyph unicode="&#x201c;" horiz-adv-x="536" d="M51 926v129l88 262h60l-70 -242h49v-149h-127zM317 926v129l89 262h59l-70 -242h49v-149h-127z" />
<glyph unicode="&#x201d;" horiz-adv-x="536" d="M51 926l70 241h-49v150h127v-129l-88 -262h-60zM317 926l70 241h-49v150h127v-129l-88 -262h-60z" />
<glyph unicode="&#x201e;" horiz-adv-x="536" d="M51 -242l70 242h-49v150h127v-130l-88 -262h-60zM317 -242l70 242h-49v150h127v-130l-88 -262h-60z" />
<glyph unicode="&#x2022;" horiz-adv-x="942" d="M119 698q0 146 105 247.5t253 101.5q141 0 243.5 -102t102.5 -247q0 -146 -104.5 -248t-253.5 -102q-140 0 -243 102.5t-103 247.5z" />
<glyph unicode="&#x2026;" horiz-adv-x="811" d="M72 0v150h127v-150h-127zM342 0v150h127v-150h-127zM612 0v150h127v-150h-127z" />
<glyph unicode="&#x202f;" horiz-adv-x="356" />
<glyph unicode="&#x2039;" horiz-adv-x="573" d="M141 475l226 350h86l-205 -350l205 -350h-86z" />
<glyph unicode="&#x203a;" horiz-adv-x="573" d="M121 125l205 350l-205 350h86l225 -350l-225 -350h-86z" />
<glyph unicode="&#x205f;" horiz-adv-x="446" />
<glyph unicode="&#x20ac;" d="M111 498v71h159v76q0 72 2 107h-161v71h168q29 250 139 372t287 122q62 0 131.5 -13t117.5 -38l-14 -80q-41 31 -108.5 48t-126.5 17q-135 0 -226 -101t-117 -327h496l-16 -71h-484q-4 -70 -4 -107q0 -51 2 -76h447l-17 -71h-426q42 -461 365 -461q66 0 140.5 19.5 t107.5 43.5v-80q-40 -18 -112.5 -34.5t-135.5 -16.5q-401 0 -449 529h-165z" />
<glyph unicode="&#x2122;" horiz-adv-x="1220" d="M33 1253v64h420v-64h-172v-501h-76v501h-172zM535 752v565h122l164 -504l166 504h119v-565h-72v479l-157 -479h-107l-164 479v-479h-71z" />
<glyph unicode="&#xe000;" horiz-adv-x="911" d="M0 0v911h911v-911h-911z" />
<glyph unicode="&#xfb01;" horiz-adv-x="915" d="M29 840v67h157v215q0 135 74 206t209 71q63 0 106 -13v-69q-47 14 -106 14q-102 0 -150.5 -50t-48.5 -159v-215h244v-67h-244v-840h-84v840h-157zM684 0v907h84v-907h-84zM684 1155v162h84v-162h-84z" />
<glyph unicode="&#xfb02;" horiz-adv-x="915" d="M29 840v67h157v215q0 135 74 206t209 71q63 0 106 -13v-69q-47 14 -106 14q-102 0 -150.5 -50t-48.5 -159v-215h244v-67h-244v-840h-84v840h-157zM684 0v1399h84v-1399h-84z" />
<glyph unicode="&#xfb03;" horiz-adv-x="1452" d="M29 840v67h157v215q0 135 74 206t209 71q63 0 106 -13v-69q-47 14 -106 14q-102 0 -150.5 -50t-48.5 -159v-215h244v-67h-244v-840h-84v840h-157zM565 840v67h158v215q0 135 74 206t209 71q63 0 106 -13v-69q-47 14 -106 14q-102 0 -150.5 -50t-48.5 -159v-215h244v-67 h-244v-840h-84v840h-158zM1221 0v907h84v-907h-84zM1221 1155v162h84v-162h-84z" />
<glyph unicode="&#xfb04;" horiz-adv-x="1452" d="M29 840v67h157v215q0 135 74 206t209 71q63 0 106 -13v-69q-47 14 -106 14q-102 0 -150.5 -50t-48.5 -159v-215h244v-67h-244v-840h-84v840h-157zM565 840v67h158v215q0 135 74 206t209 71q63 0 106 -13v-69q-47 14 -106 14q-102 0 -150.5 -50t-48.5 -159v-215h244v-67 h-244v-840h-84v840h-158zM1221 0v1399h84v-1399h-84z" />
</font>
</defs>
</svg>
