<?xml version="1.0" standalone="no"?>
<!DOCTYPE svg PUBLIC "-//W3C//DTD SVG 1.1//EN" "http://www.w3.org/Graphics/SVG/1.1/DTD/svg11.dtd" >
<svg xmlns="http://www.w3.org/2000/svg">
<metadata></metadata>
<defs>
<font id="lf_press_sans_demiboldregular" horiz-adv-x="1024" >
<font-face units-per-em="2048" ascent="1536" descent="-512" />
<missing-glyph horiz-adv-x="368" />
<glyph horiz-adv-x="2048" />
<glyph horiz-adv-x="2048" />
<glyph unicode="&#xd;" horiz-adv-x="2048" />
<glyph unicode=" "  horiz-adv-x="368" />
<glyph unicode="&#x09;" horiz-adv-x="368" />
<glyph unicode="&#xa0;" horiz-adv-x="368" />
<glyph unicode="!" horiz-adv-x="569" d="M154 1317h262l-76 -924h-113zM162 0v223h233v-223h-233z" />
<glyph unicode="&#x22;" horiz-adv-x="731" d="M78 913l20 404h209l-71 -404h-158zM436 913l21 404h209l-72 -404h-158z" />
<glyph unicode="#" d="M55 418l23 110h198l52 256h-199l23 111h198l86 418h113l-86 -418h194l86 418h113l-86 -418h199l-23 -111h-198l-52 -256h199l-23 -110h-198l-84 -418h-113l84 418h-194l-84 -418h-113l84 418h-199zM389 528h195l51 256h-195z" />
<glyph unicode="$" d="M104 967q0 141 92 228.5t246 109.5v215h129v-207q137 -6 269 -49v-189q-127 67 -269 80v-399q46 -23 72 -37t68 -40t67 -47t55.5 -52t47 -62.5t28 -72t11.5 -85.5q0 -155 -99 -254t-250 -129v-210h-129v196q-79 0 -170.5 16t-156.5 39v193q76 -38 166 -65t161 -27v475 q-148 82 -205 128q-132 107 -133 245zM322 999q0 -94 120 -172v316q-55 -19 -87.5 -57t-32.5 -87zM571 143q125 54 125 181q0 57 -32.5 102t-92.5 90v-373z" />
<glyph unicode="%" horiz-adv-x="1843" d="M102 934q0 95 32.5 171t85.5 121t114 68t123 23t123 -23t113.5 -68t85 -121t32.5 -171q0 -102 -31.5 -182.5t-83.5 -128t-113 -71.5t-126 -24t-126 24t-113.5 71.5t-84 128t-31.5 182.5zM297 926q0 -124 42.5 -186t117.5 -62q74 0 116.5 62t42.5 186q0 241 -159 241 q-160 0 -160 -241zM375 -63l917 1415h168l-913 -1415h-172zM1032 377q0 95 32.5 171t85 121t113.5 68t123 23t123 -23t114 -68t85.5 -121t32.5 -171q0 -102 -31.5 -182.5t-84 -128t-113.5 -71.5t-126 -24t-126 24t-113 71.5t-83.5 128t-31.5 182.5zM1227 369 q0 -124 42.5 -186t116.5 -62q75 0 117.5 62t42.5 186q0 241 -160 241q-159 0 -159 -241z" />
<glyph unicode="&#x26;" horiz-adv-x="1243" d="M78 313q0 67 27.5 128.5t75.5 110.5t101.5 86.5t116.5 68.5q-57 77 -91 159.5t-34 151.5q0 108 51 185.5t134 114t188 36.5q86 0 153 -26t107 -70t60 -97.5t20 -113.5q0 -63 -28 -120t-78 -102.5t-99.5 -78.5t-113.5 -66l239 -277q53 93 107 236h207q-72 -205 -201 -367 l235 -272h-266l-108 129q-188 -154 -400 -154q-85 0 -155.5 18.5t-127.5 57t-88.5 105.5t-31.5 157zM295 326q0 -91 60.5 -146t150.5 -55q160 0 280 117l-301 358q-91 -49 -140.5 -115t-49.5 -159zM483 1026q0 -112 105 -242q205 107 205 252q0 89 -42 131.5t-110 42.5 q-76 0 -117 -47t-41 -137z" />
<glyph unicode="'" horiz-adv-x="372" d="M78 913l20 404h209l-71 -404h-158z" />
<glyph unicode="(" horiz-adv-x="575" d="M141 487q0 247 76 492.5t186 419.5h191q-106 -180 -169 -428.5t-63 -483.5q0 -227 64 -485.5t168 -429.5h-188q-120 160 -192.5 407.5t-72.5 507.5z" />
<glyph unicode=")" horiz-adv-x="575" d="M-18 -428q104 171 167.5 429t63.5 486q0 235 -63 483.5t-168 428.5h190q110 -174 186 -419.5t76 -492.5q0 -260 -72 -507.5t-192 -407.5h-188z" />
<glyph unicode="*" horiz-adv-x="745" d="M37 1016l45 143l250 -115l-35 273h152l-33 -273l246 115l47 -141l-269 -53l189 -199l-121 -90l-135 237l-133 -239l-121 88l184 203z" />
<glyph unicode="+" d="M150 545v155h282v285h156v-285h286v-155h-286v-287h-156v287h-282z" />
<glyph unicode="," horiz-adv-x="438" d="M100 0v225h238v-205l-86 -262h-131l69 242h-90z" />
<glyph unicode="-" horiz-adv-x="544" d="M41 395v158h463v-158h-463z" />
<glyph unicode="." horiz-adv-x="438" d="M100 0v225h238v-225h-238z" />
<glyph unicode="/" horiz-adv-x="686" d="M0 -68l516 1434h170l-516 -1434h-170z" />
<glyph unicode="0" d="M92 645q0 672 420 672q418 0 418 -672q0 -674 -418 -674q-420 0 -420 674zM319 645q0 -289 45 -409.5t148 -120.5q68 0 109 51t61 167.5t20 311.5t-20 310.5t-61 165.5t-109 50q-103 0 -148 -118.5t-45 -407.5z" />
<glyph unicode="1" d="M193 0v156h213v983h-213v155h430v-1138h213v-156h-643z" />
<glyph unicode="2" d="M106 0v152l345 407q96 114 148 208t52 191q0 93 -57.5 149t-169.5 56q-72 0 -162.5 -21t-140.5 -44v159q151 60 348 60q184 0 293.5 -89t109.5 -253q0 -120 -56 -228.5t-171 -242.5l-301 -348h561v-156h-799z" />
<glyph unicode="3" d="M119 -10v155q110 0 190.5 7.5t148 26t109 49.5t64 78t22.5 112q0 49 -18 87.5t-47 62.5t-68.5 39.5t-78.5 21.5t-81 6h-116v149h112q252 0 252 199q0 180 -211 180q-130 0 -276 -41v160q128 35 295 35q194 0 303.5 -81t109.5 -237q0 -100 -58.5 -170.5t-152.5 -103.5 q111 -23 183.5 -107.5t72.5 -191.5q0 -84 -23 -151t-60.5 -112t-97.5 -77.5t-119.5 -51t-142.5 -28.5t-151.5 -13t-160.5 -3z" />
<glyph unicode="4" d="M72 295v174l465 827h215l-476 -843h388v307l120 217h93v-977h-213v295h-592z" />
<glyph unicode="5" d="M143 -10v153q263 0 388.5 63.5t125.5 211.5q0 122 -72.5 171.5t-211.5 49.5h-201v655h643v-155h-448v-334h59q216 0 336.5 -88.5t120.5 -272.5q0 -81 -22.5 -147.5t-60.5 -113t-95 -81.5t-119 -56t-139.5 -34t-149 -17.5t-154.5 -4.5z" />
<glyph unicode="6" d="M100 461q0 297 173 538t487 353v-170q-156 -75 -250 -168.5t-137 -229.5q93 29 182 29q102 0 177 -30.5t118.5 -86t63.5 -125t20 -155.5q0 -445 -420 -445q-89 0 -160.5 27t-118 72.5t-77.5 109t-44.5 133t-13.5 148.5zM328 469q0 -183 43.5 -268.5t160.5 -85.5 q99 0 142 63.5t43 210.5q0 55 -5 95.5t-18.5 78t-36.5 60t-61 36t-90 13.5q-80 0 -166 -23q-12 -83 -12 -180z" />
<glyph unicode="7" d="M96 1139v155h809v-120l-473 -1174h-219l479 1139h-596z" />
<glyph unicode="8" d="M82 313q0 108 69 201t179 166q-90 62 -135 134t-45 179q0 146 106 235t266 89q143 0 246.5 -82t103.5 -215q0 -59 -17 -109.5t-49.5 -89.5t-64.5 -66.5t-75 -56.5q63 -35 104.5 -64.5t84.5 -73t64 -99t21 -123.5q0 -161 -124 -264t-316 -103q-116 0 -210 39t-151 118 t-57 185zM295 317q0 -92 56.5 -145t156.5 -53q96 0 158.5 52t62.5 148q0 46 -19 84.5t-68 78.5t-81.5 61t-110.5 67q-7 4 -10 6q-145 -136 -145 -299zM352 1016q0 -45 13.5 -81t44.5 -67t62 -53t85 -55q119 110 119 233q0 84 -43.5 130t-118.5 46q-72 0 -117 -41t-45 -112z " />
<glyph unicode="9" d="M100 872q0 445 420 445q89 0 160.5 -27t118 -72.5t77.5 -109t44.5 -133t13.5 -148.5q0 -297 -173 -537.5t-487 -352.5v169q156 75 250.5 168.5t137.5 229.5q-93 -29 -183 -29q-102 0 -177 30.5t-118.5 86t-63.5 125t-20 155.5zM317 899q0 -55 5 -95.5t18.5 -78t36.5 -60 t61 -36t90 -13.5q80 0 166 23q13 89 13 180q0 183 -44 269t-161 86q-99 0 -142 -64t-43 -211z" />
<glyph unicode=":" horiz-adv-x="483" d="M123 0v225h237v-225h-237zM123 684v227h237v-227h-237z" />
<glyph unicode=";" horiz-adv-x="483" d="M123 0v225h237v-205l-86 -262h-131l70 242h-90zM123 684v227h237v-227h-237z" />
<glyph unicode="&#x3c;" d="M150 543v155l724 334v-164l-542 -247l542 -259v-165z" />
<glyph unicode="=" d="M156 350v156h712v-156h-712zM156 678v156h712v-156h-712z" />
<glyph unicode="&#x3e;" d="M150 197v165l542 259l-542 247v164l724 -334v-155z" />
<glyph unicode="?" horiz-adv-x="833" d="M82 1139v166q139 41 274 41q117 0 203.5 -30.5t139.5 -101.5t53 -178q0 -83 -25 -154.5t-62 -124.5t-74.5 -104.5t-66 -118t-32.5 -141.5h-185q0 85 23.5 162t57 133.5t67 109t57 110.5t23.5 116q0 78 -54 122t-133 44q-115 0 -266 -51zM281 0v223h233v-223h-233z" />
<glyph unicode="@" horiz-adv-x="1525" d="M68 399q0 138 52.5 264t144 220.5t225 150.5t286.5 56q187 0 343 -81.5t247.5 -227t91.5 -324.5q0 -216 -108 -351t-271 -135q-133 0 -176 82q-116 -82 -223 -82q-50 0 -91 11t-78.5 37.5t-59 79t-21.5 126.5q0 120 75 184t224 64h158v72q0 75 -31.5 102t-114.5 27 q-68 0 -241 -51v145q146 43 264 43q161 0 243.5 -61.5t82.5 -196.5v-354q0 -62 10.5 -89.5t34.5 -27.5q48 0 86 59t56.5 142.5t18.5 169.5q0 228 -147 371t-375 143q-160 0 -284.5 -80.5t-188 -208t-63.5 -275.5q0 -263 151 -428t379 -165q72 0 150.5 20.5t140.5 56.5 l49 -98q-157 -92 -363 -92q-110 0 -211.5 31.5t-185.5 92.5t-147 145.5t-98 195.5t-35 237zM631 229q0 -62 30.5 -97.5t86.5 -35.5q67 0 139 37v219h-129q-127 0 -127 -123z" />
<glyph unicode="A" horiz-adv-x="1173" d="M8 0l441 1317h270l444 -1317h-229l-129 403h-447l-120 -403h-230zM401 557h357l-174 553h-17z" />
<glyph unicode="B" horiz-adv-x="1077" d="M154 0v1317h393q399 0 399 -324q0 -96 -65 -172t-146 -96v-8q129 -18 211 -105.5t82 -218.5q0 -123 -64.5 -213.5t-171 -135t-239.5 -44.5h-399zM379 156h162q123 0 191.5 58.5t68.5 180.5q0 110 -71 166.5t-185 56.5h-166v-462zM379 770h141q98 0 148.5 55t50.5 154 q0 88 -50.5 135t-138.5 47h-151v-391z" />
<glyph unicode="C" horiz-adv-x="1105" d="M92 674q0 680 649 680q131 0 297 -37v-166q-193 47 -305 47q-217 0 -316.5 -130t-99.5 -394q0 -555 428 -555q155 0 302 69v-176q-163 -49 -336 -49q-169 0 -290.5 51t-192.5 147.5t-103.5 222.5t-32.5 290z" />
<glyph unicode="D" horiz-adv-x="1314" d="M154 0v1317h469q161 0 280 -48.5t188.5 -137.5t102.5 -203.5t33 -257.5q0 -114 -20 -212t-65 -183.5t-112.5 -145.5t-169 -94.5t-229.5 -34.5h-477zM379 156h229q209 0 301 130.5t92 383.5q0 254 -99 372.5t-310 118.5h-213v-1005z" />
<glyph unicode="E" horiz-adv-x="1003" d="M154 0v1317h790v-156h-565v-387h446v-156h-446v-462h584v-156h-809z" />
<glyph unicode="F" horiz-adv-x="1009" d="M154 0v1317h819v-156h-594v-407h477v-156h-477v-598h-225z" />
<glyph unicode="G" horiz-adv-x="1277" d="M92 674q0 332 160 506t514 174q85 0 194 -15.5t173 -35.5v-181q-69 29 -178 51.5t-191 22.5q-229 0 -338 -121.5t-109 -400.5q0 -553 428 -553q83 0 191 20v576h219v-684q-233 -70 -440 -70q-623 0 -623 711z" />
<glyph unicode="H" horiz-adv-x="1339" d="M154 0v1317h225v-543h582v543h225v-1317h-225v618h-582v-618h-225z" />
<glyph unicode="I" horiz-adv-x="565" d="M170 0v1317h225v-1317h-225z" />
<glyph unicode="J" horiz-adv-x="526" d="M-37 -213q100 7 145.5 64t45.5 172v1294h225v-1292q0 -195 -107.5 -282.5t-308.5 -98.5v143z" />
<glyph unicode="K" horiz-adv-x="1179" d="M154 0v1317h225v-610l522 610h268l-542 -615l587 -702h-286l-549 672v-672h-225z" />
<glyph unicode="L" horiz-adv-x="962" d="M154 0v1317h225v-1161h563v-156h-788z" />
<glyph unicode="M" horiz-adv-x="1658" d="M154 0v1317h358l317 -1108l326 1108h350v-1317h-207v1161l-348 -1161h-241l-349 1161v-1161h-206z" />
<glyph unicode="N" horiz-adv-x="1355" d="M154 0v1317h272l569 -1010v1010h207v-1317h-241l-603 1063v-1063h-204z" />
<glyph unicode="O" horiz-adv-x="1366" d="M92 662q0 371 140 531.5t452 160.5q311 0 450.5 -160.5t139.5 -531.5q0 -373 -138 -536t-452 -163q-315 0 -453.5 163t-138.5 536zM317 662q0 -201 39.5 -320.5t118.5 -171t209 -51.5t208.5 51.5t117.5 171t39 320.5q0 200 -39.5 318t-118 168t-207.5 50q-130 0 -209 -50 t-118.5 -167.5t-39.5 -318.5z" />
<glyph unicode="P" horiz-adv-x="1105" d="M154 0v1317h471q227 0 329.5 -94t102.5 -281q0 -104 -33 -180.5t-95.5 -122t-143.5 -67t-185 -21.5h-221v-551h-225zM379 709h201q249 0 249 231q0 115 -59.5 168t-183.5 53h-207v-452z" />
<glyph unicode="Q" horiz-adv-x="1366" d="M92 662q0 371 140 531.5t452 160.5q311 0 450.5 -160.5t139.5 -531.5q0 -265 -68 -422t-215 -224q124 -61 221 -98.5t222 -64.5v-193q-69 0 -218.5 55t-261.5 127l-192 123q-14 0 -39 -1t-39 -1q-315 0 -453.5 163t-138.5 536zM317 662q0 -201 39.5 -320.5t118.5 -171 t209 -51.5t208.5 51.5t117.5 171t39 320.5q0 200 -39.5 318t-118 168t-207.5 50q-130 0 -209 -50t-118.5 -167.5t-39.5 -318.5z" />
<glyph unicode="R" horiz-adv-x="1150" d="M154 0v1317h467q212 0 317.5 -95.5t105.5 -279.5q0 -149 -83.5 -243.5t-221.5 -125.5l408 -573h-266l-377 547h-125v-547h-225zM379 694h184q117 0 185.5 66.5t68.5 187.5q0 106 -61 159.5t-176 53.5h-201v-467z" />
<glyph unicode="S" horiz-adv-x="911" d="M55 1008q0 163 118.5 254.5t309.5 91.5q147 0 289 -49v-189q-66 35 -148.5 58.5t-150.5 23.5q-87 0 -144 -45t-57 -113q0 -45 25 -86t65.5 -72.5t93 -66t106.5 -65t106.5 -71.5t93 -84.5t65.5 -104t25 -130.5q0 -97 -39.5 -174.5t-106 -125t-148.5 -72.5t-171 -25 q-162 0 -321 55v193q184 -92 319 -92q102 0 173 52.5t71 152.5q0 56 -31.5 106t-82.5 90t-112 79t-122 81t-112 88t-82.5 107.5t-31.5 132.5z" />
<glyph unicode="T" horiz-adv-x="1118" d="M27 1161v156h1063v-156h-418v-1161h-226v1161h-419z" />
<glyph unicode="U" horiz-adv-x="1323" d="M154 391v926h225v-916q0 -158 69.5 -220t213.5 -62q72 0 122 13t88 44t56 87t18 138v916h225v-926q0 -98 -26.5 -173t-72 -123t-111.5 -78t-138.5 -42t-160.5 -12t-160.5 12t-138.5 42t-111 78t-71.5 123t-26.5 173z" />
<glyph unicode="V" horiz-adv-x="1165" d="M6 1317h232l354 -1127l338 1127h229l-438 -1317h-270z" />
<glyph unicode="W" horiz-adv-x="1722" d="M10 1317h228l256 -1073l251 1073h232l278 -1073l230 1073h227l-336 -1317h-250l-264 1047l-250 -1047h-250z" />
<glyph unicode="X" horiz-adv-x="1177" d="M12 0l447 664l-426 653h241l314 -483l289 483h237l-418 -649l439 -668h-242l-328 502l-315 -502h-238z" />
<glyph unicode="Y" horiz-adv-x="1107" d="M2 1317h246l307 -555l309 555h242l-438 -748v-569h-226v569z" />
<glyph unicode="Z" horiz-adv-x="1034" d="M57 0v147l645 1014h-634v156h876v-152l-639 -1009h680v-156h-928z" />
<glyph unicode="[" horiz-adv-x="540" d="M143 -430v1829h398v-139h-185v-1551h185v-139h-398z" />
<glyph unicode="\" horiz-adv-x="686" d="M0 1356h170l516 -1401h-170z" />
<glyph unicode="]" horiz-adv-x="540" d="M0 -291h184v1551h-184v139h397v-1829h-397v139z" />
<glyph unicode="^" horiz-adv-x="598" d="M41 860l149 453h220l149 -453h-139l-121 359l-121 -359h-137z" />
<glyph unicode="_" horiz-adv-x="847" d="M0 -141h848v-150h-848v150z" />
<glyph unicode="`" horiz-adv-x="417" d="M12 1378h234l157 -268h-186z" />
<glyph unicode="a" horiz-adv-x="956" d="M61 262q0 133 89.5 209t279.5 76h180v80q0 102 -39.5 139t-148.5 37q-95 0 -277 -53v151q155 47 320 47q189 0 275.5 -71t86.5 -232v-645h-211v82q-35 -30 -113.5 -68.5t-160.5 -38.5q-133 0 -207 70.5t-74 216.5zM279 268q0 -149 174 -149q39 0 84.5 13.5t72.5 27.5v262 h-151q-180 0 -180 -154z" />
<glyph unicode="b" horiz-adv-x="1067" d="M131 18v1381h217v-522q50 29 123.5 50t138.5 21q186 0 284.5 -110t98.5 -353q0 -136 -41 -236.5t-114.5 -159t-166 -86.5t-204.5 -28q-194 0 -336 43zM348 137q61 -18 125 -18q53 0 95 9t81.5 33.5t66 64.5t42.5 105t16 152q0 181 -65 250.5t-205 69.5q-83 0 -156 -33 v-633z" />
<glyph unicode="c" horiz-adv-x="802" d="M76 461q0 229 123 358t340 129q102 0 200 -24v-154q-82 35 -180 35q-127 0 -196.5 -85t-69.5 -263q0 -338 285 -338q80 0 174 35v-152q-133 -27 -226 -27q-222 0 -336 126t-114 360z" />
<glyph unicode="d" horiz-adv-x="1064" d="M76 453q0 234 119.5 364.5t347.5 130.5q94 0 174 -26v477h217v-1399h-217v61q-48 -36 -116.5 -63t-137.5 -27q-387 0 -387 482zM293 459q0 -180 65 -259t191 -79q92 0 168 33v632q-80 23 -148 23q-143 0 -209.5 -88.5t-66.5 -261.5z" />
<glyph unicode="e" horiz-adv-x="958" d="M80 475q0 216 106.5 344.5t309.5 128.5q187 0 287 -101t100 -294v-133h-586q0 -75 16.5 -130.5t42.5 -87t65.5 -50t76.5 -24t84 -5.5q117 0 262 49v-154q-141 -43 -299 -43q-238 0 -351.5 126t-113.5 374zM299 555h381q0 142 -46 196t-142 54q-193 0 -193 -250z" />
<glyph unicode="f" horiz-adv-x="622" d="M20 768v143h158v189q0 159 81.5 229t254.5 70q62 0 125 -13v-141q-35 10 -107 10q-69 0 -103 -32t-34 -111v-201h223v-143h-223v-768h-217v768h-158z" />
<glyph unicode="g" horiz-adv-x="952" d="M37 -186q0 67 45 124.5t115 86.5q-88 50 -88 149q0 90 92 174q-60 45 -86.5 111t-26.5 162q0 166 100 246.5t283 80.5q117 0 199 -37h282v-143h-135q37 -72 37 -152q0 -165 -92 -251t-291 -86q-103 0 -174 24q-21 -44 -21 -82q0 -71 125 -71h213q150 0 238 -66t88 -207 q0 -328 -473 -328q-430 0 -430 265zM229 -160q0 -149 250 -149q132 0 201.5 36t69.5 123q0 72 -43.5 106t-135.5 34h-282q-23 -27 -41.5 -69t-18.5 -81zM297 618q0 -108 39 -156t135 -48q97 0 135.5 47.5t38.5 156.5q0 98 -42.5 142.5t-131.5 44.5q-88 0 -131 -44.5 t-43 -142.5z" />
<glyph unicode="h" horiz-adv-x="1056" d="M131 0v1399h217v-555q59 38 143 71t154 33q143 0 212 -68.5t69 -220.5v-659h-219v643q0 77 -36 113.5t-110 36.5q-52 0 -113.5 -16.5t-99.5 -33.5v-743h-217z" />
<glyph unicode="i" horiz-adv-x="503" d="M143 0v911h217v-911h-217zM143 1114v203h217v-203h-217z" />
<glyph unicode="j" horiz-adv-x="481" d="M-45 -305q14 -2 39 -2q69 0 103 32t34 111v1075h217v-1063q0 -159 -81.5 -229t-254.5 -70q-17 0 -57 5v141zM131 1114v203h217v-203h-217z" />
<glyph unicode="k" horiz-adv-x="933" d="M131 0v1399h217v-912l318 424h237l-321 -411l391 -500h-262l-363 481v-481h-217z" />
<glyph unicode="l" horiz-adv-x="503" d="M143 0v1399h217v-1399h-217z" />
<glyph unicode="m" horiz-adv-x="1556" d="M131 0v911h217v-69q50 34 140.5 70t146.5 36q165 0 225 -102q56 36 143 69t146 33q142 0 209 -70t67 -223v-655h-219v629q0 83 -25.5 120t-97.5 37q-85 0 -200 -41q6 -41 6 -90v-655h-219v629q0 83 -24.5 120t-94.5 37q-90 0 -203 -49v-737h-217z" />
<glyph unicode="n" horiz-adv-x="1056" d="M131 0v911h217v-69q57 38 142 72t155 34q142 0 211.5 -72t69.5 -225v-651h-219v635q0 158 -146 158q-86 0 -213 -52v-741h-217z" />
<glyph unicode="o" horiz-adv-x="1042" d="M80 473q0 475 440 475q443 0 443 -475q0 -262 -106.5 -380t-336.5 -118q-229 0 -334.5 118t-105.5 380zM297 473q0 -87 10.5 -150t28.5 -102t47 -62t61 -31.5t76 -8.5q56 0 94 14t69 51.5t45.5 109t14.5 179.5q0 101 -14 167t-44.5 102t-69 49.5t-95.5 13.5 q-56 0 -95 -15t-69 -51.5t-44.5 -102.5t-14.5 -163z" />
<glyph unicode="p" horiz-adv-x="1069" d="M131 -440v1351h217v-34q142 71 258 71q89 0 157.5 -24t121.5 -76.5t80.5 -144t27.5 -218.5q0 -107 -27.5 -193.5t-73.5 -145t-110 -97.5t-135 -56.5t-149 -17.5q-85 0 -150 21v-436h-217zM348 135q61 -16 125 -16q47 0 86.5 8t80.5 31.5t69.5 62t46.5 105t18 155.5 q0 166 -63 244t-193 78q-79 0 -170 -33v-635z" />
<glyph unicode="q" horiz-adv-x="1062" d="M76 457q0 246 133 368.5t369 122.5q179 0 354 -45v-1343h-217v497q-46 -34 -112.5 -60t-125.5 -26q-91 0 -161 24.5t-125.5 79.5t-85 151t-29.5 231zM293 465q0 -99 20.5 -168t58 -106.5t83 -53.5t104.5 -16q20 0 38 1.5t37 5t28.5 5.5t29 7.5t23.5 6.5v641 q-69 21 -146 21q-134 0 -205 -88t-71 -256z" />
<glyph unicode="r" horiz-adv-x="681" d="M131 0v911h217v-114q32 29 58.5 50t67.5 46.5t89 39t99 13.5v-203h-50q-81 0 -153.5 -28.5t-110.5 -57.5v-657h-217z" />
<glyph unicode="s" horiz-adv-x="727" d="M49 8v174q145 -63 264 -63q71 0 116.5 29.5t45.5 87.5q0 21 -12.5 42.5t-27.5 37t-48 37t-52.5 32.5t-62.5 35q-102 56 -158.5 119t-56.5 155q0 112 92.5 183t256.5 71q108 0 219 -30v-162q-114 49 -224 49q-54 0 -96.5 -25t-42.5 -67q0 -15 5 -28t18 -26.5t23 -23 t33 -23.5t36 -21.5t42.5 -23t41.5 -22.5q49 -27 83.5 -51t70.5 -59t54.5 -79.5t18.5 -97.5q0 -90 -56 -156.5t-134.5 -96.5t-161.5 -30q-165 0 -287 33z" />
<glyph unicode="t" horiz-adv-x="667" d="M14 768v143h166v277h215v-277h248v-143h-248v-504q0 -72 33 -106.5t102 -34.5q60 0 132 10v-135q-92 -18 -218 -18q-143 0 -203.5 67t-60.5 203v518h-166z" />
<glyph unicode="u" horiz-adv-x="1042" d="M131 262v649h217v-622q0 -78 35.5 -114t110.5 -36q102 0 202 39v733h215v-911h-215v80q-51 -30 -82 -46.5t-92 -37.5t-112 -21q-142 0 -210.5 68t-68.5 219z" />
<glyph unicode="v" horiz-adv-x="913" d="M10 911h228l225 -657l223 657h217l-348 -911h-193z" />
<glyph unicode="w" horiz-adv-x="1388" d="M12 911h221l177 -653l188 653h201l196 -653l168 653h213l-291 -911h-194l-197 655l-194 -655h-195z" />
<glyph unicode="x" horiz-adv-x="899" d="M8 0l324 463l-320 448h236l207 -301l202 301h230l-318 -450l322 -461h-234l-213 313l-206 -313h-230z" />
<glyph unicode="y" horiz-adv-x="907" d="M10 911h228l215 -665l239 665h213l-346 -870l-176 -481h-219l184 463z" />
<glyph unicode="z" horiz-adv-x="765" d="M27 0v131l450 637h-440v143h680v-133l-441 -635h474v-143h-723z" />
<glyph unicode="{" horiz-adv-x="634" d="M25 408v153q102 0 147 58.5t45 207.5v236q0 194 95.5 273t303.5 79v-135q-93 0 -139.5 -57.5t-46.5 -137.5v-268q0 -128 -32.5 -198t-133.5 -130v-10q101 -60 133.5 -130t32.5 -197v-269q0 -80 46.5 -137t139.5 -57v-135q-208 0 -303.5 79t-95.5 273v235q0 149 -45 208 t-147 59z" />
<glyph unicode="|" horiz-adv-x="514" d="M205 -451v2048h104v-2048h-104z" />
<glyph unicode="}" horiz-adv-x="634" d="M18 -311q93 0 140 57t47 137v269q0 127 32.5 197t133.5 130v10q-101 60 -133.5 130t-32.5 198v268q0 80 -47 137.5t-140 57.5v135q208 0 304 -79t96 -273v-236q0 -149 45 -207.5t147 -58.5v-153q-102 0 -147 -59t-45 -208v-235q0 -194 -96 -273t-304 -79v135z" />
<glyph unicode="~" horiz-adv-x="974" d="M66 469q4 72 35.5 136t91 107.5t133.5 43.5q46 0 101 -24.5t95 -53.5t82 -53.5t66 -24.5q63 0 88.5 35.5t27.5 97.5h123q-5 -124 -66 -205.5t-179 -81.5q-42 0 -95 25.5t-95 56.5t-88.5 56.5t-76.5 25.5q-49 0 -77.5 -45t-34.5 -96h-131z" />
<glyph unicode="&#xa1;" horiz-adv-x="569" d="M154 -406l73 924h113l76 -924h-262zM162 688v223h233v-223h-233z" />
<glyph unicode="&#xa2;" d="M164 461q0 205 100.5 331.5t280.5 149.5v246h129v-242q89 -3 174 -22v-154q-34 15 -94.5 25t-106.5 10q-127 0 -196.5 -85t-69.5 -263q0 -338 285 -338q44 0 101.5 11t92.5 24v-152q-88 -16 -186 -25v-210h-129v213q-189 19 -285 142t-96 339z" />
<glyph unicode="&#xa3;" d="M119 0v150h164v458h-164v146h164v164q0 218 85 308.5t296 90.5q94 0 208 -29v-158q-102 37 -196 37q-57 0 -93 -15.5t-53.5 -48.5t-23.5 -70t-6 -95v-184h315v-146h-315v-458h450v-150h-831z" />
<glyph unicode="&#xa4;" d="M117 393l104 107q-67 94 -67 209q0 124 71 217l-108 110l73 74l111 -109q100 72 209 72q113 0 213 -72l111 109l71 -74l-108 -112q71 -93 71 -215q0 -113 -67 -207l104 -109l-71 -71l-109 104q-85 -76 -215 -76q-126 0 -215 74l-105 -102zM258 709q0 -103 72 -181.5 t178 -78.5q109 0 182.5 77t73.5 183q0 111 -71.5 187.5t-182.5 76.5q-112 0 -182 -76.5t-70 -187.5z" />
<glyph unicode="&#xa5;" horiz-adv-x="993" d="M37 1296h231l234 -542l231 542h223l-303 -620h217v-146h-260l-4 -36v-88h264v-146h-264v-260h-217v260h-266v146h266v90l-6 34h-260v146h219z" />
<glyph unicode="&#xa6;" horiz-adv-x="634" d="M246 416h184v-846h-184v846zM246 608v778h184v-778h-184z" />
<glyph unicode="&#xa7;" d="M98 551q0 189 209 264q-110 96 -110 223q0 54 18.5 101.5t58.5 88.5t112.5 65t170.5 24q114 0 240 -31v-158q-76 26 -127 37t-115 11q-69 0 -105 -30t-36 -81q0 -41 28.5 -81t73.5 -74.5t100 -70.5t110 -76t100 -83.5t73.5 -100.5t28.5 -120q0 -76 -50 -141t-143 -111 q92 -100 92 -207q0 -49 -21 -100.5t-62 -100.5t-115 -80.5t-168 -31.5q-106 0 -271 34v177q160 -60 261 -60q59 0 101 35t42 96q0 46 -27.5 87.5t-71 75t-96.5 67t-106 70t-96.5 76t-71 92.5t-27.5 114zM297 606q0 -33 18.5 -65t59 -66t73.5 -57.5t95.5 -63t91.5 -59.5 q32 15 56 48t24 73q0 78 -84.5 159.5t-214.5 155.5q-119 -37 -119 -125z" />
<glyph unicode="&#xa8;" horiz-adv-x="565" d="M27 1130v203h213v-203h-213zM326 1130v203h213v-203h-213z" />
<glyph unicode="&#xa9;" horiz-adv-x="1433" d="M43 645q0 135 51.5 259.5t140 216.5t214.5 147t268 55q190 0 345.5 -93t242 -248.5t86.5 -336.5q0 -136 -51 -260t-139.5 -215t-214.5 -145t-269 -54q-189 0 -344.5 91.5t-242.5 246t-87 336.5zM197 647q0 -154 68 -281.5t187.5 -201.5t264.5 -74q144 0 263.5 74t188 202 t68.5 281q0 152 -68.5 280t-188 202.5t-263.5 74.5q-145 0 -264.5 -74.5t-187.5 -202t-68 -280.5zM383 662q0 172 99 274t284 102q92 0 172 -32v-113q-105 33 -178 33q-95 0 -152 -68.5t-57 -195.5q0 -130 56 -207.5t161 -77.5q67 0 174 39v-119q-108 -33 -190 -33 q-184 0 -276.5 107t-92.5 291z" />
<glyph unicode="&#xaa;" horiz-adv-x="741" d="M55 379v125h582v-125h-582zM55 805q0 217 275 217h141v70q0 72 -28.5 99.5t-100.5 27.5q-80 0 -223 -45v118q120 35 241 35q146 0 211.5 -51.5t65.5 -171.5v-506h-162v43q-112 -57 -190 -57q-47 0 -84.5 9t-72.5 31.5t-54 68t-19 112.5zM223 807q0 -57 31.5 -86t85.5 -29 q61 0 131 29v203h-133q-115 0 -115 -117z" />
<glyph unicode="&#xab;" horiz-adv-x="942" d="M117 475l184 350h176l-168 -350l168 -350h-176zM485 475l185 350h176l-168 -350l168 -350h-176z" />
<glyph unicode="&#xac;" d="M156 514v156h712v-434h-155v278h-557z" />
<glyph unicode="&#xad;" horiz-adv-x="0" />
<glyph unicode="&#xae;" horiz-adv-x="1433" d="M43 645q0 135 51.5 259.5t140 216.5t214.5 147t268 55q190 0 345.5 -93t242 -248.5t86.5 -336.5q0 -136 -51 -260t-139.5 -215t-214.5 -145t-269 -54q-189 0 -344.5 91.5t-242.5 246t-87 336.5zM197 647q0 -154 68 -281.5t187.5 -201.5t264.5 -74q144 0 263.5 74t188 202 t68.5 281q0 152 -68.5 280t-188 202.5t-263.5 74.5q-145 0 -264.5 -74.5t-187.5 -202t-68 -280.5zM463 276v752h323q110 0 168 -56t58 -159q0 -87 -51.5 -137t-131.5 -70l222 -330h-177l-196 306h-66v-306h-149zM612 686h113q56 0 89.5 27t33.5 98q0 63 -29 89t-94 26h-113 v-240z" />
<glyph unicode="&#xaf;" horiz-adv-x="512" d="M20 1163v154h472v-154h-472z" />
<glyph unicode="&#xb0;" horiz-adv-x="737" d="M59 1010q0 127 91 217t219 90t218.5 -90t90.5 -217t-90.5 -217.5t-218.5 -90.5t-219 90.5t-91 217.5zM197 1010q0 -71 51 -126t121 -55t121 55t51 126t-51 124.5t-121 53.5t-121 -53.5t-51 -124.5z" />
<glyph unicode="&#xb1;" d="M150 0v156h724v-156h-724zM150 545v155h282v285h156v-285h286v-155h-286v-287h-156v287h-282z" />
<glyph unicode="&#xb2;" horiz-adv-x="819" d="M109 590v102l249 217q119 101 119 189q0 108 -139 108q-86 0 -205 -45v133q36 10 106.5 21.5t127.5 11.5q139 0 215.5 -53.5t76.5 -163.5q0 -80 -45.5 -146t-128.5 -133l-151 -122h348v-119h-573z" />
<glyph unicode="&#xb3;" horiz-adv-x="819" d="M127 578v122q385 0 385 136q0 30 -14 49.5t-40.5 28t-50.5 11.5t-57 3h-94v110h88q148 0 148 90q0 40 -35 62t-101 22q-73 0 -221 -36v120q32 10 106 20.5t138 10.5q129 0 207 -45t78 -143q0 -94 -101 -142q58 -18 90.5 -58.5t32.5 -100.5q0 -63 -28.5 -110t-76.5 -75.5 t-122 -45.5t-152 -23t-180 -6z" />
<glyph unicode="&#xb4;" horiz-adv-x="417" d="M12 1110l160 268h231l-202 -268h-189z" />
<glyph unicode="&#xb6;" horiz-adv-x="878" d="M61 1012q0 82 30.5 149.5t100.5 111.5t170 44h476v-33l-88 -51q-24 -14 -33.5 -25t-9.5 -34v-1614h-107v1669h-108v-1669h-105v1149q-109 0 -184.5 43.5t-108.5 110.5t-33 149z" />
<glyph unicode="&#xb7;" horiz-adv-x="315" d="M41 545v223h233v-223h-233z" />
<glyph unicode="&#xb8;" horiz-adv-x="688" d="M193 -338q161 4 161 76q0 73 -145 86l53 176h121l-27 -96q60 -16 95.5 -55t35.5 -97q0 -63 -42.5 -103.5t-105.5 -56.5t-146 -16v86z" />
<glyph unicode="&#xb9;" horiz-adv-x="819" d="M152 590v110h176v494h-176v113h352v-607h174v-110h-526z" />
<glyph unicode="&#xba;" horiz-adv-x="792" d="M55 379v125h676v-125h-676zM55 967q0 360 340 360q336 0 336 -360q0 -206 -83 -294.5t-253 -88.5q-173 0 -256.5 88.5t-83.5 294.5zM223 967q0 -87 12 -143.5t37 -84.5t53 -37.5t70 -9.5q40 0 68 10t53.5 37t38 84t12.5 144q0 141 -44 197.5t-128 56.5q-88 0 -130 -55.5 t-42 -198.5z" />
<glyph unicode="&#xbb;" horiz-adv-x="942" d="M96 125l168 350l-168 350h176l185 -350l-185 -350h-176zM465 125l168 350l-168 350h176l184 -350l-184 -350h-176z" />
<glyph unicode="&#xbc;" horiz-adv-x="1720" d="M152 590v110h176v494h-176v113h352v-607h174v-110h-526zM362 -63l891 1415h168l-886 -1415h-173zM1014 166v108l256 443h166l-265 -443h226v138l82 145h80v-557h-162v166h-383z" />
<glyph unicode="&#xbd;" horiz-adv-x="1720" d="M152 590v110h176v494h-176v113h352v-607h174v-110h-526zM332 -63l891 1415h168l-887 -1415h-172zM1010 0v102l250 217q118 100 118 189q0 108 -139 108q-86 0 -205 -45v134q35 10 106 21t128 11q139 0 216 -53.5t77 -163.5q0 -79 -46 -144.5t-129 -133.5l-151 -123h348 v-119h-573z" />
<glyph unicode="&#xbe;" horiz-adv-x="1720" d="M127 578v122q385 0 385 136q0 30 -14 49.5t-40.5 28t-50.5 11.5t-57 3h-94v110h88q148 0 148 90q0 40 -35 62t-101 22q-73 0 -221 -36v120q32 10 106 20.5t138 10.5q129 0 207 -45t78 -143q0 -94 -101 -142q58 -18 90.5 -58.5t32.5 -100.5q0 -63 -28.5 -110t-76.5 -75.5 t-122 -45.5t-152 -23t-180 -6zM369 -63l891 1415h167l-886 -1415h-172zM1014 166v108l256 443h166l-265 -443h226v138l82 145h80v-557h-162v166h-383z" />
<glyph unicode="&#xbf;" horiz-adv-x="833" d="M82 -125q0 83 25 154.5t62 124.5t74.5 104.5t66 118t32.5 141.5h184q0 -85 -23.5 -162t-57 -133.5t-66.5 -109t-56.5 -110.5t-23.5 -116q0 -78 53.5 -122t132.5 -44q113 0 267 52v-166q-139 -41 -275 -41q-87 0 -157 17.5t-124.5 53.5t-84 96.5t-29.5 141.5zM319 688v223 h234v-223h-234z" />
<glyph unicode="&#xc0;" horiz-adv-x="1173" d="M8 0l441 1317h270l444 -1317h-229l-129 403h-447l-120 -403h-230zM391 1784h234l157 -268h-186zM401 557h357l-174 553h-17z" />
<glyph unicode="&#xc1;" horiz-adv-x="1173" d="M8 0l441 1317h270l444 -1317h-229l-129 403h-447l-120 -403h-230zM391 1516l160 268h231l-202 -268h-189zM401 557h357l-174 553h-17z" />
<glyph unicode="&#xc2;" horiz-adv-x="1173" d="M8 0l441 1317h270l444 -1317h-229l-129 403h-447l-120 -403h-230zM307 1511l148 269h260l149 -269h-155l-125 177l-123 -177h-154zM401 557h357l-174 553h-17z" />
<glyph unicode="&#xc3;" horiz-adv-x="1173" d="M8 0l441 1317h270l444 -1317h-229l-129 403h-447l-120 -403h-230zM276 1565q5 77 59.5 135.5t135.5 58.5q49 0 138 -27.5t100 -27.5q69 0 69 55h117q-3 -82 -51 -138t-133 -56q-45 0 -135 30.5t-109 30.5q-30 0 -49 -18.5t-21 -42.5h-121zM401 557h357l-174 553h-17z" />
<glyph unicode="&#xc4;" horiz-adv-x="1173" d="M8 0l441 1317h270l444 -1317h-229l-129 403h-447l-120 -403h-230zM330 1536v203h213v-203h-213zM401 557h357l-174 553h-17zM629 1536v203h213v-203h-213z" />
<glyph unicode="&#xc5;" horiz-adv-x="1173" d="M8 0l414 1237q-55 58 -55 139q0 78 63.5 145.5t149.5 67.5q88 0 150.5 -62t62.5 -151q0 -71 -52 -133l422 -1243h-229l-129 403h-447l-120 -403h-230zM401 557h357l-174 553h-17zM487 1376q0 -36 28.5 -65t64.5 -29q37 0 64.5 29t27.5 65q0 39 -27 69t-65 30 q-37 0 -65 -30.5t-28 -68.5z" />
<glyph unicode="&#xc6;" horiz-adv-x="1718" d="M-10 0l674 1317h993v-156h-553v-387h438v-156h-438v-462h573v-156h-798v406h-447l-194 -406h-248zM504 559h375v602h-88z" />
<glyph unicode="&#xc7;" horiz-adv-x="1105" d="M92 674q0 680 649 680q131 0 297 -37v-166q-193 47 -305 47q-217 0 -316.5 -130t-99.5 -394q0 -555 428 -555q155 0 302 69v-176q-163 -49 -336 -49q-169 0 -290.5 51t-192.5 147.5t-103.5 222.5t-32.5 290zM586 -338q162 4 162 76q0 73 -146 86l53 176h121l-26 -96 q60 -16 95.5 -55t35.5 -97q0 -63 -42.5 -103.5t-106 -56.5t-146.5 -16v86z" />
<glyph unicode="&#xc8;" horiz-adv-x="1003" d="M154 0v1317h790v-156h-565v-387h446v-156h-446v-462h584v-156h-809zM305 1784h234l157 -268h-186z" />
<glyph unicode="&#xc9;" horiz-adv-x="1003" d="M154 0v1317h790v-156h-565v-387h446v-156h-446v-462h584v-156h-809zM305 1516l160 268h231l-202 -268h-189z" />
<glyph unicode="&#xca;" horiz-adv-x="1003" d="M154 0v1317h790v-156h-565v-387h446v-156h-446v-462h584v-156h-809zM223 1511l148 269h260l149 -269h-155l-125 177l-123 -177h-154z" />
<glyph unicode="&#xcb;" horiz-adv-x="1003" d="M154 0v1317h790v-156h-565v-387h446v-156h-446v-462h584v-156h-809zM246 1536v203h213v-203h-213zM545 1536v203h213v-203h-213z" />
<glyph unicode="&#xcc;" horiz-adv-x="565" d="M86 1784h233l158 -268h-186zM170 0v1317h225v-1317h-225z" />
<glyph unicode="&#xcd;" horiz-adv-x="565" d="M86 1516l160 268h231l-203 -268h-188zM170 0v1317h225v-1317h-225z" />
<glyph unicode="&#xce;" horiz-adv-x="565" d="M4 1511l148 269h260l149 -269h-155l-125 177l-123 -177h-154zM170 0v1317h225v-1317h-225z" />
<glyph unicode="&#xcf;" horiz-adv-x="565" d="M27 1536v203h213v-203h-213zM170 0v1317h225v-1317h-225zM326 1536v203h213v-203h-213z" />
<glyph unicode="&#xd0;" horiz-adv-x="1314" d="M51 618v154h103v545h469q161 0 280 -48.5t188.5 -137.5t102.5 -203.5t33 -257.5q0 -114 -20 -212t-65 -183.5t-112.5 -145.5t-169 -94.5t-229.5 -34.5h-477v618h-103zM379 156h229q209 0 301 130.5t92 383.5q0 254 -99 372.5t-310 118.5h-213v-389h196v-154h-196v-462z " />
<glyph unicode="&#xd1;" horiz-adv-x="1355" d="M154 0v1317h272l569 -1010v1010h207v-1317h-241l-603 1063v-1063h-204zM369 1565q5 78 59 136t135 58q49 0 138 -27.5t100 -27.5q69 0 69 55h117q-3 -82 -51 -138t-133 -56q-45 0 -135 30.5t-109 30.5q-30 0 -49 -18.5t-21 -42.5h-120z" />
<glyph unicode="&#xd2;" horiz-adv-x="1366" d="M92 662q0 371 140 531.5t452 160.5q311 0 450.5 -160.5t139.5 -531.5q0 -373 -138 -536t-452 -163q-315 0 -453.5 163t-138.5 536zM317 662q0 -201 39.5 -320.5t118.5 -171t209 -51.5t208.5 51.5t117.5 171t39 320.5q0 200 -39.5 318t-118 168t-207.5 50q-130 0 -209 -50 t-118.5 -167.5t-39.5 -318.5zM487 1784h234l158 -268h-187z" />
<glyph unicode="&#xd3;" horiz-adv-x="1366" d="M92 662q0 371 140 531.5t452 160.5q311 0 450.5 -160.5t139.5 -531.5q0 -373 -138 -536t-452 -163q-315 0 -453.5 163t-138.5 536zM317 662q0 -201 39.5 -320.5t118.5 -171t209 -51.5t208.5 51.5t117.5 171t39 320.5q0 200 -39.5 318t-118 168t-207.5 50q-130 0 -209 -50 t-118.5 -167.5t-39.5 -318.5zM487 1516l160 268h232l-203 -268h-189z" />
<glyph unicode="&#xd4;" horiz-adv-x="1366" d="M92 662q0 371 140 531.5t452 160.5q311 0 450.5 -160.5t139.5 -531.5q0 -373 -138 -536t-452 -163q-315 0 -453.5 163t-138.5 536zM317 662q0 -201 39.5 -320.5t118.5 -171t209 -51.5t208.5 51.5t117.5 171t39 320.5q0 200 -39.5 318t-118 168t-207.5 50q-130 0 -209 -50 t-118.5 -167.5t-39.5 -318.5zM403 1511l148 269h260l150 -269h-156l-125 177l-123 -177h-154z" />
<glyph unicode="&#xd5;" horiz-adv-x="1366" d="M92 662q0 371 140 531.5t452 160.5q311 0 450.5 -160.5t139.5 -531.5q0 -373 -138 -536t-452 -163q-315 0 -453.5 163t-138.5 536zM317 662q0 -201 39.5 -320.5t118.5 -171t209 -51.5t208.5 51.5t117.5 171t39 320.5q0 200 -39.5 318t-118 168t-207.5 50q-130 0 -209 -50 t-118.5 -167.5t-39.5 -318.5zM373 1565q5 78 59 136t135 58q49 0 138 -27.5t100 -27.5q69 0 69 55h117q-3 -82 -51 -138t-133 -56q-45 0 -135 30.5t-109 30.5q-29 0 -48 -18t-21 -43h-121z" />
<glyph unicode="&#xd6;" horiz-adv-x="1366" d="M92 662q0 371 140 531.5t452 160.5q311 0 450.5 -160.5t139.5 -531.5q0 -373 -138 -536t-452 -163q-315 0 -453.5 163t-138.5 536zM317 662q0 -201 39.5 -320.5t118.5 -171t209 -51.5t208.5 51.5t117.5 171t39 320.5q0 200 -39.5 318t-118 168t-207.5 50q-130 0 -209 -50 t-118.5 -167.5t-39.5 -318.5zM426 1536v203h213v-203h-213zM725 1536v203h213v-203h-213z" />
<glyph unicode="&#xd7;" d="M205 395l196 197l-196 194l110 111l195 -197l199 199l110 -111l-198 -196l198 -199l-110 -108l-199 196l-195 -196z" />
<glyph unicode="&#xd8;" horiz-adv-x="1366" d="M92 662q0 371 140 531.5t452 160.5q311 0 450.5 -160.5t139.5 -531.5q0 -373 -138 -536t-452 -163q-315 0 -453.5 163t-138.5 536zM317 662q0 -211 41 -324l588 758q-81 102 -262 102q-130 0 -209 -50t-118.5 -167.5t-39.5 -318.5zM432 203q84 -84 252 -84 q130 0 208.5 51.5t117.5 171t39 320.5q0 181 -33 290z" />
<glyph unicode="&#xd9;" horiz-adv-x="1323" d="M154 391v926h225v-916q0 -158 69.5 -220t213.5 -62q72 0 122 13t88 44t56 87t18 138v916h225v-926q0 -98 -26.5 -173t-72 -123t-111.5 -78t-138.5 -42t-160.5 -12t-160.5 12t-138.5 42t-111 78t-71.5 123t-26.5 173zM465 1784h233l158 -268h-186z" />
<glyph unicode="&#xda;" horiz-adv-x="1323" d="M154 391v926h225v-916q0 -158 69.5 -220t213.5 -62q72 0 122 13t88 44t56 87t18 138v916h225v-926q0 -98 -26.5 -173t-72 -123t-111.5 -78t-138.5 -42t-160.5 -12t-160.5 12t-138.5 42t-111 78t-71.5 123t-26.5 173zM465 1516l160 268h231l-203 -268h-188z" />
<glyph unicode="&#xdb;" horiz-adv-x="1323" d="M154 391v926h225v-916q0 -158 69.5 -220t213.5 -62q72 0 122 13t88 44t56 87t18 138v916h225v-926q0 -98 -26.5 -173t-72 -123t-111.5 -78t-138.5 -42t-160.5 -12t-160.5 12t-138.5 42t-111 78t-71.5 123t-26.5 173zM383 1511l147 269h261l149 -269h-156l-125 177 l-122 -177h-154z" />
<glyph unicode="&#xdc;" horiz-adv-x="1323" d="M154 391v926h225v-916q0 -158 69.5 -220t213.5 -62q72 0 122 13t88 44t56 87t18 138v916h225v-926q0 -98 -26.5 -173t-72 -123t-111.5 -78t-138.5 -42t-160.5 -12t-160.5 12t-138.5 42t-111 78t-71.5 123t-26.5 173zM406 1536v203h212v-203h-212zM705 1536v203h213v-203 h-213z" />
<glyph unicode="&#xdd;" horiz-adv-x="1107" d="M2 1317h246l307 -555l309 555h242l-438 -748v-569h-226v569zM358 1516l160 268h232l-203 -268h-189z" />
<glyph unicode="&#xde;" horiz-adv-x="1083" d="M154 0v1317h223v-246h217q227 0 329.5 -93t102.5 -278q0 -102 -34 -178.5t-96 -123t-144 -69t-183 -22.5h-192v-307h-223zM377 465h172q252 0 252 231q0 113 -61.5 166t-184.5 53h-178v-450z" />
<glyph unicode="&#xdf;" horiz-adv-x="1038" d="M131 0v958q0 227 97.5 334t322.5 107q92 0 159.5 -28.5t106.5 -79.5t57.5 -115t18.5 -142q0 -100 -29 -241q-49 12 -110 12q-52 0 -88.5 -25t-36.5 -67q0 -40 39.5 -77t124.5 -91q49 -31 78.5 -54t62.5 -58.5t49 -78.5t16 -96q0 -68 -29 -123.5t-77.5 -89.5t-106 -52 t-118.5 -18q-120 0 -228 23v168q110 -47 205 -47q141 0 141 117q0 51 -42 90.5t-132 93.5q-93 57 -140.5 120.5t-47.5 157.5q0 103 69.5 169.5t204.5 78.5q11 37 11 98q0 94 -46 152.5t-126 58.5q-101 0 -145 -61t-44 -207v-987h-217z" />
<glyph unicode="&#xe0;" horiz-adv-x="956" d="M61 262q0 133 89.5 209t279.5 76h180v80q0 102 -39.5 139t-148.5 37q-95 0 -277 -53v151q155 47 320 47q189 0 275.5 -71t86.5 -232v-645h-211v82q-35 -30 -113.5 -68.5t-160.5 -38.5q-133 0 -207 70.5t-74 216.5zM201 1378h233l158 -268h-186zM279 268q0 -149 174 -149 q39 0 84.5 13.5t72.5 27.5v262h-151q-180 0 -180 -154z" />
<glyph unicode="&#xe1;" horiz-adv-x="956" d="M61 262q0 133 89.5 209t279.5 76h180v80q0 102 -39.5 139t-148.5 37q-95 0 -277 -53v151q155 47 320 47q189 0 275.5 -71t86.5 -232v-645h-211v82q-35 -30 -113.5 -68.5t-160.5 -38.5q-133 0 -207 70.5t-74 216.5zM279 268q0 -149 174 -149q39 0 84.5 13.5t72.5 27.5v262 h-151q-180 0 -180 -154zM283 1110l159 268h232l-203 -268h-188z" />
<glyph unicode="&#xe2;" horiz-adv-x="956" d="M61 262q0 133 89.5 209t279.5 76h180v80q0 102 -39.5 139t-148.5 37q-95 0 -277 -53v151q155 47 320 47q189 0 275.5 -71t86.5 -232v-645h-211v82q-35 -30 -113.5 -68.5t-160.5 -38.5q-133 0 -207 70.5t-74 216.5zM199 1106l147 268h260l150 -268h-156l-125 176 l-123 -176h-153zM279 268q0 -149 174 -149q39 0 84.5 13.5t72.5 27.5v262h-151q-180 0 -180 -154z" />
<glyph unicode="&#xe3;" horiz-adv-x="956" d="M61 262q0 133 89.5 209t279.5 76h180v80q0 102 -39.5 139t-148.5 37q-95 0 -277 -53v151q155 47 320 47q189 0 275.5 -71t86.5 -232v-645h-211v82q-35 -30 -113.5 -68.5t-160.5 -38.5q-133 0 -207 70.5t-74 216.5zM168 1159q5 78 59 136.5t135 58.5q49 0 138 -28t100 -28 q70 0 70 56h116q-3 -82 -51 -138.5t-133 -56.5q-45 0 -135 31t-109 31q-29 0 -48 -18.5t-21 -43.5h-121zM279 268q0 -149 174 -149q39 0 84.5 13.5t72.5 27.5v262h-151q-180 0 -180 -154z" />
<glyph unicode="&#xe4;" horiz-adv-x="956" d="M61 262q0 133 89.5 209t279.5 76h180v80q0 102 -39.5 139t-148.5 37q-95 0 -277 -53v151q155 47 320 47q189 0 275.5 -71t86.5 -232v-645h-211v82q-35 -30 -113.5 -68.5t-160.5 -38.5q-133 0 -207 70.5t-74 216.5zM221 1130v203h213v-203h-213zM279 268q0 -149 174 -149 q39 0 84.5 13.5t72.5 27.5v262h-151q-180 0 -180 -154zM520 1130v203h213v-203h-213z" />
<glyph unicode="&#xe5;" horiz-adv-x="956" d="M61 262q0 133 89.5 209t279.5 76h180v80q0 102 -39.5 139t-148.5 37q-95 0 -277 -53v151q155 47 320 47q189 0 275.5 -71t86.5 -232v-645h-211v82q-35 -30 -113.5 -68.5t-160.5 -38.5q-133 0 -207 70.5t-74 216.5zM279 268q0 -149 174 -149q39 0 84.5 13.5t72.5 27.5v262 h-151q-180 0 -180 -154zM287 1249q0 76 56 130.5t132 54.5q78 0 136.5 -48t58.5 -122q0 -84 -56 -142.5t-137 -58.5q-77 0 -133.5 55t-56.5 131zM379 1249q0 -43 29.5 -73.5t72.5 -30.5q39 0 68 31t29 71q0 43 -29.5 74t-73.5 31q-40 0 -68 -31t-28 -72z" />
<glyph unicode="&#xe6;" horiz-adv-x="1460" d="M61 264q0 135 85 207t251 72h205v86q0 97 -40.5 135.5t-147.5 38.5q-60 0 -137.5 -18t-131.5 -37v155q165 45 320 45q189 0 268 -88q94 88 260 88q381 0 381 -401v-129h-569q2 -76 19.5 -132t42.5 -88t62.5 -51t72 -24.5t79.5 -5.5q117 0 254 49v-150q-134 -41 -307 -41 q-228 0 -326 115q-77 -57 -155 -86t-187 -29q-134 0 -216.5 73.5t-82.5 215.5zM283 270q0 -71 43 -112t120 -41q89 0 201 65q-39 96 -45 234h-143q-84 0 -130 -37.5t-46 -108.5zM805 547h362q0 147 -41 202.5t-135 55.5q-102 0 -144 -62.5t-42 -195.5z" />
<glyph unicode="&#xe7;" horiz-adv-x="802" d="M76 461q0 229 123 358t340 129q102 0 200 -24v-154q-82 35 -180 35q-127 0 -196.5 -85t-69.5 -263q0 -338 285 -338q80 0 174 35v-152q-127 -22 -177 -25l-20 -73q60 -16 95.5 -55t35.5 -97q0 -63 -42.5 -103.5t-106 -56.5t-146.5 -16v86q162 4 162 76q0 73 -145 86 l47 156q-188 20 -283.5 143t-95.5 338z" />
<glyph unicode="&#xe8;" horiz-adv-x="958" d="M80 475q0 216 106.5 344.5t309.5 128.5q187 0 287 -101t100 -294v-133h-586q0 -75 16.5 -130.5t42.5 -87t65.5 -50t76.5 -24t84 -5.5q117 0 262 49v-154q-141 -43 -299 -43q-238 0 -351.5 126t-113.5 374zM283 1378h233l158 -268h-187zM299 555h381q0 142 -46 196 t-142 54q-193 0 -193 -250z" />
<glyph unicode="&#xe9;" horiz-adv-x="958" d="M80 475q0 216 106.5 344.5t309.5 128.5q187 0 287 -101t100 -294v-133h-586q0 -75 16.5 -130.5t42.5 -87t65.5 -50t76.5 -24t84 -5.5q117 0 262 49v-154q-141 -43 -299 -43q-238 0 -351.5 126t-113.5 374zM283 1110l159 268h232l-203 -268h-188zM299 555h381 q0 142 -46 196t-142 54q-193 0 -193 -250z" />
<glyph unicode="&#xea;" horiz-adv-x="958" d="M80 475q0 216 106.5 344.5t309.5 128.5q187 0 287 -101t100 -294v-133h-586q0 -75 16.5 -130.5t42.5 -87t65.5 -50t76.5 -24t84 -5.5q117 0 262 49v-154q-141 -43 -299 -43q-238 0 -351.5 126t-113.5 374zM201 1106l147 268h260l150 -268h-156l-125 176l-123 -176h-153z M299 555h381q0 142 -46 196t-142 54q-193 0 -193 -250z" />
<glyph unicode="&#xeb;" horiz-adv-x="958" d="M80 475q0 216 106.5 344.5t309.5 128.5q187 0 287 -101t100 -294v-133h-586q0 -75 16.5 -130.5t42.5 -87t65.5 -50t76.5 -24t84 -5.5q117 0 262 49v-154q-141 -43 -299 -43q-238 0 -351.5 126t-113.5 374zM223 1130v203h213v-203h-213zM299 555h381q0 142 -46 196 t-142 54q-193 0 -193 -250zM522 1130v203h213v-203h-213z" />
<glyph unicode="&#xec;" horiz-adv-x="503" d="M55 1378h234l157 -268h-186zM143 0v911h217v-911h-217z" />
<glyph unicode="&#xed;" horiz-adv-x="503" d="M55 1110l160 268h231l-202 -268h-189zM143 0v911h217v-911h-217z" />
<glyph unicode="&#xee;" horiz-adv-x="503" d="M-27 1106l148 268h260l149 -268h-155l-125 176l-123 -176h-154zM143 0v911h217v-911h-217z" />
<glyph unicode="&#xef;" horiz-adv-x="503" d="M-4 1130v203h213v-203h-213zM143 0v911h217v-911h-217zM295 1130v203h213v-203h-213z" />
<glyph unicode="&#xf0;" horiz-adv-x="1062" d="M80 473q0 251 110.5 363t329.5 112q74 0 146 -16q-36 99 -162 231l-131 -69l-49 94l100 53q-126 110 -219 158h280q39 -27 90 -72l125 64l50 -93l-91 -47q304 -304 304 -745q0 -287 -102.5 -409t-340.5 -122q-234 0 -337 117.5t-103 380.5zM297 473q0 -92 11 -157 t29 -103t48.5 -59.5t60.5 -28t74 -6.5q45 0 75.5 6.5t60.5 28t48 59.5t28.5 103t10.5 157q0 104 -14.5 171.5t-45.5 102t-68.5 46.5t-94.5 12q-56 0 -93.5 -12t-68.5 -46.5t-46 -102t-15 -171.5z" />
<glyph unicode="&#xf1;" horiz-adv-x="1056" d="M131 0v911h217v-69q57 38 142 72t155 34q142 0 211.5 -72t69.5 -225v-651h-219v635q0 158 -146 158q-86 0 -213 -52v-741h-217zM219 1159q5 78 59.5 136.5t135.5 58.5q49 0 137.5 -28t99.5 -28q70 0 70 56h117q-3 -82 -51.5 -138.5t-133.5 -56.5q-45 0 -134.5 31 t-108.5 31q-29 0 -48.5 -18.5t-21.5 -43.5h-121z" />
<glyph unicode="&#xf2;" horiz-adv-x="1042" d="M80 473q0 475 440 475q443 0 443 -475q0 -262 -106.5 -380t-336.5 -118q-229 0 -334.5 118t-105.5 380zM297 473q0 -87 10.5 -150t28.5 -102t47 -62t61 -31.5t76 -8.5q56 0 94 14t69 51.5t45.5 109t14.5 179.5q0 101 -14 167t-44.5 102t-69 49.5t-95.5 13.5 q-56 0 -95 -15t-69 -51.5t-44.5 -102.5t-14.5 -163zM326 1378h233l158 -268h-187z" />
<glyph unicode="&#xf3;" horiz-adv-x="1042" d="M80 473q0 475 440 475q443 0 443 -475q0 -262 -106.5 -380t-336.5 -118q-229 0 -334.5 118t-105.5 380zM297 473q0 -87 10.5 -150t28.5 -102t47 -62t61 -31.5t76 -8.5q56 0 94 14t69 51.5t45.5 109t14.5 179.5q0 101 -14 167t-44.5 102t-69 49.5t-95.5 13.5 q-56 0 -95 -15t-69 -51.5t-44.5 -102.5t-14.5 -163zM326 1110l159 268h232l-203 -268h-188z" />
<glyph unicode="&#xf4;" horiz-adv-x="1042" d="M80 473q0 475 440 475q443 0 443 -475q0 -262 -106.5 -380t-336.5 -118q-229 0 -334.5 118t-105.5 380zM242 1106l147 268h260l150 -268h-156l-125 176l-123 -176h-153zM297 473q0 -87 10.5 -150t28.5 -102t47 -62t61 -31.5t76 -8.5q56 0 94 14t69 51.5t45.5 109 t14.5 179.5q0 101 -14 167t-44.5 102t-69 49.5t-95.5 13.5q-56 0 -95 -15t-69 -51.5t-44.5 -102.5t-14.5 -163z" />
<glyph unicode="&#xf5;" horiz-adv-x="1042" d="M80 473q0 475 440 475q443 0 443 -475q0 -262 -106.5 -380t-336.5 -118q-229 0 -334.5 118t-105.5 380zM211 1159q5 78 59.5 136.5t135.5 58.5q49 0 137.5 -28t99.5 -28q70 0 70 56h116q-3 -82 -51 -138.5t-133 -56.5q-45 0 -135 31t-109 31q-29 0 -48 -18.5t-21 -43.5 h-121zM297 473q0 -87 10.5 -150t28.5 -102t47 -62t61 -31.5t76 -8.5q56 0 94 14t69 51.5t45.5 109t14.5 179.5q0 101 -14 167t-44.5 102t-69 49.5t-95.5 13.5q-56 0 -95 -15t-69 -51.5t-44.5 -102.5t-14.5 -163z" />
<glyph unicode="&#xf6;" horiz-adv-x="1042" d="M80 473q0 475 440 475q443 0 443 -475q0 -262 -106.5 -380t-336.5 -118q-229 0 -334.5 118t-105.5 380zM264 1130v203h213v-203h-213zM297 473q0 -87 10.5 -150t28.5 -102t47 -62t61 -31.5t76 -8.5q56 0 94 14t69 51.5t45.5 109t14.5 179.5q0 101 -14 167t-44.5 102 t-69 49.5t-95.5 13.5q-56 0 -95 -15t-69 -51.5t-44.5 -102.5t-14.5 -163zM563 1130v203h213v-203h-213z" />
<glyph unicode="&#xf7;" d="M150 545v155h724v-155h-724zM393 170v225h238v-225h-238zM393 854v227h238v-227h-238z" />
<glyph unicode="&#xf8;" horiz-adv-x="1042" d="M80 473q0 475 440 475q443 0 443 -475q0 -262 -106.5 -380t-336.5 -118q-229 0 -334.5 118t-105.5 380zM297 473q0 -117 18 -188l347 479q-46 41 -142 41q-56 0 -95 -15t-69 -51.5t-44.5 -102.5t-14.5 -163zM373 166q50 -47 147 -47q56 0 94 14t69 51.5t45.5 109 t14.5 179.5q0 105 -18 176z" />
<glyph unicode="&#xf9;" horiz-adv-x="1042" d="M131 262v649h217v-622q0 -78 35.5 -114t110.5 -36q102 0 202 39v733h215v-911h-215v80q-51 -30 -82 -46.5t-92 -37.5t-112 -21q-142 0 -210.5 68t-68.5 219zM326 1378h233l158 -268h-187z" />
<glyph unicode="&#xfa;" horiz-adv-x="1042" d="M131 262v649h217v-622q0 -78 35.5 -114t110.5 -36q102 0 202 39v733h215v-911h-215v80q-51 -30 -82 -46.5t-92 -37.5t-112 -21q-142 0 -210.5 68t-68.5 219zM326 1110l159 268h232l-203 -268h-188z" />
<glyph unicode="&#xfb;" horiz-adv-x="1042" d="M131 262v649h217v-622q0 -78 35.5 -114t110.5 -36q102 0 202 39v733h215v-911h-215v80q-51 -30 -82 -46.5t-92 -37.5t-112 -21q-142 0 -210.5 68t-68.5 219zM242 1106l147 268h260l150 -268h-156l-125 176l-123 -176h-153z" />
<glyph unicode="&#xfc;" horiz-adv-x="1042" d="M131 262v649h217v-622q0 -78 35.5 -114t110.5 -36q102 0 202 39v733h215v-911h-215v80q-51 -30 -82 -46.5t-92 -37.5t-112 -21q-142 0 -210.5 68t-68.5 219zM264 1130v203h213v-203h-213zM563 1130v203h213v-203h-213z" />
<glyph unicode="&#xfd;" horiz-adv-x="907" d="M10 911h228l215 -665l239 665h213l-346 -870l-176 -481h-219l184 463zM258 1110l160 268h231l-203 -268h-188z" />
<glyph unicode="&#xfe;" horiz-adv-x="1069" d="M131 -440v1837h217v-520q142 71 258 71q89 0 157.5 -24t121.5 -76.5t80.5 -144t27.5 -218.5q0 -107 -27.5 -193.5t-73.5 -145t-110 -97.5t-135 -56.5t-149 -17.5q-85 0 -150 21v-436h-217zM348 135q61 -16 125 -16q47 0 86.5 8t80.5 31.5t69.5 62t46.5 105t18 155.5 q0 166 -63 244t-193 78q-79 0 -170 -33v-635z" />
<glyph unicode="&#xff;" horiz-adv-x="907" d="M10 911h228l215 -665l239 665h213l-346 -870l-176 -481h-219l184 463zM197 1130v203h213v-203h-213zM496 1130v203h213v-203h-213z" />
<glyph unicode="&#x152;" horiz-adv-x="1708" d="M92 666q0 150 31.5 265.5t99.5 204t186 135t281 46.5h957v-156h-564v-387h449v-156h-449v-462h584v-156h-1018q-125 0 -221 33t-159 90.5t-103 142.5t-57 182.5t-17 217.5zM317 666q0 -121 17 -210t56.5 -159t110.5 -105.5t173 -35.5h184v1005h-156q-210 0 -297.5 -121 t-87.5 -374z" />
<glyph unicode="&#x153;" horiz-adv-x="1605" d="M80 473q0 475 440 475q220 0 326 -133q97 133 297 133q187 0 287 -101t100 -294v-129h-586q0 -63 11 -112.5t32 -81.5t46.5 -54t59.5 -33t65.5 -15.5t70.5 -4.5q117 0 262 49v-154q-141 -43 -299 -43q-237 0 -344 140q-101 -140 -328 -140q-229 0 -334.5 118t-105.5 380z M297 473q0 -87 10.5 -150t28.5 -102t47 -62t61 -31.5t76 -8.5q56 0 94 14t69 51.5t45.5 109t14.5 179.5q0 101 -14 167t-44.5 102t-69 49.5t-95.5 13.5q-56 0 -95 -15t-69 -51.5t-44.5 -102.5t-14.5 -163zM946 551h381q0 142 -46.5 198t-141.5 56q-193 0 -193 -254z" />
<glyph unicode="&#x178;" horiz-adv-x="1107" d="M2 1317h246l307 -555l309 555h242l-438 -748v-569h-226v569zM297 1536v203h213v-203h-213zM596 1536v203h213v-203h-213z" />
<glyph unicode="&#x2c6;" horiz-adv-x="598" d="M20 1106l148 268h260l150 -268h-156l-125 176l-123 -176h-154z" />
<glyph unicode="&#x2dc;" horiz-adv-x="688" d="M35 1159q5 78 59 136.5t135 58.5q49 0 138 -28t100 -28q70 0 70 56h116q-3 -82 -51 -138.5t-133 -56.5q-45 0 -135 31t-109 31q-29 0 -48 -18.5t-21 -43.5h-121z" />
<glyph unicode="&#x2000;" horiz-adv-x="892" />
<glyph unicode="&#x2001;" horiz-adv-x="1784" />
<glyph unicode="&#x2002;" horiz-adv-x="892" />
<glyph unicode="&#x2003;" horiz-adv-x="1784" />
<glyph unicode="&#x2004;" horiz-adv-x="594" />
<glyph unicode="&#x2005;" horiz-adv-x="446" />
<glyph unicode="&#x2006;" horiz-adv-x="297" />
<glyph unicode="&#x2007;" horiz-adv-x="297" />
<glyph unicode="&#x2008;" horiz-adv-x="223" />
<glyph unicode="&#x2009;" horiz-adv-x="356" />
<glyph unicode="&#x200a;" horiz-adv-x="99" />
<glyph unicode="&#x2010;" horiz-adv-x="544" d="M41 395v158h463v-158h-463z" />
<glyph unicode="&#x2011;" horiz-adv-x="544" d="M41 395v158h463v-158h-463z" />
<glyph unicode="&#x2012;" horiz-adv-x="544" d="M41 395v158h463v-158h-463z" />
<glyph unicode="&#x2013;" d="M0 465v149h1024v-149h-1024z" />
<glyph unicode="&#x2014;" horiz-adv-x="2048" d="M0 465v149h2048v-149h-2048z" />
<glyph unicode="&#x2018;" horiz-adv-x="372" d="M68 872v203l84 242h131l-72 -221h90v-224h-233z" />
<glyph unicode="&#x2019;" horiz-adv-x="372" d="M70 1094v223h233v-203l-84 -242h-131l72 222h-90z" />
<glyph unicode="&#x201a;" horiz-adv-x="372" d="M70 0v223h233v-203l-84 -251h-131l72 231h-90z" />
<glyph unicode="&#x201c;" horiz-adv-x="731" d="M68 872v203l84 242h131l-72 -221h90v-224h-233zM426 872v203l84 242h131l-72 -221h90v-224h-233z" />
<glyph unicode="&#x201d;" horiz-adv-x="731" d="M70 1094v223h233v-203l-84 -242h-131l72 222h-90zM428 1094v223h234v-203l-84 -242h-132l72 222h-90z" />
<glyph unicode="&#x201e;" horiz-adv-x="731" d="M70 0v223h233v-203l-84 -251h-131l72 231h-90zM428 0v223h234v-203l-84 -251h-132l72 231h-90z" />
<glyph unicode="&#x2022;" horiz-adv-x="942" d="M119 698q0 146 105 247.5t253 101.5q141 0 243.5 -102t102.5 -247q0 -146 -104.5 -248t-253.5 -102q-140 0 -243 102.5t-103 247.5z" />
<glyph unicode="&#x2026;" horiz-adv-x="1314" d="M100 0v225h238v-225h-238zM539 0v225h237v-225h-237zM977 0v225h237v-225h-237z" />
<glyph unicode="&#x202f;" horiz-adv-x="356" />
<glyph unicode="&#x2039;" horiz-adv-x="573" d="M117 475l184 350h176l-168 -350l168 -350h-176z" />
<glyph unicode="&#x203a;" horiz-adv-x="573" d="M96 125l168 350l-168 350h176l185 -350l-185 -350h-176z" />
<glyph unicode="&#x205f;" horiz-adv-x="446" />
<glyph unicode="&#x20ac;" d="M96 449v149h111v125h-111v147h123q59 445 553 445q87 0 184 -19l-32 -155q-93 22 -166 22q-154 0 -232.5 -73t-93.5 -220h440q-16 -98 -26 -147h-424v-125h403l-26 -149h-369q9 -74 29.5 -128t59 -97t102.5 -65t153 -22q85 0 187 27v-158q-120 -26 -232 -26 q-446 0 -512 469h-121z" />
<glyph unicode="&#x2122;" horiz-adv-x="1261" d="M51 1225v92h471v-92h-172v-473h-127v473h-172zM571 752v565h174l142 -436l141 436h172v-565h-117v405l-135 -405h-121l-139 407v-407h-117z" />
<glyph unicode="&#xe000;" horiz-adv-x="911" d="M0 0v911h911v-911h-911z" />
<glyph unicode="&#xfb01;" horiz-adv-x="1120" d="M20 768v143h158v131q0 357 412 357q138 0 256 -35v-150q-34 12 -104.5 24.5t-123.5 12.5q-223 0 -223 -190v-150h582v-911h-217v768h-365v-768h-217v768h-158z" />
<glyph unicode="&#xfb02;" horiz-adv-x="1120" d="M20 768v143h158v189q0 159 81.5 229t254.5 70q62 0 125 -13v-141q-35 10 -107 10q-69 0 -103 -32t-34 -111v-201h223v-143h-223v-768h-217v768h-158zM760 0v1399h217v-1399h-217z" />
<glyph unicode="&#xfb03;" horiz-adv-x="1701" d="M20 768v143h158v189q0 159 81.5 229t254.5 70q62 0 125 -13v-141q-35 10 -107 10q-69 0 -103 -32t-34 -111v-201h203v-143h-203v-768h-217v768h-158zM623 768v143h137v131q0 357 411 357q139 0 256 -35v-150q-34 12 -104 24.5t-123 12.5q-223 0 -223 -190v-150h582v-911 h-218v768h-364v-768h-217v768h-137z" />
<glyph unicode="&#xfb04;" horiz-adv-x="1701" d="M20 768v143h158v189q0 159 81.5 229t254.5 70q62 0 125 -13v-141q-35 10 -107 10q-69 0 -103 -32t-34 -111v-201h203v-143h-203v-768h-217v768h-158zM623 768v143h137v189q0 159 81.5 229t254.5 70q62 0 125 -13v-141q-35 10 -107 10q-69 0 -103 -32t-34 -111v-201h223 v-143h-223v-768h-217v768h-137zM1341 0v1399h218v-1399h-218z" />
</font>
</defs>
</svg>
