<?xml version="1.0" standalone="no"?>
<!DOCTYPE svg PUBLIC "-//W3C//DTD SVG 1.1//EN" "http://www.w3.org/Graphics/SVG/1.1/DTD/svg11.dtd" >
<svg xmlns="http://www.w3.org/2000/svg">
<metadata></metadata>
<defs>
<font id="press_serif_demi_bolddemibold" horiz-adv-x="942" >
<font-face units-per-em="2048" ascent="1536" descent="-512" />
<missing-glyph horiz-adv-x="446" />
<glyph unicode="&#xfb01;" horiz-adv-x="1169" d="M41 811v96h137v17q0 99 28 180t74 134.5t108.5 90.5t129 53.5t137.5 16.5q123 0 194 -40.5t71 -92.5q0 -33 -29 -63.5t-68 -31.5q-11 22 -20.5 39t-29 41.5t-41 40.5t-55.5 27.5t-73 11.5q-94 0 -146 -75.5t-52 -251.5v-97h348l264 37v-815q0 -55 41 -72l74 -28v-29h-459 v29l74 28q40 17 40 72v612q0 42 -17 56t-64 14h-301v-678q0 -57 43 -72l94 -32v-29h-482v29l74 28q43 18 43 72v682h-137z" />
<glyph unicode="&#xfb02;" horiz-adv-x="1169" d="M41 811v96h137v17q0 99 28 180t74 134.5t108.5 90.5t129 53.5t137.5 16.5q121 0 205 -35l158 35v-1270q0 -55 41 -72l74 -28v-29h-459v29l74 28q40 17 40 72v1028q0 174 -184 174q-94 0 -146 -75.5t-52 -251.5v-97h301v-96h-301v-678q0 -57 43 -72l94 -32v-29h-482v29 l74 28q43 18 43 72v682h-137z" />
<glyph horiz-adv-x="2048" />
<glyph horiz-adv-x="2048" />
<glyph unicode="&#xd;" horiz-adv-x="2048" />
<glyph unicode=" "  horiz-adv-x="446" />
<glyph unicode="&#x09;" horiz-adv-x="446" />
<glyph unicode="&#xa0;" horiz-adv-x="446" />
<glyph unicode="!" horiz-adv-x="481" d="M92 113q0 78 35.5 109.5t114.5 31.5t114 -31.5t35 -109.5q0 -79 -34 -108.5t-115 -29.5t-115.5 29.5t-34.5 108.5zM94 1214q0 55 43.5 86t104.5 31t104 -30.5t43 -86.5q0 -106 -17.5 -214.5t-39 -185.5t-39 -187.5t-17.5 -220.5q0 -12 5 -52h-78q4 32 4 52 q0 110 -17.5 221t-39 188t-39 185t-17.5 214z" />
<glyph unicode="&#x22;" horiz-adv-x="759" d="M90 1317h272l-100 -426h-72zM438 1317h273l-101 -426h-71z" />
<glyph unicode="#" horiz-adv-x="901" d="M0 418l23 110h194l55 260h-194l22 111h195l88 418h111l-88 -418h188l88 418h111l-88 -418h194l-22 -111h-195l-55 -260h194l-22 -110h-195l-88 -418h-110l88 418h-189l-88 -418h-111l89 418h-195zM328 528h188l55 260h-188z" />
<glyph unicode="$" horiz-adv-x="1011" d="M41 201q0 44 37 74t96 30q31 0 47 -4q19 -116 80 -185t174 -69v535q-183 98 -257 155q-167 126 -167 269q0 77 38.5 140.5t101.5 103.5t136 62.5t148 26.5v142h70v-142q97 -4 170.5 -25.5t111.5 -53t56 -61.5t18 -58q0 -41 -33 -76t-84 -35q-30 0 -53 10 q-11 83 -59.5 143.5t-126.5 73.5v-460q45 -24 67 -36t65 -36.5t66.5 -40t59.5 -41.5t56 -47t44.5 -50t37 -56.5t21.5 -60.5t9 -67q0 -87 -35.5 -159t-96.5 -119.5t-135.5 -77t-158.5 -39.5v-213h-70v209h-2q-186 0 -309 67.5t-123 170.5zM276 1073q0 -71 52 -126.5 t147 -108.5v422q-96 -5 -147.5 -48.5t-51.5 -138.5zM545 57q184 41 184 250q0 70 -48 125.5t-136 108.5v-484z" />
<glyph unicode="%" horiz-adv-x="1691" d="M82 946q0 95 30 172t78 124t105 72t115 25t114.5 -25t105 -72t78 -124t29.5 -172q0 -94 -29 -170t-76.5 -122.5t-104.5 -71.5t-117 -25t-117.5 25t-105 71.5t-76.5 122.5t-29 170zM289 946q0 -156 32.5 -242t88.5 -86t88 85.5t32 242.5q0 163 -31.5 246.5t-88.5 83.5 t-89 -84t-32 -246zM379 -143l797 1515h108l-799 -1515h-106zM934 311q0 95 30 172.5t78 124.5t105 72t115 25t114.5 -25t105 -72t78 -124.5t29.5 -172.5q0 -94 -29 -170t-76.5 -122.5t-104.5 -71.5t-117 -25t-117.5 25t-105 71.5t-76.5 122.5t-29 170zM1139 311 q0 -156 33.5 -241.5t89.5 -85.5t88 85t32 242q0 163 -31.5 246.5t-88.5 83.5t-90 -84t-33 -246z" />
<glyph unicode="&#x26;" horiz-adv-x="1384" d="M41 293q0 60 14 111t42.5 90.5t59.5 69.5t79.5 58t85.5 46t94 41q-56 154 -56 272q0 157 93.5 257.5t251.5 100.5q40 0 75.5 -5.5t73 -22t64 -42t44 -70.5t17.5 -103q0 -47 -12 -87.5t-38 -74t-53 -59.5t-71 -52.5t-76 -43.5t-84 -42q114 -263 301 -469q98 145 98 305 q0 56 -33 86t-83 48v28h375v-24l-72 -43q-31 -19 -53 -54.5t-29 -68.5q-40 -193 -148 -332q167 -160 299 -160q13 0 19.5 1.5t19 5.5t27.5 8v-37q-43 -21 -126.5 -40.5t-166.5 -19.5q-97 0 -225 103q-162 -103 -375 -103q-83 0 -158.5 20t-137.5 58.5t-99 101.5t-37 142z M283 328q0 -138 66 -210.5t198 -72.5q133 0 248 76q-106 99 -204 245t-149 287q-74 -53 -116.5 -136t-42.5 -189zM565 1038q0 -97 58 -252q83 45 131.5 117t48.5 166q0 209 -113 209q-26 0 -45.5 -6.5t-33 -16t-22.5 -29t-13.5 -35.5t-7 -45.5t-3 -50t-0.5 -57.5z" />
<glyph unicode="'" horiz-adv-x="452" d="M90 1317h272l-100 -426h-72z" />
<glyph unicode="(" horiz-adv-x="552" d="M119 621q0 62 5.5 117.5t20 108.5t28 95t41 92.5t47 84.5t58 87.5t62 84l70.5 91.5h61q-71 -180 -117.5 -385t-46.5 -376q0 -172 47 -381.5t117 -395.5h-61q-44 60 -61 83t-55 77t-53.5 80.5t-44.5 76.5t-41.5 83t-31 83t-26 92.5t-13.5 95t-6 106.5z" />
<glyph unicode=")" horiz-adv-x="552" d="M41 -156q71 184 118.5 394t47.5 383q0 170 -47 375t-119 386h63q143 -189 190 -268q116 -188 135 -389q5 -51 5 -104q0 -61 -5.5 -117t-20.5 -110.5t-28.5 -97t-41.5 -95.5t-47 -86.5t-58 -90.5t-60.5 -86.5t-68.5 -93.5h-63z" />
<glyph unicode="*" horiz-adv-x="759" d="M49 1069q0 33 21 61.5t53 28.5q27 0 73.5 -27t92.5 -59.5t61 -38.5q-2 21 -25.5 106.5t-23.5 129.5q0 32 23 50.5t57 18.5q45 0 62.5 -23.5t17.5 -68.5q0 -37 -23.5 -115.5t-25.5 -97.5q16 7 61 39t90 58t76 26q34 0 54 -26t20 -60q0 -52 -47 -67q-40 -14 -129.5 -18.5 t-106.5 -8.5q9 -10 60.5 -48.5t89.5 -78.5t38 -72q0 -31 -28 -54.5t-60 -23.5q-34 0 -64 48.5t-55 116.5t-30 77q-7 -11 -23.5 -55t-32 -83t-42 -71.5t-54.5 -32.5q-31 0 -58.5 26t-27.5 56q0 27 39.5 67t90.5 79.5t59 48.5q-12 3 -64 5.5t-97 7t-83.5 24.5t-38.5 55z" />
<glyph unicode="+" horiz-adv-x="962" d="M117 483v115h301v305h123v-305h301v-115h-301v-305h-123v305h-301z" />
<glyph unicode="," horiz-adv-x="452" d="M68 -229q20 64 40.5 189.5t24.5 236.5h252q-29 -78 -97 -199t-138 -227h-82z" />
<glyph unicode="-" horiz-adv-x="462" d="M41 483v146h381v-146h-381z" />
<glyph unicode="." horiz-adv-x="452" d="M76 113q0 77 36 109t115 32q78 0 114 -32t36 -109q0 -79 -35 -108.5t-115 -29.5q-81 0 -116 29.5t-35 108.5z" />
<glyph unicode="/" horiz-adv-x="665" d="M0 -29l555 1428h111l-557 -1428h-109z" />
<glyph unicode="0" d="M31 641q0 301 120.5 484.5t319.5 183.5t319.5 -183.5t120.5 -484.5q0 -193 -51 -344t-152 -239.5t-237 -88.5t-237 88.5t-152 239.5t-51 344zM281 641q0 -84 1 -141t5.5 -125t12.5 -112.5t22 -89.5t33.5 -70.5t49 -41.5t66.5 -16t66 16t49 41.5t33.5 71t21.5 89t12 112.5 t5 125t1 141q0 80 -0.5 129t-3 113.5t-8 103t-14.5 84t-23 70.5t-33 48.5t-45.5 33.5t-60.5 10t-60.5 -10t-46 -33t-33.5 -49t-23 -70.5t-14.5 -84t-8.5 -103t-3.5 -113.5t-0.5 -129z" />
<glyph unicode="1" d="M180 0v29l172 55q23 7 32 20.5t9 38.5v926q0 25 -9 38t-32 19l-172 48v32l443 103v-1166q0 -25 9 -38.5t32 -20.5l172 -55v-29h-656z" />
<glyph unicode="2" d="M66 989q0 98 64.5 173.5t155 111t185.5 35.5q190 0 296.5 -90t106.5 -275q0 -54 -24.5 -117.5t-59 -119t-93.5 -124.5t-104 -116t-117 -112t-106.5 -94.5t-95.5 -80.5h598v-180h-792v102q66 58 107 95t107.5 103t109.5 117t94 122t80.5 134.5t50 139.5t20.5 150 q0 128 -55.5 200t-155.5 72q-88 0 -127 -64t-39 -165q0 -54 23 -115q-27 -31 -94 -31q-66 0 -100.5 39t-34.5 90z" />
<glyph unicode="3" d="M39 180q0 54 38.5 90.5t96.5 36.5q26 0 59 -10q-4 -28 -4 -43q4 -211 177 -211q120 0 185.5 79.5t65.5 239.5q0 163 -63.5 228t-206.5 65h-113v76q328 0 328 285q0 219 -170 219q-53 0 -88.5 -16.5t-53.5 -50t-24.5 -72t-7.5 -95.5q0 -15 4 -43q-43 -14 -84 -14 q-62 0 -93.5 36t-31.5 81q0 71 57 128t151 88.5t204 31.5q169 0 269 -74.5t100 -202.5q0 -75 -43.5 -139.5t-106 -103.5t-137.5 -60v-6q152 -8 250 -96t98 -228q0 -100 -33 -178t-83 -124t-118 -75.5t-130.5 -40t-127.5 -10.5q-182 0 -273 56t-91 153z" />
<glyph unicode="4" d="M23 315v93l569 872h194v-854h152v-111h-152v-172q0 -52 48 -75l86 -39v-29h-492v29l84 39q47 23 47 71v176h-536zM145 426h414v641z" />
<glyph unicode="5" d="M70 180q0 56 34.5 92.5t92.5 36.5q29 0 67 -12q-4 -28 -4 -43q1 -34 4.5 -60.5t14 -56t28 -49t48.5 -32.5t73 -13q117 0 182.5 88t65.5 252q0 57 -4.5 99t-18 84t-36 68.5t-61.5 43t-93 16.5q-29 0 -57.5 -5t-48.5 -11t-44 -17.5t-35 -18.5t-31.5 -20t-25.5 -16h-78 l37 674h611v-203h-521l-22 -387q39 39 112 74t152 35q184 0 288.5 -105.5t104.5 -273.5q0 -96 -29 -174t-76.5 -128t-111 -84t-129 -48.5t-133.5 -14.5q-161 0 -258.5 51t-97.5 158z" />
<glyph unicode="6" d="M37 440q0 138 51 277t146.5 265t246.5 227.5t338 154.5v-92q-273 -110 -408 -318.5t-135 -486.5q0 -210 55.5 -316t162.5 -106q84 0 132 89.5t48 254.5q0 151 -55.5 240.5t-159.5 89.5q-39 0 -66 -2v59q62 19 115 19q189 0 291 -97t102 -270q0 -208 -122.5 -332.5 t-311.5 -124.5q-200 0 -315 125t-115 344z" />
<glyph unicode="7" d="M92 1077v203h778v-106l-475 -1174h-180l506 1077h-629z" />
<glyph unicode="8" d="M47 322q0 55 25 108t68 96.5t87 76.5t95 63q-53 40 -90.5 73.5t-72.5 75.5t-53 87.5t-18 94.5q0 103 57 175.5t142 104.5t186 32q64 0 123 -16t110 -47.5t82 -87t31 -126.5q0 -79 -62 -155t-157 -136q52 -36 88 -62.5t78.5 -65t68 -73.5t43 -79t17.5 -90 q0 -170 -117.5 -285t-294.5 -115q-91 0 -168.5 21t-138 62.5t-95 110t-34.5 157.5zM256 344q0 -297 215 -297q95 0 154 58t59 186q0 42 -21.5 83t-65.5 81.5t-85.5 72.5t-105.5 77q-9 6 -13 9q-66 -57 -101.5 -120.5t-35.5 -149.5zM295 1040q0 -32 17.5 -64t54 -65t71 -58 t90.5 -62q103 92 103 233q0 101 -49.5 148t-124.5 47q-162 0 -162 -179z" />
<glyph unicode="9" d="M39 866q0 206 122.5 324.5t311.5 118.5q198 0 314 -133.5t116 -344.5q0 -101 -30 -208.5t-92 -214t-148 -197t-208 -159.5t-263 -99v84q110 39 196.5 100.5t143.5 135t94 163.5t52.5 182t15.5 195q0 420 -218 420q-85 0 -132.5 -85.5t-47.5 -256.5q0 -148 56 -240 t159 -92q12 0 66 4v-59q-55 -17 -115 -17q-188 0 -290.5 103t-102.5 276z" />
<glyph unicode=":" horiz-adv-x="452" d="M76 113q0 78 35 109.5t114 31.5t114.5 -31.5t35.5 -109.5q0 -79 -34.5 -108.5t-115.5 -29.5t-115 29.5t-34 108.5zM76 803q0 78 35 109.5t114 31.5t114.5 -31.5t35.5 -109.5q0 -79 -34.5 -108t-115.5 -29t-115 29t-34 108z" />
<glyph unicode=";" horiz-adv-x="452" d="M76 803q0 78 35 109.5t114 31.5t114.5 -31.5t35.5 -109.5q0 -79 -34.5 -108t-115.5 -29t-115 29t-34 108zM78 -229q19 66 39 191t24 235h252q-29 -78 -97 -199t-138 -227h-80z" />
<glyph unicode="&#x3c;" horiz-adv-x="905" d="M82 393v139l741 406v-139l-620 -336l620 -336v-141z" />
<glyph unicode="=" horiz-adv-x="962" d="M117 356v115h725v-115h-725zM117 610v117h725v-117h-725z" />
<glyph unicode="&#x3e;" horiz-adv-x="905" d="M82 -14v141l620 336l-620 336v139l741 -406v-139z" />
<glyph unicode="?" horiz-adv-x="866" d="M39 1100q0 56 29.5 97.5t80 65t111 35t129.5 11.5q79 0 150.5 -23.5t131 -70t95 -124t35.5 -176.5q0 -81 -24 -148t-62.5 -112t-91.5 -77.5t-106 -50t-111 -25.5v-150h-64v357q38 5 74.5 16t74.5 33t67 51.5t47 75t18 100.5q0 137 -59 199.5t-173 62.5q-52 0 -90 -20 t-58 -54t-29.5 -70.5t-10.5 -76.5q0 -15 4 -43q-21 -6 -41 -6q-52 0 -89.5 38.5t-37.5 84.5zM221 113q0 78 35.5 109.5t114.5 31.5t114 -31.5t35 -109.5q0 -79 -34 -108.5t-115 -29.5t-115.5 29.5t-34.5 108.5z" />
<glyph unicode="@" horiz-adv-x="1501" d="M94 657q0 137 50 261.5t137 217.5t214 148t273 55q298 0 485 -172t187 -448q0 -128 -55.5 -225t-146 -146t-200.5 -49q-42 0 -84 22.5t-65 59.5q-107 -82 -184 -82q-281 0 -281 356q0 71 20.5 133.5t62 113t111.5 79.5t160 29q153 0 293 -41v-523q0 -10 1.5 -21t5.5 -26 t14.5 -24.5t25.5 -9.5q158 0 158 340q0 256 -135.5 409.5t-372.5 153.5q-229 0 -365.5 -163t-136.5 -446q0 -276 134.5 -442t367.5 -166q96 0 166 18.5t143 61.5l53 -51q-173 -100 -362 -100q-146 0 -273 54.5t-214 146.5t-137 215.5t-50 260.5zM610 680q0 -148 36.5 -217.5 t137.5 -69.5q30 0 101 13v540q-16 2 -62 2q-97 0 -155 -72t-58 -196z" />
<glyph unicode="A" horiz-adv-x="1286" d="M4 0v29l59 37q39 21 62 81l461 1178h116l455 -1178q19 -51 45 -69l84 -49v-29h-508v29l94 47q29 14 29 55q0 20 -6 35l-102 289h-441l-100 -287q-8 -20 -8 -39q0 -40 26 -53l88 -47v-29h-354zM383 543h379l-174 487q-8 24 -19 68h-2q-13 -60 -16 -68z" />
<glyph unicode="B" horiz-adv-x="1177" d="M61 0v29l95 39q45 19 45 71v1039q0 50 -45 69l-95 41v29h584q377 0 377 -311q0 -63 -26 -115t-69.5 -85t-89 -53.5t-94.5 -31.5q78 -10 143.5 -33t120.5 -61.5t86 -98.5t31 -135q0 -182 -111 -287.5t-321 -105.5h-631zM444 78h164q120 0 193 76t73 235q0 118 -84.5 191 t-197.5 73h-148v-575zM444 723h97q107 0 172 81.5t65 199.5q0 122 -58 185.5t-185 63.5h-91v-530z" />
<glyph unicode="C" horiz-adv-x="1181" d="M94 635q0 142 32 258.5t89.5 198.5t138 138t175.5 82.5t204 26.5q190 0 365 -67v-244h-41q-34 47 -53.5 71t-52.5 58t-62.5 50t-72 28t-91.5 12q-379 0 -379 -604q0 -139 22 -241.5t72.5 -181.5t139 -119t215.5 -40q63 0 146 32t138 71h41l-33 -144q-43 -23 -133 -40 t-198 -17q-148 0 -269.5 43.5t-209 127t-135.5 211.5t-48 290z" />
<glyph unicode="D" horiz-adv-x="1335" d="M61 0v29l95 39q45 19 45 71v1039q0 50 -45 69l-95 41v29h588q332 0 480.5 -165.5t148.5 -485.5q0 -129 -39.5 -248t-111.5 -212.5t-184.5 -149.5t-248.5 -56h-633zM444 80h199q73 0 131 18t97.5 47.5t68 76t44.5 93.5t25.5 111t12 117t2.5 123q0 75 -3.5 133t-14.5 119.5 t-30 107t-50.5 87.5t-74.5 68.5t-104.5 42t-138.5 15.5h-164v-1159z" />
<glyph unicode="E" horiz-adv-x="1132" d="M61 0v29l82 39q45 22 45 71v1039q0 47 -45 69l-82 41v29h938v-256h-36l-86 106q-33 42 -66.5 55t-112.5 13h-266v-512h238q25 0 65.5 11.5t59.5 31.5l51 51h35v-260h-35l-53 55q-19 19 -55 30t-66 11h-240v-571h287q110 0 143.5 12.5t98.5 77.5l94 94h39l-41 -266h-992z " />
<glyph unicode="F" horiz-adv-x="1081" d="M61 0v29l82 39q45 22 45 71v1039q0 47 -45 69l-82 41v29h981v-256h-36l-86 110q-33 42 -66.5 55t-112.5 13h-309v-516h281q24 0 64.5 11.5t60.5 31.5l51 51h33v-260h-33l-55 55q-17 19 -53.5 30t-65.5 11h-283v-506q0 -52 45 -71l123 -47v-29h-539z" />
<glyph unicode="G" horiz-adv-x="1292" d="M94 653q0 686 639 686q196 0 400 -71v-242h-41q-40 52 -72 87.5t-78 74t-99 58.5t-112 20q-200 0 -287.5 -146t-87.5 -458q0 -69 4.5 -127.5t16 -121t30 -112t49 -94.5t71 -75.5t97.5 -48t126 -17.5q84 0 165 22v387q0 17 -7.5 24t-30.5 17l-109 51v35h473v-35l-63 -41 q-21 -13 -28 -23t-7 -28v-475h-35l-141 43q-150 -80 -277 -80q-303 0 -449.5 171.5t-146.5 518.5z" />
<glyph unicode="H" horiz-adv-x="1419" d="M61 0v29l82 39q45 22 45 71v1039q0 47 -45 69l-82 41v29h498v-29l-82 -41q-45 -22 -45 -69v-451h567v451q0 47 -45 69l-82 41v29h498v-29l-82 -41q-45 -22 -45 -69v-1039q0 -49 45 -71l82 -39v-29h-498v29l82 39q45 22 45 71v510h-567v-510q0 -49 45 -71l82 -39v-29h-498 z" />
<glyph unicode="I" horiz-adv-x="608" d="M61 0v29l82 39q45 22 45 71v1039q0 47 -45 69l-82 41v29h498v-29l-82 -41q-45 -22 -45 -69v-1039q0 -49 45 -71l82 -39v-29h-498z" />
<glyph unicode="J" horiz-adv-x="604" d="M-18 -338q204 173 204 533v983q0 47 -45 69l-82 41v29h498v-29l-82 -41q-45 -22 -45 -69v-957q0 -98 -48.5 -203t-117.5 -184t-132.5 -134t-106.5 -77z" />
<glyph unicode="K" horiz-adv-x="1288" d="M61 0v29l95 39q45 19 45 71v1039q0 50 -45 69l-95 41v29h523v-29l-95 -41q-45 -19 -45 -69v-1039q0 -52 45 -71l95 -39v-29h-523zM455 662l450 462q39 42 39 80q0 44 -39 58l-65 26v29h417v-29q-68 -21 -110 -61l-475 -449l481 -631q65 -83 176 -151v-16 q-67 0 -113.5 2.5t-107 14.5t-106 33t-95.5 60.5t-92 95.5z" />
<glyph unicode="L" horiz-adv-x="1091" d="M61 0v29l82 39q45 22 45 71v1039q0 47 -45 69l-82 41v29h498v-29l-82 -41q-45 -22 -45 -69v-1096h266q110 0 143.5 12.5t98.5 77.5l94 94h39l-41 -266h-971z" />
<glyph unicode="M" horiz-adv-x="1777" d="M61 0v29l91 45q41 20 41 69v985q0 49 -6.5 75t-30.5 38l-90 47v29h389l456 -1018l441 1018h374v-29l-88 -47q-26 -13 -34.5 -39t-8.5 -72v-987q0 -44 45 -69l89 -45v-29h-506v29l90 45q41 20 41 69v1002h-4q-8 -37 -15 -53l-491 -1108h-66l-495 1108q-8 19 -13 53h-4 v-1002q0 -44 45 -69l88 -45v-29h-338z" />
<glyph unicode="N" horiz-adv-x="1439" d="M61 0v29l95 39q45 19 45 71v1039q0 50 -45 69l-95 41v29h402l692 -991v852q0 50 -47 69l-94 41v29h377v-29l-93 -41q-47 -18 -47 -69v-1178h-137l-817 1163v-1024q0 -52 47 -71l94 -39v-29h-377z" />
<glyph unicode="O" horiz-adv-x="1409" d="M94 651q0 354 161 521t456 167q115 0 209 -24.5t170.5 -77t128.5 -132.5t80 -194.5t28 -259.5q0 -688 -616 -688q-617 0 -617 688zM358 651q0 -123 9 -214t32 -170t62.5 -128t102 -76.5t147.5 -27.5t147.5 27.5t101.5 76.5t62 128t32 169.5t9 214.5q0 125 -9 216.5 t-32.5 170.5t-62.5 127.5t-101 75.5t-147 27t-147 -27t-101.5 -75.5t-63 -127.5t-32.5 -170.5t-9 -216.5z" />
<glyph unicode="P" horiz-adv-x="1155" d="M61 0v29l82 39q45 22 45 71v1039q0 47 -45 69l-82 41v29h607q176 0 272.5 -34t136 -106.5t39.5 -203.5q0 -385 -454 -385h-230v-449q0 -52 45 -71l103 -39v-29h-519zM432 668h205q42 0 79 14.5t71 46t53.5 91.5t19.5 141q0 142 -53.5 210t-192.5 68h-182v-571z" />
<glyph unicode="Q" horiz-adv-x="1409" d="M94 651q0 354 161 521t456 167q115 0 209 -24.5t170.5 -77t128.5 -132.5t80 -194.5t28 -259.5q0 -508 -334 -641q141 -60 230.5 -92.5t273.5 -87.5q114 -33 258 -33h45v-30q-38 -41 -106 -88.5t-92 -47.5q-68 0 -178 48t-308 169l-221 134q-90 -19 -184 -19 q-617 0 -617 688zM358 651q0 -123 9 -214t32 -170t62.5 -128t102 -76.5t147.5 -27.5t147.5 27.5t101.5 76.5t62 128t32 169.5t9 214.5q0 125 -9 216.5t-32.5 170.5t-62.5 127.5t-101 75.5t-147 27t-147 -27t-101.5 -75.5t-63 -127.5t-32.5 -170.5t-9 -216.5z" />
<glyph unicode="R" horiz-adv-x="1247" d="M61 0v29l95 39q45 19 45 71v1039q0 50 -45 69l-95 41v29h629q223 0 329.5 -86.5t106.5 -269.5q0 -74 -31 -135.5t-83.5 -102t-116 -65t-133.5 -31.5l368 -488q16 -25 50.5 -63t54.5 -49l37 -23v-22q-82 0 -132.5 2t-96.5 11t-72.5 20t-56.5 37t-52 54t-55 78l-281 416 h-82v-461q0 -52 45 -71l95 -39v-29h-523zM444 674h164q57 0 99.5 11t82 40.5t61 89.5t21.5 148q0 139 -52.5 207.5t-194.5 68.5h-181v-565z" />
<glyph unicode="S" horiz-adv-x="933" d="M63 1006q0 101 63 178.5t161 116t211 38.5q77 0 177 -17t152 -32v-235h-61q-20 53 -51 96t-88 76t-127 33q-107 0 -158 -46.5t-51 -140.5q0 -48 33.5 -95t87.5 -88.5t119 -85t130 -91.5t119 -99t87.5 -116t33.5 -136q0 -96 -40.5 -174t-108.5 -126t-152 -73.5t-176 -25.5 q-76 0 -191 18.5t-159 32.5v275h57q14 -33 20.5 -48.5t22.5 -46.5t28.5 -47t33.5 -38.5t43.5 -33.5t53.5 -19.5t66 -8.5q117 0 188.5 70.5t71.5 189.5q0 53 -33 103t-85.5 92.5t-116 85.5t-127 88.5t-116 93.5t-85.5 109t-33 127z" />
<glyph unicode="T" horiz-adv-x="1208" d="M31 1059l41 258h1077l39 -258h-37l-94 90q-63 62 -95.5 76t-125.5 14h-62q-43 0 -43 -59v-1035q0 -24 9.5 -37t33.5 -22l129 -53v-33h-588v33l129 53q24 9 33.5 22t9.5 37v1035q0 59 -43 59h-61q-93 0 -125 -13.5t-96 -76.5l-94 -90h-37z" />
<glyph unicode="U" horiz-adv-x="1382" d="M61 1288v29h525v-29l-94 -41q-48 -19 -48 -73v-725q0 -77 8.5 -132.5t31 -104t61 -78t99 -46t144.5 -16.5q171 0 239.5 98t68.5 334v659q0 27 -12.5 51t-34.5 33l-93 41v29h377v-29l-94 -41q-21 -9 -34 -33.5t-13 -50.5v-717q0 -87 -11.5 -156t-43 -132t-82.5 -104.5 t-133.5 -66t-192.5 -24.5q-97 0 -174 13t-145 45.5t-113 84t-70.5 131.5t-25.5 185v752q0 54 -45 73z" />
<glyph unicode="V" horiz-adv-x="1288" d="M4 1288v29h508v-29l-96 -47q-31 -15 -31 -53q0 -17 8 -37l309 -872q15 -49 17 -70h4q11 55 16 70l297 870q8 24 8 41q0 37 -26 51l-86 47v29h354v-29l-61 -37q-38 -21 -62 -82l-458 -1185h-117l-457 1185q-17 52 -43 68z" />
<glyph unicode="W" horiz-adv-x="1986" d="M4 1288v29h508v-29l-96 -47q-29 -15 -29 -53q0 -7 6 -37l215 -844q2 -8 9 -33.5t8 -35.5h4q14 63 16 69l356 1010h93l366 -1010q15 -49 17 -69h4q9 47 16 69l223 842q9 40 9 49q0 36 -31 49l-96 41v29h383v-29l-89 -43q-37 -18 -57 -80l-362 -1181h-117l-377 1036 l-367 -1036h-116l-369 1185q-18 54 -43 68z" />
<glyph unicode="X" horiz-adv-x="1327" d="M8 0v29l101 43q10 4 18 8.5t17 14t12.5 12.5t15.5 18t14 18l377 469l-350 525q-55 83 -121 116l-74 35v29h596v-29l-100 -39q-55 -19 -55 -61q0 -24 24 -62l222 -333l213 307q47 64 47 102q0 35 -39 49l-88 37v29h454v-29l-104 -49q-23 -11 -45 -29t-33.5 -31t-33.5 -41 t-29 -36l-299 -373l364 -534q31 -45 43.5 -61.5t35 -36t54.5 -34.5l74 -34v-29h-598v29l100 39q56 19 56 61q0 22 -25 61l-244 357l-246 -346q-34 -49 -34 -76q0 -32 45 -49l110 -47v-29h-475z" />
<glyph unicode="Y" horiz-adv-x="1273" d="M8 1288v29h578v-29l-78 -35q-62 -26 -62 -65q0 -30 35 -86l256 -414l209 430q12 28 12 56q0 52 -43 69l-98 45v29h449v-29l-88 -45q-47 -24 -68 -61l-322 -553v-490q0 -52 48 -71l100 -39v-29h-539v29l103 39q47 18 47 71v434l-385 609q-15 25 -26 37t-30 20z" />
<glyph unicode="Z" horiz-adv-x="1089" d="M31 0v29l651 1206h-274q-80 0 -124.5 -20t-93.5 -70l-73 -74h-37v246h889v-29l-645 -1206h360q45 0 75.5 4t51.5 9t44 22t36.5 30t46.5 46l74 73h37l-39 -266h-979z" />
<glyph unicode="[" horiz-adv-x="548" d="M123 -436v1882h407v-64h-180v-1753h180v-65h-407z" />
<glyph unicode="\" horiz-adv-x="665" d="M0 1399h111l555 -1428h-107z" />
<glyph unicode="]" horiz-adv-x="548" d="M20 -371h179v1753h-179v64h408v-1882h-408v65z" />
<glyph unicode="^" horiz-adv-x="581" d="M41 864l174 453h150l178 -453h-86l-168 316l-164 -316h-84z" />
<glyph unicode="_" horiz-adv-x="962" d="M96 -158h766v-116h-766v116z" />
<glyph unicode="`" horiz-adv-x="503" d="M61 1415h252l129 -268h-96z" />
<glyph unicode="a" horiz-adv-x="954" d="M39 209q0 151 93.5 211.5t326.5 60.5h133v211q0 189 -150 189q-69 0 -101 -54t-32 -133q0 -15 4 -43q-27 -6 -55 -6q-123 0 -123 96q0 86 110 144.5t249 58.5q88 0 158.5 -23t118.5 -79.5t48 -139.5v-520q0 -31 2 -47t14 -31.5t35 -23.5l86 -31v-33q-39 -12 -124 -25.5 t-130 -13.5q-110 0 -110 99q-23 -16 -57.5 -35.5t-103.5 -44.5t-124 -25q-126 0 -197 68.5t-71 169.5zM266 244q0 -90 42 -126t122 -36q40 0 88 12t74 25v295h-94q-62 0 -106 -9t-68 -23t-37.5 -38t-17 -46t-3.5 -54z" />
<glyph unicode="b" horiz-adv-x="1130" d="M45 1292v39l358 68v-565q40 27 154 68.5t170 41.5q348 0 348 -442q0 -117 -26.5 -209t-72 -151.5t-110 -98.5t-135.5 -55.5t-153 -16.5q-47 0 -135.5 18.5t-127.5 39.5l-98 -29h-41v1157q0 32 -2 47.5t-13 31t-34 24.5zM403 74q11 -3 66.5 -11t79.5 -8q148 0 214 94.5 t66 313.5q0 77 -9.5 136.5t-28 96.5t-40 61.5t-52 36t-56.5 15.5t-61 4q-74 0 -179 -27v-712z" />
<glyph unicode="c" horiz-adv-x="880" d="M61 440q0 241 111.5 372.5t335.5 131.5q37 0 83 -7t97 -22.5t85 -46.5t34 -73q0 -53 -47 -83t-111 -30q-7 76 -52.5 138.5t-115.5 62.5q-178 0 -178 -394q0 -71 8.5 -127.5t30 -107.5t56.5 -85.5t90.5 -54.5t129.5 -20q48 0 110 17t103 41v-50q-56 -56 -143 -93.5 t-164 -37.5q-220 0 -341.5 124t-121.5 345z" />
<glyph unicode="d" horiz-adv-x="1081" d="M66 446q0 230 121.5 364t336.5 134q104 0 195 -24v237q0 24 -1 37t-5.5 27.5t-15 23.5t-27.5 15l-84 32v39l360 68v-1215q0 -31 2 -47t13.5 -31.5t33.5 -23.5l88 -31v-35q-40 -12 -124 -25.5t-130 -13.5q-110 0 -110 99q-139 -105 -277 -105q-62 0 -115 13.5t-102 47 t-83.5 86.5t-55 136.5t-20.5 191.5zM297 485q0 -98 13 -170.5t35 -115.5t55.5 -69t67.5 -35t79 -9q68 0 172 29v739q-44 8 -144 8q-141 0 -209.5 -102.5t-68.5 -274.5z" />
<glyph unicode="e" horiz-adv-x="940" d="M66 457q0 253 119 370t331 117q182 0 276.5 -104.5t94.5 -276.5v-63h-578v-23q0 -113 22 -192.5t64.5 -122.5t94.5 -61.5t120 -18.5q146 0 258 65v-45q-52 -52 -142 -91.5t-194 -39.5q-466 0 -466 486zM309 569h357v129q0 183 -162 183q-47 0 -82 -17.5t-55.5 -45 t-33.5 -70t-18 -84t-6 -95.5z" />
<glyph unicode="f" horiz-adv-x="653" d="M41 811v96h137v78q0 105 37 187.5t98 130.5t132.5 72t148.5 24q106 0 158.5 -35.5t52.5 -85.5q0 -35 -22 -64.5t-62 -42.5q-76 160 -199 160q-62 0 -89 -66t-27 -200v-158h223v-96h-223v-678q0 -57 43 -72l94 -32v-29h-482v29l74 28q43 18 43 72v682h-137z" />
<glyph unicode="g" horiz-adv-x="997" d="M47 -233q0 53 46.5 115t105.5 112q-84 48 -84 129q0 35 39 105.5t79 119.5q-147 80 -147 266q0 70 23.5 127t62 94t90 62t105.5 36t110 11q106 0 189 -35q63 76 131 121t116 45q34 0 61 -29t27 -73q0 -43 -24 -82q-58 20 -137 20q-78 0 -127 -24q155 -88 155 -273 q0 -72 -23 -128.5t-60.5 -91.5t-89.5 -58t-105.5 -32t-112.5 -9q-115 0 -196 33q-35 -68 -35 -109q0 -37 26 -54.5t95 -17.5h376q115 0 174.5 -61.5t59.5 -155.5q0 -77 -31 -141.5t-83 -108t-120.5 -73.5t-141.5 -44t-148 -14q-103 0 -195 26.5t-151.5 77.5t-59.5 114z M188 -188q0 -129 316 -129q174 0 269 53t95 131q0 46 -41.5 70t-113.5 24h-369q-53 0 -96 14q-60 -82 -60 -163zM315 614q0 -135 33 -190t129 -55t129 55t33 190q0 150 -32.5 203t-129.5 53t-129.5 -53t-32.5 -203z" />
<glyph unicode="h" horiz-adv-x="1124" d="M61 0v29l74 32q41 20 41 72v1024q0 44 -8.5 65.5t-40.5 37.5l-66 32v39l345 68v-594q204 139 288 139q141 0 206 -73t65 -228v-510q0 -53 39 -72l73 -32v-29h-456v29l73 32q41 20 41 72v496q0 94 -26.5 132t-112.5 38q-75 0 -190 -41v-625q0 -53 40 -72l74 -32v-29h-459z " />
<glyph unicode="i" horiz-adv-x="559" d="M61 0v29l74 28q41 17 41 72v576q0 45 -8 65.5t-41 36.5l-66 35v37l345 65v-815q0 -55 40 -72l74 -28v-29h-459zM154 1202q0 66 31 90.5t100 24.5q70 0 100.5 -24.5t30.5 -90.5q0 -67 -29.5 -89.5t-101.5 -22.5t-101.5 22.5t-29.5 89.5z" />
<glyph unicode="j" horiz-adv-x="559" d="M43 -403q74 63 104.5 147.5t30.5 226.5v734q0 42 -8.5 63t-40.5 37l-68 35v34l345 70v-899q0 -57 -15 -112.5t-35.5 -98t-54 -86.5t-58.5 -70.5t-62.5 -58t-51.5 -42t-39 -28.5zM156 1202q0 66 30 90.5t99 24.5q71 0 101 -24t30 -91q0 -68 -29 -90t-102 -22 q-71 0 -100 22.5t-29 89.5z" />
<glyph unicode="k" horiz-adv-x="1077" d="M61 0v29l74 32q41 20 41 72v1024q0 44 -8.5 65.5t-40.5 37.5l-66 32v39l345 68v-1266q0 -53 40 -72l74 -32v-29h-459zM428 467l301 293q33 33 33 51q0 12 -23 31l-51 37v28h379v-28l-111 -60l-338 -276l330 -404q36 -42 62 -63l69 -51v-25h-293z" />
<glyph unicode="l" horiz-adv-x="557" d="M61 0v29l74 28q41 17 41 72v1028q0 44 -8.5 65.5t-40.5 37.5l-66 32v39l345 68v-1270q0 -55 40 -72l74 -28v-29h-459z" />
<glyph unicode="m" horiz-adv-x="1642" d="M61 0v29l74 28q41 17 41 72v578q0 43 -8.5 62.5t-40.5 37.5l-66 35v35l345 67v-139q204 139 288 139q97 0 149 -35t79 -112q222 147 311 147q139 0 193.5 -71t54.5 -230v-514q0 -55 41 -72l73 -28v-29h-456v29l73 28q41 17 41 72v500q0 94 -26.5 132t-112.5 38 q-74 0 -180 -47q10 -55 10 -109v-514q0 -56 39 -72l74 -28v-29h-457v29l74 28q41 17 41 72v500q0 93 -27 131.5t-113 38.5q-27 0 -54 -5t-40 -9t-42 -15t-33 -12v-629q0 -55 40 -72l74 -28v-29h-459z" />
<glyph unicode="n" horiz-adv-x="1126" d="M61 0v29l74 28q41 17 41 72v578q0 43 -8.5 62.5t-40.5 37.5l-66 35v35l345 67v-141q63 44 159.5 92.5t149.5 48.5q139 0 194.5 -71t55.5 -230v-514q0 -55 41 -72l73 -28v-29h-458v29l73 28q41 17 41 72v500q0 94 -26.5 132t-112.5 38q-75 0 -190 -41v-629q0 -55 40 -72 l74 -28v-29h-459z" />
<glyph unicode="o" horiz-adv-x="1052" d="M66 457q0 245 125.5 366t338.5 121q214 0 340.5 -121t126.5 -366q0 -123 -34.5 -217t-97.5 -152.5t-147 -87.5t-188 -29q-212 0 -338 121.5t-126 364.5zM311 457q0 -162 26 -256t72 -130t121 -36q76 0 123 36t73 130t26 256q0 125 -14.5 209.5t-44.5 130.5t-69 65t-94 19 q-54 0 -92.5 -19t-68 -65t-44 -130.5t-14.5 -209.5z" />
<glyph unicode="p" horiz-adv-x="1128" d="M45 840v39l358 67v-112q40 27 153 68.5t169 41.5q348 0 348 -442q0 -117 -26.5 -209t-71.5 -151.5t-109 -98.5t-135 -55.5t-153 -16.5q-42 0 -175 9v-271q0 -49 43 -71l74 -39v-29h-459v29l72 39q43 24 43 71v996q0 31 -2 47t-13 31t-34 24zM403 63q11 -3 66.5 -10.5 t79.5 -7.5q146 0 212 98.5t66 319.5q0 92 -14.5 158.5t-36 103t-56.5 57t-65.5 26t-72.5 5.5q-74 0 -179 -27v-723z" />
<glyph unicode="q" horiz-adv-x="1101" d="M61 457q0 232 112.5 359.5t326.5 127.5q147 0 295 -39l106 39h37v-1253q0 -24 9.5 -37.5t33.5 -22.5l84 -28v-33h-506v33l109 39q24 9 33.5 22t9.5 37v375q-153 -105 -293 -105q-78 0 -139.5 24.5t-112 78.5t-78 151t-27.5 232zM293 485q0 -123 16 -203.5t48 -122.5 t70.5 -57.5t94.5 -15.5q58 0 189 29v739q-74 8 -160 8q-258 0 -258 -377z" />
<glyph unicode="r" horiz-adv-x="788" d="M61 0v29l74 32q41 20 41 72v574q0 45 -8 65.5t-41 36.5l-66 35v30l345 70v-199q52 68 136 133.5t154 65.5q39 0 70 -16.5t31 -50.5q0 -50 -28.5 -101t-63.5 -51q-18 0 -64 16.5t-74 16.5q-22 0 -78.5 -21t-82.5 -41v-555q0 -54 40 -71l107 -41v-29h-492z" />
<glyph unicode="s" horiz-adv-x="768" d="M37 139q0 59 35.5 88t91.5 29q3 -98 49 -156.5t143 -58.5q71 0 116.5 42.5t45.5 123.5q0 48 -47.5 90t-115 77t-135.5 73.5t-115.5 97.5t-47.5 131q0 59 20.5 106t54 77t80.5 49.5t96.5 27.5t105.5 8q51 0 111 -15t109.5 -50.5t49.5 -81.5q0 -36 -27.5 -64t-74.5 -28 q-18 0 -39 6q-3 71 -50.5 117t-111.5 46q-63 0 -97 -34.5t-34 -96.5q0 -35 26 -66t68 -56t92 -50.5t100.5 -55t92.5 -63t68 -81t26 -103.5q0 -92 -56.5 -161.5t-138.5 -102.5t-172 -33q-146 0 -232.5 46.5t-86.5 121.5z" />
<glyph unicode="t" horiz-adv-x="710" d="M16 813v66q106 14 143 32q65 32 94 132q14 49 23 120h113v-256h301v-94h-301v-604q0 -64 60 -98.5t157 -34.5q42 0 88 6v-57q-39 -17 -139 -31t-152 -14q-137 0 -189 44.5t-52 149.5v639h-146z" />
<glyph unicode="u" horiz-adv-x="1124" d="M61 844v30l340 70v-649q0 -93 27.5 -131.5t112.5 -38.5q54 0 107.5 19.5t84.5 43.5v519q0 44 -8 64.5t-39 37.5l-65 35v30l340 70v-764q0 -31 2 -47t14 -31.5t35 -23.5l86 -31v-31q-39 -12 -124 -25.5t-130 -13.5q-111 0 -111 99v63q-50 -48 -143 -105t-148 -57 q-140 0 -204 74.5t-64 229.5v426q0 44 -8 64.5t-39 37.5z" />
<glyph unicode="v" horiz-adv-x="1017" d="M-6 879v28h465v-28l-86 -45q-23 -12 -23 -46q0 -19 6 -34l185 -531q13 -45 16 -65h2q12 50 19 65l188 529q8 24 8 41q0 29 -22 43l-68 43v28h336v-28l-59 -39q-28 -19 -56 -80l-352 -780h-119l-315 780q-15 46 -43 65z" />
<glyph unicode="w" horiz-adv-x="1525" d="M-8 879v28h487v-28l-106 -45q-21 -10 -21 -43q0 -15 4 -39l131 -533l275 688h88l287 -692l159 535q9 31 9 45q0 29 -23 41l-88 43v28h342v-28l-76 -50q-19 -12 -27.5 -27t-19.5 -44l-301 -778h-98l-277 671l-276 -671h-99l-243 780q-9 32 -41 59z" />
<glyph unicode="x" horiz-adv-x="1034" d="M27 0v29l55 20q41 13 88 64l274 321l-235 332q-30 42 -51.5 63.5t-51.5 32.5l-51 19v26h488v-26l-74 -23q-39 -14 -39 -45q0 -24 23 -53l122 -172l140 164q26 29 26 61q0 33 -34 47l-54 21v26h363v-26l-88 -35q-23 -10 -55.5 -33.5t-51.5 -46.5l-203 -242l269 -383 q30 -41 52 -63t52 -33l51 -18v-27h-487v27l74 22q37 10 37 43q0 22 -23 55l-156 224l-184 -219q-33 -39 -33 -66q0 -28 41 -39l58 -18v-29h-342z" />
<glyph unicode="y" horiz-adv-x="1052" d="M4 874v33h465v-33l-86 -40q-23 -12 -23 -46q0 -16 7 -34l231 -531l221 529q10 20 10 41q0 32 -24 43l-82 38v33h328v-33l-68 -45q-7 -4 -12.5 -9.5t-8.5 -9t-7.5 -11.5t-6 -10.5t-6.5 -14t-6 -14.5l-530 -1211h-191q244 441 262 480l-348 731q-21 48 -41 59z" />
<glyph unicode="z" horiz-adv-x="888" d="M61 0v43l484 788h-148q-85 0 -126 -11t-76 -46l-74 -76h-37v209h719v-43l-471 -788h164q109 0 147 13t94 69l74 73h37l-39 -231h-748z" />
<glyph unicode="{" horiz-adv-x="630" d="M20 500v57q89 4 113 15q39 18 47 88q4 31 4 81v371q0 85 31.5 152t84 106.5t116 59.5t133.5 20q23 0 63 -4v-43q-47 -3 -74.5 -8t-55 -18t-41.5 -37.5t-22.5 -64.5t-8.5 -99v-332q0 -119 -72.5 -208.5t-181.5 -96.5v-15q111 -9 182.5 -100t71.5 -211v-389q0 -60 8.5 -100 t22.5 -64t41.5 -37t55 -17.5t74.5 -6.5v-43q-29 -5 -65 -5q-70 0 -133.5 20.5t-116 60.5t-84 106.5t-31.5 150.5v426q0 45 -2.5 75t-10.5 50.5t-18 31.5t-30 17t-40.5 7.5t-55.5 3.5h-5z" />
<glyph unicode="|" horiz-adv-x="563" d="M246 -20v1349h71v-1349h-71z" />
<glyph unicode="}" horiz-adv-x="630" d="M20 -401q47 2 74.5 6.5t55 17.5t41 37t22 64t8.5 100v389q0 120 72.5 211t183.5 100v15q-111 7 -183.5 96.5t-72.5 208.5v332q0 74 -11 118.5t-39.5 67t-60.5 30.5t-90 11v43q40 4 64 4q70 0 133.5 -20t116 -59.5t84 -106.5t31.5 -152v-371q0 -54 5 -86.5t13.5 -52.5 t29 -28.5t43.5 -11.5t65 -5h7v-57q-33 -2 -45 -2.5t-35 -3.5t-30 -7.5t-20 -14t-16.5 -21.5t-9 -32t-6.5 -44.5t-1 -59.5v-426q0 -84 -31 -150.5t-83.5 -106.5t-115.5 -60.5t-133 -20.5q-37 0 -66 5v43z" />
<glyph unicode="~" horiz-adv-x="962" d="M55 436q10 117 81.5 203t185.5 86q46 0 106.5 -25.5t107.5 -56.5t93.5 -56.5t68.5 -25.5q99 0 103 144h102q-4 -60 -20 -110.5t-45 -91.5t-77 -64t-110 -23q-43 0 -102.5 27t-107.5 59t-98.5 59t-78.5 27q-77 0 -100 -152h-109z" />
<glyph unicode="&#xa1;" horiz-adv-x="481" d="M90 807q0 79 34.5 108t115.5 29t115 -29t34 -108q0 -78 -35 -109.5t-114 -31.5t-114.5 31.5t-35.5 109.5zM92 -295q0 106 17.5 214t39 185.5t39 188.5t17.5 221q0 19 -4 51h78q-5 -40 -5 -51q0 -110 17.5 -220.5t39 -188t39 -186t17.5 -214.5q0 -56 -43 -86.5t-104 -30.5 t-104.5 31t-43.5 86z" />
<glyph unicode="&#xa2;" horiz-adv-x="1181" d="M94 635q0 171 45.5 304t127.5 217.5t190 130t239 50.5v144h70v-142q161 -6 332 -67v-244h-41q-33 45 -49.5 66t-47.5 54t-55.5 48.5t-61 30t-77.5 18.5v-1184h29q63 0 146 32t138 71h41l-33 -144q-43 -22 -130 -39t-191 -18v-209h-70v211q-277 18 -439.5 191t-162.5 479z M346 643q0 -125 17.5 -219.5t57 -171t108.5 -123t167 -61.5v1177q-350 -20 -350 -602z" />
<glyph unicode="&#xa3;" horiz-adv-x="1118" d="M41 78q0 58 54 98t141 62q43 84 43 215v200h-195v70h195v82q0 110 29 201t84 159t142.5 106t198.5 38q34 0 73 -7.5t79 -23t66 -45.5t26 -68q0 -49 -34.5 -77.5t-92.5 -28.5q-10 67 -56.5 123.5t-109.5 56.5q-36 0 -65 -16t-47.5 -39.5t-31.5 -62t-19.5 -70t-10 -77.5 t-4 -71.5t-0.5 -64.5v-115h287v-70h-287v-61q0 -183 -166 -338q23 2 63 2q104 0 215 -29t198.5 -57.5t133.5 -28.5q30 0 54 22t53 68l35 -20q-25 -50 -44 -83t-47.5 -76.5t-56.5 -66t-53 -22.5q-61 0 -155 29t-175 64.5t-168 64.5t-137 29q-27 0 -50.5 -30t-34 -60 t-17.5 -60q-12 -4 -29 -4q-36 0 -60 22.5t-24 59.5z" />
<glyph unicode="&#xa5;" horiz-adv-x="1273" d="M8 1288v29h578v-29l-78 -35q-62 -26 -62 -65q0 -30 35 -86l256 -414l209 430q15 35 15 56q0 51 -46 69l-98 45v29h449v-29l-88 -45q-47 -24 -68 -61l-322 -553v-45h254v-70h-254v-135h254v-70h-254v-170q0 -52 48 -71l100 -39v-29h-539v29l103 39q47 18 47 71v170h-293 v70h293v135h-293v70h287l-379 598q-27 43 -56 57z" />
<glyph unicode="&#xa6;" horiz-adv-x="563" d="M246 -451v922h71v-922h-71zM246 676v921h71v-921h-71z" />
<glyph unicode="&#xa7;" horiz-adv-x="1003" d="M63 625q0 84 76 147.5t160 63.5h4q-35 29 -56 47.5t-51 50.5t-44.5 65t-14.5 66q0 56 22.5 101.5t59.5 75.5t85.5 50.5t98.5 29.5t101 9q36 0 77.5 -3t99.5 -14t103 -28t77 -50t32 -75q0 -53 -42 -83.5t-99 -41.5q-25 99 -93.5 167.5t-164.5 68.5q-69 0 -115.5 -40.5 t-46.5 -107.5q0 -66 192 -190q38 -25 145 -94t165 -107q139 -87 139 -235q0 -87 -58.5 -155t-144.5 -85q154 -119 154 -215q0 -79 -38.5 -142t-101 -100t-134.5 -56t-146 -19q-185 0 -290 47.5t-105 142.5q0 52 41.5 84.5t105.5 32.5q11 0 35 -4q-2 -12 -2 -37 q0 -207 223 -207q90 0 151.5 45.5t61.5 132.5q0 25 -10.5 47.5t-35.5 44.5t-40.5 33.5t-50.5 33t-41 25.5l-275 179q-209 133 -209 299zM229 692q0 -76 111 -151l379 -250q38 4 63 40t25 77q0 30 -7 52t-25.5 41.5t-32 30t-44.5 31.5l-360 242q-38 -3 -73.5 -39.5 t-35.5 -73.5z" />
<glyph unicode="&#xa8;" horiz-adv-x="712" d="M61 1300q0 115 132 115q65 0 98 -30t33 -85q0 -112 -131 -112q-132 0 -132 112zM389 1300q0 115 131 115q65 0 98 -30t33 -85q0 -112 -131 -112q-68 0 -99.5 28t-31.5 84z" />
<glyph unicode="&#xa9;" horiz-adv-x="1449" d="M51 649q0 136 51.5 261t140 218t214.5 148t268 55t268 -55t214 -148t139 -218t51 -261q0 -183 -86.5 -338t-241.5 -247.5t-344 -92.5q-142 0 -268 54.5t-214.5 146t-140 216t-51.5 261.5zM182 651q0 -166 68 -303.5t193 -219t282 -81.5q155 0 280 81t194 219t69 304 q0 165 -69 303.5t-194 220.5t-280 82q-118 0 -220 -48t-172.5 -130t-110.5 -193t-40 -235zM406 653q0 90 28 162.5t76 117.5t110 69t132 24q83 0 192 -33v-133h-35q-7 9 -24.5 30.5t-24 29t-21.5 21t-27.5 18.5t-32 9.5t-42.5 4.5q-91 0 -140.5 -84.5t-49.5 -231.5 q0 -142 56.5 -229.5t170.5 -87.5q47 0 78.5 13.5t75.5 45.5h30l-20 -88q-68 -35 -184 -35q-152 0 -250 100t-98 277z" />
<glyph unicode="&#xaa;" horiz-adv-x="587" d="M39 891q0 91 56.5 127.5t195.5 36.5h80v125q0 114 -90 114q-78 0 -78 -125v-12q-24 -4 -33 -4q-74 0 -74 57q0 52 66.5 86.5t148.5 34.5q83 0 140 -35t57 -108v-314q0 -27 5 -40.5t24 -20.5l53 -18v-21q-85 -22 -154 -22q-65 0 -65 59q-13 -9 -34.5 -21.5t-63 -27 t-74.5 -14.5q-75 0 -117.5 41t-42.5 102zM176 911q0 -54 25 -75t73 -21q23 0 52.5 7.5t44.5 15.5v176h-58q-46 0 -75 -7.5t-41.5 -23.5t-16.5 -31.5t-4 -40.5z" />
<glyph unicode="&#xab;" horiz-adv-x="745" d="M61 485l261 351h61l-123 -351l123 -350h-64zM365 485l260 299h61l-123 -299l123 -297h-63z" />
<glyph unicode="&#xac;" horiz-adv-x="962" d="M117 483v115h684v-627h-123v512h-561z" />
<glyph unicode="&#xad;" horiz-adv-x="0" />
<glyph unicode="&#xae;" horiz-adv-x="1449" d="M51 649q0 136 51.5 261t140 218t214.5 148t268 55t268 -55t214 -148t139 -218t51 -261q0 -183 -86.5 -338t-241.5 -247.5t-344 -92.5q-142 0 -268 54.5t-214.5 146t-140 216t-51.5 261.5zM182 651q0 -166 68 -303.5t193 -219t282 -81.5q155 0 280 81t194 219t69 304 q0 165 -69 303.5t-194 220.5t-280 82q-118 0 -220 -48t-172.5 -130t-110.5 -193t-40 -235zM416 295v16l51 21q27 14 27 39v567q0 26 -27 39l-51 20v17h327q258 0 258 -193q0 -79 -64.5 -132t-143.5 -58l211 -256q16 -22 45 -39l36 -25v-16h-178l-250 330h-39v-254 q0 -25 27 -39l51 -21v-16h-280zM618 666h93q66 0 111.5 35.5t45.5 121.5q0 73 -36 110.5t-117 37.5h-97v-305z" />
<glyph unicode="&#xaf;" horiz-adv-x="544" d="M41 1210v107h463v-107h-463z" />
<glyph unicode="&#xb0;" horiz-adv-x="702" d="M39 1026q0 134 90.5 219.5t220.5 85.5q129 0 219 -85.5t90 -219.5q0 -129 -91 -218t-218 -89q-129 0 -220 89t-91 218zM174 1026q0 -78 51 -134t125 -56q73 0 123.5 56.5t50.5 133.5t-50.5 132.5t-123.5 55.5q-74 0 -125 -55.5t-51 -132.5z" />
<glyph unicode="&#xb1;" horiz-adv-x="962" d="M117 0v115h725v-115h-725zM117 483v115h301v305h123v-305h301v-115h-301v-305h-123v305h-301z" />
<glyph unicode="&#xb2;" horiz-adv-x="819" d="M92 1135q0 92 87.5 148t221.5 56q128 0 211.5 -53t83.5 -151q0 -51 -34 -100.5t-89.5 -91.5t-111 -76t-115.5 -69.5t-86 -56.5h432v-127h-596v84q27 21 88.5 62t110 76.5t100 82t80.5 100t29 109.5q0 74 -28.5 113t-100.5 39q-59 0 -96 -35t-37 -94q0 -40 20 -76 q-7 -10 -33 -21.5t-47 -11.5q-39 0 -64.5 27.5t-25.5 65.5z" />
<glyph unicode="&#xb3;" horiz-adv-x="819" d="M86 741q0 40 29.5 67.5t81.5 27.5q27 0 59 -13q-2 -12 -2 -32q0 -57 38 -96.5t111 -39.5q64 0 103 39.5t39 110.5q0 87 -44.5 122.5t-127.5 35.5h-64v53q94 0 149.5 36.5t55.5 106.5q0 119 -123 119q-76 0 -105.5 -30.5t-31.5 -86.5q0 -33 18 -43q-28 -28 -75 -28 q-48 0 -76.5 23.5t-28.5 57.5q0 67 75 117.5t232 50.5q149 0 234.5 -47.5t85.5 -117.5q0 -62 -65 -106t-162 -60v-4q113 -9 187.5 -58.5t74.5 -120.5q0 -105 -100 -166t-255 -61q-157 0 -235 39t-78 104z" />
<glyph unicode="&#xb4;" horiz-adv-x="503" d="M61 1147l129 268h252l-284 -268h-97z" />
<glyph unicode="&#xb6;" horiz-adv-x="776" d="M41 1012q0 62 15 114.5t46.5 96.5t87.5 69t132 25h442v-29l-92 -41q-47 -18 -47 -69v-1178h-76v1239h-127v-1239h-76v709q-82 0 -143 24.5t-95.5 68t-50.5 96t-16 114.5z" />
<glyph unicode="&#xb7;" horiz-adv-x="452" d="M76 520q0 78 36 110t115 32q77 0 113.5 -32.5t36.5 -109.5q0 -79 -35 -108t-115 -29q-81 0 -116 29t-35 108z" />
<glyph unicode="&#xb8;" horiz-adv-x="399" d="M39 -330q0 64 65 64q3 -24 7 -40.5t12.5 -34t25.5 -26t41 -8.5q34 0 56 20.5t22 51.5q0 25 -11.5 45.5t-25.5 32.5t-39.5 22.5t-39.5 14.5t-39 10l53 178h47l-25 -94q59 -12 114.5 -52t55.5 -100q0 -79 -55 -125.5t-135 -46.5q-44 0 -86.5 23.5t-42.5 64.5z" />
<glyph unicode="&#xb9;" horiz-adv-x="819" d="M162 614v33l135 27q22 6 22 33v489q0 28 -22 33l-135 24v29l336 57v-632q0 -27 24 -33l135 -27v-33h-495z" />
<glyph unicode="&#xba;" horiz-adv-x="679" d="M66 1040q0 146 75 218.5t203 72.5q129 0 205 -72.5t76 -218.5t-76 -219t-205 -73q-127 0 -202.5 73t-75.5 219zM213 1040q0 -143 31.5 -198.5t99.5 -55.5q69 0 101 55.5t32 198.5q0 144 -32.5 199t-100.5 55q-44 0 -71 -20.5t-43.5 -77.5t-16.5 -156z" />
<glyph unicode="&#xbb;" horiz-adv-x="745" d="M61 188l123 297l-123 299h62l260 -299l-258 -297h-64zM365 135l122 350l-122 351h61l260 -351l-258 -350h-63z" />
<glyph unicode="&#xbc;" horiz-adv-x="1902" d="M162 614v33l135 27q22 6 22 33v489q0 28 -22 33l-135 24v29l336 57v-632q0 -27 24 -33l135 -27v-33h-495zM461 -41l817 1413h88l-819 -1413h-86zM1071 180v76l389 449h152v-439h125v-86h-125v-86q0 -30 26 -43l88 -20v-31h-397v31l88 20q27 13 27 39v90h-373zM1169 266 h275v312z" />
<glyph unicode="&#xbd;" horiz-adv-x="1902" d="M162 614v33l135 27q22 6 22 33v489q0 28 -22 33l-135 24v29l336 57v-632q0 -27 24 -33l135 -27v-33h-495zM461 -41l817 1413h88l-819 -1413h-86zM1120 520q0 92 88 148.5t222 56.5q128 0 211 -53t83 -152q0 -51 -34 -100.5t-89.5 -91t-111 -76t-115.5 -69.5t-86 -56h432 v-127h-596v84q27 21 88.5 62t110 76.5t100 82t80.5 100t29 109.5q0 74 -28.5 113t-100.5 39q-59 0 -96 -35t-37 -94q0 -40 20 -76q-6 -10 -32.5 -21.5t-47.5 -11.5q-39 0 -64.5 27t-25.5 65z" />
<glyph unicode="&#xbe;" horiz-adv-x="1902" d="M45 741q0 40 29.5 67.5t81.5 27.5q26 0 59 -13q-2 -12 -2 -32q0 -57 38 -96.5t111 -39.5q64 0 103 39.5t39 110.5q0 87 -44.5 122.5t-127.5 35.5h-64v53q94 0 149.5 36.5t55.5 106.5q0 119 -123 119q-76 0 -105.5 -30.5t-31.5 -86.5q0 -33 18 -43q-28 -28 -75 -28 q-48 0 -76.5 23.5t-28.5 57.5q0 67 75 117.5t232 50.5q149 0 234.5 -47.5t85.5 -117.5q0 -62 -65 -106t-162 -60v-4q113 -9 187.5 -58.5t74.5 -120.5q0 -105 -100 -166t-255 -61q-157 0 -235 39t-78 104zM461 -41l817 1413h88l-819 -1413h-86zM1071 180v76l389 449h152v-439 h125v-86h-125v-86q0 -30 26 -43l88 -20v-31h-397v31l88 20q27 13 27 39v90h-373zM1169 266h275v312z" />
<glyph unicode="&#xbf;" horiz-adv-x="866" d="M37 4q0 81 23.5 148t62 112t91.5 78t106 50.5t112 25.5v149h62v-356q-37 -5 -73.5 -16t-74.5 -33t-66.5 -52t-46.5 -75.5t-18 -100.5q0 -138 57.5 -200t173.5 -62q51 0 89.5 20t59 53t30.5 70t10 76q0 18 -4 46q21 6 39 6q52 0 90.5 -38.5t38.5 -84.5q0 -56 -29.5 -97.5 t-80 -65t-111 -35t-129.5 -11.5q-79 0 -151 23.5t-131.5 69.5t-94.5 123.5t-35 176.5zM317 807q0 79 34.5 108t115.5 29q80 0 114.5 -29t34.5 -108q0 -77 -36 -109t-113 -32q-79 0 -114.5 31.5t-35.5 109.5z" />
<glyph unicode="&#xc0;" horiz-adv-x="1288" d="M4 0v29l59 37q39 21 62 81l461 1178h116l455 -1178q19 -51 45 -69l84 -49v-29h-508v29l94 47q29 14 29 55q0 20 -6 35l-102 289h-441l-100 -287q-8 -20 -8 -39q0 -40 26 -53l88 -47v-29h-354zM307 1743h252l129 -268h-96zM383 543h379l-174 487q-8 24 -19 68h-2 q-13 -60 -16 -68z" />
<glyph unicode="&#xc1;" horiz-adv-x="1288" d="M4 0v29l59 37q39 21 62 81l461 1178h116l455 -1178q19 -51 45 -69l84 -49v-29h-508v29l94 47q29 14 29 55q0 20 -6 35l-102 289h-441l-100 -287q-8 -20 -8 -39q0 -40 26 -53l88 -47v-29h-354zM383 543h379l-174 487q-8 24 -19 68h-2q-13 -60 -16 -68zM573 1475l129 268 h252l-284 -268h-97z" />
<glyph unicode="&#xc2;" horiz-adv-x="1288" d="M4 0v29l59 37q39 21 62 81l461 1178h116l455 -1178q19 -51 45 -69l84 -49v-29h-508v29l94 47q29 14 29 55q0 20 -6 35l-102 289h-441l-100 -287q-8 -20 -8 -39q0 -40 26 -53l88 -47v-29h-354zM383 543h379l-174 487q-8 24 -19 68h-2q-13 -60 -16 -68zM389 1475l174 268 h150l178 -268h-86l-168 131l-164 -131h-84z" />
<glyph unicode="&#xc3;" horiz-adv-x="1288" d="M4 0v29l59 37q39 21 62 81l461 1178h116l455 -1178q19 -51 45 -69l84 -49v-29h-508v29l94 47q29 14 29 55q0 20 -6 35l-102 289h-441l-100 -287q-8 -20 -8 -39q0 -40 26 -53l88 -47v-29h-354zM369 1505q7 83 61 150t135 67q46 0 132 -45t106 -45q40 0 56.5 21.5 t21.5 64.5h67q-5 -86 -54.5 -151.5t-133.5 -65.5q-35 0 -84 25.5t-93 50.5t-65 25q-60 0 -78 -97h-71zM383 543h379l-174 487q-8 24 -19 68h-2q-13 -60 -16 -68z" />
<glyph unicode="&#xc4;" horiz-adv-x="1288" d="M4 0v29l59 37q39 21 62 81l461 1178h116l455 -1178q19 -51 45 -69l84 -49v-29h-508v29l94 47q29 14 29 55q0 20 -6 35l-102 289h-441l-100 -287q-8 -20 -8 -39q0 -40 26 -53l88 -47v-29h-354zM307 1628q0 115 131 115q65 0 98 -30t33 -85q0 -112 -131 -112 q-68 0 -99.5 28t-31.5 84zM383 543h379l-174 487q-8 24 -19 68h-2q-13 -60 -16 -68zM635 1628q0 115 131 115q65 0 98 -30t33 -85q0 -112 -131 -112q-68 0 -99.5 28t-31.5 84z" />
<glyph unicode="&#xc5;" horiz-adv-x="1288" d="M4 0v29l59 37q39 21 62 81l410 1049q-119 41 -119 174q0 98 62 146.5t163 48.5t163 -48.5t62 -146.5q0 -130 -114 -174l405 -1049q7 -21 21 -42t24 -27l84 -49v-29h-508v29l94 47q29 14 29 55q0 20 -6 35l-102 289h-441l-100 -287q-6 -15 -6 -37q0 -40 24 -55l88 -47v-29 h-354zM383 543h379l-174 487q-8 24 -19 68h-2q-13 -60 -16 -68zM522 1370q0 -54 32.5 -84.5t86.5 -30.5q56 0 87.5 30t31.5 85q0 119 -119 119t-119 -119z" />
<glyph unicode="&#xc6;" horiz-adv-x="1804" d="M-41 0v29l55 22q66 26 109 92l631 1008q14 22 14 41q0 28 -35 49l-90 53v23h1049v-256h-37l-86 110q-33 42 -66.5 55t-111.5 13h-269v-516h260q21 0 52.5 11t52.5 32l51 51h33v-260h-33l-55 55q-38 41 -99 41h-262v-571h269q110 0 143 12.5t98 77.5l94 94h37l-39 -266 h-974v29l90 41q24 11 33.5 23.5t9.5 35.5v326h-455l-182 -301q-19 -36 -19 -54q0 -33 39 -45l76 -26v-29h-383zM473 530h410v691h-17q-2 -31 -6 -37z" />
<glyph unicode="&#xc7;" horiz-adv-x="1181" d="M94 635q0 142 32 258.5t89.5 198.5t138 138t175.5 82.5t204 26.5q190 0 365 -67v-244h-41q-34 47 -53.5 71t-52.5 58t-62.5 50t-72 28t-91.5 12q-379 0 -379 -604q0 -139 22 -241.5t72.5 -181.5t139 -119t215.5 -40q63 0 146 32t138 71h41l-33 -144q-43 -23 -133 -40 t-198 -17l-15 -57q59 -12 114.5 -52t55.5 -100q0 -79 -55 -125.5t-135 -46.5q-44 0 -86.5 23.5t-42.5 64.5q0 64 65 64q3 -24 7 -40.5t12.5 -34t25.5 -26t41 -8.5q34 0 56 20.5t22 51.5q0 25 -11.5 45.5t-25.5 32.5t-39.5 22.5t-39.5 14.5t-39 10l43 143 q-284 12 -449.5 185.5t-165.5 484.5z" />
<glyph unicode="&#xc8;" horiz-adv-x="1132" d="M61 0v29l82 39q45 22 45 71v1039q0 47 -45 69l-82 41v29h938v-256h-36l-86 106q-33 42 -66.5 55t-112.5 13h-266v-512h238q25 0 65.5 11.5t59.5 31.5l51 51h35v-260h-35l-53 55q-19 19 -55 30t-66 11h-240v-571h287q110 0 143.5 12.5t98.5 77.5l94 94h39l-41 -266h-992z M307 1743h252l129 -268h-96z" />
<glyph unicode="&#xc9;" horiz-adv-x="1132" d="M61 0v29l82 39q45 22 45 71v1039q0 47 -45 69l-82 41v29h938v-256h-36l-86 106q-33 42 -66.5 55t-112.5 13h-266v-512h238q25 0 65.5 11.5t59.5 31.5l51 51h35v-260h-35l-53 55q-19 19 -55 30t-66 11h-240v-571h287q110 0 143.5 12.5t98.5 77.5l94 94h39l-41 -266h-992z M430 1475l129 268h252l-284 -268h-97z" />
<glyph unicode="&#xca;" horiz-adv-x="1132" d="M61 0v29l82 39q45 22 45 71v1039q0 47 -45 69l-82 41v29h938v-256h-36l-86 106q-33 42 -66.5 55t-112.5 13h-266v-512h238q25 0 65.5 11.5t59.5 31.5l51 51h35v-260h-35l-53 55q-19 19 -55 30t-66 11h-240v-571h287q110 0 143.5 12.5t98.5 77.5l94 94h39l-41 -266h-992z M328 1475l174 268h149l178 -268h-86l-168 131l-163 -131h-84z" />
<glyph unicode="&#xcb;" horiz-adv-x="1132" d="M61 0v29l82 39q45 22 45 71v1039q0 47 -45 69l-82 41v29h938v-256h-36l-86 106q-33 42 -66.5 55t-112.5 13h-266v-512h238q25 0 65.5 11.5t59.5 31.5l51 51h35v-260h-35l-53 55q-19 19 -55 30t-66 11h-240v-571h287q110 0 143.5 12.5t98.5 77.5l94 94h39l-41 -266h-992z M245 1628q0 115 132 115q65 0 98 -30t33 -85q0 -112 -131 -112q-132 0 -132 112zM573 1628q0 115 131 115q65 0 98 -30t33 -85q0 -112 -131 -112q-68 0 -99.5 28t-31.5 84z" />
<glyph unicode="&#xcc;" horiz-adv-x="608" d="M61 0v29l82 39q45 22 45 71v1039q0 47 -45 69l-82 41v29h498v-29l-82 -41q-45 -22 -45 -69v-1039q0 -49 45 -71l82 -39v-29h-498zM61 1743h252l129 -268h-96z" />
<glyph unicode="&#xcd;" horiz-adv-x="608" d="M61 0v29l82 39q45 22 45 71v1039q0 47 -45 69l-82 41v29h498v-29l-82 -41q-45 -22 -45 -69v-1039q0 -49 45 -71l82 -39v-29h-498zM225 1475l129 268h252l-284 -268h-97z" />
<glyph unicode="&#xce;" horiz-adv-x="608" d="M61 0v29l82 39q45 22 45 71v1039q0 47 -45 69l-82 41v29h498v-29l-82 -41q-45 -22 -45 -69v-1039q0 -49 45 -71l82 -39v-29h-498zM61 1475l175 268h149l178 -268h-86l-168 131l-164 -131h-84z" />
<glyph unicode="&#xcf;" horiz-adv-x="608" d="M-20 0v29l81 39q45 22 45 71v1039q0 47 -45 69l-81 41v29h497v-29l-82 -41q-45 -22 -45 -69v-1039q0 -49 45 -71l82 -39v-29h-497zM-20 1628q0 115 131 115q65 0 98 -30t33 -85q0 -112 -131 -112q-68 0 -99.5 28t-31.5 84zM307 1628q0 115 131 115q65 0 98 -30t33 -85 q0 -112 -131 -112q-68 0 -99.5 28t-31.5 84z" />
<glyph unicode="&#xd0;" horiz-adv-x="1335" d="M59 637v102h142v439q0 50 -45 69l-95 41v29h588q332 0 480.5 -165.5t148.5 -485.5q0 -129 -39.5 -248t-111.5 -212.5t-184.5 -149.5t-248.5 -56h-633v29l95 39q45 19 45 71v498h-142zM444 80h199q73 0 131 18t97.5 47.5t68 76t44.5 93.5t25.5 111t12 117t2.5 123 q0 75 -3.5 133t-14.5 119.5t-30 107t-50.5 87.5t-74.5 68.5t-104.5 42t-138.5 15.5h-164v-500h299v-102h-299v-557z" />
<glyph unicode="&#xd1;" horiz-adv-x="1439" d="M61 0v29l95 39q45 19 45 71v1039q0 50 -45 69l-95 41v29h402l692 -991v852q0 50 -47 69l-94 41v29h377v-29l-93 -41q-47 -18 -47 -69v-1178h-137l-817 1163v-1024q0 -52 47 -71l94 -39v-29h-377zM430 1505q7 83 61.5 150t135.5 67q46 0 131.5 -45t105.5 -45 q40 0 56.5 21.5t21.5 64.5h68q-5 -86 -55 -151.5t-134 -65.5q-35 0 -84 25.5t-92.5 50.5t-64.5 25q-60 0 -78 -97h-72z" />
<glyph unicode="&#xd2;" horiz-adv-x="1409" d="M94 651q0 354 161 521t456 167q115 0 209 -24.5t170.5 -77t128.5 -132.5t80 -194.5t28 -259.5q0 -688 -616 -688q-617 0 -617 688zM358 651q0 -123 9 -214t32 -170t62.5 -128t102 -76.5t147.5 -27.5t147.5 27.5t101.5 76.5t62 128t32 169.5t9 214.5q0 125 -9 216.5 t-32.5 170.5t-62.5 127.5t-101 75.5t-147 27t-147 -27t-101.5 -75.5t-63 -127.5t-32.5 -170.5t-9 -216.5zM389 1743h252l129 -268h-96z" />
<glyph unicode="&#xd3;" horiz-adv-x="1409" d="M94 651q0 354 161 521t456 167q115 0 209 -24.5t170.5 -77t128.5 -132.5t80 -194.5t28 -259.5q0 -688 -616 -688q-617 0 -617 688zM358 651q0 -123 9 -214t32 -170t62.5 -128t102 -76.5t147.5 -27.5t147.5 27.5t101.5 76.5t62 128t32 169.5t9 214.5q0 125 -9 216.5 t-32.5 170.5t-62.5 127.5t-101 75.5t-147 27t-147 -27t-101.5 -75.5t-63 -127.5t-32.5 -170.5t-9 -216.5zM614 1475l129 268h252l-284 -268h-97z" />
<glyph unicode="&#xd4;" horiz-adv-x="1409" d="M94 651q0 354 161 521t456 167q115 0 209 -24.5t170.5 -77t128.5 -132.5t80 -194.5t28 -259.5q0 -688 -616 -688q-617 0 -617 688zM358 651q0 -123 9 -214t32 -170t62.5 -128t102 -76.5t147.5 -27.5t147.5 27.5t101.5 76.5t62 128t32 169.5t9 214.5q0 125 -9 216.5 t-32.5 170.5t-62.5 127.5t-101 75.5t-147 27t-147 -27t-101.5 -75.5t-63 -127.5t-32.5 -170.5t-9 -216.5zM430 1475l174 268h150l178 -268h-86l-168 131l-164 -131h-84z" />
<glyph unicode="&#xd5;" horiz-adv-x="1409" d="M94 651q0 354 161 521t456 167q115 0 209 -24.5t170.5 -77t128.5 -132.5t80 -194.5t28 -259.5q0 -688 -616 -688q-617 0 -617 688zM358 651q0 -123 9 -214t32 -170t62.5 -128t102 -76.5t147.5 -27.5t147.5 27.5t101.5 76.5t62 128t32 169.5t9 214.5q0 125 -9 216.5 t-32.5 170.5t-62.5 127.5t-101 75.5t-147 27t-147 -27t-101.5 -75.5t-63 -127.5t-32.5 -170.5t-9 -216.5zM389 1506q7 83 61.5 150t135.5 67q46 0 132 -45t106 -45q40 0 56 21.5t21 64.5h68q-5 -86 -54.5 -151.5t-133.5 -65.5q-45 0 -132 50t-110 50q-60 0 -78 -96h-72z" />
<glyph unicode="&#xd6;" horiz-adv-x="1409" d="M94 651q0 354 161 521t456 167q115 0 209 -24.5t170.5 -77t128.5 -132.5t80 -194.5t28 -259.5q0 -688 -616 -688q-617 0 -617 688zM358 651q0 -123 9 -214t32 -170t62.5 -128t102 -76.5t147.5 -27.5t147.5 27.5t101.5 76.5t62 128t32 169.5t9 214.5q0 125 -9 216.5 t-32.5 170.5t-62.5 127.5t-101 75.5t-147 27t-147 -27t-101.5 -75.5t-63 -127.5t-32.5 -170.5t-9 -216.5zM368 1628q0 115 132 115q65 0 98 -30t33 -85q0 -112 -131 -112q-132 0 -132 112zM696 1628q0 115 131 115q65 0 98 -30t33 -85q0 -112 -131 -112q-68 0 -99.5 28 t-31.5 84z" />
<glyph unicode="&#xd7;" horiz-adv-x="962" d="M182 326l215 215l-215 217l82 80l215 -215l215 215l82 -80l-215 -217l215 -215l-82 -82l-215 215l-215 -215z" />
<glyph unicode="&#xd8;" horiz-adv-x="1409" d="M94 651q0 354 161 521t456 167q205 0 342 -77l102 163l62 -36l-105 -166q215 -171 215 -572q0 -688 -616 -688q-205 0 -340 76l-101 -160l-59 33l102 164q-219 164 -219 575zM358 651q0 -283 54 -420l565 910q-80 127 -266 127q-85 0 -147 -27t-101.5 -75.5t-63 -127.5 t-32.5 -170.5t-9 -216.5zM446 160q84 -125 265 -125q85 0 147.5 27.5t101.5 76.5t62 128t32 169.5t9 214.5q0 279 -49 414z" />
<glyph unicode="&#xd9;" horiz-adv-x="1380" d="M61 1288v29h525v-29l-94 -41q-48 -19 -48 -73v-725q0 -77 8.5 -132.5t31 -104t61 -78t99 -46t144.5 -16.5q171 0 239.5 98t68.5 334v659q0 27 -12.5 51t-34.5 33l-93 41v29h377v-29l-94 -41q-21 -9 -34 -33.5t-13 -50.5v-717q0 -87 -11.5 -156t-43 -132t-82.5 -104.5 t-133.5 -66t-192.5 -24.5q-97 0 -174 13t-145 45.5t-113 84t-70.5 131.5t-25.5 185v752q0 54 -45 73zM471 1743h252l129 -268h-96z" />
<glyph unicode="&#xda;" horiz-adv-x="1380" d="M61 1288v29h525v-29l-94 -41q-48 -19 -48 -73v-725q0 -77 8.5 -132.5t31 -104t61 -78t99 -46t144.5 -16.5q171 0 239.5 98t68.5 334v659q0 27 -12.5 51t-34.5 33l-93 41v29h377v-29l-94 -41q-21 -9 -34 -33.5t-13 -50.5v-717q0 -87 -11.5 -156t-43 -132t-82.5 -104.5 t-133.5 -66t-192.5 -24.5q-97 0 -174 13t-145 45.5t-113 84t-70.5 131.5t-25.5 185v752q0 54 -45 73zM655 1475l129 268h252l-284 -268h-97z" />
<glyph unicode="&#xdb;" horiz-adv-x="1380" d="M61 1288v29h525v-29l-94 -41q-48 -19 -48 -73v-725q0 -77 8.5 -132.5t31 -104t61 -78t99 -46t144.5 -16.5q171 0 239.5 98t68.5 334v659q0 27 -12.5 51t-34.5 33l-93 41v29h377v-29l-94 -41q-21 -9 -34 -33.5t-13 -50.5v-717q0 -87 -11.5 -156t-43 -132t-82.5 -104.5 t-133.5 -66t-192.5 -24.5q-97 0 -174 13t-145 45.5t-113 84t-70.5 131.5t-25.5 185v752q0 54 -45 73zM471 1475l174 268h150l178 -268h-86l-168 131l-164 -131h-84z" />
<glyph unicode="&#xdc;" horiz-adv-x="1380" d="M61 1288v29h525v-29l-94 -41q-48 -19 -48 -73v-725q0 -77 8.5 -132.5t31 -104t61 -78t99 -46t144.5 -16.5q171 0 239.5 98t68.5 334v659q0 27 -12.5 51t-34.5 33l-93 41v29h377v-29l-94 -41q-21 -9 -34 -33.5t-13 -50.5v-717q0 -87 -11.5 -156t-43 -132t-82.5 -104.5 t-133.5 -66t-192.5 -24.5q-97 0 -174 13t-145 45.5t-113 84t-70.5 131.5t-25.5 185v752q0 54 -45 73zM410 1628q0 115 131 115q65 0 98 -30t33 -85q0 -112 -131 -112q-68 0 -99.5 28t-31.5 84zM737 1628q0 115 131 115q65 0 98 -30t33 -85q0 -112 -131 -112q-68 0 -99.5 28 t-31.5 84z" />
<glyph unicode="&#xdd;" horiz-adv-x="1273" d="M8 1288v29h578v-29l-78 -35q-62 -26 -62 -65q0 -30 35 -86l256 -414l209 430q12 28 12 56q0 52 -43 69l-98 45v29h449v-29l-88 -45q-47 -24 -68 -61l-322 -553v-490q0 -52 48 -71l100 -39v-29h-539v29l103 39q47 18 47 71v434l-385 609q-15 25 -26 37t-30 20zM485 1415 l129 268h252l-284 -268h-97z" />
<glyph unicode="&#xde;" horiz-adv-x="1155" d="M61 0v29l82 39q45 22 45 71v1039q0 47 -45 69l-82 41v29h498v-29l-82 -41q-45 -22 -45 -69v-127h236q176 0 272.5 -34t136 -106.5t39.5 -203.5q0 -385 -454 -385h-230v-183q0 -52 45 -71l103 -39v-29h-519zM432 401h205q42 0 79 14.5t71 46t53.5 91.5t19.5 141 q0 142 -53.5 210.5t-192.5 68.5h-182v-572z" />
<glyph unicode="&#xdf;" horiz-adv-x="1269" d="M41 823v84h156v68q0 116 68.5 215.5t173.5 154t216 54.5q156 0 243 -62.5t87 -179.5q0 -59 -24 -105.5t-57.5 -75t-67.5 -53.5t-58 -54t-24 -62q0 -35 26 -66.5t67.5 -57t91.5 -51.5t100.5 -57t92 -66t67.5 -86t26 -110q0 -156 -106.5 -249t-262.5 -93q-143 0 -234.5 48 t-91.5 145q0 48 32 74t81 26q31 0 66 -12q-2 -14 -2 -39q0 -33 1.5 -53.5t10 -46.5t23.5 -40.5t44.5 -25t71.5 -10.5q150 0 150 207q0 67 -31.5 121.5t-78 88t-101.5 65.5t-101.5 56t-78 58t-31.5 72q0 48 21.5 86t52 66t60.5 58.5t51.5 79t21.5 111.5q0 106 -46.5 168.5 t-125.5 62.5q-49 0 -85 -19t-56.5 -48.5t-33 -73.5t-16.5 -86t-4 -94v-1016h-381v29l111 39q41 17 41 67v688h-156z" />
<glyph unicode="&#xe0;" horiz-adv-x="954" d="M39 209q0 151 93.5 211.5t326.5 60.5h133v211q0 189 -150 189q-69 0 -101 -54t-32 -133q0 -15 4 -43q-27 -6 -55 -6q-123 0 -123 96q0 86 110 144.5t249 58.5q88 0 158.5 -23t118.5 -79.5t48 -139.5v-520q0 -31 2 -47t14 -31.5t35 -23.5l86 -31v-33q-39 -12 -124 -25.5 t-130 -13.5q-110 0 -110 99q-23 -16 -57.5 -35.5t-103.5 -44.5t-124 -25q-126 0 -197 68.5t-71 169.5zM225 1415h252l129 -268h-96zM266 244q0 -90 42 -126t122 -36q40 0 88 12t74 25v295h-94q-62 0 -106 -9t-68 -23t-37.5 -38t-17 -46t-3.5 -54z" />
<glyph unicode="&#xe1;" horiz-adv-x="954" d="M39 209q0 151 93.5 211.5t326.5 60.5h133v211q0 189 -150 189q-69 0 -101 -54t-32 -133q0 -15 4 -43q-27 -6 -55 -6q-123 0 -123 96q0 86 110 144.5t249 58.5q88 0 158.5 -23t118.5 -79.5t48 -139.5v-520q0 -31 2 -47t14 -31.5t35 -23.5l86 -31v-33q-39 -12 -124 -25.5 t-130 -13.5q-110 0 -110 99q-23 -16 -57.5 -35.5t-103.5 -44.5t-124 -25q-126 0 -197 68.5t-71 169.5zM266 244q0 -90 42 -126t122 -36q40 0 88 12t74 25v295h-94q-62 0 -106 -9t-68 -23t-37.5 -38t-17 -46t-3.5 -54zM389 1147l129 268h252l-284 -268h-97z" />
<glyph unicode="&#xe2;" horiz-adv-x="954" d="M39 209q0 151 93.5 211.5t326.5 60.5h133v211q0 189 -150 189q-69 0 -101 -54t-32 -133q0 -15 4 -43q-27 -6 -55 -6q-123 0 -123 96q0 86 110 144.5t249 58.5q88 0 158.5 -23t118.5 -79.5t48 -139.5v-520q0 -31 2 -47t14 -31.5t35 -23.5l86 -31v-33q-39 -12 -124 -25.5 t-130 -13.5q-110 0 -110 99q-23 -16 -57.5 -35.5t-103.5 -44.5t-124 -25q-126 0 -197 68.5t-71 169.5zM225 1147l174 268h150l178 -268h-86l-168 131l-164 -131h-84zM266 244q0 -90 42 -126t122 -36q40 0 88 12t74 25v295h-94q-62 0 -106 -9t-68 -23t-37.5 -38t-17 -46 t-3.5 -54z" />
<glyph unicode="&#xe3;" horiz-adv-x="954" d="M39 209q0 151 93.5 211.5t326.5 60.5h133v211q0 189 -150 189q-69 0 -101 -54t-32 -133q0 -15 4 -43q-27 -6 -55 -6q-123 0 -123 96q0 86 110 144.5t249 58.5q88 0 158.5 -23t118.5 -79.5t48 -139.5v-520q0 -31 2 -47t14 -31.5t35 -23.5l86 -31v-33q-39 -12 -124 -25.5 t-130 -13.5q-110 0 -110 99q-23 -16 -57.5 -35.5t-103.5 -44.5t-124 -25q-126 0 -197 68.5t-71 169.5zM164 1178q7 83 61 150t135 67q46 0 132 -45t106 -45q40 0 56.5 21.5t21.5 64.5h67q-5 -86 -54.5 -151.5t-133.5 -65.5q-45 0 -132 50t-110 50q-59 0 -77 -96h-72z M266 244q0 -90 42 -126t122 -36q40 0 88 12t74 25v295h-94q-62 0 -106 -9t-68 -23t-37.5 -38t-17 -46t-3.5 -54z" />
<glyph unicode="&#xe4;" horiz-adv-x="954" d="M39 209q0 151 93.5 211.5t326.5 60.5h133v211q0 189 -150 189q-69 0 -101 -54t-32 -133q0 -15 4 -43q-27 -6 -55 -6q-123 0 -123 96q0 86 110 144.5t249 58.5q88 0 158.5 -23t118.5 -79.5t48 -139.5v-520q0 -31 2 -47t14 -31.5t35 -23.5l86 -31v-33q-39 -12 -124 -25.5 t-130 -13.5q-110 0 -110 99q-23 -16 -57.5 -35.5t-103.5 -44.5t-124 -25q-126 0 -197 68.5t-71 169.5zM143 1300q0 115 132 115q65 0 98 -30t33 -85q0 -112 -131 -112q-132 0 -132 112zM266 244q0 -90 42 -126t122 -36q40 0 88 12t74 25v295h-94q-62 0 -106 -9t-68 -23 t-37.5 -38t-17 -46t-3.5 -54zM471 1300q0 115 131 115q65 0 98 -30t33 -85q0 -112 -131 -112q-68 0 -99.5 28t-31.5 84z" />
<glyph unicode="&#xe5;" horiz-adv-x="954" d="M39 209q0 151 93.5 211.5t326.5 60.5h133v211q0 189 -150 189q-69 0 -101 -54t-32 -133q0 -15 4 -43q-27 -6 -55 -6q-123 0 -123 96q0 86 110 144.5t249 58.5q88 0 158.5 -23t118.5 -79.5t48 -139.5v-520q0 -31 2 -47t14 -31.5t35 -23.5l86 -31v-33q-39 -12 -124 -25.5 t-130 -13.5q-110 0 -110 99q-23 -16 -57.5 -35.5t-103.5 -44.5t-124 -25q-126 0 -197 68.5t-71 169.5zM266 244q0 -90 42 -126t122 -36q40 0 88 12t74 25v295h-94q-62 0 -106 -9t-68 -23t-37.5 -38t-17 -46t-3.5 -54zM274 1288q0 79 55.5 128.5t149.5 49.5t149.5 -50 t55.5 -128q0 -71 -59 -122.5t-146 -51.5q-89 0 -147 47t-58 127zM373 1288q0 -48 27 -74t79 -26q107 0 107 100q0 107 -107 107q-106 0 -106 -107z" />
<glyph unicode="&#xe6;" horiz-adv-x="1452" d="M39 209q0 151 94.5 211.5t327.5 60.5h133v211q0 189 -150 189q-69 0 -100 -55.5t-31 -133.5q0 -29 2 -41q-40 -4 -55 -4q-123 0 -123 94q0 88 105 145.5t254 57.5q167 0 256 -78q106 78 278 78q183 0 277 -104.5t94 -276.5v-55h-578v-23q0 -93 15 -161.5t40.5 -110.5 t65 -67.5t82 -34.5t98.5 -9q65 0 138.5 15t121.5 37v-52q-54 -52 -143.5 -91.5t-193.5 -39.5q-251 0 -361 146q-185 -146 -377 -146q-126 0 -198 68.5t-72 169.5zM266 244q0 -90 43 -126t123 -36q40 0 88 12t74 25v295h-94q-77 0 -126 -12.5t-71.5 -38.5t-29.5 -52t-7 -67z M823 578h359v120q0 24 -7 50t-23.5 55t-51.5 48t-82 19t-81.5 -15.5t-55.5 -40t-33.5 -64.5t-17.5 -79t-7 -93z" />
<glyph unicode="&#xe7;" horiz-adv-x="880" d="M61 440q0 241 111.5 372.5t335.5 131.5q37 0 83 -7t97 -22.5t85 -46.5t34 -73q0 -53 -47 -83t-111 -30q-7 76 -52.5 138.5t-115.5 62.5q-178 0 -178 -394q0 -71 8.5 -127.5t30 -107.5t56.5 -85.5t90.5 -54.5t129.5 -20q48 0 110 17t103 41v-50q-56 -56 -143 -93.5 t-164 -37.5h-16l-16 -65q59 -12 114.5 -52t55.5 -100q0 -79 -55.5 -125.5t-135.5 -46.5q-44 0 -86.5 23.5t-42.5 64.5q0 64 66 64q3 -24 7 -40.5t12.5 -34t25.5 -26t41 -8.5q34 0 55.5 20.5t21.5 51.5q0 25 -11.5 45.5t-25.5 32.5t-39.5 22.5t-39.5 14.5t-39 10l45 153 q-192 17 -296 139t-104 326z" />
<glyph unicode="&#xe8;" horiz-adv-x="931" d="M57 457q0 253 119.5 370t331.5 117q182 0 276.5 -104.5t94.5 -276.5v-63h-578v-23q0 -113 22 -192.5t64.5 -122.5t94.5 -61.5t120 -18.5q146 0 258 65v-45q-52 -52 -142 -91.5t-194 -39.5q-467 0 -467 486zM184 1415h252l129 -268h-96zM301 569h356v129q0 183 -161 183 q-47 0 -82 -17.5t-55.5 -45t-33.5 -70t-18 -84t-6 -95.5z" />
<glyph unicode="&#xe9;" horiz-adv-x="931" d="M57 457q0 253 119.5 370t331.5 117q182 0 276.5 -104.5t94.5 -276.5v-63h-578v-23q0 -113 22 -192.5t64.5 -122.5t94.5 -61.5t120 -18.5q146 0 258 65v-45q-52 -52 -142 -91.5t-194 -39.5q-467 0 -467 486zM301 569h356v129q0 183 -161 183q-47 0 -82 -17.5t-55.5 -45 t-33.5 -70t-18 -84t-6 -95.5zM410 1147l129 268h252l-285 -268h-96z" />
<glyph unicode="&#xea;" horiz-adv-x="931" d="M66 457q0 253 119 370t331 117q182 0 276.5 -104.5t94.5 -276.5v-63h-578v-23q0 -113 22 -192.5t64.5 -122.5t94.5 -61.5t120 -18.5q146 0 258 65v-45q-52 -52 -142 -91.5t-194 -39.5q-466 0 -466 486zM246 1147l174 268h149l179 -268h-86l-168 131l-164 -131h-84z M309 569h357v129q0 183 -162 183q-47 0 -82 -17.5t-55.5 -45t-33.5 -70t-18 -84t-6 -95.5z" />
<glyph unicode="&#xeb;" horiz-adv-x="931" d="M66 457q0 253 119 370t331 117q182 0 276.5 -104.5t94.5 -276.5v-63h-578v-23q0 -113 22 -192.5t64.5 -122.5t94.5 -61.5t120 -18.5q146 0 258 65v-45q-52 -52 -142 -91.5t-194 -39.5q-466 0 -466 486zM184 1300q0 115 131 115q65 0 98 -30t33 -85q0 -112 -131 -112 q-68 0 -99.5 28t-31.5 84zM309 569h357v129q0 183 -162 183q-47 0 -82 -17.5t-55.5 -45t-33.5 -70t-18 -84t-6 -95.5zM512 1300q0 115 131 115q65 0 98 -30t33 -85q0 -112 -131 -112q-68 0 -99.5 28t-31.5 84z" />
<glyph unicode="&#xec;" horiz-adv-x="559" d="M61 0v29l74 28q41 17 41 72v576q0 45 -8 65.5t-41 36.5l-66 35v37l345 65v-815q0 -55 40 -72l74 -28v-29h-459zM61 1415h252l129 -268h-96z" />
<glyph unicode="&#xed;" horiz-adv-x="559" d="M61 0v29l74 28q41 17 41 72v576q0 45 -8 65.5t-41 36.5l-66 35v37l345 65v-815q0 -55 40 -72l74 -28v-29h-459zM123 1147l129 268h252l-285 -268h-96z" />
<glyph unicode="&#xee;" horiz-adv-x="559" d="M41 0v29l74 28q41 17 41 72v576q0 44 -8.5 65t-41.5 37l-65 35v37l344 65v-815q0 -55 41 -72l74 -28v-29h-459zM41 1147l174 268h150l178 -268h-86l-168 131l-164 -131h-84z" />
<glyph unicode="&#xef;" horiz-adv-x="559" d="M-41 0v29l74 28q41 17 41 72v576q0 45 -8 65.5t-41 36.5l-66 35v37l344 65v-815q0 -55 41 -72l74 -28v-29h-459zM-41 1300q0 115 131 115q65 0 98 -30t33 -85q0 -112 -131 -112q-68 0 -99.5 28t-31.5 84zM287 1300q0 115 131 115q65 0 98 -30t33 -85q0 -112 -131 -112 q-68 0 -99.5 28t-31.5 84z" />
<glyph unicode="&#xf0;" horiz-adv-x="962" d="M51 473q0 100 24.5 183.5t73.5 149t130 102t188 36.5q84 0 154 -24q-50 140 -162 243l-115 -116l-49 49l111 108q-109 76 -259 121v74q214 -52 340 -113l113 113l49 -41l-102 -105q189 -107 278.5 -286.5t89.5 -464.5q0 -240 -125 -385.5t-325 -145.5q-187 0 -300.5 130 t-113.5 372zM279 471q0 -416 180 -416q217 0 217 453q0 201 -37 344q-58 12 -125 12q-235 0 -235 -393z" />
<glyph unicode="&#xf1;" horiz-adv-x="1126" d="M61 0v29l74 28q41 17 41 72v578q0 43 -8.5 62.5t-40.5 37.5l-66 35v35l345 67v-141q63 44 159.5 92.5t149.5 48.5q139 0 194.5 -71t55.5 -230v-514q0 -55 41 -72l73 -28v-29h-458v29l73 28q41 17 41 72v500q0 94 -26.5 132t-112.5 38q-75 0 -190 -41v-629q0 -55 40 -72 l74 -28v-29h-459zM225 1178q7 83 61.5 150t135.5 67q46 0 131.5 -45t105.5 -45q40 0 56.5 21.5t21.5 64.5h68q-5 -86 -55 -151.5t-134 -65.5q-45 0 -131.5 50t-109.5 50q-60 0 -78 -96h-72z" />
<glyph unicode="&#xf2;" horiz-adv-x="1052" d="M66 457q0 245 125.5 366t338.5 121q214 0 340.5 -121t126.5 -366q0 -123 -34.5 -217t-97.5 -152.5t-147 -87.5t-188 -29q-212 0 -338 121.5t-126 364.5zM205 1415h252l129 -268h-97zM311 457q0 -162 26 -256t72 -130t121 -36q76 0 123 36t73 130t26 256 q0 125 -14.5 209.5t-44.5 130.5t-69 65t-94 19q-54 0 -92.5 -19t-68 -65t-44 -130.5t-14.5 -209.5z" />
<glyph unicode="&#xf3;" horiz-adv-x="1052" d="M66 457q0 245 125.5 366t338.5 121q214 0 340.5 -121t126.5 -366q0 -123 -34.5 -217t-97.5 -152.5t-147 -87.5t-188 -29q-212 0 -338 121.5t-126 364.5zM311 457q0 -162 26 -256t72 -130t121 -36q76 0 123 36t73 130t26 256q0 125 -14.5 209.5t-44.5 130.5t-69 65t-94 19 q-54 0 -92.5 -19t-68 -65t-44 -130.5t-14.5 -209.5zM430 1147l129 268h252l-284 -268h-97z" />
<glyph unicode="&#xf4;" horiz-adv-x="1052" d="M66 457q0 245 125.5 366t338.5 121q214 0 340.5 -121t126.5 -366q0 -123 -34.5 -217t-97.5 -152.5t-147 -87.5t-188 -29q-212 0 -338 121.5t-126 364.5zM246 1147l174 268h149l179 -268h-86l-168 131l-164 -131h-84zM311 457q0 -162 26 -256t72 -130t121 -36q76 0 123 36 t73 130t26 256q0 125 -14.5 209.5t-44.5 130.5t-69 65t-94 19q-54 0 -92.5 -19t-68 -65t-44 -130.5t-14.5 -209.5z" />
<glyph unicode="&#xf5;" horiz-adv-x="1052" d="M66 457q0 245 125.5 366t338.5 121q214 0 340.5 -121t126.5 -366q0 -123 -34.5 -217t-97.5 -152.5t-147 -87.5t-188 -29q-212 0 -338 121.5t-126 364.5zM205 1178q7 83 61 150t135 67q46 0 132 -45t106 -45q40 0 56.5 21.5t21.5 64.5h67q-5 -86 -54.5 -151.5 t-133.5 -65.5q-45 0 -132 50t-110 50q-60 0 -78 -96h-71zM311 457q0 -162 26 -256t72 -130t121 -36q76 0 123 36t73 130t26 256q0 125 -14.5 209.5t-44.5 130.5t-69 65t-94 19q-54 0 -92.5 -19t-68 -65t-44 -130.5t-14.5 -209.5z" />
<glyph unicode="&#xf6;" horiz-adv-x="1052" d="M66 457q0 245 125.5 366t338.5 121q214 0 340.5 -121t126.5 -366q0 -123 -34.5 -217t-97.5 -152.5t-147 -87.5t-188 -29q-212 0 -338 121.5t-126 364.5zM204 1300q0 115 132 115q65 0 98 -30t33 -85q0 -112 -131 -112q-132 0 -132 112zM311 457q0 -162 26 -256t72 -130 t121 -36q76 0 123 36t73 130t26 256q0 125 -14.5 209.5t-44.5 130.5t-69 65t-94 19q-54 0 -92.5 -19t-68 -65t-44 -130.5t-14.5 -209.5zM532 1300q0 115 131 115q65 0 98 -30t33 -85q0 -112 -131 -112q-68 0 -99.5 28t-31.5 84z" />
<glyph unicode="&#xf7;" horiz-adv-x="962" d="M117 483v115h725v-115h-725zM330 195q0 78 35 109.5t114 31.5t114.5 -31.5t35.5 -109.5q0 -79 -34.5 -108.5t-115.5 -29.5t-115 29.5t-34 108.5zM330 885q0 78 35 109.5t114 31.5t114.5 -31.5t35.5 -109.5q0 -79 -34.5 -108t-115.5 -29t-115 29t-34 108z" />
<glyph unicode="&#xf8;" horiz-adv-x="1052" d="M66 457q0 245 125.5 366t338.5 121q121 0 211 -37l72 125l61 -41l-67 -117q190 -121 190 -417q0 -123 -34.5 -217t-97.5 -152.5t-147 -87.5t-188 -29q-125 0 -223 43l-80 -137l-57 37l76 135q-180 121 -180 408zM311 457q0 -159 25 -254l348 606h2q-53 72 -156 72 q-54 0 -92.5 -19t-68 -65t-44 -130.5t-14.5 -209.5zM369 119q51 -84 161 -84q76 0 123 36t73 130t26 256q0 171 -29 272z" />
<glyph unicode="&#xf9;" horiz-adv-x="1124" d="M61 844v30l340 70v-649q0 -93 27.5 -131.5t112.5 -38.5q54 0 107.5 19.5t84.5 43.5v519q0 44 -8 64.5t-39 37.5l-65 35v30l340 70v-764q0 -31 2 -47t14 -31.5t35 -23.5l86 -31v-31q-39 -12 -124 -25.5t-130 -13.5q-111 0 -111 99v63q-50 -48 -143 -105t-148 -57 q-140 0 -204 74.5t-64 229.5v426q0 44 -8 64.5t-39 37.5zM246 1415h252l129 -268h-97z" />
<glyph unicode="&#xfa;" horiz-adv-x="1124" d="M61 844v30l340 70v-649q0 -93 27.5 -131.5t112.5 -38.5q54 0 107.5 19.5t84.5 43.5v519q0 44 -8 64.5t-39 37.5l-65 35v30l340 70v-764q0 -31 2 -47t14 -31.5t35 -23.5l86 -31v-31q-39 -12 -124 -25.5t-130 -13.5q-111 0 -111 99v63q-50 -48 -143 -105t-148 -57 q-140 0 -204 74.5t-64 229.5v426q0 44 -8 64.5t-39 37.5zM430 1147l129 268h252l-284 -268h-97z" />
<glyph unicode="&#xfb;" horiz-adv-x="1124" d="M61 844v30l340 70v-649q0 -93 27.5 -131.5t112.5 -38.5q54 0 107.5 19.5t84.5 43.5v519q0 44 -8 64.5t-39 37.5l-65 35v30l340 70v-764q0 -31 2 -47t14 -31.5t35 -23.5l86 -31v-31q-39 -12 -124 -25.5t-130 -13.5q-111 0 -111 99v63q-50 -48 -143 -105t-148 -57 q-140 0 -204 74.5t-64 229.5v426q0 44 -8 64.5t-39 37.5zM287 1147l174 268h149l178 -268h-86l-167 131l-164 -131h-84z" />
<glyph unicode="&#xfc;" horiz-adv-x="1124" d="M61 844v30l340 70v-649q0 -93 27.5 -131.5t112.5 -38.5q54 0 107.5 19.5t84.5 43.5v519q0 44 -8 64.5t-39 37.5l-65 35v30l340 70v-764q0 -31 2 -47t14 -31.5t35 -23.5l86 -31v-31q-39 -12 -124 -25.5t-130 -13.5q-111 0 -111 99v63q-50 -48 -143 -105t-148 -57 q-140 0 -204 74.5t-64 229.5v426q0 44 -8 64.5t-39 37.5zM204 1300q0 115 132 115q65 0 98 -30t33 -85q0 -112 -131 -112q-132 0 -132 112zM532 1300q0 115 131 115q65 0 98 -30t33 -85q0 -112 -131 -112q-68 0 -99.5 28t-31.5 84z" />
<glyph unicode="&#xfd;" horiz-adv-x="1052" d="M4 874v33h465v-33l-86 -40q-23 -12 -23 -46q0 -16 7 -34l231 -531l221 529q10 20 10 41q0 32 -24 43l-82 38v33h328v-33l-68 -45q-7 -4 -12.5 -9.5t-8.5 -9t-7.5 -11.5t-6 -10.5t-6.5 -14t-6 -14.5l-530 -1211h-191q244 441 262 480l-348 731q-21 48 -41 59zM365 1147 l129 268h251l-284 -268h-96z" />
<glyph unicode="&#xfe;" horiz-adv-x="1128" d="M45 1292v39l358 68v-565q40 27 153 68.5t169 41.5q348 0 348 -442q0 -117 -26.5 -209t-71.5 -151.5t-109 -98.5t-135 -55.5t-153 -16.5q-42 0 -175 9v-271q0 -49 43 -71l74 -39v-29h-459v29l72 39q43 24 43 71v1448q0 32 -2 47.5t-13 31t-34 24.5zM403 63 q11 -3 66.5 -10.5t79.5 -7.5q146 0 212 98.5t66 319.5q0 92 -14.5 158.5t-36 103t-56.5 57t-65.5 26t-72.5 5.5q-74 0 -179 -27v-723z" />
<glyph unicode="&#xff;" horiz-adv-x="1038" d="M-6 874v33h465v-33l-86 -40q-23 -12 -23 -46q0 -19 6 -34l232 -531l221 529q10 20 10 41q0 32 -24 43l-82 38v33h327v-33l-67 -45q-7 -4 -12.5 -9.5t-8.5 -9t-7.5 -11.5t-6 -10.5t-6.5 -14t-6 -14.5l-531 -1211h-190q244 441 262 480l-348 731q-21 48 -41 59zM246 1300 q0 115 131 115q65 0 98 -30t33 -85q0 -112 -131 -112q-68 0 -99.5 28t-31.5 84zM573 1300q0 115 132 115q65 0 98 -30t33 -85q0 -112 -131 -112q-132 0 -132 112z" />
<glyph unicode="&#x152;" horiz-adv-x="1822" d="M94 651q0 145 28.5 257t80 189t128.5 126.5t170.5 71.5t209.5 22h979v-256h-37l-86 106q-34 42 -67 55t-111 13h-269v-512h240q24 0 64.5 11.5t60.5 31.5l51 59h33v-268h-33l-55 55q-17 19 -53.5 30t-65.5 11h-242v-571h289q81 0 112.5 5t57.5 21t72 64l94 94h37 l-39 -266h-1032q-147 0 -256.5 32.5t-192.5 106.5t-125.5 202t-42.5 310zM358 651q0 -154 14.5 -254.5t53.5 -174.5t108 -107t177 -33h168v1153h-168q-86 0 -147 -23.5t-101 -67.5t-63.5 -117.5t-32.5 -162.5t-9 -213z" />
<glyph unicode="&#x153;" horiz-adv-x="1628" d="M66 457q0 245 125.5 366t338.5 121q196 0 310 -158q114 158 364 158q182 0 276.5 -104.5t94.5 -276.5v-63h-578v-15q0 -115 22 -196t64 -125t94 -63t121 -19q145 0 261 65v-45q-54 -52 -144 -91.5t-194 -39.5q-273 0 -385 166q-118 -166 -306 -166q-212 0 -338 121.5 t-126 364.5zM311 457q0 -162 26 -256t72 -130t121 -36q76 0 123 36t73 130t26 256q0 125 -14.5 209.5t-44.5 130.5t-69 65t-94 19q-54 0 -92.5 -19t-68 -65t-44 -130.5t-14.5 -209.5zM997 569h357v129q0 183 -162 183q-47 0 -82 -17.5t-55 -45t-33 -70.5t-18 -83.5t-7 -95.5 z" />
<glyph unicode="&#x178;" horiz-adv-x="1273" d="M8 1288v29h578v-29l-78 -35q-62 -26 -62 -65q0 -30 35 -86l256 -414l209 430q12 28 12 56q0 52 -43 69l-98 45v29h449v-29l-88 -45q-47 -24 -68 -61l-322 -553v-490q0 -52 48 -71l100 -39v-29h-539v29l103 39q47 18 47 71v434l-385 609q-15 25 -26 37t-30 20zM348 1628 q0 115 132 115q65 0 98 -30t33 -85q0 -112 -131 -112q-132 0 -132 112zM676 1628q0 115 131 115q65 0 98 -30t33 -85q0 -112 -131 -112q-68 0 -99.5 28t-31.5 84z" />
<glyph unicode="&#x2c6;" horiz-adv-x="583" d="M41 1147l174 268h150l178 -268h-86l-168 131l-164 -131h-84z" />
<glyph unicode="&#x2dc;" horiz-adv-x="702" d="M61 1178q7 83 61.5 150t135.5 67q46 0 132 -45t106 -45q40 0 56 21.5t21 64.5h68q-5 -86 -54.5 -151.5t-133.5 -65.5q-45 0 -132 50t-110 50q-60 0 -78 -96h-72z" />
<glyph unicode="&#x2000;" horiz-adv-x="871" />
<glyph unicode="&#x2001;" horiz-adv-x="1743" />
<glyph unicode="&#x2002;" horiz-adv-x="871" />
<glyph unicode="&#x2003;" horiz-adv-x="1743" />
<glyph unicode="&#x2004;" horiz-adv-x="581" />
<glyph unicode="&#x2005;" horiz-adv-x="435" />
<glyph unicode="&#x2006;" horiz-adv-x="290" />
<glyph unicode="&#x2007;" horiz-adv-x="290" />
<glyph unicode="&#x2008;" horiz-adv-x="217" />
<glyph unicode="&#x2009;" horiz-adv-x="348" />
<glyph unicode="&#x200a;" horiz-adv-x="96" />
<glyph unicode="&#x2010;" horiz-adv-x="462" d="M41 483v146h381v-146h-381z" />
<glyph unicode="&#x2011;" horiz-adv-x="462" d="M41 483v146h381v-146h-381z" />
<glyph unicode="&#x2012;" horiz-adv-x="462" d="M41 483v146h381v-146h-381z" />
<glyph unicode="&#x2013;" horiz-adv-x="962" d="M117 483v115h725v-115h-725z" />
<glyph unicode="&#x2014;" horiz-adv-x="1562" d="M41 483v115h1483v-115h-1483z" />
<glyph unicode="&#x2018;" horiz-adv-x="452" d="M68 891q29 78 97 199t138 227h82q-21 -67 -41.5 -191.5t-24.5 -234.5h-251z" />
<glyph unicode="&#x2019;" horiz-adv-x="452" d="M68 891q20 64 40.5 189.5t24.5 236.5h252q-29 -78 -97 -199t-138 -227h-82z" />
<glyph unicode="&#x201a;" horiz-adv-x="452" d="M68 -229q20 64 40.5 189.5t24.5 236.5h252q-29 -78 -97 -199t-138 -227h-82z" />
<glyph unicode="&#x201c;" horiz-adv-x="759" d="M47 891q60 161 236 426h82q-21 -67 -41.5 -191.5t-24.5 -234.5h-252zM395 891q60 161 236 426h82q-21 -67 -41.5 -191.5t-24.5 -234.5h-252z" />
<glyph unicode="&#x201d;" horiz-adv-x="759" d="M47 891q21 65 41.5 190t24.5 236h252q-60 -161 -236 -426h-82zM395 891q21 65 41.5 190t24.5 236h252q-60 -161 -236 -426h-82z" />
<glyph unicode="&#x201e;" horiz-adv-x="759" d="M47 -229q21 65 41.5 190t24.5 236h252q-60 -161 -236 -426h-82zM395 -229q21 65 41.5 190t24.5 236h252q-60 -161 -236 -426h-82z" />
<glyph unicode="&#x2022;" horiz-adv-x="765" d="M82 516q0 129 82.5 215t218.5 86q134 0 218.5 -86.5t84.5 -214.5q0 -126 -84.5 -213.5t-218.5 -87.5q-136 0 -218.5 87t-82.5 214z" />
<glyph unicode="&#x2026;" horiz-adv-x="1216" d="M78 113q0 78 35 109.5t114 31.5t114.5 -31.5t35.5 -109.5q0 -79 -34.5 -108.5t-115.5 -29.5t-115 29.5t-34 108.5zM459 113q0 78 35 109.5t114 31.5t114.5 -31.5t35.5 -109.5q0 -79 -34.5 -108.5t-115.5 -29.5t-115 29.5t-34 108.5zM840 113q0 78 35 109.5t114 31.5 t114.5 -31.5t35.5 -109.5q0 -79 -34.5 -108.5t-115.5 -29.5t-115 29.5t-34 108.5z" />
<glyph unicode="&#x202f;" horiz-adv-x="348" />
<glyph unicode="&#x2039;" horiz-adv-x="483" d="M82 485l246 351h75l-122 -351l122 -350h-77z" />
<glyph unicode="&#x203a;" horiz-adv-x="483" d="M82 135l123 350l-123 351h76l245 -351l-243 -350h-78z" />
<glyph unicode="&#x205f;" horiz-adv-x="435" />
<glyph unicode="&#x20ac;" horiz-adv-x="1181" d="M20 487v72h152q-2 25 -2 76q0 40 4 110h-154v72h162q37 262 185 392t387 130q189 0 364 -67v-244h-41q-34 47 -53.5 71t-52.5 58t-62.5 50t-72 28t-91.5 12q-160 0 -231.5 -106.5t-85.5 -323.5h541l-31 -72h-514q-2 -33 -2 -102q0 -57 2 -84h414l-31 -72h-381 q7 -105 28 -179t64 -132t116.5 -86.5t180.5 -28.5q63 0 147 32t138 71h41l-33 -144q-43 -23 -133.5 -40t-198.5 -17q-260 0 -412 133t-186 391h-158z" />
<glyph unicode="&#x2122;" horiz-adv-x="1695" d="M41 1167l20 150h611l20 -150h-20l-62 66q-4 4 -11.5 12t-10 10.5t-8 7.5t-8.5 6.5t-8.5 4t-11.5 3t-13.5 1t-18.5 0.5h-57q-21 0 -21 -31v-518q0 -20 21 -29l65 -24v-14h-325v14l65 24q23 9 23 29v518q0 31 -23 31h-55q-34 0 -49 -8.5t-41 -36.5l-64 -66h-18zM762 662v14 l49 22q20 9 20 33v492q0 48 -18 57l-51 23v14h233l217 -498l209 498h234v-14l-49 -21q-21 -9 -21 -57v-494q0 -24 23 -33l47 -22v-14h-291v14l49 22q21 9 21 33v483l2 31h-2q-4 -18 -11 -31l-237 -561h-53l-250 561q-9 14 -9 27h-2l2 -27v-485q0 -24 23 -33l47 -20v-14h-182 z" />
<glyph unicode="&#xe000;" horiz-adv-x="911" d="M0 0v911h911v-911h-911z" />
</font>
</defs>
</svg>
