<?xml version="1.0" standalone="no"?>
<!DOCTYPE svg PUBLIC "-//W3C//DTD SVG 1.1//EN" "http://www.w3.org/Graphics/SVG/1.1/DTD/svg11.dtd" >
<svg xmlns="http://www.w3.org/2000/svg">
<metadata></metadata>
<defs>
<font id="press_serifitalic" horiz-adv-x="962" >
<font-face units-per-em="2048" ascent="1536" descent="-512" />
<missing-glyph horiz-adv-x="446" />
<glyph unicode="&#xfb01;" horiz-adv-x="1093" d="M-305 -367q0 33 23 51.5t51 18.5q12 0 18 -2q0 -33 20.5 -58.5t65.5 -25.5q42 0 81 42.5t65.5 105.5t42.5 114.5t24 91.5l174 848h-137l18 86h138l14 64q15 68 38.5 127t62.5 116t89 97.5t121.5 65t157.5 24.5q31 0 73.5 -9.5t82.5 -35t40 -60.5q0 -44 -27.5 -66 t-64.5 -22q-16 0 -22 2q0 49 -42 89t-110 40q-86 0 -143 -79.5t-82 -204.5l-31 -148h561l-161 -780q-2 -6 -2 -16q0 -27 30 -27q42 0 154 27v-29q-48 -35 -132.5 -72t-140.5 -37q-40 0 -59.5 15.5t-19.5 56.5q0 21 6 55l149 721h-401l-121 -557q-155 -713 -492 -713 q-39 0 -75.5 21.5t-36.5 62.5z" />
<glyph unicode="&#xfb02;" horiz-adv-x="1097" d="M-305 -367q0 33 23 51.5t51 18.5q12 0 18 -2q0 -33 20.5 -58.5t65.5 -25.5q42 0 81 42.5t65.5 105.5t42.5 114.5t24 91.5l174 848h-137l18 86h138l14 64q15 68 38.5 127t62.5 116t89 97.5t121.5 65t157.5 24.5q28 0 85.5 -11.5t94.5 -27.5l154 39l-258 -1274 q-2 -6 -2 -16q0 -27 30 -27q55 0 152 29v-31q-48 -35 -133.5 -72t-141.5 -37q-40 0 -59.5 16t-19.5 58q0 23 6 53l209 1018q8 39 8 78q0 69 -40 106t-134 37q-97 0 -159 -79t-87 -205l-31 -148h232l-19 -86h-229l-121 -557q-155 -713 -492 -713q-39 0 -75.5 21.5t-36.5 62.5 z" />
<glyph horiz-adv-x="2048" />
<glyph horiz-adv-x="2048" />
<glyph unicode="&#xd;" horiz-adv-x="2048" />
<glyph unicode=" "  horiz-adv-x="446" />
<glyph unicode="&#x09;" horiz-adv-x="446" />
<glyph unicode="&#xa0;" horiz-adv-x="446" />
<glyph unicode="!" horiz-adv-x="481" d="M47 84q0 50 30.5 81.5t88.5 31.5q55 0 86 -29t31 -84q0 -54 -31 -81.5t-86 -27.5q-61 0 -90 30t-29 79zM182 354q6 21 11.5 46.5t8.5 44t8 49.5t7 45q21 113 33 345t35 347q12 58 39.5 79t87.5 21q27 0 44 -3.5t31.5 -18t14.5 -41.5q0 -23 -6 -47q-24 -111 -100.5 -336 t-100.5 -346q-4 -19 -13 -58t-14.5 -69.5t-7.5 -57.5h-78z" />
<glyph unicode="&#x22;" horiz-adv-x="759" d="M158 883l14 426h190l-151 -426h-53zM465 883l14 426h191l-152 -426h-53z" />
<glyph unicode="#" horiz-adv-x="901" d="M43 424l18 92h199l59 277h-198l18 92h199l90 424h92l-90 -424h215l90 424h92l-90 -424h199l-18 -92h-199l-60 -277h199l-18 -92h-199l-90 -424h-92l90 424h-215l-90 -424h-92l90 424h-199zM352 516h215l60 277h-215z" />
<glyph unicode="$" horiz-adv-x="868" d="M-39 150q0 53 44 85.5t101 34.5q-4 -24 -4 -39q0 -86 55.5 -134.5t141.5 -53.5l115 588q-54 37 -82.5 57t-72.5 58t-66.5 68t-40 72t-17.5 85q0 82 35.5 149t95 110t132 68t151.5 31l26 131h70l-24 -129q44 -2 91.5 -11t98 -27t83 -51.5t32.5 -76.5t-34.5 -68.5 t-78.5 -27.5q-21 73 -77.5 125t-129.5 61l-92 -477q38 -27 47.5 -33.5t45.5 -33t48 -37.5t41.5 -37t41.5 -42t31.5 -42.5t27.5 -48t15 -49t7 -54.5q0 -121 -68 -216t-171.5 -146.5t-223.5 -63.5l-43 -221h-69l41 217q-36 1 -75 6t-84.5 18t-81 32t-59.5 51t-24 72zM311 1024 q0 -52 36.5 -99t103.5 -100l84 432q-224 -20 -224 -233zM371 47q111 16 184.5 96t73.5 217q0 62 -40 115.5t-114 110.5z" />
<glyph unicode="%" horiz-adv-x="1816" d="M172 827q0 58 10 107q19 95 66.5 168t109.5 113.5t126 60.5t128 20q114 0 201.5 -82.5t87.5 -226.5q0 -39 -10 -94q-16 -82 -50.5 -149t-77.5 -110t-96 -72t-104.5 -41.5t-103.5 -12.5q-116 0 -201.5 84t-85.5 235zM225 -150l1309 1502h100l-1304 -1502h-105zM330 762 q0 -191 141 -191q189 0 252 334q16 91 16 148q0 182 -139 182q-189 0 -254 -330q-16 -88 -16 -143zM956 211q0 54 11 108q18 95 65 168t109 114t126 61t128 20q72 0 136.5 -34t108 -106.5t43.5 -170.5q0 -48 -8 -92q-20 -102 -67 -179.5t-109 -120.5t-127 -64t-131 -21 q-116 0 -200.5 83t-84.5 234zM1114 143q0 -186 139 -186q189 0 254 334q17 97 17 145q0 185 -142 185q-187 0 -252 -330q-16 -91 -16 -148z" />
<glyph unicode="&#x26;" horiz-adv-x="1206" d="M-23 225q0 52 15 100.5t38 86t61.5 75t72.5 63t84.5 54.5t85.5 46.5t86 41.5q-10 64 -10 148q0 72 12 133q30 144 140.5 251t246.5 107q88 0 143.5 -56.5t55.5 -135.5q0 -157 -173 -276q-69 -48 -241 -132q24 -139 77.5 -277t125.5 -237q66 67 115 173t49 212 q0 43 -22 71.5t-56 41.5l4 20h375l-5 -16l-81 -43q-35 -18 -65.5 -59.5t-45.5 -77.5q-89 -218 -238 -361q107 -127 226 -127q47 0 108 17l-6 -37q-138 -60 -264 -60q-100 0 -201 101q-167 -101 -360 -101q-161 0 -257 72t-96 182zM162 260q0 -91 66 -142.5t198 -51.5 q129 0 229 47q-79 96 -140 238.5t-87 289.5q-49 -29 -80 -50.5t-70 -57t-61.5 -71.5t-38.5 -88.5t-16 -113.5zM575 915q0 -60 13 -143q113 59 182.5 130t89.5 179q8 46 8 72q0 58 -20 95.5t-62 37.5q-49 0 -88 -31.5t-61 -76.5t-37 -99t-20 -95t-5 -69z" />
<glyph unicode="'" horiz-adv-x="452" d="M158 883l14 426h190l-151 -426h-53z" />
<glyph unicode="(" horiz-adv-x="505" d="M96 416q0 88 19 192q21 109 70.5 229t104 213.5t106.5 171.5t86 120l34 42h82q-10 -18 -27.5 -49t-64 -123.5t-85.5 -182t-80 -207t-60 -214.5q-25 -133 -25 -297q0 -111 11 -227.5t21 -177.5l11 -60l-72 -4q-5 11 -14 30.5t-31.5 81.5t-40 126t-31.5 156.5t-14 179.5z " />
<glyph unicode=")" horiz-adv-x="505" d="M-90 -156q10 18 27 49t63.5 124t85.5 182t79.5 207t59.5 215q27 147 27 303q0 110 -11 224.5t-21 173.5l-11 60l72 4q5 -11 14 -30.5t31 -82t39 -126.5t31 -157t14 -181q0 -99 -17 -188q-21 -109 -70.5 -229t-104.5 -213.5t-107.5 -171.5t-86.5 -121l-34 -42h-80z" />
<glyph unicode="*" horiz-adv-x="745" d="M41 1018l39 123l61 -21q26 -8 85 -47t122 -59q0 65 -19.5 134.5t-19.5 96.5v64h129v-64q0 -27 -19.5 -96.5t-19.5 -134.5q59 19 120.5 59.5t86.5 48.5l60 19l39 -121l-60 -21q-28 -9 -97.5 -10.5t-131.5 -23.5q40 -57 95.5 -99t72.5 -65l37 -49l-103 -78l-37 51 q-16 21 -45.5 91.5t-62.5 115.5q-34 -48 -61 -117.5t-44 -91.5l-37 -51l-102 76l37 51q15 22 42.5 43t60.5 51t63 72q-63 21 -135 23.5t-97 10.5z" />
<glyph unicode="+" d="M106 483l23 115h301l59 305h125l-59 -305h301l-22 -115h-302l-59 -305h-125l60 305h-302z" />
<glyph unicode="," horiz-adv-x="452" d="M0 -229q5 15 26 76.5t37 110.5t35 117.5t29 121.5h188q-43 -118 -249 -426h-66z" />
<glyph unicode="-" horiz-adv-x="481" d="M27 483l24 125h402l-25 -125h-401z" />
<glyph unicode="." horiz-adv-x="452" d="M51 84q0 50 30.5 81.5t88.5 31.5q55 0 86 -29t31 -84q0 -54 -31 -81.5t-86 -27.5q-61 0 -90 30t-29 79z" />
<glyph unicode="/" horiz-adv-x="665" d="M-96 -29l860 1428h110l-862 -1428h-108z" />
<glyph unicode="0" d="M86 385q0 71 10 152t31.5 170.5t53 175t78.5 163t103 136t131.5 93t159.5 34.5q70 0 124 -24t87.5 -63t55 -94t30 -111.5t8.5 -121.5q0 -102 -19 -220t-63.5 -244t-108 -227.5t-161.5 -167t-215 -65.5q-70 0 -124 24t-87.5 63t-55 94t-30 111.5t-8.5 121.5zM252 305 q0 -262 156 -262q65 0 123.5 53t99.5 139t74 190t52.5 211t29.5 196.5t10 152.5q0 252 -160 252q-80 0 -147.5 -74t-110 -184.5t-72.5 -242t-42.5 -242t-12.5 -189.5z" />
<glyph unicode="1" d="M98 0l8 39l181 45q24 6 36 20t17 39l180 926q2 6 2 18q0 30 -33 39l-163 48l6 32l401 103l-225 -1166q-2 -6 -2 -18q0 -32 33 -41l161 -45l-6 -39h-596z" />
<glyph unicode="2" d="M-18 0l12 63q43 32 118 94t97 79q85 66 152 123.5t149 142.5t136 164t91 177t37 193q0 199 -199 199q-110 0 -180.5 -79t-70.5 -208q0 -30 6 -57q-30 -10 -56 -10q-41 0 -68.5 23t-27.5 63q0 91 78.5 172.5t181.5 125.5t189 44q71 0 130.5 -15.5t108.5 -47.5t77 -88 t28 -132q0 -55 -19.5 -115t-47.5 -112.5t-77.5 -114t-91.5 -107.5t-109.5 -105.5t-110 -95.5t-115 -90.5t-103.5 -77t-94 -67.5h600l-29 -141h-792z" />
<glyph unicode="3" d="M0 156q0 58 36 93.5t95 35.5q24 0 45 -9q-16 -46 -16 -90q0 -73 44 -108t120 -35q116 0 200 56.5t124 147t40 202.5q0 36 -6.5 65t-20.5 49.5t-30.5 36t-40.5 25.5t-45.5 16t-52 9t-54 4t-55.5 1h-72l15 76q66 0 125 10t116 34.5t98 62.5t66 97.5t25 135.5 q0 80 -46.5 122t-127.5 42q-113 0 -187.5 -81.5t-77.5 -195.5q-27 -10 -51 -10q-35 0 -58.5 19t-23.5 53q0 61 48.5 117t119 92.5t144 58t127.5 21.5q53 0 105.5 -14t98 -41.5t73.5 -73.5t28 -103q0 -84 -51 -159t-124 -121t-155 -68l-2 -6q113 -5 191.5 -80.5t78.5 -187.5 q0 -104 -50.5 -196t-131 -154t-180 -98t-197.5 -36q-47 0 -95.5 9t-98.5 28t-81.5 57.5t-31.5 90.5z" />
<glyph unicode="4" d="M12 315l19 93l757 872h134l-166 -854h153l-22 -111h-152l-35 -172q-2 -6 -2 -20q0 -36 37 -55l78 -39l-6 -29h-430l6 29l92 39q51 23 60 71l34 176h-557zM137 426h455l129 661z" />
<glyph unicode="5" d="M6 160q0 57 36 91t93 34q26 0 47 -9q-16 -43 -16 -83q0 -74 49 -112t127 -38q116 0 199 58t122 154t39 220q0 101 -51 156t-151 55q-108 0 -256 -80h-78l168 674h610l-31 -162h-520l-106 -428q51 45 133 74t151 29q142 0 226 -69t84 -208q0 -146 -77 -272.5t-205 -199.5 t-273 -73q-47 0 -97.5 9t-103 28.5t-86 59t-33.5 92.5z" />
<glyph unicode="6" d="M68 313q0 157 55 303.5t148 261.5t216 210.5t258.5 160.5t276.5 101v-88q-173 -47 -315 -134.5t-245.5 -210t-160.5 -284.5t-57 -350q0 -108 38.5 -168t133.5 -60q78 0 137 33.5t93.5 92.5t51.5 132t17 158q0 101 -47 166t-144 65q-32 0 -75 -6v47q59 27 137 27 q139 0 221 -62t82 -196q0 -102 -38.5 -200t-103.5 -173.5t-159 -121.5t-199 -46q-152 0 -236.5 94t-84.5 248z" />
<glyph unicode="7" d="M104 0l762 1118h-671l30 162h799l-12 -66l-754 -1214h-154z" />
<glyph unicode="8" d="M70 215q0 59 23 118.5t57 106.5t85 96t94 82t97 70q-75 69 -118.5 135.5t-43.5 143.5q0 80 35.5 146t94 108t130.5 65t148 23q51 0 97 -11.5t86 -34.5t63.5 -64t23.5 -95q0 -57 -26 -112.5t-73.5 -105.5t-88 -84t-95.5 -73q48 -42 79 -72.5t67.5 -75.5t55 -93.5 t18.5 -100.5q0 -115 -71 -212.5t-178.5 -150.5t-219.5 -53q-50 0 -96.5 7.5t-91.5 25t-78 45t-53.5 70t-20.5 96.5zM233 231q0 -90 50.5 -137t140.5 -47q121 0 196.5 72.5t75.5 204.5q0 28 -7.5 56t-24.5 55.5t-31.5 49t-42 49.5t-41.5 41.5t-44.5 41.5t-37.5 34 q-103 -84 -168.5 -193t-65.5 -227zM428 1020q0 -36 18 -73.5t52 -74t58 -58t60 -50.5q78 70 131.5 155t53.5 171q0 71 -43.5 109t-116.5 38q-96 0 -154.5 -56t-58.5 -161z" />
<glyph unicode="9" d="M66 35q206 46 368.5 184t252 338t89.5 426q0 50 -8.5 92t-28 80.5t-56.5 60t-89 21.5q-69 0 -126 -42.5t-91.5 -109.5t-53 -144t-18.5 -153q0 -101 47 -166t144 -65q32 0 75 6v-47q-59 -27 -137 -27q-137 0 -219 71t-82 208q0 138 61.5 261t176 201.5t254.5 78.5 q153 0 241 -98.5t88 -252.5q0 -147 -49.5 -288t-135.5 -256.5t-198.5 -211t-241.5 -160.5t-263 -97v90z" />
<glyph unicode=":" horiz-adv-x="452" d="M51 84q0 50 30.5 81.5t88.5 31.5q55 0 86 -29t31 -84q0 -54 -31 -81.5t-86 -27.5q-61 0 -90 30t-29 79zM211 834q0 49 30 79.5t89 30.5q114 0 114 -110q0 -55 -29.5 -83t-84.5 -28q-61 0 -90 30t-29 81z" />
<glyph unicode=";" horiz-adv-x="452" d="M0 -229q5 15 26 76.5t37 110.5t35 117.5t29 121.5h188q-43 -118 -249 -426h-66zM211 834q0 49 30 79.5t89 30.5q114 0 114 -110q0 -55 -29.5 -83t-84.5 -28q-61 0 -90 30t-29 81z" />
<glyph unicode="&#x3c;" horiz-adv-x="905" d="M68 393l28 139l819 406l-24 -125l-711 -356l572 -357l-21 -114z" />
<glyph unicode="=" d="M82 356l22 115h727l-22 -115h-727zM131 610l23 117h727l-23 -117h-727z" />
<glyph unicode="&#x3e;" horiz-adv-x="905" d="M-10 -14l24 127l711 356l-571 356l20 113l664 -406l-29 -139z" />
<glyph unicode="?" horiz-adv-x="866" d="M57 1077q0 56 41.5 102.5t104.5 73.5t128 41.5t120 14.5q149 0 246.5 -77.5t97.5 -223.5q0 -95 -40 -178t-107.5 -141t-152.5 -95.5t-178 -50.5l-36 -189h-64l57 293q180 31 274.5 123.5t94.5 269.5q0 101 -51.5 154t-151.5 53q-104 0 -176.5 -69.5t-75.5 -173.5 q-36 -9 -49 -9q-37 0 -59.5 22t-22.5 60zM84 84q0 50 30 81.5t89 31.5q55 0 85.5 -29t30.5 -84q0 -54 -30.5 -81.5t-85.5 -27.5q-61 0 -90 30t-29 79z" />
<glyph unicode="@" horiz-adv-x="1386" d="M72 516q0 156 65 307t172.5 264t256 182.5t306.5 69.5q155 0 276 -52.5t195 -163.5t74 -267q0 -101 -44 -201.5t-112 -174t-153.5 -119.5t-165.5 -46q-53 0 -80.5 22t-27.5 73q0 28 6 55q-5 -4 -36 -29.5t-44.5 -36t-44 -32t-50 -31.5t-46 -18.5t-48.5 -8.5 q-69 0 -119.5 62t-50.5 155q0 105 37 196t96.5 151t133.5 94t149 34q143 0 264 -38l-94 -480q-8 -40 -8 -63q0 -43 35 -43q56 0 113.5 53t97 128.5t53.5 148.5q14 79 14 135q0 198 -118 314t-316 116q-113 0 -217 -44t-182 -120t-136.5 -173t-89 -207t-30.5 -218 q0 -201 111.5 -332t308.5 -131q146 0 272 72l57 -53q-166 -86 -344 -86q-239 0 -387.5 148.5t-148.5 387.5zM545 543q0 -137 98 -137q38 0 101.5 38t105.5 76l84 416q-40 6 -82 6q-76 0 -137 -36.5t-97 -96t-54.5 -128t-18.5 -138.5z" />
<glyph unicode="A" horiz-adv-x="1253" d="M-94 0l6 27l86 43q41 21 70 71l651 1184h125l207 -1188q3 -17 14.5 -35.5t24.5 -27.5l69 -47l-6 -27h-451l7 27l110 47q37 16 37 61q0 20 -12 94l-33 226h-481l-160 -297q-12 -21 -12 -47q0 -27 18 -37l80 -47l-6 -27h-344zM367 528h432l-86 580q-4 40 -4 70 q-9 -26 -33 -70z" />
<glyph unicode="B" horiz-adv-x="1136" d="M-35 0l6 29l121 39q52 16 62 71l200 1039q2 6 2 18q0 39 -34 51l-107 41l6 29h586q128 0 204 -64.5t76 -181.5q-2 -120 -78.5 -221t-191.5 -127v-8q112 -14 183 -82t71 -174q0 -90 -31 -166.5t-84 -129.5t-124 -90.5t-150.5 -55t-163.5 -17.5h-553zM319 66h166 q171 0 283.5 104t112.5 274q0 96 -69 155.5t-169 59.5h-207zM446 717h158q124 0 211.5 104t87.5 230q0 84 -44 142t-120 58h-188z" />
<glyph unicode="C" horiz-adv-x="1134" d="M86 442q0 189 63 357t168 285.5t245.5 186t291.5 68.5q96 0 188 -18.5t144 -36.5l-45 -217h-41l-33 70q-61 129 -258 129q-112 0 -213 -74.5t-170 -193t-109.5 -265.5t-40.5 -291q0 -180 84 -284.5t261 -104.5q55 0 101.5 8t89.5 27.5t63.5 30.5t62.5 37h31l-62 -136 q-48 -23 -142 -40t-202 -17q-223 0 -350 124.5t-127 354.5z" />
<glyph unicode="D" horiz-adv-x="1355" d="M-35 0l6 29l121 39q52 16 62 71l184 953q18 87 18 104q0 39 -34 51l-107 41l6 29h649q122 0 215 -37t149 -103t84 -151t28 -186q0 -120 -33.5 -241t-98 -228t-151.5 -190.5t-202.5 -132t-242.5 -48.5h-653zM319 63h261q117 0 215.5 51t163.5 134t111 189.5t66.5 216 t20.5 216.5q0 383 -381 383h-227z" />
<glyph unicode="E" horiz-adv-x="1116" d="M-35 0l6 29l121 39q52 16 62 71l184 955q18 92 18 102q0 39 -34 51l-107 41l6 29h885v-240h-37l-86 103q-33 40 -64 53.5t-106 13.5h-262l-105 -528h281q22 0 55.5 11t57.5 32l61 55h35l-51 -260h-35l-41 59q-28 41 -92 41h-283l-112 -587h319q110 0 147 14t111 82l90 80 h39l-88 -246h-975z" />
<glyph unicode="F" horiz-adv-x="1052" d="M-35 0l6 29l121 39q52 16 62 71l186 967q16 72 16 90q0 39 -34 51l-107 41l6 29h905v-240h-36l-89 103q-23 28 -38.5 40t-46 19.5t-82.5 7.5h-283l-105 -530h304q22 0 55 11t57 32l62 55h32l-51 -260h-33l-41 59q-28 41 -92 41h-305l-88 -456q-12 -58 -12 -72 q0 -35 41 -51l123 -47l-4 -29h-529z" />
<glyph unicode="G" horiz-adv-x="1224" d="M84 434q0 145 33 279.5t98.5 248t157.5 198t217 132t270 47.5q82 0 179 -20.5t147 -40.5v-236h-41q-37 110 -119 168t-203 58q-98 0 -181.5 -38.5t-142 -104t-103 -148.5t-70.5 -177t-39 -183t-13 -173t17 -152t54.5 -122.5t103.5 -84.5t157 -30q95 0 234 37l61 320 q6 35 6 55q0 46 -37 65l-65 35l6 35h393l-8 -35l-72 -41q-24 -14 -33 -24t-12 -27l-92 -475h-31l-98 41q-171 -78 -311 -78q-237 0 -350 124.5t-113 346.5z" />
<glyph unicode="H" horiz-adv-x="1423" d="M-35 0l6 29l121 39q52 16 62 71l194 1006q8 32 8 51q0 39 -34 51l-107 41l6 29h502l-6 -29l-121 -41q-49 -15 -59 -69l-91 -459h631l82 424q8 32 8 53q0 39 -34 51l-107 41l6 29h502l-6 -29l-121 -41q-49 -15 -59 -69l-203 -1039q-2 -6 -2 -18q0 -41 35 -53l106 -39 l-6 -29h-502l6 29l121 39q52 16 62 71l100 518h-631l-100 -518q-2 -6 -2 -18q0 -41 35 -53l106 -39l-6 -29h-502z" />
<glyph unicode="I" horiz-adv-x="612" d="M-35 0l6 29l121 39q52 16 62 71l200 1039q2 6 2 18q0 39 -34 51l-107 41l6 29h502l-6 -29l-121 -41q-49 -15 -59 -69l-203 -1039q-2 -6 -2 -18q0 -41 35 -53l106 -39l-6 -29h-502z" />
<glyph unicode="J" horiz-adv-x="571" d="M-193 -338q56 36 85.5 57t66 56t57.5 72t41.5 93.5t34.5 131.5l215 1102q2 6 2 16q0 42 -35 57l-86 41l7 29h460l-6 -29l-100 -41q-53 -19 -62 -69l-208 -1080q-16 -80 -57 -152.5t-88 -121.5t-107.5 -93t-101.5 -66t-85 -42z" />
<glyph unicode="K" horiz-adv-x="1232" d="M-35 0l6 29l121 39q52 16 62 71l200 1039q2 6 2 18q0 39 -34 51l-107 41l6 29h502l-6 -29l-121 -41q-49 -15 -59 -69l-203 -1039q-2 -6 -2 -18q0 -41 35 -53l106 -39l-6 -29h-502zM442 662l543 462q55 46 55 95q0 31 -28 43l-62 26l4 29h420l-6 -29q-57 -17 -121 -61 l-639 -500l420 -602q19 -26 63.5 -66.5t75.5 -62.5l-2 -16q-150 0 -243.5 44t-169.5 162z" />
<glyph unicode="L" horiz-adv-x="1032" d="M-35 0l6 29l121 39q52 16 62 71l200 1039q2 6 2 18q0 39 -34 51l-107 41l6 29h502l-6 -29l-121 -41q-49 -15 -59 -69l-218 -1108h283q90 0 125.5 13.5t99.5 76.5l91 86h38l-88 -246h-903z" />
<glyph unicode="M" horiz-adv-x="1765" d="M-35 0l6 29l125 43q49 18 58 69l192 987q10 68 10 70q0 33 -26 43l-113 47l6 29h340l273 -1112l680 1112h358l-4 -29l-127 -43q-28 -8 -41.5 -35t-22.5 -75l-192 -994q-2 -6 -2 -18q0 -37 33 -51l108 -43l-6 -29h-502l6 29l127 43q47 17 56 69l190 973l16 60h-6 q-14 -38 -30 -60l-695 -1130h-67l-281 1128q-6 21 -6 53h-4l-6 -53l-191 -975q-2 -6 -2 -18q0 -40 33 -51l111 -39l-7 -29h-397z" />
<glyph unicode="N" horiz-adv-x="1439" d="M-35 0l6 29l123 39q48 15 62 71l221 1039q2 6 2 18q0 39 -35 51l-104 41l6 29h319l543 -1079l197 940q2 6 2 18q0 38 -33 51l-107 41l7 29h401l-6 -29l-123 -41q-49 -15 -62 -69l-249 -1178h-101l-581 1163l-217 -1024q-3 -9 -3 -18q0 -42 33 -53l107 -39l-6 -29h-402z " />
<glyph unicode="O" horiz-adv-x="1327" d="M90 422q0 120 29.5 245.5t92 246t149.5 215t211.5 152.5t267.5 58q221 0 337.5 -116.5t116.5 -339.5q0 -116 -29.5 -241t-92 -246.5t-148.5 -217.5t-210.5 -155.5t-266.5 -59.5q-222 0 -339.5 118.5t-117.5 340.5zM268 365q0 -332 293 -332q99 0 183 43t143 116 t104 164.5t71 194.5t39 198.5t13 184.5q0 159 -68 246.5t-223 87.5q-85 0 -159.5 -32.5t-130 -87.5t-101 -129.5t-75.5 -157t-50.5 -171t-29.5 -169.5t-9 -156z" />
<glyph unicode="P" horiz-adv-x="1146" d="M-35 0l6 29l121 39q50 14 62 71l200 1039q2 6 2 18q0 39 -34 51l-107 41l6 29h692q140 0 213.5 -72.5t73.5 -193.5q0 -217 -142.5 -344t-393.5 -127h-244l-84 -430q-2 -10 -2 -23q0 -34 35 -49l125 -49l-7 -29h-522zM432 643h240q72 0 131 25t97 65t64 93.5t37 107 t11 108.5q0 85 -48.5 146t-136.5 61h-278z" />
<glyph unicode="Q" horiz-adv-x="1327" d="M90 422q0 120 29.5 245.5t92 246t149.5 215t211.5 152.5t267.5 58q221 0 337.5 -116.5t116.5 -339.5q0 -100 -22.5 -207.5t-69 -215.5t-111.5 -200.5t-158.5 -164.5t-201.5 -105q16 -5 175 -64t304 -102q123 -37 295 -37l-8 -31q-40 -36 -117 -68t-106 -32 q-64 0 -208.5 60.5t-234.5 121.5l-192 131q-43 -6 -92 -6q-222 0 -339.5 118.5t-117.5 340.5zM268 365q0 -332 293 -332q99 0 183 43t143 116t104 164.5t71 194.5t39 198.5t13 184.5q0 159 -68 246.5t-223 87.5q-85 0 -159.5 -32.5t-130 -87.5t-101 -129.5t-75.5 -157 t-50.5 -171t-29.5 -169.5t-9 -156z" />
<glyph unicode="R" horiz-adv-x="1259" d="M-35 0l6 29l121 39q52 16 62 71l200 1039q2 6 2 18q0 39 -34 51l-107 41l6 29h625q182 0 272 -69t90 -197q0 -91 -35 -166.5t-96 -127.5t-138.5 -84.5t-166.5 -45.5l281 -502q22 -38 59.5 -77t71.5 -50l-2 -18q-156 0 -230.5 33t-122.5 130l-231 457h-176l-88 -461 q-2 -6 -2 -18q0 -41 35 -53l106 -39l-6 -29h-502zM434 662h228q106 0 187 55t122 143t41 193q0 92 -56.5 143t-173.5 51h-233z" />
<glyph unicode="S" horiz-adv-x="976" d="M49 14l45 232h41q15 -52 30.5 -85t44 -64t73.5 -45.5t110 -14.5q136 0 217.5 82t81.5 209q0 51 -26 100t-67 90.5t-90.5 82.5t-99.5 82.5t-91 84t-67 94.5t-26 107q0 116 60.5 202t156 127t209.5 41q71 0 160 -13.5t156 -35.5l-41 -221h-41q-25 90 -89.5 144.5 t-172.5 54.5q-101 0 -164.5 -58.5t-63.5 -162.5q0 -46 26 -91.5t68 -85t92.5 -80t101.5 -83t93 -87t68 -100t26 -114.5q0 -100 -43.5 -185t-115 -140.5t-162 -86.5t-187.5 -31q-67 0 -157 14.5t-156 36.5z" />
<glyph unicode="T" horiz-adv-x="1198" d="M152 1059l90 258h1046v-258h-37l-65 98q-29 46 -48 62t-50 22t-105 6h-92q-44 0 -55 -59l-205 -1051q-2 -6 -2 -16q0 -28 35 -43l118 -49l-4 -29h-528l6 29l139 49q26 9 39 22t17 37l204 1051q2 8 2 20q0 39 -34 39h-91q-102 0 -135 -12.5t-102 -77.5l-107 -98h-36z" />
<glyph unicode="U" horiz-adv-x="1400" d="M195 283q0 68 14 139l147 752q2 6 2 18q0 43 -34 55l-107 41l6 29h504l-6 -29l-121 -41q-24 -7 -40 -27t-21 -46l-144 -734q-14 -69 -14 -133q0 -119 70.5 -177t234.5 -58q177 0 272.5 96.5t139.5 327.5l133 678q2 6 2 18q0 43 -35 55l-106 41l6 29h418l-7 -29l-120 -41 q-24 -7 -40.5 -27.5t-21.5 -45.5l-143 -728q-93 -483 -557 -483q-103 0 -179 15.5t-134.5 51.5t-88.5 99.5t-30 153.5z" />
<glyph unicode="V" horiz-adv-x="1259" d="M166 1290l6 27h440l-4 -27l-110 -47q-37 -15 -37 -67v-15l139 -960q4 -28 4 -54v-16h4q15 45 29 70l508 958q14 28 14 49q0 23 -18 35l-80 47l6 27h358l-6 -27l-88 -43q-41 -21 -67 -71l-656 -1192h-129l-207 1196q-3 13 -16.5 34t-22.5 27z" />
<glyph unicode="W" horiz-adv-x="1822" d="M160 1290l6 27h442l-4 -27l-110 -47q-33 -15 -33 -63v-17l67 -907q4 -36 4 -45q0 -5 -1 -16t-1 -19h7q9 38 30 80l518 1061h62l106 -1053q2 -14 2 -49q0 -23 -2 -33h7q13 45 32 82l422 877q27 59 27 69q0 20 -31 39l-72 43l7 25h337l-6 -25l-75 -45q-47 -29 -72 -78 l-598 -1185h-117l-102 944v57h-4q-6 -27 -23 -57l-473 -944h-117l-125 1200q-2 14 -11.5 33.5t-18.5 23.5z" />
<glyph unicode="X" horiz-adv-x="1257" d="M-78 0l6 29l109 43q40 14 92 71l463 492l-244 502q-12 23 -43 63.5t-55 52.5l-68 35l6 29h527l-6 -29l-107 -39q-67 -22 -67 -73q0 -23 12 -50l170 -356l303 360q45 54 45 80q0 25 -37 41l-82 37l6 29h451l-6 -29l-115 -49q-71 -32 -139 -106l-395 -426l253 -512 q18 -35 29.5 -54.5t32.5 -41.5t47 -36l68 -34l-7 -29h-528l6 29l107 39q67 22 67 73q0 22 -12 49l-186 377l-342 -389q-33 -38 -33 -63q0 -22 20 -31l121 -55l-6 -29h-463z" />
<glyph unicode="Y" horiz-adv-x="1175" d="M166 1288l6 29h459l-4 -29l-95 -28q-43 -14 -43 -54q0 -22 9 -43l151 -458q17 -51 17 -66h2q19 38 39 66l325 456q35 47 35 74q0 21 -23 27l-86 26l7 29h374l-6 -29l-90 -33q-31 -12 -90 -86l-455 -587l-86 -443q-2 -6 -2 -18q0 -38 35 -53l103 -39l-7 -29h-493l6 29 l117 39q51 19 61 71l84 439l-217 591q-7 22 -22.5 45t-32.5 31z" />
<glyph unicode="Z" horiz-adv-x="1028" d="M-59 0l8 45l973 1202h-375q-89 0 -130.5 -13.5t-88.5 -64.5l-92 -98h-39l49 246h909l-8 -41l-977 -1206h418q97 0 138.5 17t121.5 85l102 84h39l-90 -256h-958z" />
<glyph unicode="[" horiz-adv-x="540" d="M-31 -436l367 1882h395l-12 -64h-219l-340 -1753h219l-12 -65h-398z" />
<glyph unicode="\" horiz-adv-x="665" d="M137 1384h96l275 -1413h-94z" />
<glyph unicode="]" horiz-adv-x="540" d="M-190 -436l12 63h221l340 1751h-221l14 68h395l-364 -1882h-397z" />
<glyph unicode="^" horiz-adv-x="540" d="M33 856l262 453h108l91 -453h-72l-92 336l-217 -336h-80z" />
<glyph unicode="_" d="M86 -274l23 116h768l-23 -116h-768z" />
<glyph unicode="`" horiz-adv-x="499" d="M49 1393h213l189 -248h-72z" />
<glyph unicode="a" horiz-adv-x="1028" d="M68 166q0 111 29 223t86.5 211.5t135.5 176.5t183.5 122t222.5 45q49 0 96 -31q14 6 54.5 18.5t52.5 12.5h2l-152 -766q-12 -54 -12 -65q0 -13 9 -22t22 -9q62 0 153 27v-29q-52 -38 -133.5 -73.5t-134.5 -35.5q-37 0 -54.5 14.5t-17.5 51.5q0 23 8 63l56 254h-6 q-34 -62 -111.5 -149.5t-175 -160.5t-160.5 -73q-74 0 -113.5 59t-39.5 136zM225 225q0 -43 19 -82t57 -39q55 0 134 64t139 139t90 131l18 35l53 252q13 63 13 88q0 36 -19 51t-57 15q-71 0 -135 -31t-112 -83t-87 -119t-63 -140.5t-37 -145t-13 -135.5z" />
<glyph unicode="b" horiz-adv-x="1038" d="M96 106q0 28 6 52l199 999q6 42 6 45q0 39 -37 60l-75 43l4 24l303 70l-90 -455q-29 -143 -93 -397h7q35 55 85 117.5t114.5 128t136 108.5t129.5 43q91 0 129 -47.5t38 -140.5q0 -112 -31.5 -225t-92 -213t-141.5 -178t-188 -123.5t-224 -45.5q-185 0 -185 135zM252 117 q0 -92 80 -92q95 0 190 65q138 94 210.5 261t72.5 347q0 60 -17.5 89.5t-72.5 29.5q-81 0 -209 -123.5t-174 -214.5l-19 -37l-53 -249q-8 -50 -8 -76z" />
<glyph unicode="c" horiz-adv-x="806" d="M68 252q0 182 88.5 356t236.5 273q92 63 199 63q27 0 52 -3t56.5 -10.5t50.5 -26.5t19 -46q0 -33 -24 -62t-56 -44q-42 114 -149 114q-61 0 -114.5 -46.5t-89 -117.5t-61.5 -155.5t-37.5 -159.5t-11.5 -131q0 -190 135 -190q78 0 150.5 31.5t155.5 88.5v-63 q-92 -71 -176 -111.5t-175 -40.5q-249 0 -249 281z" />
<glyph unicode="d" horiz-adv-x="1077" d="M68 166q0 112 29.5 223.5t87 210t135.5 175t183 121t222 44.5h88l45 231q6 27 6 52q0 49 -39 57l-106 27l4 22l338 70l-264 -1274q-2 -8 -2 -19q0 -24 30 -24q28 0 79.5 10t74.5 17v-31q-47 -35 -131.5 -71t-140.5 -36q-76 0 -76 70q0 21 10 63l64 250h-7 q-87 -143 -225.5 -263t-234.5 -120q-85 0 -127.5 52.5t-42.5 142.5zM223 221q0 -60 22 -95.5t56 -35.5q56 0 116.5 34.5t112 90t92 111t72.5 112.5q9 15 19 35l90 406h-131q-80 0 -160 -50.5t-144 -136t-104.5 -210t-40.5 -261.5z" />
<glyph unicode="e" horiz-adv-x="911" d="M82 250q0 131 45.5 257.5t121.5 222.5t183 155t223 59q81 0 133 -46t52 -124q0 -72 -35 -135t-93 -109t-133.5 -81t-157 -54.5t-163.5 -25.5q-6 -53 -6 -111q0 -87 39 -141t127 -54q80 0 171.5 35t166.5 86v-61q-84 -64 -187.5 -108t-195.5 -44q-145 0 -218 74t-73 205z M262 416q93 10 170.5 35t139 66.5t96 104t34.5 140.5q0 44 -23.5 78t-74.5 34q-133 0 -224 -126.5t-118 -331.5z" />
<glyph unicode="f" horiz-adv-x="649" d="M-305 -367q0 33 23 51.5t51 18.5q12 0 18 -2q0 -33 20.5 -58.5t65.5 -25.5q42 0 81 42.5t65.5 105.5t42.5 114.5t24 91.5l174 848h-137l18 86h138l28 127q14 61 33 110.5t52.5 98.5t76.5 82.5t108 54.5t144 21q30 0 68.5 -9.5t73 -35t34.5 -60.5q0 -44 -28 -67t-64 -23 q-11 0 -23 4q0 52 -29 90.5t-96 38.5q-73 0 -113 -58t-63 -163l-45 -211h232l-19 -86h-229l-121 -557q-155 -713 -492 -713q-39 0 -75.5 21.5t-36.5 62.5z" />
<glyph unicode="g" horiz-adv-x="966" d="M-74 -252q0 60 88.5 143.5t200.5 147.5q-78 38 -78 82q0 85 185 182q-90 18 -148.5 72.5t-58.5 132.5q0 122 65 223.5t167.5 157t215.5 55.5q81 0 154 -45q60 56 133 106t115 50q28 0 46.5 -20.5t18.5 -51.5q0 -39 -35 -80q-51 15 -92 15q-75 0 -149 -46q73 -66 73 -151 q0 -106 -60.5 -201.5t-154.5 -153t-196 -69.5q-150 -65 -150 -113q0 -14 14.5 -26t45.5 -22.5t54 -17t67.5 -17t58.5 -13.5q56 -13 95.5 -25t83.5 -31t71 -40t45 -52.5t18 -68.5q0 -92 -77 -167t-197 -115t-254 -40q-80 0 -163.5 24.5t-142.5 72t-59 102.5zM68 -233 q0 -31 25 -57t65 -41t85 -23t89 -8q91 0 166.5 22t123.5 68.5t48 109.5q0 47 -49 72t-193 63q-134 35 -152 41q-208 -124 -208 -247zM264 512q0 -68 41.5 -110t106.5 -42q112 0 189 100t77 267q0 74 -33.5 112t-120.5 38q-118 0 -189 -103.5t-71 -261.5z" />
<glyph unicode="h" horiz-adv-x="1085" d="M94 0l242 1163q8 36 8 49q0 41 -39 58l-76 37l4 22l310 70l-181 -836h5q28 51 77 113.5t109.5 124t129.5 102.5t126 41q147 0 147 -143q0 -37 -12 -103l-117 -573q-2 -8 -2 -19q0 -24 31 -24q63 0 154 27v-29q-50 -37 -139.5 -73t-143.5 -36q-39 0 -56.5 15t-17.5 53 q0 16 9 61l126 613q9 41 9 59q0 51 -49 51q-61 0 -135.5 -51t-129 -112.5t-88.5 -118.5l-43 -76l-96 -465h-162z" />
<glyph unicode="i" horiz-adv-x="569" d="M72 809v29q47 35 131.5 70.5t140.5 35.5q40 0 60 -16t20 -56q0 -23 -6 -53l-144 -694q-2 -8 -2 -23q0 -20 31 -20q41 0 154 27v-29q-48 -35 -132.5 -72t-140.5 -37q-39 0 -59.5 16t-20.5 58q0 18 7 53l143 690q2 6 2 17q0 29 -31 29q-28 0 -79.5 -9t-73.5 -16zM315 1206 q0 43 30 73t73 30q41 0 70.5 -30t29.5 -73q0 -41 -29.5 -70.5t-70.5 -29.5q-43 0 -73 29.5t-30 70.5z" />
<glyph unicode="j" horiz-adv-x="569" d="M-117 -416q86 69 125 127t60 158l190 915q2 6 2 15q0 28 -31 28q-76 0 -157 -22v33q49 36 136.5 71t141.5 35q40 0 60 -16t20 -56q0 -29 -6 -53l-174 -825q-58 -273 -340 -445zM322 1206q0 43 29.5 73t72.5 30q41 0 70.5 -30t29.5 -73q0 -41 -29.5 -70.5t-70.5 -29.5 q-43 0 -72.5 29.5t-29.5 70.5z" />
<glyph unicode="k" horiz-adv-x="991" d="M49 0l230 1157q6 42 6 45q0 42 -37 60l-76 43l4 24l311 70l-278 -1399h-160zM346 494l250 249q117 117 178 159t135 42q31 0 31 -47q0 -38 -21.5 -76.5t-54.5 -60.5q-36 22 -76 22q-77 0 -157 -80l-154 -153l217 -418q9 -18 27 -33.5t37 -15.5q24 0 73.5 10t75.5 19v-31 q-153 -109 -245 -109q-21 0 -40 9t-30.5 18.5t-25 31t-19 32t-17.5 36.5z" />
<glyph unicode="l" horiz-adv-x="522" d="M88 45q0 26 6 53l219 1069q6 24 6 50q0 22 -8 34t-28 21l-76 35l4 22l309 70l-258 -1274q-2 -8 -2 -19q0 -24 31 -24q37 0 151 29v-31q-51 -37 -136 -73t-138 -36q-40 0 -60 17t-20 57z" />
<glyph unicode="m" horiz-adv-x="1585" d="M72 809v29q49 36 136.5 71t141.5 35q39 0 58.5 -16t19.5 -54q0 -21 -8 -57l-55 -254h2q30 52 75 112.5t103 123t124 104t122 41.5q139 0 139 -133q0 -37 -6.5 -75.5t-22 -98.5t-18.5 -74h2q30 52 75 112.5t103 123t124 104t122 41.5q74 0 109.5 -35t35.5 -108 q0 -37 -12 -103l-119 -575q-2 -6 -2 -19q0 -24 31 -24q37 0 155 29v-29q-50 -37 -139 -73t-143 -36q-37 0 -54.5 15t-17.5 53q0 29 6 59l127 617q8 36 8 59q0 27 -11 39t-38 12q-45 0 -95.5 -29.5t-94 -76.5t-77.5 -91.5t-58 -86.5l-43 -76l-99 -465h-157l147 715q8 36 8 59 q0 27 -11 39t-38 12q-46 0 -97.5 -30t-96.5 -76t-79.5 -91.5t-58.5 -86.5l-43 -76l-98 -465h-160l162 770q6 27 6 35q0 29 -31 29q-71 0 -159 -25z" />
<glyph unicode="n" horiz-adv-x="1087" d="M72 809v29q49 36 136.5 71t141.5 35q39 0 58.5 -16t19.5 -54q0 -21 -8 -57l-51 -246h2q29 52 77.5 113.5t108 121t128.5 99t126 39.5q74 0 109.5 -35t35.5 -108q0 -37 -12 -103l-110 -538q-11 -50 -11 -54q0 -26 31 -26q38 0 156 29v-29q-50 -37 -139.5 -73t-143.5 -36 q-39 0 -56.5 15t-17.5 53q0 16 9 61l126 607q9 45 9 63q0 55 -49 55q-61 0 -136.5 -53t-130.5 -116.5t-88 -120.5l-41 -70l-96 -465h-162l160 762q8 28 8 43q0 29 -31 29q-34 0 -83.5 -8.5t-75.5 -16.5z" />
<glyph unicode="o" horiz-adv-x="991" d="M43 303q0 83 25.5 172.5t74.5 172.5t114.5 149.5t153.5 106.5t183 40q147 0 230 -91.5t83 -248.5q0 -106 -41 -217.5t-112 -204t-177 -152t-225 -59.5q-148 0 -228.5 88.5t-80.5 243.5zM209 225q0 -86 42.5 -140t133.5 -54q69 0 130 50.5t101 126.5t69.5 167.5t42.5 172 t13 140.5q0 88 -41.5 141.5t-136.5 53.5q-70 0 -131 -50.5t-100.5 -127t-68.5 -168t-41.5 -172t-12.5 -140.5z" />
<glyph unicode="p" horiz-adv-x="1050" d="M-154 -430l4 29l119 39q26 9 38 21.5t18 37.5l219 1044q12 50 12 64q0 29 -31 29q-64 0 -155 -27v31q51 38 131.5 72t134.5 34q36 0 51.5 -13t15.5 -48q0 -24 -8 -64l-49 -252h8q26 42 61 89t82.5 99.5t96 93.5t103.5 68t102 27q75 0 116 -55.5t41 -132.5 q0 -124 -53.5 -262.5t-140.5 -254.5t-211.5 -192t-253.5 -76q-40 0 -57 17l-58 -281q-2 -8 -2 -20q0 -26 33 -39l133 -49l-4 -29h-496zM274 102q0 -36 19 -50.5t57 -14.5q70 0 138 38t119 98.5t89 127t60 131.5q43 125 43 260q0 41 -20.5 80t-59.5 39q-55 0 -134 -64 t-139.5 -139t-87.5 -129l-18 -37l-53 -252q-13 -63 -13 -88z" />
<glyph unicode="q" horiz-adv-x="1054" d="M68 166q0 154 51.5 296t141.5 248.5t219 170t276 63.5q52 0 96 -31l96 31h13l-248 -1241q-2 -6 -2 -16q0 -17 7 -26t25 -17l99 -45l-4 -29h-519l5 29l170 55q26 7 37.5 19.5t17.5 39.5l86 385l63 246h-6q-38 -59 -96 -123.5t-123 -120.5t-133 -92.5t-119 -36.5 q-72 0 -112.5 57.5t-40.5 137.5zM225 225q0 -53 21 -87t55 -34q56 0 116.5 33t112.5 86t92.5 107t71.5 108q9 15 19 35l53 252q12 53 12 88q0 34 -17.5 50t-58.5 16q-83 0 -167 -48t-153.5 -131.5t-113 -208.5t-43.5 -266z" />
<glyph unicode="r" horiz-adv-x="724" d="M72 809v29q50 37 134 71.5t138 34.5q37 0 53.5 -14t16.5 -49q0 -22 -8 -62l-50 -260h2q197 385 357 385q27 0 39 -7t12 -34q0 -39 -27.5 -102.5t-60.5 -63.5q-20 33 -60 33q-35 0 -78.5 -37t-80 -90t-63.5 -98.5t-40 -75.5l-18 -43l-88 -426h-160l164 788q2 6 2 15 q0 31 -31 31q-69 0 -153 -25z" />
<glyph unicode="s" horiz-adv-x="741" d="M-23 102q0 38 24 67.5t60 29.5q17 -66 74 -120t139 -54q62 0 113 46t51 124q0 42 -27 92.5t-65 98t-76 96t-65 103t-27 103.5q0 116 96 186t232 70q87 0 152 -33t65 -71q0 -36 -28.5 -62t-65.5 -26q-29 51 -74 93t-100 42q-61 0 -98.5 -39t-37.5 -86q0 -50 27 -100.5 t65.5 -94.5t76.5 -89t65 -101.5t27 -114.5q0 -133 -101.5 -212t-249.5 -79q-106 0 -179 36.5t-73 94.5z" />
<glyph unicode="t" horiz-adv-x="655" d="M100 819l13 55q32 5 59 14t48 17t40.5 24t32.5 26.5t27.5 33.5t22.5 35.5t21 42.5t19 45t20 51h89l-56 -256h219l-18 -88h-219l-129 -618q-6 -30 -6 -49q0 -68 47 -68q56 0 233 66v-46q-225 -133 -338 -133q-62 0 -87 26.5t-25 96.5q0 34 24 142l125 583h-162z" />
<glyph unicode="u" horiz-adv-x="1087" d="M72 809v27q49 36 138.5 72t143.5 36q37 0 54.5 -14t17.5 -49q0 -24 -8 -64l-129 -620q-8 -40 -8 -64q0 -51 49 -51q48 0 106 33.5t108.5 84t91 101t66.5 94.5l31 56q65 302 98 456h156l-162 -782q-2 -6 -2 -16q0 -27 31 -27q65 0 156 27v-31q-49 -36 -137 -71.5 t-142 -35.5q-39 0 -58.5 16t-19.5 54q0 12 9 57l53 248h-2q-29 -51 -77.5 -112.5t-109 -122t-129 -100.5t-125.5 -40q-75 0 -111 35.5t-36 108.5q0 36 12 102l117 574q2 6 2 14q0 29 -31 29q-51 0 -153 -25z" />
<glyph unicode="v" horiz-adv-x="966" d="M43 809v31q49 35 121.5 69.5t103.5 34.5q22 0 39 -8t25.5 -18t15.5 -30.5t9 -33t5 -37.5l87 -577q4 -23 4 -66h2q25 58 30 66l224 409q30 52 30 139q0 55 -10 97q22 21 67 40t74 19q45 0 45 -37q0 -40 -27.5 -103.5t-56.5 -109.5l-428 -714h-65l-135 804q0 2 -1.5 9.5 t-2 10.5t-3 8.5t-5 8t-7 4.5t-10.5 2q-43 0 -131 -18z" />
<glyph unicode="w" horiz-adv-x="1402" d="M39 803v33q51 37 127 72.5t131 35.5q45 0 58 -23t16 -104l24 -555q2 -37 2 -88h2q11 44 33 88l293 645h86l127 -684q4 -40 4 -73h2q16 44 31 73l192 443q19 45 19 98q0 51 -17 121q22 21 67.5 40t74.5 19q45 0 45 -37q0 -54 -84 -213l-365 -714h-80l-122 700l-332 -700 h-84l-84 804q-3 26 -9 34.5t-20 8.5q-18 0 -43.5 -4.5t-56.5 -11.5t-37 -8z" />
<glyph unicode="x" horiz-adv-x="993" d="M45 -12q0 42 42.5 103.5t88.5 109.5l227 241l-108 342q-11 43 -47 43q-27 0 -79 -10.5t-79 -21.5v32q58 41 138.5 79t133.5 38q18 0 31.5 -6t21.5 -13t15 -23t10 -25.5t8 -30.5t7 -29l82 -291l120 158q72 95 72 180q0 21 -6 39q30 15 80 28t82 13q30 0 30 -16 q0 -70 -131 -207l-227 -242l109 -348q13 -43 59 -43q27 0 79 11t79 22v-33q-58 -42 -138 -79.5t-133 -37.5q-16 0 -29 3t-23 12t-16 14.5t-12.5 22t-8.5 22t-8 27.5t-7 26l-84 297l-121 -157q-72 -95 -72 -181q0 -18 7 -39q-32 -17 -82 -32t-80 -15q-31 0 -31 17z" />
<glyph unicode="y" d="M43 795v32q54 40 132 78.5t132 38.5q26 0 38 -6.5t21.5 -33t18.5 -87.5l88 -590q6 -54 6 -65h2q11 34 29 65l213 424q39 76 39 140q0 29 -17 94q22 21 67.5 40t74.5 19q45 0 45 -37q0 -65 -84 -213l-408 -714q-20 -36 -78 -150q-77 -150 -77 -236q0 -23 6 -47 q-36 -4 -49 -4q-52 0 -80.5 21t-28.5 57q0 19 12 46t23.5 46t37.5 58l34 51l116 184l-137 778q-5 26 -10.5 34.5t-18.5 8.5q-28 0 -76 -11.5t-71 -20.5z" />
<glyph unicode="z" horiz-adv-x="837" d="M-25 57q0 45 36.5 82t94.5 60l486 536q-40 16 -147 43t-148 27q-39 0 -78 -26t-61 -64l-31 20q27 69 80.5 139t99.5 70q65 0 198.5 -45t172.5 -65l96 110l55 -37l-614 -682q32 4 49 4q44 0 107.5 -28t130 -56t116.5 -28q30 0 54 22t53 68l35 -21q-49 -97 -95 -156 t-94 -59q-55 0 -120.5 26t-113 57t-91.5 57t-62 26q-54 0 -82 -46t-28 -95q-16 -4 -27 -4q-31 0 -51.5 16t-20.5 49z" />
<glyph unicode="{" horiz-adv-x="630" d="M18 500l11 57q54 3 82 6.5t60 13.5t48.5 29t31.5 52t25 83l64 330q20 101 73.5 185t140 138t189.5 54q34 0 50 -2l-9 -43q-124 -6 -172 -52t-73 -175l-56 -291q-15 -75 -60 -152t-116 -134.5t-147 -63.5l-2 -11q64 -6 109.5 -51t65 -104t19.5 -121q0 -26 -8 -76l-68 -348 q-12 -66 -12 -100q0 -41 12 -66.5t38.5 -37.5t51 -15.5t68.5 -5.5l-8 -43q-40 -5 -51 -5q-124 0 -195 78.5t-71 204.5q0 41 10 96l74 385q8 50 8 74q0 31 -11.5 52.5t-27.5 32.5t-43 17t-48 7.5t-53 1.5z" />
<glyph unicode="|" horiz-adv-x="563" d="M156 -20l262 1349h71l-262 -1349h-71z" />
<glyph unicode="}" horiz-adv-x="630" d="M-162 -444l8 43q125 6 173 51t73 174l68 348q15 76 60 153.5t116 135t147 63.5l2 15q-92 7 -143 90t-51 182q0 41 8 74l55 291q13 54 13 100q0 33 -9 56t-22.5 36t-37.5 21t-45 10.5t-54 3.5l8 43q16 2 49 2q125 0 196.5 -77.5t71.5 -203.5q0 -44 -10 -96l-63 -330 q-9 -37 -9 -71q0 -27 7 -47t22 -32t29.5 -19t39.5 -10t41 -4t44 -1l-13 -57q-44 -2 -68.5 -4.5t-53.5 -9.5t-45 -18.5t-32.5 -31.5t-27 -49.5t-18.5 -71.5l-74 -385q-31 -158 -141.5 -268.5t-264.5 -110.5q-9 0 -49 5z" />
<glyph unicode="~" d="M33 440q32 112 118.5 198.5t194.5 86.5q46 0 95.5 -29t84 -64t72.5 -64t64 -29q65 0 103.5 45.5t55.5 115.5h109q-31 -121 -107 -202.5t-192 -81.5q-42 0 -89.5 30.5t-82.5 66.5t-77.5 66.5t-74.5 30.5q-52 0 -93.5 -54.5t-61.5 -115.5h-119z" />
<glyph unicode="&#xa1;" horiz-adv-x="481" d="M-18 -348q0 23 6 47q24 115 99.5 340t100.5 342q4 19 13 57.5t14.5 69t7.5 57.5h78q-6 -21 -11.5 -46.5t-8.5 -43.5t-8 -49t-7 -45q-21 -113 -32.5 -345t-34.5 -347q-12 -58 -40 -79.5t-87 -21.5q-42 0 -66 12.5t-24 51.5zM201 836q0 108 116 108q61 0 90 -29.5t29 -78.5 q0 -50 -30.5 -81.5t-88.5 -31.5q-55 0 -85.5 29t-30.5 84z" />
<glyph unicode="&#xa2;" horiz-adv-x="806" d="M68 227v23q0 109 32 214.5t85 188t119 147.5t136 102t133 42l58 164h71l-57 -166q125 -14 125 -84q0 -30 -23.5 -60.5t-56.5 -45.5q-22 65 -76 98l-270 -784h18q59 0 124.5 23t99.5 43.5t82 53.5v-63q-36 -28 -62 -46t-76 -47t-104 -44t-109 -15h-6l-55 -164h-74l60 173 q-165 36 -174 247zM227 221q4 -85 54 -127l266 772h-8q-52 0 -107.5 -48.5t-101 -129t-74.5 -195.5t-29 -237v-35z" />
<glyph unicode="&#xa3;" d="M-39 41q0 64 59 109.5t146 66.5q36 46 55.5 100t38.5 156l35 180h-195l15 70h194l17 82q20 107 56 193.5t93.5 158.5t144.5 112t197 40q42 0 92 -14.5t92.5 -50t42.5 -81.5q0 -44 -32.5 -69t-83.5 -25q-7 75 -47 122.5t-119 47.5q-31 0 -58 -9t-47.5 -21t-40 -37 t-31.5 -42.5t-25.5 -53.5t-20 -53.5t-16 -59.5t-12 -55.5t-10.5 -55.5q-1 -4 -1.5 -7.5t-1.5 -6.5l-23 -115h287l-12 -70h-289l-10 -61q-16 -94 -47.5 -164t-69 -113t-94.5 -88q10 2 30 2q79 0 257.5 -56t263.5 -56q24 0 49 16.5t39 32t34 41.5l31 -21q-145 -215 -229 -215 q-75 0 -190 41.5t-211.5 83t-127.5 41.5q-65 0 -95.5 -37.5t-41.5 -99.5q-1 0 -15 -5t-20 -5q-23 0 -38 13.5t-15 37.5z" />
<glyph unicode="&#xa5;" horiz-adv-x="1132" d="M139 1280l6 29h459l-4 -29l-94 -29q-43 -14 -43 -53q0 -24 8 -43l154 -450q16 -48 16 -66h2q19 38 39 66l324 448q34 46 34 74q0 21 -22 26l-86 27l6 29h375l-6 -29l-90 -33q-33 -13 -91 -86l-450 -577h293l-15 -70h-295l-24 -135h293l-13 -70h-294l-33 -170 q-2 -6 -2 -18q0 -38 35 -53l102 -39l-6 -29h-494l6 29l117 39q53 19 62 71l32 170h-293l15 70h291l26 135h-291l13 70h288l-217 577q-7 22 -22.5 45t-32.5 31z" />
<glyph unicode="&#xa6;" horiz-adv-x="563" d="M45 -451l180 922h72l-180 -922h-72zM264 676l180 921h72l-180 -921h-72z" />
<glyph unicode="&#xa7;" horiz-adv-x="917" d="M-10 -98q0 52 44 85t101 40q-4 -32 -4 -50q0 -88 52.5 -138t142.5 -50q116 0 186 60.5t70 160.5q0 32 -21 65.5t-42 52.5t-58 48l-285 221q-108 83 -108 193q0 92 80.5 161.5t179.5 90.5q-45 38 -72 90.5t-27 109.5q0 73 35.5 131t93.5 91t124.5 50t135.5 17q32 0 70 -4 t85 -15t84 -28t62 -46.5t25 -66.5q0 -42 -33.5 -67.5t-79.5 -34.5q-23 82 -88.5 139.5t-148.5 57.5q-92 0 -144.5 -44.5t-52.5 -134.5q0 -37 22.5 -74.5t46 -60t60.5 -51.5l269 -207q40 -30 63 -81t23 -105q0 -91 -74 -160.5t-170 -83.5q50 -42 84.5 -100.5t34.5 -116.5 q0 -78 -40 -141t-105.5 -101.5t-144 -58.5t-159.5 -20q-45 0 -94.5 8t-102 26t-86.5 55t-34 87zM219 649q0 -40 21 -68t61 -61l297 -227q52 21 87.5 66.5t35.5 97.5q0 33 -16.5 63t-34.5 47.5t-49 42.5l-248 197q-154 -51 -154 -158z" />
<glyph unicode="&#xa8;" horiz-adv-x="569" d="M61 1272q0 40 29.5 69t69.5 29q41 0 69.5 -29t28.5 -69q0 -41 -28.5 -69.5t-69.5 -28.5q-40 0 -69.5 28.5t-29.5 69.5zM369 1272q0 40 29 69t69 29q41 0 69.5 -29t28.5 -69q0 -41 -28.5 -69.5t-69.5 -28.5q-40 0 -69 28.5t-29 69.5z" />
<glyph unicode="&#xa9;" horiz-adv-x="1449" d="M63 516q0 125 44 248t123 223.5t181 178.5t225.5 121.5t248.5 43.5q242 0 396.5 -153.5t154.5 -395.5q0 -157 -68.5 -306.5t-180.5 -260t-262 -177.5t-307 -67q-242 0 -398.5 151.5t-156.5 393.5zM176 524q0 -207 126.5 -342t332.5 -135q137 0 266 63t221.5 164.5 t148.5 234t56 267.5q0 208 -126.5 344.5t-332.5 136.5q-137 0 -266.5 -63.5t-221.5 -166t-148 -235.5t-56 -268zM442 547q0 91 28 176.5t79 153t130 108.5t173 41q89 0 186 -33l-26 -133h-37q-31 115 -150 115q-53 0 -98 -30.5t-74 -77.5t-50 -105t-30.5 -112.5t-9.5 -100.5 q0 -95 42.5 -152t133.5 -57q47 0 82.5 14t83.5 45h31l-37 -88q-71 -35 -192 -35q-125 0 -195 72t-70 199z" />
<glyph unicode="&#xaa;" horiz-adv-x="673" d="M68 862q0 84 28 167t78 150t126 108.5t163 41.5q30 0 57 -18l58 18h8l-99 -489v-9q0 -18 19 -18q36 0 92 14v-16q-29 -22 -78.5 -44t-83.5 -22q-23 0 -33 8.5t-10 30.5q0 9 4 37l35 154h-4q-42 -75 -131 -152.5t-137 -77.5q-43 0 -67.5 34.5t-24.5 82.5zM162 897 q0 -31 12.5 -51.5t32.5 -20.5q48 0 118 72t101 129q4 12 10 21l33 151q8 40 8 51q0 41 -47 41q-100 0 -184 -114.5t-84 -278.5z" />
<glyph unicode="&#xab;" horiz-adv-x="741" d="M82 485l346 351h64l-256 -371l120 -330h-63zM369 485l288 297h62l-215 -317l98 -279h-59z" />
<glyph unicode="&#xac;" d="M156 483l22 115h684l-123 -627h-123l101 512h-561z" />
<glyph unicode="&#xad;" horiz-adv-x="0" />
<glyph unicode="&#xae;" horiz-adv-x="1449" d="M63 516q0 125 44 248t123 223.5t181 178.5t225.5 121.5t248.5 43.5q242 0 396.5 -153.5t154.5 -395.5q0 -157 -68.5 -306.5t-180.5 -260t-262 -177.5t-307 -67q-242 0 -398.5 151.5t-156.5 393.5zM176 524q0 -207 126.5 -342t332.5 -135q137 0 266 63t221.5 164.5 t148.5 234t56 267.5q0 208 -126.5 344.5t-332.5 136.5q-137 0 -266.5 -63.5t-221.5 -166t-148 -235.5t-56 -268zM373 295l4 16q5 2 19.5 7t23 8.5t19.5 10t17.5 15t8.5 19.5l110 567v8q0 12 -8 21t-15 13t-23.5 10t-18.5 7l2 17h328q33 0 59.5 -2.5t55.5 -11.5t48 -23.5 t31.5 -40t12.5 -59.5q0 -100 -75 -170t-177 -76l159 -256q17 -29 72 -64l-4 -16h-145l-187 330h-69l-50 -254q-2 -2 -2 -9q0 -12 8 -21t15.5 -13t23.5 -10t19 -7l-2 -16h-260zM627 666h114q88 0 139.5 56.5t51.5 145.5q0 103 -129 103h-115z" />
<glyph unicode="&#xaf;" horiz-adv-x="544" d="M115 1223l16 86h463l-16 -86h-463z" />
<glyph unicode="&#xb0;" horiz-adv-x="702" d="M59 971q0 147 113.5 253.5t261.5 106.5q111 0 184.5 -68t73.5 -178q0 -96 -53 -181t-140 -135t-184 -50q-108 0 -182 71.5t-74 180.5zM168 981q0 -77 44.5 -127.5t119.5 -50.5q101 0 176.5 83t75.5 185q0 75 -45.5 126.5t-118.5 51.5q-100 0 -176 -83.5t-76 -184.5z" />
<glyph unicode="&#xb1;" d="M29 0l22 115h725l-22 -115h-725zM123 483l22 115h301l60 305h123l-60 -305h301l-22 -115h-301l-60 -305h-122l59 305h-301z" />
<glyph unicode="&#xb2;" horiz-adv-x="819" d="M78 614l10 52q29 25 83.5 63.5t104.5 71.5t106 78t96.5 87.5t67.5 96t27 106.5q0 111 -124 111q-60 0 -108 -38t-48 -93q0 -25 8 -49q-21 -25 -63 -25q-26 0 -40 19.5t-14 46.5q0 60 45.5 107t109 69t128.5 22q96 0 167 -49t71 -131q0 -5 -5 -35q-10 -51 -47 -102.5 t-94.5 -97.5t-108 -81t-116 -76t-90.5 -58h370l-18 -95h-518z" />
<glyph unicode="&#xb3;" horiz-adv-x="819" d="M80 727q0 15 2 21q6 29 32 48t58 19q13 0 33 -4q-6 -11 -10 -33q-2 -6 -2 -18q0 -46 40 -75.5t109 -29.5q79 0 137 53.5t58 137.5q0 117 -166 117h-64l10 53q104 0 180 43.5t76 124.5q0 44 -32.5 69t-89.5 25q-84 0 -132.5 -30.5t-48.5 -90.5q0 -21 13 -29 q-27 -20 -60 -20q-23 0 -37 15t-14 40q0 71 81 123.5t212 52.5q93 0 159 -43.5t66 -115.5q0 -34 -12.5 -61t-30.5 -44t-46.5 -31.5t-50.5 -21.5t-52 -14v-4q64 -3 112.5 -52.5t48.5 -113.5q0 -19 -2 -27q-12 -60 -48.5 -104t-86 -66.5t-97 -32.5t-93.5 -10t-88.5 7t-80 22 t-60.5 40.5t-23 59.5z" />
<glyph unicode="&#xb4;" horiz-adv-x="499" d="M49 1145l191 248h211l-328 -248h-74z" />
<glyph unicode="&#xb6;" horiz-adv-x="776" d="M100 924q0 39 9 80q12 62 37.5 114.5t65.5 96.5t101 69t136 25h442l-4 -29l-103 -41q-50 -19 -59 -70l-227 -1169h-76l240 1231h-127l-240 -1231h-76l135 700q-132 0 -193 61.5t-61 162.5z" />
<glyph unicode="&#xb7;" horiz-adv-x="452" d="M109 520q0 48 30.5 79.5t87.5 31.5q55 0 86 -28.5t31 -82.5q0 -110 -117 -110q-118 0 -118 110z" />
<glyph unicode="&#xb8;" horiz-adv-x="399" d="M14 -336q0 34 22.5 52t59.5 18q-4 -20 -4 -31q0 -43 17 -61.5t67 -18.5q33 0 54.5 29.5t21.5 64.5q0 56 -31.5 83.5t-89.5 41.5l76 158h45l-41 -94q51 -10 93 -50t42 -92q0 -77 -60 -129.5t-128 -52.5q-41 0 -92.5 23t-51.5 59z" />
<glyph unicode="&#xb9;" horiz-adv-x="819" d="M123 610l6 33l141 27q23 6 29 32l88 457q8 36 8 45q0 15 -18 21l-129 24l4 29l283 57l-123 -633q0 -2 -1 -5.5t-1 -4.5q0 -15 20 -22l129 -27l-6 -33h-430z" />
<glyph unicode="&#xba;" horiz-adv-x="645" d="M43 944q0 85 40 172.5t118.5 150t171.5 62.5q88 0 138 -55t50 -150q0 -86 -41 -172.5t-119 -146.5t-172 -60q-89 0 -137.5 53t-48.5 146zM143 899q0 -52 25 -85.5t80 -33.5q52 0 95 45.5t67.5 111t37.5 129.5t13 110q0 116 -107 116q-52 0 -94.5 -45t-66.5 -110.5 t-37 -128.5t-13 -109z" />
<glyph unicode="&#xbb;" horiz-adv-x="741" d="M25 186l215 320l-101 276h62l172 -297l-289 -299h-59zM250 135l258 371l-121 330h64l211 -351l-349 -350h-63z" />
<glyph unicode="&#xbc;" horiz-adv-x="1478" d="M184 610l6 33l142 27q22 6 28 32l89 457q8 36 8 45q0 15 -19 21l-129 24l4 29l283 57l-123 -633q0 -2 -1 -5.5t-1 -4.5q0 -15 21 -22l129 -27l-7 -33h-430zM322 -41l1093 1413h88l-1095 -1413h-86zM928 180l12 64l516 461h94l-88 -451h105l-15 -74h-104l-16 -86 q0 -2 -1 -5.5t-1 -4.5q0 -23 20 -33l84 -20l-6 -31h-340l6 31l92 20q28 13 35 39l16 90h-409zM1038 254h314l65 332z" />
<glyph unicode="&#xbd;" horiz-adv-x="1898" d="M184 610l6 33l142 27q22 6 28 32l89 457q8 36 8 45q0 15 -19 21l-129 24l4 29l283 57l-123 -633q0 -2 -1 -5.5t-1 -4.5q0 -15 21 -22l129 -27l-7 -33h-430zM322 -41l1093 1413h88l-1095 -1413h-86zM1010 0l10 51q29 25 83.5 63.5t104.5 71.5t106 78.5t96.5 88t67.5 96 t27 106.5t-31 82t-94 29q-59 0 -107 -38t-48 -93q0 -26 8 -50q-20 -24 -64 -24q-26 0 -39.5 19t-13.5 46q0 60 45.5 107t109 69.5t128.5 22.5q96 0 166.5 -49t70.5 -131q0 -11 -4 -35q-10 -51 -47 -102.5t-94.5 -98t-108 -81.5t-116.5 -76t-90 -58h370l-18 -94h-518z" />
<glyph unicode="&#xbe;" horiz-adv-x="1478" d="M80 727q0 15 2 21q6 29 32 48t58 19q13 0 33 -4q-6 -11 -10 -33q-2 -6 -2 -18q0 -46 40 -75.5t109 -29.5q79 0 137 53.5t58 137.5q0 117 -166 117h-64l10 53q104 0 180 43.5t76 124.5q0 44 -32.5 69t-89.5 25q-84 0 -132.5 -30.5t-48.5 -90.5q0 -21 13 -29 q-27 -20 -60 -20q-23 0 -37 15t-14 40q0 71 81 123.5t212 52.5q93 0 159 -43.5t66 -115.5q0 -34 -12.5 -61t-30.5 -44t-46.5 -31.5t-50.5 -21.5t-52 -14v-4q64 -3 112.5 -52.5t48.5 -113.5q0 -19 -2 -27q-12 -60 -48.5 -104t-86 -66.5t-97 -32.5t-93.5 -10t-88.5 7t-80 22 t-60.5 40.5t-23 59.5zM322 -41l1093 1413h88l-1095 -1413h-86zM928 180l12 64l516 461h94l-88 -451h105l-15 -74h-104l-16 -86q0 -2 -1 -5.5t-1 -4.5q0 -23 20 -33l84 -20l-6 -31h-340l6 31l92 20q28 13 35 39l16 90h-409zM1038 254h314l65 332z" />
<glyph unicode="&#xbf;" horiz-adv-x="866" d="M6 -88q0 126 69.5 228.5t176 161t231.5 75.5l37 188h62l-58 -293q-178 -31 -272 -123.5t-94 -269.5q0 -101 51 -154t151 -53q104 0 175.5 69.5t76.5 174.5q19 8 47 8q37 0 60.5 -22t23.5 -60q0 -56 -41.5 -102t-104 -73t-127.5 -41.5t-120 -14.5q-149 0 -246.5 77.5 t-97.5 223.5zM481 836q0 108 117 108q61 0 90 -29.5t29 -78.5q0 -50 -30.5 -81.5t-88.5 -31.5q-55 0 -86 29t-31 84z" />
<glyph unicode="&#xc0;" horiz-adv-x="1253" d="M-94 0l6 27l86 43q41 21 70 71l651 1184h125l207 -1188q3 -17 14.5 -35.5t24.5 -27.5l69 -47l-6 -27h-451l7 27l110 47q37 16 37 61q0 20 -12 94l-33 226h-481l-160 -297q-12 -21 -12 -47q0 -27 18 -37l80 -47l-6 -27h-344zM367 528h432l-86 580q-4 40 -4 70 q-9 -26 -33 -70zM459 1721h213l189 -248h-72z" />
<glyph unicode="&#xc1;" horiz-adv-x="1253" d="M-94 0l6 27l86 43q41 21 70 71l651 1184h125l207 -1188q3 -17 14.5 -35.5t24.5 -27.5l69 -47l-6 -27h-451l7 27l110 47q37 16 37 61q0 20 -12 94l-33 226h-481l-160 -297q-12 -21 -12 -47q0 -27 18 -37l80 -47l-6 -27h-344zM367 528h432l-86 580q-4 40 -4 70 q-9 -26 -33 -70zM684 1473l191 248h211l-328 -248h-74z" />
<glyph unicode="&#xc2;" horiz-adv-x="1253" d="M-94 0l6 27l86 43q41 21 70 71l651 1184h125l207 -1188q3 -17 14.5 -35.5t24.5 -27.5l69 -47l-6 -27h-451l7 27l110 47q37 16 37 61q0 20 -12 94l-33 226h-481l-160 -297q-12 -21 -12 -47q0 -27 18 -37l80 -47l-6 -27h-344zM367 528h432l-86 580q-4 40 -4 70 q-9 -26 -33 -70zM528 1475l224 248h108l129 -248h-80l-121 131l-170 -131h-90z" />
<glyph unicode="&#xc3;" horiz-adv-x="1253" d="M-94 0l6 27l86 43q41 21 70 71l651 1184h125l207 -1188q3 -17 14.5 -35.5t24.5 -27.5l69 -47l-6 -27h-451l7 27l110 47q37 16 37 61q0 20 -12 94l-33 226h-481l-160 -297q-12 -21 -12 -47q0 -27 18 -37l80 -47l-6 -27h-344zM367 528h432l-86 580q-4 40 -4 70 q-9 -26 -33 -70zM473 1497q22 78 90 147.5t142 69.5q35 0 75.5 -28t76 -56t58.5 -28q35 0 64.5 35t40.5 73h72q-21 -83 -82 -150t-140 -67q-32 0 -72.5 30t-78 59.5t-62.5 29.5q-29 0 -61 -40t-43 -75h-80z" />
<glyph unicode="&#xc4;" horiz-adv-x="1253" d="M-94 0l6 27l86 43q41 21 70 71l651 1184h125l207 -1188q3 -17 14.5 -35.5t24.5 -27.5l69 -47l-6 -27h-451l7 27l110 47q37 16 37 61q0 20 -12 94l-33 226h-481l-160 -297q-12 -21 -12 -47q0 -27 18 -37l80 -47l-6 -27h-344zM367 528h432l-86 580q-4 40 -4 70 q-9 -26 -33 -70zM553 1600q0 40 29.5 69t69.5 29q41 0 69.5 -29t28.5 -69q0 -41 -28.5 -69.5t-69.5 -28.5q-40 0 -69.5 28.5t-29.5 69.5zM861 1600q0 40 29 69t69 29q41 0 69.5 -29t28.5 -69q0 -41 -28.5 -69.5t-69.5 -28.5q-40 0 -69 28.5t-29 69.5z" />
<glyph unicode="&#xc5;" horiz-adv-x="1253" d="M-94 0l6 27l86 43q41 21 70 71l591 1076q-37 16 -60.5 45.5t-23.5 66.5q0 103 70 161t174 58q76 0 126 -32t50 -103q0 -68 -36 -119t-97 -77l189 -1080q3 -13 16.5 -35t22.5 -28l69 -47l-6 -27h-451l7 27l110 47q37 16 37 63q0 13 -2 19l-43 299h-481l-160 -297 q-12 -21 -12 -47q0 -27 18 -37l80 -47l-6 -27h-344zM367 528h432l-86 580q-4 40 -4 70h-2q-20 -51 -31 -70zM678 1346q0 -38 25 -60t63 -22q60 0 94.5 34t34.5 103q0 39 -24.5 60.5t-63.5 21.5q-60 0 -94.5 -35.5t-34.5 -101.5z" />
<glyph unicode="&#xc6;" horiz-adv-x="1853" d="M-94 0l6 27l86 43q50 26 90 69l873 989q36 42 36 72q0 28 -32 39l-107 41l6 29h977v-240h-35l-86 102q-35 40 -66 54t-106 14h-262l-100 -520h280q20 0 54.5 11t56.5 32l63 55h33l-51 -260h-33l-43 59q-25 41 -90 41h-282l-115 -587h352q90 0 125.5 13.5t99.5 76.5l93 86 h36l-88 -246h-975l7 29l120 39q52 16 62 71l61 316h-483l-254 -299q-31 -36 -31 -56q0 -22 39 -39l76 -34l-6 -27h-387zM530 528h437l135 689h-8q-19 -47 -39 -70z" />
<glyph unicode="&#xc7;" horiz-adv-x="1134" d="M86 442q0 189 63 357t168 285.5t245.5 186t291.5 68.5q96 0 188 -18.5t144 -36.5l-45 -217h-41l-33 70q-61 129 -258 129q-112 0 -213 -74.5t-170 -193t-109.5 -265.5t-40.5 -291q0 -180 84 -284.5t261 -104.5q55 0 101.5 8t89.5 27.5t63.5 30.5t62.5 37h31l-62 -136 q-48 -23 -142 -40t-202 -17q-223 0 -350 124.5t-127 354.5zM403 -336q0 34 22.5 52t59.5 18q-4 -20 -4 -31q0 -43 17 -61.5t67 -18.5q33 0 54.5 29.5t21.5 64.5q0 56 -31.5 83.5t-89.5 41.5l76 158h45l-41 -94q51 -10 93 -50t42 -92q0 -77 -60 -129.5t-128 -52.5 q-41 0 -92.5 23t-51.5 59z" />
<glyph unicode="&#xc8;" horiz-adv-x="1116" d="M-35 0l6 29l121 39q52 16 62 71l184 955q18 92 18 102q0 39 -34 51l-107 41l6 29h885v-240h-37l-86 103q-33 40 -64 53.5t-106 13.5h-262l-105 -528h281q22 0 55.5 11t57.5 32l61 55h35l-51 -260h-35l-41 59q-28 41 -92 41h-283l-112 -587h319q110 0 147 14t111 82l90 80 h39l-88 -246h-975zM438 1720h213l189 -247h-72z" />
<glyph unicode="&#xc9;" horiz-adv-x="1116" d="M-35 0l6 29l121 39q52 16 62 71l184 955q18 92 18 102q0 39 -34 51l-107 41l6 29h885v-240h-37l-86 103q-33 40 -64 53.5t-106 13.5h-262l-105 -528h281q22 0 55.5 11t57.5 32l61 55h35l-51 -260h-35l-41 59q-28 41 -92 41h-283l-112 -587h319q110 0 147 14t111 82l90 80 h39l-88 -246h-975zM622 1473l191 248h211l-328 -248h-74z" />
<glyph unicode="&#xca;" horiz-adv-x="1116" d="M-35 0l6 29l121 39q52 16 62 71l184 955q18 92 18 102q0 39 -34 51l-107 41l6 29h885v-240h-37l-86 103q-33 40 -64 53.5t-106 13.5h-262l-105 -528h281q22 0 55.5 11t57.5 32l61 55h35l-51 -260h-35l-41 59q-28 41 -92 41h-283l-112 -587h319q110 0 147 14t111 82l90 80 h39l-88 -246h-975zM467 1475l223 247h109l129 -247h-80l-121 131l-170 -131h-90z" />
<glyph unicode="&#xcb;" horiz-adv-x="1116" d="M-35 0l6 29l121 39q52 16 62 71l184 955q18 92 18 102q0 39 -34 51l-107 41l6 29h885v-240h-37l-86 103q-33 40 -64 53.5t-106 13.5h-262l-105 -528h281q22 0 55.5 11t57.5 32l61 55h35l-51 -260h-35l-41 59q-28 41 -92 41h-283l-112 -587h319q110 0 147 14t111 82l90 80 h39l-88 -246h-975zM491 1600q0 40 29.5 69t69.5 29q41 0 69.5 -29t28.5 -69q0 -41 -28.5 -69.5t-69.5 -28.5q-40 0 -69.5 28.5t-29.5 69.5zM799 1600q0 40 29 69t69 29q41 0 69.5 -29t28.5 -69q0 -41 -28.5 -69.5t-69.5 -28.5q-40 0 -69 28.5t-29 69.5z" />
<glyph unicode="&#xcc;" horiz-adv-x="612" d="M-35 0l6 29l121 39q52 16 62 71l200 1039q2 6 2 18q0 39 -34 51l-107 41l6 29h502l-6 -29l-121 -41q-49 -15 -59 -69l-203 -1039q-2 -6 -2 -18q0 -41 35 -53l106 -39l-6 -29h-502zM193 1720h213l188 -247h-72z" />
<glyph unicode="&#xcd;" horiz-adv-x="612" d="M-35 0l6 29l121 39q52 16 62 71l200 1039q2 6 2 18q0 39 -34 51l-107 41l6 29h502l-6 -29l-121 -41q-49 -15 -59 -69l-203 -1039q-2 -6 -2 -18q0 -41 35 -53l106 -39l-6 -29h-502zM418 1473l191 248h211l-328 -248h-74z" />
<glyph unicode="&#xce;" horiz-adv-x="612" d="M-35 0l6 29l121 39q52 16 62 71l200 1039q2 6 2 18q0 39 -34 51l-107 41l6 29h502l-6 -29l-121 -41q-49 -15 -59 -69l-203 -1039q-2 -6 -2 -18q0 -41 35 -53l106 -39l-6 -29h-502zM242 1475l223 247h108l129 -247h-79l-121 131l-170 -131h-90z" />
<glyph unicode="&#xcf;" horiz-adv-x="612" d="M-35 0l6 29l121 39q52 16 62 71l200 1039q2 6 2 18q0 39 -34 51l-107 41l6 29h502l-6 -29l-121 -41q-49 -15 -59 -69l-203 -1039q-2 -6 -2 -18q0 -41 35 -53l106 -39l-6 -29h-502zM286 1600q0 40 29.5 69t69.5 29q41 0 69.5 -29t28.5 -69q0 -41 -28.5 -69.5t-69.5 -28.5 q-40 0 -69.5 28.5t-29.5 69.5zM594 1600q0 40 29 69t69 29q41 0 69.5 -29t28.5 -69q0 -41 -28.5 -69.5t-69.5 -28.5q-40 0 -69 28.5t-29 69.5z" />
<glyph unicode="&#xd0;" horiz-adv-x="1355" d="M-35 0l6 29l121 39q52 16 62 71l100 518h-201l10 62h203l86 450q2 6 2 19q0 39 -35 51l-106 41l6 29h649q122 0 215 -36t149.5 -100t85 -148t28.5 -185q0 -120 -33.5 -241t-98 -228t-151.5 -190.5t-202.5 -132t-242.5 -48.5h-653zM319 63h261q117 0 215.5 51t163.5 134 t111 189.5t66.5 216t20.5 216.5q0 375 -383 375h-227l-103 -526h304l-11 -62h-303z" />
<glyph unicode="&#xd1;" horiz-adv-x="1439" d="M-35 0l6 29l123 39q48 15 62 71l221 1039q2 6 2 18q0 39 -35 51l-104 41l6 29h319l543 -1079l197 940q2 6 2 18q0 38 -33 51l-107 41l7 29h401l-6 -29l-123 -41q-49 -15 -62 -69l-249 -1178h-101l-581 1163l-217 -1024q-3 -9 -3 -18q0 -42 33 -53l107 -39l-6 -29h-402z M616 1497q22 78 89.5 147.5t141.5 69.5q35 0 75.5 -28t76.5 -56t59 -28q35 0 64.5 35t40.5 73h72q-21 -83 -82 -150t-140 -67q-32 0 -72.5 30t-78 59.5t-62.5 29.5q-29 0 -61 -40t-43 -75h-80z" />
<glyph unicode="&#xd2;" horiz-adv-x="1327" d="M90 422q0 120 29.5 245.5t92 246t149.5 215t211.5 152.5t267.5 58q221 0 337.5 -116.5t116.5 -339.5q0 -116 -29.5 -241t-92 -246.5t-148.5 -217.5t-210.5 -155.5t-266.5 -59.5q-222 0 -339.5 118.5t-117.5 340.5zM268 365q0 -332 293 -332q99 0 183 43t143 116 t104 164.5t71 194.5t39 198.5t13 184.5q0 159 -68 246.5t-223 87.5q-85 0 -159.5 -32.5t-130 -87.5t-101 -129.5t-75.5 -157t-50.5 -171t-29.5 -169.5t-9 -156zM561 1721h213l189 -248h-72z" />
<glyph unicode="&#xd3;" horiz-adv-x="1327" d="M90 422q0 120 29.5 245.5t92 246t149.5 215t211.5 152.5t267.5 58q221 0 337.5 -116.5t116.5 -339.5q0 -116 -29.5 -241t-92 -246.5t-148.5 -217.5t-210.5 -155.5t-266.5 -59.5q-222 0 -339.5 118.5t-117.5 340.5zM268 365q0 -332 293 -332q99 0 183 43t143 116 t104 164.5t71 194.5t39 198.5t13 184.5q0 159 -68 246.5t-223 87.5q-85 0 -159.5 -32.5t-130 -87.5t-101 -129.5t-75.5 -157t-50.5 -171t-29.5 -169.5t-9 -156zM766 1473l191 248h211l-328 -248h-74z" />
<glyph unicode="&#xd4;" horiz-adv-x="1327" d="M90 422q0 120 29.5 245.5t92 246t149.5 215t211.5 152.5t267.5 58q221 0 337.5 -116.5t116.5 -339.5q0 -116 -29.5 -241t-92 -246.5t-148.5 -217.5t-210.5 -155.5t-266.5 -59.5q-222 0 -339.5 118.5t-117.5 340.5zM268 365q0 -332 293 -332q99 0 183 43t143 116 t104 164.5t71 194.5t39 198.5t13 184.5q0 159 -68 246.5t-223 87.5q-85 0 -159.5 -32.5t-130 -87.5t-101 -129.5t-75.5 -157t-50.5 -171t-29.5 -169.5t-9 -156zM610 1475l224 247h108l129 -247h-80l-121 131l-170 -131h-90z" />
<glyph unicode="&#xd5;" horiz-adv-x="1327" d="M90 422q0 120 29.5 245.5t92 246t149.5 215t211.5 152.5t267.5 58q221 0 337.5 -116.5t116.5 -339.5q0 -116 -29.5 -241t-92 -246.5t-148.5 -217.5t-210.5 -155.5t-266.5 -59.5q-222 0 -339.5 118.5t-117.5 340.5zM268 365q0 -332 293 -332q99 0 183 43t143 116 t104 164.5t71 194.5t39 198.5t13 184.5q0 159 -68 246.5t-223 87.5q-85 0 -159.5 -32.5t-130 -87.5t-101 -129.5t-75.5 -157t-50.5 -171t-29.5 -169.5t-9 -156zM535 1497q22 78 89.5 147.5t141.5 69.5q35 0 75.5 -28t76.5 -56t59 -28q35 0 64.5 35t40.5 73h72 q-21 -83 -82 -150t-140 -67q-32 0 -72.5 30t-78 59.5t-62.5 29.5q-29 0 -61 -40t-43 -75h-80z" />
<glyph unicode="&#xd6;" horiz-adv-x="1327" d="M90 422q0 120 29.5 245.5t92 246t149.5 215t211.5 152.5t267.5 58q221 0 337.5 -116.5t116.5 -339.5q0 -116 -29.5 -241t-92 -246.5t-148.5 -217.5t-210.5 -155.5t-266.5 -59.5q-222 0 -339.5 118.5t-117.5 340.5zM268 365q0 -332 293 -332q99 0 183 43t143 116 t104 164.5t71 194.5t39 198.5t13 184.5q0 159 -68 246.5t-223 87.5q-85 0 -159.5 -32.5t-130 -87.5t-101 -129.5t-75.5 -157t-50.5 -171t-29.5 -169.5t-9 -156zM614 1600q0 40 29.5 69t69.5 29q41 0 69.5 -29t28.5 -69q0 -41 -28.5 -69.5t-69.5 -28.5q-40 0 -69.5 28.5 t-29.5 69.5zM922 1600q0 40 29 69t69 29q41 0 69.5 -29t28.5 -69q0 -41 -28.5 -69.5t-69.5 -28.5q-40 0 -69 28.5t-29 69.5z" />
<glyph unicode="&#xd7;" d="M182 326l215 215l-215 217l82 80l215 -215l215 215l82 -80l-215 -217l215 -215l-82 -82l-215 215l-215 -215z" />
<glyph unicode="&#xd8;" horiz-adv-x="1327" d="M90 422q0 120 29.5 245.5t92 246t149.5 215t211.5 152.5t267.5 58q123 0 202 -32l80 127h84l-98 -158q186 -109 186 -393q0 -116 -29.5 -241t-92 -246.5t-148.5 -217.5t-210.5 -155.5t-266.5 -59.5q-132 0 -225 41l-86 -137h-82l106 172q-170 114 -170 383zM268 365 q0 -145 56 -224l669 1086q-65 41 -170 41q-85 0 -159.5 -32.5t-130 -87.5t-101 -129.5t-75.5 -157t-50.5 -171t-29.5 -169.5t-9 -156zM373 88q71 -55 188 -55q99 0 183 43t143 116t104 164.5t71 194.5t39 198.5t13 184.5q0 165 -67 246z" />
<glyph unicode="&#xd9;" horiz-adv-x="1400" d="M195 283q0 68 14 139l147 752q2 6 2 18q0 43 -34 55l-107 41l6 29h504l-6 -29l-121 -41q-24 -7 -40 -27t-21 -46l-144 -734q-14 -69 -14 -133q0 -119 70.5 -177t234.5 -58q177 0 272.5 96.5t139.5 327.5l133 678q2 6 2 18q0 43 -35 55l-106 41l6 29h418l-7 -29l-120 -41 q-24 -7 -40.5 -27.5t-21.5 -45.5l-143 -728q-93 -483 -557 -483q-103 0 -179 15.5t-134.5 51.5t-88.5 99.5t-30 153.5zM643 1721h213l189 -248h-72z" />
<glyph unicode="&#xda;" horiz-adv-x="1400" d="M195 283q0 68 14 139l147 752q2 6 2 18q0 43 -34 55l-107 41l6 29h504l-6 -29l-121 -41q-24 -7 -40 -27t-21 -46l-144 -734q-14 -69 -14 -133q0 -119 70.5 -177t234.5 -58q177 0 272.5 96.5t139.5 327.5l133 678q2 6 2 18q0 43 -35 55l-106 41l6 29h418l-7 -29l-120 -41 q-24 -7 -40.5 -27.5t-21.5 -45.5l-143 -728q-93 -483 -557 -483q-103 0 -179 15.5t-134.5 51.5t-88.5 99.5t-30 153.5zM786 1473l191 248h211l-328 -248h-74z" />
<glyph unicode="&#xdb;" horiz-adv-x="1400" d="M195 283q0 68 14 139l147 752q2 6 2 18q0 43 -34 55l-107 41l6 29h504l-6 -29l-121 -41q-24 -7 -40 -27t-21 -46l-144 -734q-14 -69 -14 -133q0 -119 70.5 -177t234.5 -58q177 0 272.5 96.5t139.5 327.5l133 678q2 6 2 18q0 43 -35 55l-106 41l6 29h418l-7 -29l-120 -41 q-24 -7 -40.5 -27.5t-21.5 -45.5l-143 -728q-93 -483 -557 -483q-103 0 -179 15.5t-134.5 51.5t-88.5 99.5t-30 153.5zM651 1475l223 247h109l129 -247h-80l-121 131l-170 -131h-90z" />
<glyph unicode="&#xdc;" horiz-adv-x="1400" d="M195 283q0 68 14 139l147 752q2 6 2 18q0 43 -34 55l-107 41l6 29h504l-6 -29l-121 -41q-24 -7 -40 -27t-21 -46l-144 -734q-14 -69 -14 -133q0 -119 70.5 -177t234.5 -58q177 0 272.5 96.5t139.5 327.5l133 678q2 6 2 18q0 43 -35 55l-106 41l6 29h418l-7 -29l-120 -41 q-24 -7 -40.5 -27.5t-21.5 -45.5l-143 -728q-93 -483 -557 -483q-103 0 -179 15.5t-134.5 51.5t-88.5 99.5t-30 153.5zM676 1599q0 40 29 69.5t69 29.5q41 0 69.5 -29.5t28.5 -69.5q0 -41 -28.5 -69.5t-69.5 -28.5q-40 0 -69 28.5t-29 69.5zM983 1599q0 40 29 69.5t69 29.5 q41 0 70 -29.5t29 -69.5q0 -41 -29 -69.5t-70 -28.5q-40 0 -69 28.5t-29 69.5z" />
<glyph unicode="&#xdd;" horiz-adv-x="1132" d="M141 1288l6 29h459l-4 -29l-94 -28q-43 -14 -43 -54q0 -24 8 -43l152 -458q16 -48 16 -66h2q19 38 39 66l326 456q34 46 34 74q0 21 -22 27l-86 26l6 29h375l-6 -29l-90 -33q-33 -13 -91 -86l-454 -587l-86 -443q-2 -6 -2 -18q0 -38 35 -53l102 -39l-6 -29h-494l6 29 l117 39q53 19 62 71l84 439l-218 591q-7 22 -22.5 45t-32.5 31zM664 1473l190 247h211l-328 -247h-73z" />
<glyph unicode="&#xde;" horiz-adv-x="1146" d="M-33 0l6 29l121 39q49 19 58 71l200 1030q2 6 2 19q0 40 -32 51l-107 41l6 37h502l-6 -37l-123 -41q-49 -16 -59 -70l-21 -106h350q143 0 220 -77t77 -208q0 -41 -10 -96q-15 -77 -50 -137.5t-81.5 -99.5t-107 -64.5t-123 -36t-132.5 -10.5h-284l-37 -184q-2 -6 -2 -17 q0 -39 33 -55l127 -49l-7 -29h-520zM385 397h281q91 0 174.5 77t113.5 233q11 60 11 90q0 91 -47 144.5t-140 53.5h-276z" />
<glyph unicode="&#xdf;" horiz-adv-x="1179" d="M-270 -367q0 32 21 51t52 19q13 0 19 -2q0 -38 24 -61t62 -23q42 0 80.5 41t64.5 102.5t43 114.5t25 96l174 852h-143l16 84h143l13 68q35 176 169.5 300t309.5 124q50 0 95 -11t85 -34t64 -64.5t24 -95.5q0 -62 -21.5 -112t-53 -79.5t-69 -57.5t-69 -48t-53 -48 t-21.5 -61q0 -30 20 -59t51.5 -53.5t70 -50.5t77.5 -55t70.5 -61t51.5 -75.5t20 -91.5q0 -75 -37 -145t-96.5 -118.5t-135.5 -78t-151 -29.5q-44 0 -89.5 7.5t-93.5 25t-78 53t-30 84.5q0 52 32 84.5t85 32.5q23 0 41 -6q-14 -47 -14 -82q0 -69 45 -101t118 -32 q105 0 170.5 74t65.5 180q0 46 -19.5 87.5t-50.5 72.5t-69 59t-76 54.5t-69 52.5t-50.5 58.5t-19.5 67.5q0 36 17 65t44.5 50t60.5 41t65.5 44.5t60 54.5t44.5 76.5t17 105.5q0 81 -46.5 115t-131.5 34q-50 0 -90.5 -20t-66 -49t-46.5 -75t-31.5 -82t-21.5 -87l-164 -754 q-156 -713 -492 -713q-41 0 -76.5 22.5t-35.5 61.5z" />
<glyph unicode="&#xe0;" horiz-adv-x="1028" d="M68 166q0 111 29 223t86.5 211.5t135.5 176.5t183.5 122t222.5 45q49 0 96 -31q14 6 54.5 18.5t52.5 12.5h2l-152 -766q-12 -54 -12 -65q0 -13 9 -22t22 -9q62 0 153 27v-29q-52 -38 -133.5 -73.5t-134.5 -35.5q-37 0 -54.5 14.5t-17.5 51.5q0 23 8 63l56 254h-6 q-34 -62 -111.5 -149.5t-175 -160.5t-160.5 -73q-74 0 -113.5 59t-39.5 136zM225 225q0 -43 19 -82t57 -39q55 0 134 64t139 139t90 131l18 35l53 252q13 63 13 88q0 36 -19 51t-57 15q-71 0 -135 -31t-112 -83t-87 -119t-63 -140.5t-37 -145t-13 -135.5zM459 1393h213 l189 -248h-72z" />
<glyph unicode="&#xe1;" horiz-adv-x="1040" d="M43 166q0 111 29 223t86.5 211.5t135.5 176.5t183.5 122t222.5 45q50 0 97 -31q15 6 54.5 18.5t51.5 12.5h2l-151 -766q-13 -59 -13 -65q0 -13 8.5 -22t22.5 -9q63 0 154 27v-29q-52 -38 -134 -73.5t-135 -35.5q-37 0 -54 14.5t-17 51.5q0 23 8 63l55 254h-6 q-24 -45 -77.5 -109t-117 -125.5t-133.5 -105t-118 -43.5q-74 0 -114 59t-40 136zM201 225q0 -43 18.5 -82t56.5 -39q55 0 134 64t139 139t90 131l18 35l54 252q12 58 12 88q0 36 -19 51t-57 15q-105 0 -193 -66.5t-141.5 -167.5t-82.5 -211.5t-29 -208.5zM582 1145l190 248 h211l-328 -248h-73z" />
<glyph unicode="&#xe2;" horiz-adv-x="1028" d="M68 166q0 111 29 223t86.5 211.5t135.5 176.5t183.5 122t222.5 45q49 0 96 -31q14 6 54.5 18.5t52.5 12.5h2l-152 -766q-12 -54 -12 -65q0 -13 9 -22t22 -9q62 0 153 27v-29q-52 -38 -133.5 -73.5t-134.5 -35.5q-37 0 -54.5 14.5t-17.5 51.5q0 23 8 63l56 254h-6 q-34 -62 -111.5 -149.5t-175 -160.5t-160.5 -73q-74 0 -113.5 59t-39.5 136zM225 225q0 -43 19 -82t57 -39q55 0 134 64t139 139t90 131l18 35l53 252q13 63 13 88q0 36 -19 51t-57 15q-71 0 -135 -31t-112 -83t-87 -119t-63 -140.5t-37 -145t-13 -135.5zM446 1147l224 248 h108l129 -248h-80l-120 131l-170 -131h-91z" />
<glyph unicode="&#xe3;" horiz-adv-x="1028" d="M68 166q0 111 29 223t86.5 211.5t135.5 176.5t183.5 122t222.5 45q49 0 96 -31q14 6 54.5 18.5t52.5 12.5h2l-152 -766q-12 -54 -12 -65q0 -13 9 -22t22 -9q62 0 153 27v-29q-52 -38 -133.5 -73.5t-134.5 -35.5q-37 0 -54.5 14.5t-17.5 51.5q0 23 8 63l56 254h-6 q-34 -62 -111.5 -149.5t-175 -160.5t-160.5 -73q-74 0 -113.5 59t-39.5 136zM225 225q0 -43 19 -82t57 -39q55 0 134 64t139 139t90 131l18 35l53 252q13 63 13 88q0 36 -19 51t-57 15q-71 0 -135 -31t-112 -83t-87 -119t-63 -140.5t-37 -145t-13 -135.5zM412 1169 q22 78 89.5 147.5t141.5 69.5q35 0 75.5 -28t76.5 -56t59 -28q35 0 64 35t40 73h72q-21 -83 -81.5 -150t-139.5 -67q-32 0 -72.5 30t-78 59.5t-62.5 29.5q-29 0 -61 -40t-43 -75h-80z" />
<glyph unicode="&#xe4;" horiz-adv-x="1028" d="M68 166q0 111 29 223t86.5 211.5t135.5 176.5t183.5 122t222.5 45q49 0 96 -31q14 6 54.5 18.5t52.5 12.5h2l-152 -766q-12 -54 -12 -65q0 -13 9 -22t22 -9q62 0 153 27v-29q-52 -38 -133.5 -73.5t-134.5 -35.5q-37 0 -54.5 14.5t-17.5 51.5q0 23 8 63l56 254h-6 q-34 -62 -111.5 -149.5t-175 -160.5t-160.5 -73q-74 0 -113.5 59t-39.5 136zM225 225q0 -43 19 -82t57 -39q55 0 134 64t139 139t90 131l18 35l53 252q13 63 13 88q0 36 -19 51t-57 15q-71 0 -135 -31t-112 -83t-87 -119t-63 -140.5t-37 -145t-13 -135.5zM491 1272 q0 40 29.5 69t69.5 29q41 0 69.5 -29t28.5 -69q0 -41 -28.5 -69.5t-69.5 -28.5q-40 0 -69.5 28.5t-29.5 69.5zM799 1272q0 40 29 69t69 29q41 0 69.5 -29t28.5 -69q0 -41 -28.5 -69.5t-69.5 -28.5q-40 0 -69 28.5t-29 69.5z" />
<glyph unicode="&#xe5;" horiz-adv-x="1028" d="M68 166q0 111 29 223t86.5 211.5t135.5 176.5t183.5 122t222.5 45q49 0 96 -31q14 6 54.5 18.5t52.5 12.5h2l-152 -766q-12 -54 -12 -65q0 -13 9 -22t22 -9q62 0 153 27v-29q-52 -38 -133.5 -73.5t-134.5 -35.5q-37 0 -54.5 14.5t-17.5 51.5q0 23 8 63l56 254h-6 q-34 -62 -111.5 -149.5t-175 -160.5t-160.5 -73q-74 0 -113.5 59t-39.5 136zM225 225q0 -43 19 -82t57 -39q55 0 134 64t139 139t90 131l18 35l53 252q13 63 13 88q0 36 -19 51t-57 15q-71 0 -135 -31t-112 -83t-87 -119t-63 -140.5t-37 -145t-13 -135.5zM495 1284 q0 95 73 154t171 59q74 0 124 -35.5t50 -105.5q0 -90 -75 -150.5t-166 -60.5q-73 0 -125 35t-52 104zM590 1290q0 -40 26 -59t68 -19q64 0 99.5 37.5t35.5 102.5q0 80 -92 80q-64 0 -100.5 -38.5t-36.5 -103.5z" />
<glyph unicode="&#xe6;" horiz-adv-x="1486" d="M68 166q0 112 29.5 224t87 211.5t135.5 176t183 121.5t222 45q27 0 57.5 -9t46.5 -20l89 29h12l-27 -133q152 133 330 133q81 0 132.5 -46t51.5 -124q0 -72 -36 -135.5t-95.5 -109t-137.5 -80.5t-160.5 -54.5t-164.5 -25.5q-6 -53 -6 -111q0 -87 39 -141t127 -54 q80 0 171.5 35t166.5 86v-61q-84 -64 -187.5 -108t-195.5 -44q-279 0 -279 279q0 41 7 102q-70 -127 -216.5 -254t-228.5 -127q-72 0 -112.5 57.5t-40.5 137.5zM225 225q0 -53 21 -87t55 -34q49 0 109.5 41t113 101t94 120t64.5 107l53 252q13 57 13 88q0 34 -17.5 50 t-58.5 16q-80 0 -160 -50t-143.5 -135t-103.5 -208.5t-40 -260.5zM827 416q93 10 172.5 35t143.5 66t100.5 104t36.5 141q0 42 -29 77t-80 35q-125 0 -221.5 -129t-122.5 -329z" />
<glyph unicode="&#xe7;" horiz-adv-x="806" d="M68 252q0 182 88.5 356t236.5 273q92 63 199 63q27 0 52 -3t56.5 -10.5t50.5 -26.5t19 -46q0 -33 -24 -62t-56 -44q-42 114 -149 114q-61 0 -114.5 -46.5t-89 -117.5t-61.5 -155.5t-37.5 -159.5t-11.5 -131q0 -190 135 -190q78 0 150.5 31.5t155.5 88.5v-63 q-92 -71 -176 -111.5t-175 -40.5q-249 0 -249 281zM137 -336q0 34 22.5 52t59.5 18q-4 -20 -4 -31q0 -43 17 -61.5t67 -18.5q33 0 54.5 29.5t21.5 64.5q0 56 -31.5 83.5t-89.5 41.5l76 158h45l-41 -94q51 -10 93 -50t42 -92q0 -77 -60 -129.5t-128 -52.5q-41 0 -92.5 23 t-51.5 59z" />
<glyph unicode="&#xe8;" horiz-adv-x="911" d="M82 250q0 131 45.5 257.5t121.5 222.5t183 155t223 59q81 0 133 -46t52 -124q0 -72 -35 -135t-93 -109t-133.5 -81t-157 -54.5t-163.5 -25.5q-6 -53 -6 -111q0 -87 39 -141t127 -54q80 0 171.5 35t166.5 86v-61q-84 -64 -187.5 -108t-195.5 -44q-145 0 -218 74t-73 205z M262 416q93 10 170.5 35t139 66.5t96 104t34.5 140.5q0 44 -23.5 78t-74.5 34q-133 0 -224 -126.5t-118 -331.5zM336 1393h213l188 -248h-71z" />
<glyph unicode="&#xe9;" horiz-adv-x="911" d="M82 250q0 131 45.5 257.5t121.5 222.5t183 155t223 59q81 0 133 -46t52 -124q0 -72 -35 -135t-93 -109t-133.5 -81t-157 -54.5t-163.5 -25.5q-6 -53 -6 -111q0 -87 39 -141t127 -54q80 0 171.5 35t166.5 86v-61q-84 -64 -187.5 -108t-195.5 -44q-145 0 -218 74t-73 205z M262 416q93 10 170.5 35t139 66.5t96 104t34.5 140.5q0 44 -23.5 78t-74.5 34q-133 0 -224 -126.5t-118 -331.5zM520 1145l191 248h211l-328 -248h-74z" />
<glyph unicode="&#xea;" horiz-adv-x="911" d="M82 250q0 131 45.5 257.5t121.5 222.5t183 155t223 59q81 0 133 -46t52 -124q0 -72 -35 -135t-93 -109t-133.5 -81t-157 -54.5t-163.5 -25.5q-6 -53 -6 -111q0 -87 39 -141t127 -54q80 0 171.5 35t166.5 86v-61q-84 -64 -187.5 -108t-195.5 -44q-145 0 -218 74t-73 205z M262 416q93 10 170.5 35t139 66.5t96 104t34.5 140.5q0 44 -23.5 78t-74.5 34q-133 0 -224 -126.5t-118 -331.5zM385 1147l224 248h108l129 -248h-80l-121 131l-170 -131h-90z" />
<glyph unicode="&#xeb;" horiz-adv-x="911" d="M82 250q0 131 45.5 257.5t121.5 222.5t183 155t223 59q81 0 133 -46t52 -124q0 -72 -35 -135t-93 -109t-133.5 -81t-157 -54.5t-163.5 -25.5q-6 -53 -6 -111q0 -87 39 -141t127 -54q80 0 171.5 35t166.5 86v-61q-84 -64 -187.5 -108t-195.5 -44q-145 0 -218 74t-73 205z M262 416q93 10 170.5 35t139 66.5t96 104t34.5 140.5q0 44 -23.5 78t-74.5 34q-133 0 -224 -126.5t-118 -331.5zM389 1272q0 40 29 69t69 29q41 0 70 -29t29 -69q0 -41 -29 -69.5t-70 -28.5q-40 0 -69 28.5t-29 69.5zM696 1272q0 40 29.5 69t69.5 29q41 0 69.5 -29t28.5 -69 q0 -41 -28.5 -69.5t-69.5 -28.5q-40 0 -69.5 28.5t-29.5 69.5z" />
<glyph unicode="&#xec;" horiz-adv-x="569" d="M49 1393h213l189 -248h-72zM72 809v29q47 35 131.5 70.5t140.5 35.5q40 0 60 -16t20 -56q0 -23 -6 -53l-144 -694q-2 -6 -2 -14q0 -29 31 -29q41 0 154 27v-29q-48 -35 -132.5 -72t-140.5 -37q-39 0 -59.5 16t-20.5 58q0 18 7 53l143 690q2 6 2 17q0 29 -31 29 q-28 0 -79.5 -9t-73.5 -16z" />
<glyph unicode="&#xed;" horiz-adv-x="569" d="M72 809v29q47 35 131.5 70.5t140.5 35.5q40 0 60 -16t20 -56q0 -23 -6 -53l-144 -694q-2 -6 -2 -14q0 -29 31 -29q41 0 154 27v-29q-48 -35 -132.5 -72t-140.5 -37q-39 0 -59.5 16t-20.5 58q0 18 7 53l143 690q2 6 2 17q0 29 -31 29q-28 0 -79.5 -9t-73.5 -16zM233 1145 l191 248h211l-328 -248h-74z" />
<glyph unicode="&#xee;" horiz-adv-x="569" d="M72 809v29q47 35 131.5 70.5t140.5 35.5q40 0 60 -16t20 -56q0 -23 -6 -53l-144 -694q-2 -6 -2 -14q0 -29 31 -29q41 0 154 27v-29q-48 -35 -132.5 -72t-140.5 -37q-39 0 -59.5 16t-20.5 58q0 18 7 53l143 690q2 6 2 17q0 29 -31 29q-28 0 -79.5 -9t-73.5 -16zM98 1147 l224 248h108l129 -248h-80l-121 131l-170 -131h-90z" />
<glyph unicode="&#xef;" horiz-adv-x="569" d="M72 809v29q47 35 131.5 70.5t140.5 35.5q40 0 60 -16t20 -56q0 -23 -6 -53l-144 -694q-2 -6 -2 -14q0 -29 31 -29q41 0 154 27v-29q-48 -35 -132.5 -72t-140.5 -37q-39 0 -59.5 16t-20.5 58q0 18 7 53l143 690q2 6 2 17q0 29 -31 29q-28 0 -79.5 -9t-73.5 -16zM123 1272 q0 40 29 69t69 29q41 0 69.5 -29t28.5 -69q0 -41 -28.5 -69.5t-69.5 -28.5q-40 0 -69 28.5t-29 69.5zM430 1272q0 40 29 69t69 29q41 0 70 -29t29 -69q0 -41 -29 -69.5t-70 -28.5q-40 0 -69 28.5t-29 69.5z" />
<glyph unicode="&#xf0;" d="M41 311q0 79 18.5 164t58 169t94.5 150.5t134.5 108t171.5 41.5q114 0 209 -74q-10 198 -125 316l-166 -139l-39 49l158 131q-83 65 -215 104l14 68q158 -41 279 -109l133 109l41 -41l-123 -103q197 -163 197 -485q0 -71 -7.5 -143.5t-26 -152t-46.5 -151t-71.5 -137 t-97 -112.5t-128 -75t-160.5 -28q-150 0 -226.5 89.5t-76.5 250.5zM195 238q0 -207 159 -207q58 0 107 26.5t83 66.5t62 102t44.5 119.5t30.5 132t20.5 126t14 116.5t11.5 89q-77 43 -180 43q-74 0 -136 -43.5t-101 -110.5t-66 -151.5t-38 -162t-11 -146.5z" />
<glyph unicode="&#xf1;" horiz-adv-x="1087" d="M72 809v29q49 36 136.5 71t141.5 35q39 0 58.5 -16t19.5 -54q0 -21 -8 -57l-51 -246h2q29 52 77.5 113.5t108 121t128.5 99t126 39.5q74 0 109.5 -35t35.5 -108q0 -37 -12 -103l-110 -538q-11 -50 -11 -54q0 -26 31 -26q38 0 156 29v-29q-50 -37 -139.5 -73t-143.5 -36 q-39 0 -56.5 15t-17.5 53q0 16 9 61l126 607q9 45 9 63q0 55 -49 55q-61 0 -136.5 -53t-130.5 -116.5t-88 -120.5l-41 -70l-96 -465h-162l160 762q8 28 8 43q0 29 -31 29q-34 0 -83.5 -8.5t-75.5 -16.5zM350 1169q22 78 89.5 147.5t141.5 69.5q35 0 75.5 -28t76.5 -56 t59 -28q35 0 64.5 35t40.5 73h72q-21 -83 -82 -150t-140 -67q-32 0 -72.5 30t-78 59.5t-62.5 29.5q-29 0 -61 -40t-43 -75h-80z" />
<glyph unicode="&#xf2;" horiz-adv-x="991" d="M43 303q0 83 25.5 172.5t74.5 172.5t114.5 149.5t153.5 106.5t183 40q147 0 230 -91.5t83 -248.5q0 -106 -41 -217.5t-112 -204t-177 -152t-225 -59.5q-148 0 -228.5 88.5t-80.5 243.5zM209 225q0 -86 42.5 -140t133.5 -54q69 0 130 50.5t101 126.5t69.5 167.5t42.5 172 t13 140.5q0 88 -41.5 141.5t-136.5 53.5q-70 0 -131 -50.5t-100.5 -127t-68.5 -168t-41.5 -172t-12.5 -140.5zM274 1393h213l189 -248h-72z" />
<glyph unicode="&#xf3;" horiz-adv-x="991" d="M43 303q0 83 25.5 172.5t74.5 172.5t114.5 149.5t153.5 106.5t183 40q147 0 230 -91.5t83 -248.5q0 -106 -41 -217.5t-112 -204t-177 -152t-225 -59.5q-148 0 -228.5 88.5t-80.5 243.5zM209 225q0 -86 42.5 -140t133.5 -54q69 0 130 50.5t101 126.5t69.5 167.5t42.5 172 t13 140.5q0 88 -41.5 141.5t-136.5 53.5q-70 0 -131 -50.5t-100.5 -127t-68.5 -168t-41.5 -172t-12.5 -140.5zM541 1145l191 248h211l-328 -248h-74z" />
<glyph unicode="&#xf4;" horiz-adv-x="991" d="M43 303q0 83 25.5 172.5t74.5 172.5t114.5 149.5t153.5 106.5t183 40q147 0 230 -91.5t83 -248.5q0 -106 -41 -217.5t-112 -204t-177 -152t-225 -59.5q-148 0 -228.5 88.5t-80.5 243.5zM209 225q0 -86 42.5 -140t133.5 -54q69 0 130 50.5t101 126.5t69.5 167.5t42.5 172 t13 140.5q0 88 -41.5 141.5t-136.5 53.5q-70 0 -131 -50.5t-100.5 -127t-68.5 -168t-41.5 -172t-12.5 -140.5zM323 1147l224 248h108l129 -248h-80l-121 131l-170 -131h-90z" />
<glyph unicode="&#xf5;" horiz-adv-x="991" d="M43 303q0 83 25.5 172.5t74.5 172.5t114.5 149.5t153.5 106.5t183 40q147 0 230 -91.5t83 -248.5q0 -106 -41 -217.5t-112 -204t-177 -152t-225 -59.5q-148 0 -228.5 88.5t-80.5 243.5zM209 225q0 -86 42.5 -140t133.5 -54q69 0 130 50.5t101 126.5t69.5 167.5t42.5 172 t13 140.5q0 88 -41.5 141.5t-136.5 53.5q-70 0 -131 -50.5t-100.5 -127t-68.5 -168t-41.5 -172t-12.5 -140.5zM309 1169q22 78 89.5 147.5t141.5 69.5q35 0 75.5 -28t76.5 -56t59 -28q35 0 64.5 35t40.5 73h72q-21 -83 -82 -150t-140 -67q-32 0 -72.5 30t-78 59.5 t-62.5 29.5q-29 0 -61 -40t-43 -75h-80z" />
<glyph unicode="&#xf6;" horiz-adv-x="991" d="M43 303q0 83 25.5 172.5t74.5 172.5t114.5 149.5t153.5 106.5t183 40q147 0 230 -91.5t83 -248.5q0 -106 -41 -217.5t-112 -204t-177 -152t-225 -59.5q-148 0 -228.5 88.5t-80.5 243.5zM209 225q0 -86 42.5 -140t133.5 -54q69 0 130 50.5t101 126.5t69.5 167.5t42.5 172 t13 140.5q0 88 -41.5 141.5t-136.5 53.5q-70 0 -131 -50.5t-100.5 -127t-68.5 -168t-41.5 -172t-12.5 -140.5zM389 1272q0 40 29 69t69 29q41 0 70 -29t29 -69q0 -41 -29 -69.5t-70 -28.5q-40 0 -69 28.5t-29 69.5zM696 1272q0 40 29.5 69t69.5 29q41 0 69.5 -29t28.5 -69 q0 -41 -28.5 -69.5t-69.5 -28.5q-40 0 -69.5 28.5t-29.5 69.5z" />
<glyph unicode="&#xf7;" d="M106 483l23 115h725l-23 -115h-725zM289 164q0 50 30.5 81t88.5 31q55 0 85.5 -28.5t30.5 -83.5q0 -54 -30.5 -81.5t-85.5 -27.5q-60 0 -89.5 30t-29.5 79zM434 907q0 48 31 79.5t88 31.5q55 0 86 -28.5t31 -82.5t-31 -82t-86 -28q-60 0 -89.5 30t-29.5 80z" />
<glyph unicode="&#xf8;" horiz-adv-x="991" d="M43 303q0 83 25.5 172.5t74.5 172.5t114.5 149.5t153.5 106.5t183 40q100 0 176 -45l78 107h70l-105 -142q94 -91 94 -260q0 -106 -41 -217.5t-112 -204t-177 -152t-225 -59.5q-94 0 -164 39l-73 -100h-68l96 131q-100 86 -100 262zM209 225q0 -38 10 -80l490 670 q-43 68 -146 68q-70 0 -131 -50.5t-100.5 -127t-68.5 -168t-41.5 -172t-12.5 -140.5zM248 90q43 -59 137 -59q69 0 130 50.5t101 126.5t69.5 167.5t42.5 172t13 140.5q0 37 -8 68z" />
<glyph unicode="&#xf9;" horiz-adv-x="1087" d="M72 809v27q49 36 138.5 72t143.5 36q37 0 54.5 -14t17.5 -49q0 -24 -8 -64l-129 -620q-8 -40 -8 -64q0 -51 49 -51q48 0 106 33.5t108.5 84t91 101t66.5 94.5l31 56q65 302 98 456h156l-162 -782q-2 -6 -2 -16q0 -27 31 -27q65 0 156 27v-31q-49 -36 -137 -71.5 t-142 -35.5q-39 0 -58.5 16t-19.5 54q0 12 9 57l53 248h-2q-29 -51 -77.5 -112.5t-109 -122t-129 -100.5t-125.5 -40q-75 0 -111 35.5t-36 108.5q0 36 12 102l117 574q2 6 2 14q0 29 -31 29q-51 0 -153 -25zM356 1393h213l189 -248h-72z" />
<glyph unicode="&#xfa;" horiz-adv-x="1087" d="M72 809v27q49 36 138.5 72t143.5 36q37 0 54.5 -14t17.5 -49q0 -24 -8 -64l-129 -620q-8 -40 -8 -64q0 -51 49 -51q48 0 106 33.5t108.5 84t91 101t66.5 94.5l31 56q65 302 98 456h156l-162 -782q-2 -6 -2 -16q0 -27 31 -27q65 0 156 27v-31q-49 -36 -137 -71.5 t-142 -35.5q-39 0 -58.5 16t-19.5 54q0 12 9 57l53 248h-2q-29 -51 -77.5 -112.5t-109 -122t-129 -100.5t-125.5 -40q-75 0 -111 35.5t-36 108.5q0 36 12 102l117 574q2 6 2 14q0 29 -31 29q-51 0 -153 -25zM459 1145l191 248h211l-328 -248h-74z" />
<glyph unicode="&#xfb;" horiz-adv-x="1087" d="M72 809v27q49 36 138.5 72t143.5 36q37 0 54.5 -14t17.5 -49q0 -24 -8 -64l-129 -620q-8 -40 -8 -64q0 -51 49 -51q48 0 106 33.5t108.5 84t91 101t66.5 94.5l31 56q65 302 98 456h156l-162 -782q-2 -6 -2 -16q0 -27 31 -27q65 0 156 27v-31q-49 -36 -137 -71.5 t-142 -35.5q-39 0 -58.5 16t-19.5 54q0 12 9 57l53 248h-2q-29 -51 -77.5 -112.5t-109 -122t-129 -100.5t-125.5 -40q-75 0 -111 35.5t-36 108.5q0 36 12 102l117 574q2 6 2 14q0 29 -31 29q-51 0 -153 -25zM364 1147l224 248h108l129 -248h-80l-121 131l-170 -131h-90z" />
<glyph unicode="&#xfc;" horiz-adv-x="1087" d="M72 809v27q49 36 138.5 72t143.5 36q37 0 54.5 -14t17.5 -49q0 -24 -8 -64l-129 -620q-8 -40 -8 -64q0 -51 49 -51q48 0 106 33.5t108.5 84t91 101t66.5 94.5l31 56q65 302 98 456h156l-162 -782q-2 -6 -2 -16q0 -27 31 -27q65 0 156 27v-31q-49 -36 -137 -71.5 t-142 -35.5q-39 0 -58.5 16t-19.5 54q0 12 9 57l53 248h-2q-29 -51 -77.5 -112.5t-109 -122t-129 -100.5t-125.5 -40q-75 0 -111 35.5t-36 108.5q0 36 12 102l117 574q2 6 2 14q0 29 -31 29q-51 0 -153 -25zM389 1272q0 40 29 69t69 29q41 0 70 -29t29 -69q0 -41 -29 -69.5 t-70 -28.5q-40 0 -69 28.5t-29 69.5zM696 1272q0 40 29.5 69t69.5 29q41 0 69.5 -29t28.5 -69q0 -41 -28.5 -69.5t-69.5 -28.5q-40 0 -69.5 28.5t-29.5 69.5z" />
<glyph unicode="&#xfd;" d="M43 795v32q54 40 132 78.5t132 38.5q26 0 38 -6.5t21.5 -33t18.5 -87.5l88 -590q6 -54 6 -65h2q11 34 29 65l213 424q39 76 39 140q0 29 -17 94q22 21 67.5 40t74.5 19q45 0 45 -37q0 -65 -84 -213l-408 -714q-20 -36 -78 -150q-77 -150 -77 -236q0 -23 6 -47 q-36 -4 -49 -4q-52 0 -80.5 21t-28.5 57q0 19 12 46t23.5 46t37.5 58l34 51l116 184l-137 778q-5 26 -10.5 34.5t-18.5 8.5q-28 0 -76 -11.5t-71 -20.5zM459 1145l191 248h211l-328 -248h-74z" />
<glyph unicode="&#xfe;" horiz-adv-x="1050" d="M-154 -430l4 29l119 39q27 10 39.5 22t16.5 37l288 1470q6 24 6 50q0 22 -8 34t-28 21l-76 35l4 22l309 70l-174 -832h8q26 42 61 89t82.5 99.5t96 93.5t103.5 68t102 27q75 0 116 -55.5t41 -132.5q0 -124 -53.5 -262.5t-140.5 -254.5t-211.5 -192t-253.5 -76 q-40 0 -57 17l-58 -281q-2 -8 -2 -20q0 -26 33 -39l133 -49l-4 -29h-496zM274 102q0 -36 19 -50.5t57 -14.5q70 0 138 38t119 98.5t89 127t60 131.5q43 125 43 260q0 41 -20.5 80t-59.5 39q-55 0 -134 -64t-139.5 -139t-87.5 -129l-18 -37l-53 -252q-13 -63 -13 -88z" />
<glyph unicode="&#xff;" horiz-adv-x="1005" d="M43 795v32q54 40 132 78.5t132 38.5q26 0 38 -6.5t21.5 -33t18.5 -87.5l88 -590q6 -54 6 -65h2q11 34 29 65l213 424q39 76 39 140q0 29 -17 94q22 21 67.5 40t74.5 19q45 0 45 -37q0 -65 -84 -213l-408 -714q-20 -36 -78 -150q-77 -150 -77 -236q0 -23 6 -47 q-36 -4 -49 -4q-52 0 -80.5 21t-28.5 57q0 19 12 46t23.5 46t37.5 58l34 51l116 184l-137 778q-5 26 -10.5 34.5t-18.5 8.5q-28 0 -76 -11.5t-71 -20.5zM332 1272q0 40 29 69t69 29q41 0 69.5 -29t28.5 -69q0 -41 -28.5 -69.5t-69.5 -28.5q-40 0 -69 28.5t-29 69.5z M639 1272q0 40 29 69t69 29q41 0 70 -29t29 -69q0 -41 -29 -69.5t-70 -28.5q-40 0 -69 28.5t-29 69.5z" />
<glyph unicode="&#x152;" horiz-adv-x="1742" d="M72 444q0 136 29.5 262.5t90.5 236t148 191t209.5 128.5t267.5 47h916v-240h-35q-27 50 -47 77.5t-53 51t-78.5 32.5t-114.5 9h-227l-101 -520h281q16 0 33.5 5.5t29.5 10.5t32 19.5t26.5 19t29 23.5t23.5 20h33l-49 -260h-35q-42 100 -133 100h-283l-115 -587h346 q93 0 129 14t103 76l92 86h37l-88 -246h-1026q-227 0 -349 110t-122 334zM256 420q0 -350 322 -350h190l227 1169h-190q-85 0 -159 -28t-128.5 -76t-99.5 -113.5t-74.5 -139t-49.5 -154.5t-29 -157.5t-9 -150.5z" />
<glyph unicode="&#x153;" horiz-adv-x="1507" d="M43 303q0 83 25.5 172.5t74.5 172.5t114.5 149.5t153.5 106.5t183 40q211 0 262 -205q79 95 182 150t215 55q80 0 132.5 -46t52.5 -124q0 -72 -35 -135t-93 -109t-133.5 -81t-157 -54.5t-163.5 -25.5q-6 -53 -6 -111q0 -87 39 -141t127 -54q80 0 171.5 35t166.5 86v-61 q-84 -64 -187.5 -108t-195.5 -44q-236 0 -283 195q-148 -195 -336 -195q-148 0 -228.5 88.5t-80.5 243.5zM209 225q0 -86 42.5 -140t133.5 -54q113 0 199 117.5t116 277.5q4 21 13 64.5t14 70.5t9.5 63t4.5 64q0 88 -41.5 141.5t-136.5 53.5q-70 0 -131 -50.5t-100.5 -127 t-68.5 -168t-41.5 -172t-12.5 -140.5zM860 416q93 10 170.5 35t139 66.5t96 104t34.5 140.5q0 44 -23.5 78t-74.5 34q-133 0 -224 -126.5t-118 -331.5z" />
<glyph unicode="&#x178;" horiz-adv-x="1146" d="M166 1288l6 29h459l-4 -29l-95 -28q-43 -14 -43 -54q0 -22 9 -43l151 -458q17 -51 17 -66h2q19 38 39 66l325 456q35 47 35 74q0 21 -23 27l-86 26l7 29h374l-6 -29l-90 -33q-31 -12 -90 -86l-455 -587l-86 -443q-2 -6 -2 -18q0 -38 35 -53l103 -39l-7 -29h-493l6 29 l117 39q51 19 61 71l84 439l-217 591q-7 22 -22.5 45t-32.5 31zM512 1538q0 40 29 69t69 29q41 0 70 -29t29 -69q0 -41 -29 -69.5t-70 -28.5q-40 0 -69 28.5t-29 69.5zM819 1538q0 40 29.5 69t69.5 29q41 0 69.5 -29t28.5 -69q0 -41 -28.5 -69.5t-69.5 -28.5 q-40 0 -69.5 28.5t-29.5 69.5z" />
<glyph unicode="&#x2c6;" horiz-adv-x="540" d="M16 1147l224 248h108l129 -248h-80l-121 131l-170 -131h-90z" />
<glyph unicode="&#x2dc;" horiz-adv-x="702" d="M43 1169q22 78 89.5 147.5t141.5 69.5q35 0 75.5 -28t76.5 -56t59 -28q35 0 64.5 35t40.5 73h72q-21 -83 -82 -150t-140 -67q-32 0 -72.5 30t-78 59.5t-62.5 29.5q-29 0 -61 -40t-43 -75h-80z" />
<glyph unicode="&#x2000;" horiz-adv-x="861" />
<glyph unicode="&#x2001;" horiz-adv-x="1723" />
<glyph unicode="&#x2002;" horiz-adv-x="861" />
<glyph unicode="&#x2003;" horiz-adv-x="1723" />
<glyph unicode="&#x2004;" horiz-adv-x="574" />
<glyph unicode="&#x2005;" horiz-adv-x="430" />
<glyph unicode="&#x2006;" horiz-adv-x="287" />
<glyph unicode="&#x2007;" horiz-adv-x="287" />
<glyph unicode="&#x2008;" horiz-adv-x="215" />
<glyph unicode="&#x2009;" horiz-adv-x="344" />
<glyph unicode="&#x200a;" horiz-adv-x="95" />
<glyph unicode="&#x2010;" horiz-adv-x="481" d="M27 483l24 125h402l-25 -125h-401z" />
<glyph unicode="&#x2011;" horiz-adv-x="481" d="M27 483l24 125h402l-25 -125h-401z" />
<glyph unicode="&#x2012;" horiz-adv-x="481" d="M27 483l24 125h402l-25 -125h-401z" />
<glyph unicode="&#x2013;" d="M106 483l23 115h727l-22 -115h-728z" />
<glyph unicode="&#x2014;" horiz-adv-x="1562" d="M41 483v115h1483v-115h-1483z" />
<glyph unicode="&#x2018;" horiz-adv-x="452" d="M88 883q42 114 250 426h65q-6 -21 -34 -104.5t-53 -169t-37 -152.5h-191z" />
<glyph unicode="&#x2019;" horiz-adv-x="452" d="M139 883q1 3 34.5 99.5t57 177.5t35.5 149h191q-46 -123 -252 -426h-66z" />
<glyph unicode="&#x201a;" horiz-adv-x="452" d="M0 -229q5 15 26 76.5t37 110.5t35 117.5t29 121.5h188q-43 -118 -249 -426h-66z" />
<glyph unicode="&#x201c;" horiz-adv-x="759" d="M88 883q42 114 250 426h65q-6 -21 -34 -104.5t-53 -169t-37 -152.5h-191zM395 883q42 114 250 426h66q-6 -22 -34.5 -105t-53.5 -168.5t-37 -152.5h-191z" />
<glyph unicode="&#x201d;" horiz-adv-x="759" d="M139 883q1 3 34.5 99.5t57 177.5t35.5 149h191q-46 -123 -252 -426h-66zM446 883q1 3 34.5 99.5t57 177.5t35.5 149h191q-46 -123 -252 -426h-66z" />
<glyph unicode="&#x201e;" horiz-adv-x="759" d="M0 -229q5 15 26 76.5t37 110.5t35 117.5t29 121.5h188q-43 -118 -249 -426h-66zM307 -229q5 15 26 76.5t37 110.5t35 117.5t29 121.5h189q-42 -114 -250 -426h-66z" />
<glyph unicode="&#x2022;" horiz-adv-x="765" d="M82 516q0 129 82.5 215t218.5 86q134 0 218.5 -86.5t84.5 -214.5q0 -126 -84.5 -213.5t-218.5 -87.5q-136 0 -218.5 87t-82.5 214z" />
<glyph unicode="&#x2026;" horiz-adv-x="1335" d="M51 84q0 50 30.5 81.5t88.5 31.5q55 0 86 -29t31 -84q0 -54 -31 -81.5t-86 -27.5q-61 0 -90 30t-29 79zM483 84q0 50 30 81.5t89 31.5q55 0 85 -29t30 -84q0 -109 -115 -109q-61 0 -90 30t-29 79zM934 84q0 50 30 81.5t87 31.5q55 0 85.5 -29t30.5 -84q0 -54 -30.5 -81.5 t-85.5 -27.5q-60 0 -88.5 30t-28.5 79z" />
<glyph unicode="&#x202f;" horiz-adv-x="344" />
<glyph unicode="&#x2039;" horiz-adv-x="655" d="M156 485l346 351h63l-256 -371l119 -330h-63z" />
<glyph unicode="&#x203a;" horiz-adv-x="655" d="M88 135l258 371l-121 330h64l211 -351l-348 -350h-64z" />
<glyph unicode="&#x205f;" horiz-adv-x="430" />
<glyph unicode="&#x20ac;" horiz-adv-x="1093" d="M0 487v72h133q9 96 33 186h-166v72h188q38 112 98 205t142 165t191.5 112t234.5 40q183 0 332 -55l-45 -217h-41q-27 102 -94 150.5t-197 48.5q-88 0 -162.5 -35.5t-128 -99t-91 -141.5t-62.5 -173h583l-30 -72h-570q-15 -78 -26 -186h495l-31 -72h-467q-2 -16 -2 -45 q0 -91 13.5 -157.5t46.5 -121t94 -82.5t150 -28q93 0 162 24t155 79h31l-62 -136q-61 -29 -158.5 -43t-185.5 -14q-436 0 -436 481v43h-127z" />
<glyph unicode="&#x2122;" horiz-adv-x="1572" d="M162 1180l45 129h528l-4 -129h-20l-33 45q-23 32 -37 38.5t-66 6.5h-34q-24 0 -27 -31l-100 -518q0 -2 -1 -5.5t-1 -4.5q0 -13 16 -19l61 -24l-4 -15h-284l4 15l69 24q25 9 27 29l100 518q2 6 2 14q0 17 -16 17h-35q-49 0 -64.5 -6t-49.5 -35l-3 -3l-8 -6t-17 -14 t-30 -26h-18zM698 653l4 15l52 22q25 9 28 33l97 491q4 24 4 33q0 17 -13 25l-47 22l4 15h187l131 -543l336 543h196l-2 -15l-53 -20q-23 -9 -33 -57l-94 -494q0 -2 -1 -5.5t-1 -4.5q0 -17 16 -23l45 -22l-4 -15h-250l3 15l53 22q22 8 28 33l95 483l8 31h-4q-1 -2 -15 -31 l-346 -561h-55l-141 561q-2 6 -2 27h-2l-99 -512v-8q0 -17 17 -25l45 -20l-4 -15h-183z" />
<glyph unicode="&#xe000;" horiz-adv-x="942" d="M0 0v942h942v-942h-942z" />
</font>
</defs>
</svg>
