<svg width="925" height="1000" fill="none" xmlns="http://www.w3.org/2000/svg">
  <path d="M168.3 356.3C143 405.9 125 462.3 136 516.8c12.4 60.7 58.4 108.2 104.2 149.8 67.4 61.2 139 117.7 214.3 169 67.8 46 157 88.5 227.5 46.8 61.4-36.2 75.3-117.4 83-188.2l25.8-239.3C809.3 283.5 651.4 186.4 497 150c-140.4-33-269.5 90.4-328.6 206.3Z" fill="#CEDDC4"/>
  <g opacity=".8" stroke="#333" stroke-width=".7" stroke-miterlimit="10">
    <path d="m394.1 441 1.5-105.7c0-3.1-4.6-14.8-4.6-14.8H486l-3.1 14-.8 105.8"/>
    <path d="M415 442.8V340.3h46.6v99.5"/>
    <path d="M390.2 502v-47l4-1.8v-10.5h88.4v10l2.6 3v46.7M433.3 414v-19.2h10V414s-10-.4-10 0ZM433.3 377.4V360h10v17.4s-10.7-.7-10 0ZM398.8 332h81.5M395.4 319.4l-.4-6.5h87.2v6.5M401.5 312.5v-4.9h74v5M408 294v-54.8M469.7 294.2l-.2-54.6M406.7 241l-3-2.6V234l7-2.2h54.9l8.7 1.8-.9 4.8-4 4.7M434 118.3l.1-1.2s-2.1-2.6-.8-4.8c.8-1.6 1.4-3.3 1.8-5.2M419.7 228.8s5.3-1.8 6.6-7a36 36 0 0 0 .8-10.5s-.8-12.2 1.3-17c2.2-4.8 2.6-6.6 2.2-10.9-.4-4.3 0-36.1 0-36.1s-.9-4.8 1.3-7.4c2.1-2.6 0-3.5 0-5.7s.5-7.7.5-7.7l.4-1.2M444.3 118.4l-.1-.8c0-1.3.3-2.6.9-3.8.8-1.3-2.7-7.5-2.7-7.5M459.8 229.6s-8.6.8-9.6-8.3c-.9-9 1.4-20.4-.8-25.2-2.2-4.8-3-4.8-3.5-10.9-.4-6 .5-35.7.5-35.7s-.5-6.6-.9-9.2c-.4-2.6-2.6-1.8-1.3-6.6.6-2.3.6-5.9.5-9.2M427.6 121.2v-1c0-1.3-1.8-3-.9-5.6 1-2.6 4-7 4-7M407.6 231.8s6-2 4.2-6.7a65.1 65.1 0 0 1-2.1-21.6c1.4-8.3 6.6-8 8-12.7 1-3.4 2.4-5 2.5-8.6.3-4.6.9-20.5.4-22.3-.4-1.8-1.6-6.7 0-8.7 2-2.3.2-4.5 1-7.7 1.2-4.2 4-2.4 3-5-.8-2.6 2.9-6 2.9-8.2v-2.1M451.6 119.7c.7-2.2 1-4.4.2-6a22.7 22.7 0 0 0-5-6.2M470.3 230.4c-1.4-1.2-5.7-.4-4.8-6.5.8-6.2 5.2-17.5 1.8-23.5-3.5-6.1-7.9-6-8.7-12-.9-6.2-2-24.4-1.6-27.9.3-2.6.8-5.1 1.5-7.7-.8-.8-1.3-1.9-1.5-3-.6-2.8-.5-7-1.2-8.5-1.3-2.6-1.3.3-1.8-4-.2-2.3-3.3-3.6-2.8-8.9l.2-2.3M432 290.2h13.8s.5-29.2-.8-32.3c-1-2.4-3.4-4-6-4-2.3 0-7.3 2.3-7.3 6.7l.2 29.6ZM435 181.2h7s1.2-18.7.4-20.4c-.8-1.8-2.2-1.8-3.5-1.8-1.3 0-4 .8-4 5.2s-.5 17.7 0 17Z"/>
    <path d="M453.8 182s-4.8 0-4.8-1.3-.9-17 .4-19.2c1.3-2.2 4 0 4 2.6l.4 18ZM423.7 182.5l4-.8.4-21s-2.6-1.3-3.5 2.3c-.8 3.5-1 19.5-1 19.5ZM439 105.4c-3.5.3-5.7 1.3-7.5 1.3-1.7 0-1.7-2.6-2.6-4.3-.8-1.8-2.4-2.6-.8-5.7 1-1.8 1.6-3.8 3.8-2.4 2.2 1.3.1-1.5 2.3-2 2.2-.4 2.3-.9 2.3-.9.9-.6 1.3-1.6 1.2-2.6-.3-2.2 3-2.6 3-.8.1 1.5.4 3 .9 4.3 0 0 2.6-.8 3.4 1.4 0 0 2.7-.7 3.6.6.8 1.2 2 .6 2 4.6 0 4-3 8.8-3 8.8a12.8 12.8 0 0 0-8.7-2.3ZM433.7 191.3h9.2M450.3 191.7c2.4-.4 4.7 0 7 1M418.5 193.9c3.3-.2 5.4-1.5 8.7-1.8M421 152l9.7-4.8 15.7.5 11.3 4.5M425.5 135.5l6-2.6 13-.5 8.4 2.8M426.7 116.7l7-2.6H445l6.6 2.6M428 111.5l6.6-2.6h8.3l6 1.7M425.5 138.5l6.5-2.2 11.8-.8 10.4 3"/>
    <path d="M420.7 156c1.7-1.4 10-4 10-4l14.8-.4 12.7 4M410.6 217.8c1.3-.4 16.6-6.6 16.6-6.6l23.1.9 16.5 5.7M441 242.7h21.5M412.8 242.7h23.5M413.2 291V248M463.8 292v-45M406.2 301.7c-1.8.2-3.6-1.6-3.7-3.3-.1-2.4 1.7-4.5 4-4.6a5 5 0 0 1 2.4.5 4 4 0 0 1 1.7 3.6c0 1.6-.6 2.4-1.7 3.4M467 301.7a5 5 0 0 1-.4-5.9 5.5 5.5 0 0 1 4.6-2c2.9.4 3.6 3.5 3.3 5-.2 1.6-1.4 3-3 3.4M402 307.1c0-1-.7-1.5 0-2.2a7.6 7.6 0 0 1 5.4-2.7h61.5s5.4.4 6.2 2.4c.8 2-.4 2.9-.4 2.9M412.4 294.2h53M419.8 246.8v44.5M456.3 246.6v45M436.5 253.1a21 21 0 0 0-3-4.7c-.3-.4-.7-.8-.5-1.4.1-.8 1.2-.9 1.9-1.2 1.1-.6 1.2-2.1 1.6-3.3a5.9 5.9 0 0 1 2.2-2.8s.2-.2.4 0l.3.2c1 2.1 1.2 4.5 2.4 6.5l.5.5h1c.7.2 1 1.2.5 2-.4.7-1 1.2-1.6 1.7-.6.6-1 1.3-1.1 2.2M436.6 205.8c.7-.5 1.5-.9 2.3-.8.6 0 1 0 1.6.2.5.1.8.6.9 1h-.2M437.3 204l-1.7-2.7c-.3-.3-.4-.7-.4-1l.5-.8.6-1 .8-.5 1.8-.8c.2-.2.5-.3.7-.3.4 0 1.8 1.3 2 1.7.6.7.4 1.7.3 2.6 0 .6-1.9 2.4-1 3M457.1 208.6a2.2 2.2 0 0 1 3.3-.6c.5.3.8.7 1 1.3v.2c.1 0 .2 0 .1-.1M458.8 205.7a9.6 9.6 0 0 1-1.6-3.6c-.1-.4 0-.9.1-1.3.2-.3.4-.5.8-.7.6-.4 1.4-.5 2.2-.2.3.1.6.3.8.6.4.3.8.7 1 1.2.2.8 0 1.5-.2 2.1l-.7 2.6M416 210.4c.4-1 1.2-1.9 2.2-2.4a3 3 0 0 1 1.5-.3c.5 0 1 .2 1.4.7M417.1 206.8a6.5 6.5 0 0 1-1-5.7c.1-.3.4-.6.7-.7l1.6-1h1c.3 0 .3.4.9 1 .8.8.2 1.1.3 2.3 0 1.3-.3 2.6-1.2 3.5M438.3 225.9c-1-1-2.1-1.8-3.4-2.4-.2 0-.6-.3-.5-.6l.2-.3a31 31 0 0 1 5.4-3.1c.3 0 .6.3.9.5l1.3 1.1c.6.4 1 1 1.5 1.5.2.5.3 1.2-.2 1.6l-.8.1c-.9.1-1.6.6-2 1.4M457 174c0-1.4-.4-2.9-.3-4.2.1-1.4 1.3-2.9 2.6-2.6l-.4 7c0 .9-.2 1.7-.3 2.5-.3.8-.7 1.7-.2 2.4l.9.8c1 1 .5 2.8-.1 4.3.6 0 1.1.4 1.3 1 .2.6.2 1.2.1 1.9l-.4 3.6c0 .2-.1.5-.3.6-.1.2-.4.2-.6 0M420.4 173.1l-1-4c0-.4-.2-.8-.5-1-.7-.4-1.4-.2-1.8.5-.3.7-.2 1.5.1 2.2.4.7.6 1.3.8 2 .3 2.1-1.5 4.1-1 6.2l.2 1c0 .9-.5 1.7-.7 2.5-.2.6-.1 1.3.1 1.8l.7 1.4c.2 1-.3 2-.5 2.9-.3.9.2 2.2 1.2 2.2M427.2 128.4a4 4 0 0 1-1.2-1.5c-.5-1.5-1-3.3 0-4.5 1-1.2 2.7-1.3 3.9-.3 1 1 .7 2.8.6 3.5-.1.9-.5 1.5-1.2 2M441.2 125.5c-.6-.6-1.7-1.3-2-2.2-.2-1.4.6-2.8 1.9-3.5 1-.5 2-.8 3.1-.8l1-.1c.2 0 .7.5 1 .7l.4 1.1c.8 2.2-.2 4.4-2.1 4.3M436.3 125.4c1-.9 1.6-2 1.6-3.4 0-.6 0-1.1-.3-1.6-.7-1.2-2-1.9-3.3-1.8l-.7.1a5 5 0 0 0-2.7 1.8c-.4.6-.5 1.5-.3 2.3 0 .8 1.2 3 2 2.7M447.9 125.4a3 3 0 0 1-.2-3.4 4 4 0 0 1 3-1.8l1 .1c1.2.3 1.5 2 1.6 3.4 0 .7 0 1.5-.4 2.2-.3.6-1.1.9-1.8.6M430.3 100l-.3-3.4c0-.3 0-.5.2-.8.4-.7 1.4-.3 2 .4.9 1.2 1.2 2.8.8 4.2M437.6 100c-.7-1.4-1-3-1.2-4.5 0-.6.1-1.2.6-1.2s.7.5.8 1l.5 1.8c1.3.1 1.8-2.6 3.1-2.3.3 1.8-.2 3.8-1.2 5.4M445 97.3c.4-.6 1-1 1.6-1.3h.6l.2.5c.3 1.7-.4 3.5-1.9 4.6M438.6 85.6c-1.6-.2-5.5-1.2-3.4-2 1.7-.7 3.6-1 5.4-.8 2.2 0 5 .4 3.2 1.8-1 .8-2.3 1-3.6.6M434.4 83.6c-1.8-4-1.8-6.6-.4-7 1.4-.4 1.4.4 1.4.4M436.4 79.8c-.8-3.6-.6-4 .4-4.2 1-.3 2 1.2 2 1.2s2-1.6 3-1.5c1.1.2 1.9.8 1.3 2.6l-1 2.6"/>
    <path d="M444 83c0-.9 2.1-3.6 1.7-5.2 0-.8-.8-1.4-1.6-1.3h-.2M437.6 75.8l.2-6h2.3l.6 5.3"/>
    <path d="M437.4 70.4c-1-.6-2.3-1.6-.1-2 2.1-.4 5.3 0 5.6.6.4 1.4-2.2 1.6-2.2 1.6M436 68.8c-1-1-1.6-2.3-1.8-3.6-.1-2 2.8-1.4 2.8-1.4M437.9 65.8c-1.5-3.6-.5-4.8.4-4.2.7.6 2.8-.6 3.2.2.4.7-.8 4.6-.8 4.6"/>
    <path d="M442.8 69c.6-.8 2.6-4.2 1.2-5.2-.8-.6-1.8-.6-2.6 0M438.9 50.6l-.3-8.4M439.2 61.6c0-.3 0-3-.2-5.6M442.8 47.4l-5.6 5-2.2 4.2 2.8-.2 5.8-4.8-.8-4.2ZM436.8 43.6c1.1-.1 2.1-.3 3.2-.6M438.8 86.6l.2-3.4M440 82.8V87M528.9 339.7l31.7-.1M483.8 339.7h36.4M355.8 339.8h40M318.5 340h28.6M482.9 364.9H560M318 364.9h77.3M483.4 391c49.2 0 78.6.2 78.6.2M315.2 391.2c1.1-.3 30.5-.4 79.3-.4M429 355.3l19.7.3s-.2-9.6-10-9.4c-9.1.2-9.6 9.1-9.6 9.1ZM398 325h5.9M408.5 325h5.4M417.5 325h5.1M426.7 325h5M436.3 325h5M445.7 325h4.6M454.5 325h5.2M463.9 325h5.6M473 325h6.6M378.6 381v5h-8.3v-5.5"/>
    <path d="M368.3 381c.4-1 2.4-4.3 5.4-4.3 3 0 6.3 4.2 6.3 4.2M348.3 380.3v5.9h8.1v-6M347.1 380.3c1.4-2.1 2.8-3 4.9-3 3 0 5.4 2.7 5.4 2.7M499.9 380.8v5.8h7.2v-5.8"/>
    <path d="M497.5 380.8s3-2.8 5.8-3c2.8-.3 5.4 3.7 5.4 3.7M521.9 380.5l.2 6h7.2v-5"/>
    <path d="M519.5 380.8s3-3 5.6-2.8c4.7.2 5.9 3.5 5.9 3.5M347.6 342.2l-.5-9.1 8.2.2.5 8.9M520.4 342l-.2-8.4 8.4.3v8.3M378 399.2h-10.6v14.5h10.5v-14.5ZM378 421.2h-10.6v6.8h10.5v-6.8ZM367.4 459.5v-20h10.5v20h-10.5ZM356.4 399.2h-10.9v14.5h11v-14.5ZM356.4 421.2h-10.9v6.8h11v-6.8ZM345.5 459.5c-.3-.7 0-20 0-20h11v20h-11ZM509.2 399h-10v15.4h10V399ZM509.2 421.2h-10v7.7h10v-7.7ZM509.2 439.9h-10v20h10v-20ZM530.7 439.9h-10.3v20h10.3v-20ZM520.4 428.9v-7.7h10.3v7.7h-10.3ZM520.4 414.4V399h10.3v15.4h-10.3ZM379.8 341.9c-.6 1.5-3 19.7-3 19.7M367.1 341.9l-3.5 20.9M372.5 341.9l-3.6 21.2M386.9 342.1l-2.6 18.9M393.4 343l-2.4 19M345.3 342.7l-4.3 19.2M359.5 342.4l-3.8 20.1M353.3 343.9l-3.8 18.3M348.9 343.9l-3.8 17.7M334.5 342.1l-5.4 19.2M338.8 343.6l-4.7 17.7M497.4 341.9l3 20.9M504.2 342.1l3.5 20.6M489.8 342.1l2.6 22.2M511 342.1l3.5 20.4M517.1 341.9l3.6 20.6M523.3 345l3.5 17.2M529.2 345l4.5 18M534 341.5l5.2 21.8M539.8 342.1l5.3 20.6M546 341.3l6.5 22.4M388 369.8l-.2 19.7M383 368.6l-.3 20.7M366 369.6l-.6 18M361.3 369.6l-.3 18M372.5 369l-.4 6.7M378 368.4l-.2 8.2M344.2 369.2l-.9 19M349.2 369.2l-.6 8M354.5 368.6l-.3 7.5M358 370.2l-.5 8.1M339.2 369.6l-1 18M335 369.2l-.5 18M489.4 369.2v19.5M494.7 369v20M500.6 368.4l.4 8.2M505.7 367.8l.2 8.5M511 368.4l.2 20.5M515 368.6l.4 21.3M519.8 368.4l.3 9.4M525 368l.7 7.7M530.4 367.8v8M535 368.4l.4 20M540.7 368.6l.6 21.3"/>
  </g>
  <g opacity=".8" stroke="#333" stroke-width=".7" stroke-miterlimit="10">
    <path d="M237.3 360.3s5.4-2.7 11.5-14.9c6.8-13.6-2-30.6-7.5-38.7-9.8-14.7-63-50.2-91-75.4-27.8-25.1-29.2-61.1-21-86.9 8.1-25.8 35.3-41.4 68.6-46.2 33.3-4.8 61.8 9.5 67.2 18.3 5.4 8.8 2.7 24.5-13.6 31.2-16.3 6.7-27.2-10.2-36.7-19.7-9.5-9.5-20.4-17-34.6-6.1-14.2 10.9-16 21.8-13.6 38 2 12.9 17 31.2 34.6 43.5s55.5 39.6 68.6 61.8c15.6 26.5 16.8 46.1 11 63.8a96 96 0 0 1-19 31.2 43.8 43.8 0 0 1-15.7 10.9"/>
    <path d="M145.6 227.2c-6.8 7.5-14.3 11.5-14.3 25.7s9.5 28.5 30.6 48.2c21 19.7 38.3 27.8 59.1 44.1 22.4 17.6 33.6 39 36.7 53a66.6 66.6 0 0 1-11.5 55.6c-17.7 22.4-31.9 29.9-55.7 32.6-30 3.4-50.2-2-63-7.5-13-5.5-15.7-23.8-9.6-31.9 6.1-8.1 23.1-12.2 34.6-4.8 11.5 7.4 15 22.5 24.4 25.2 9.4 2.7 30.5 4.8 38-21s-11.5-47.5-30.5-61.1c-19-13.6-56.4-39.4-70.6-58.4-14.2-19-17.7-47.5-16.3-62.5 1.4-14.9 9.4-27.2 23.1-40.1 4.5-4.3 15-10.2 15-10.2"/>
  </g>
  <g opacity=".8" stroke="#333" stroke-width=".7" stroke-miterlimit="10">
    <path d="M186.3 777.1c0-6.1-4.9-8.5-14.6-21.3s-19.5-45.6-17-63.2c2.4-17.6 16-49 33.5-63.9a102.4 102.4 0 0 1 60.8-20.1c18.5.5 26.2 7.3 31.6 2.4 5.5-4.9 30.4-43.8 29.8-53.5-.6-9.7-8.5-7.9-21.3-9.1a390.6 390.6 0 0 0-73.6 1.8A161.7 161.7 0 0 0 151 577a160.3 160.3 0 0 0-47.4 51.1c-8.5 16.4-21.9 60.2-15.8 94.3 5 28.2 25.5 64.5 28.6 66.9 3 2.4-4.3 14-11.6 24.3a162 162 0 0 0-17.6 33.5c0 4.4 16.4 6.1 25.5 4.9 9.1-1.2 25.5 2.4 31.6-.6 6.1-3.2 42-74.3 42-74.3ZM354.1 548.4c-7.3 1.2-4.9 0-10.9 10.3S305 622 305.5 625c.6 3 11 15.2 16.4 21.3 5.5 6.1 17.7 37.1 17.7 50.5 0 13.4-3.6 40.1-18.2 57.2-14.6 17-35.9 35.9-68 38.3-32.3 2.4-28-9.1-37.2-4.3-9 4.8-33.5 46.8-34.7 51.7-1.2 4.9 1.8 10.3 14.6 10.3 12.8 0 69.4 3 88.3-1.8 19-4.8 51.7-15.8 77.2-42s40.8-63.9 43.2-82.7c2.4-18.9 1.2-63.3-12.8-88.8s-16.5-20.1-14-28.1c2.4-7.9 29.8-51.7 29.2-54.1-1-4.6-6.7-4.3-12-4.3l-41 .2Z"/>
    <path d="M197.8 682.2c-3-.6-9.2 2.5-10.3 12.8-.6 5.5 6.1 14 12.8 21.3l19 .6s-13.5-13.4-17-20.7c-2.4-4.4-4.5-14-4.5-14ZM211.2 686.5a677 677 0 0 0 23.7 29.8c1.8 1.8 5.4.6 5.4.6v-23.1a46 46 0 0 1-15.2-1.8c-4.8-1.5-9.4-3.4-13.9-5.5ZM253.2 695l.6 21.3 3.6.6s21.3-20.7 23.1-24.9c1.8-4.3 2.4-6.1 2.4-6.1s-4.3 2.4-14 4.9c-9.6 2.4-15.7 4.2-15.7 4.2ZM273.8 715.7c8.5-9.1 16.4-15.2 18.3-20.7 1.2-3.8 2.2-7.6 3-11.6 0 0 6.1.6 8.5 3.6a13 13 0 0 1 1.8 14.6c-3 6.7-12.8 15.2-12.8 15.2l-18.8-1.1ZM214.8 673.7c-1.6 1.9 20.7 7.3 25.5 7.3 4.8 0-3.6-8.5-9.7-10.3-6-1.9-12-1.3-15.8 3ZM252.5 681.6l16.4-4.3a42 42 0 0 0 9.1-3.6s-2.4-6.7-12-4.3c-9.8 2.5-11 7.9-11 7.9l-2.5 4.3Z"/>
    <path d="M194.8 729.7s-19.5-21.3-20-26.2c-.7-4.9-1.9-18.9 4.2-24.3a49.6 49.6 0 0 1 22.5-9.7s9.1-10.9 20.1-12.8c11-1.8 16.4 3 20.1 5.4 2.2 1.4 4 3.3 5.5 5.5 0 0 5-9.7 20.7-10.3 9.3-.3 18.1 4.3 23.1 12.1 0 0 13.4-1.8 21.3 8.5 8 10.3 9.1 18.2 5.5 25.5a234 234 0 0 1-19.5 26.2l-103.5.1ZM195.4 735.7v12.2l102.2-1.2.6-11.6-102.8.6Z"/>
    <path d="M247.1 639.6c-4.9 0-8.5 4.9-8.5 9.7 0 4.8 3 7.9 8.5 7.9 6.2 0 10.4-5.5 8.5-10.3-3-7.9-7.9-7.3-8.5-7.3Z"/>
  </g>
  <g opacity=".8" stroke="#333" stroke-width=".7" stroke-miterlimit="10">
    <path d="M728.8 446.5c-4-33.2-8.3-72.8-8.3-72.8.2-1.2-5.3-38-3.7-40.3 1.6-2.3 2.8-2.1 5.3-2.1s109.9-18 112.8-13.8c.7 1 32 149.3 30 150.8-1.7 1.2-122.6 17.4-125.1 17.5-2.5 0-4.5 1.7-5.3 4.5-.3 1-2.3-15-4.8-35.3"/>
    <path d="M862 468.6c-1.3.5-4.5 1.6-4.3 4.4 0 2.9 4.2 4.6 4.2 4.6"/>
    <path d="M862.3 468.8s2.7 8.3 1.7 9a3575 3575 0 0 1-122.6 14.8c-2.2-.5.4 2-4.1.7-2.5-.7-4-3.2-2-5M860 469.3l1.9 8.5M735.7 453.8l3.4 27.5M721 334.5l13.4 109.7"/>
    <path d="M738 486.8c1.9 2 1.4 4.9 1.4 5.4M745.7 372.7l6.5-1s2.6 23.3 2.8 23.5a95 95 0 0 0 13.6-1.8l.8 6s-19.8 3-19.8 2.5l-4-29.2ZM788.8 367.7c-6.6-4-12.7.4-15 5.7-2.3 5.3-1.5 18.8 4.8 22.4 6.3 3.6 15.4 1.9 17-6.3 2-8.2-.4-18-6.8-21.8Z"/>
    <path d="M783.3 373c-5 .7-5.5 5.2-5 11 .4 6 5.7 8.9 9 7.5 3.5-1.4 5-8.1 4-12.1-1.2-4-4.7-7-8-6.4ZM797.5 363.9l5.8-1 11.2 21.4 2.8-23.1 6.6-1.3-5 31.9-7 .6-14.4-28.5ZM745.9 450.3s-25.1 7-26 7.5c-.7.5-2 3.3-3.5 3.3-1.6 0-3.6-1.8-3.6-1.8s-81.3 25.2-84.1 25.5c-2.8.3-8.2 1.8-11.3 1.2-3.1-.6-4.5-1.1-3.3-3.6 1.2-2.5 4.9-4.2 12.7-8.8 7.8-4.6 81.3-20 83.6-21.3.8-.5.7-3.1 3-4 2.4-.7 4 1.7 5 1.4l25.3-8.1"/>
    <path d="M749.2 462.5c-2.3-7.4-6.5-28.6-8.1-30.1-1.6-1.5-4.1.2-3.8-4 .3-4.2 6.3-10.7 14.9-13 8.6-2.3 16-.3 16.8 2.5.8 2.8-1 1.8-.4 4.7.6 2.9 8.5 28.7 8.4 29.5-.1.8 4.2 2.3 4.5 4.6.3 2.3-5 9-14.7 12.4-9.5 3.2-18 2-19-.7-1.1-2.8 1.4-6 1.4-6Z"/>
    <path d="M749.3 467.3c.5-1 3.2-3.7 6.8-5.4 7.9-3.7 14.8-6.1 21.6-4.2M742.3 430.5c2-6.1 15.4-11.5 23-9.8M744.3 435.4c2.4-4 8-6.8 14.6-8.2a20 20 0 0 1 8 0M750.6 459.2c6.9-5 15.6-8.2 24-6.2M717.9 456a6.5 6.5 0 0 1-.4-4M713.7 457l-.6-2.7"/>
  </g>
  <g opacity=".8" stroke="#333" stroke-width=".7" stroke-miterlimit="10">
    <path d="M617.2 670c-5.9-7-42.1-26.8-46.2-30.6"/>
    <path d="M549.1 569.9s.4 16.1 6.8 26.8c6.4 10.7 13.1 34.1 16.4 46.4"/>
    <path d="M531.5 569.9c.5 7.5 2.5 19 4.1 33.8 1.6 14.8 13 46.9 14.4 51.5 1.3 4.6 20.5 18.8 29.7 27.7 9.9 9.7 24.4 17.3 32.7 22.9M536.6 570.1c-5.8 0-8.2-1.7-10.1-7-1.9-5.3-5.1-8.9-4.1-11.8 1-2.9.2-2.4 3.1-4.6 2.9-2.2 3.6-4.1 5.3-4.8 1.7-.7 1.9 0 3.4-1.2s2.2-2.9 4.6-2.4c2.4.5 2.4.5 4.6 0 2.2-.5 2.9-1.2 4.3-1 1.4.2 5.3 1.4 5.1 4.8-.2 3.4.5 13.3.5 14.5 0 1.2 1.4 1.5-.5 6.3s-1.9 6-5.3 7-8-.7-8.9-1.4"/>
    <path d="M524.3 555.4c2.2 2.2 1.9 4.1 5.3 4.8 3.4.7 4.6-.5 4.6-.5M530.7 550.3c1.9 6 3.9 10.6 5.6 10.6 1.7 0 2.2-.7 2.2-.7M536.3 540.4c-1.7 1.9 1 19.6 3.9 20.8 2.9 1.2 4.4-1 4.4-2.4v-1.5M546 539c-1.2 1.9-1 2.9-1.9 6.5-.9 3.6-1.4 9.7 1.7 10.9 3.1 1.2 3.9-3.1 4.6-4.8.7-1.7 2.2-8.2 2.2-8.2"/>
    <path d="M542.1 539.9c2.9 2.2 2.2 3.6 1.9 5.6M552.5 556.1c-1.2-.7-2.8-1.4-4.6 0-1.2 1-2.4 2.4-2.4 4.1 0 1.7.2 2.9 1.9 4.1 1.7 1.2 4.3 0 4.3 0"/>
    <path d="M546.9 560.5c2.2 1.4 4.4-.4 4.4-1.7.1-1.2-.7-2.3-1.9-2.4h-.5M544.8 552c1.2-1.4 3.1-.2 3.9 1M539.9 558.8a2.3 2.3 0 0 1 3.3-.5l.1.1M610.5 664.1c6.2.8 10.7-2.4 18.5 4 7.8 6.4 14 15.6 26.3 22.6a49 49 0 0 0 21.2 7"/>
    <path d="M616.6 667.6c5.4 9.4 2.5 2.1 8.9 18.3a114.2 114.2 0 0 0 27.1 43.5c12.3 13.4 34.1 5.9 37.9 8.3"/>
    <path d="M608.3 703.1c0 .6 2.2 14.3 4.4 17.1.7.9-.2.3 1.3-1.9 6.2-8.9 5-4.5 7.9-11.8 2.9-7.3 4.3-19.3 1.1-26.3M612.2 719.9c1.9 8.9 1.2 20.1 5.5 29.7M625.3 772.7c1.2 7 2.7 15.9 4.8 18.6 2.9 3.8 30.9-4.6 53.7-26 5.8-5.5 35.7-28.2 35.7-28.2M642.9 740.1c-4.5 4-8.7 8.3-12.5 13M715.1 667.2l1.4.6a39.2 39.2 0 0 1 12.9 14.8M648 666.2c8.5 6.2 4.6 11.7 17.2 7.2 7-2.3 14.2-4.1 21.5-5.3M622.8 664.6c9.5 1.6 12.1-3 17.4-1.7"/>
    <path d="M714.1 676.8a41 41 0 0 1 32.4 28c1.1 5.6-2.2 5.9-2.2 5.9s-4.8 5.1-14.5 14-33.8 18-45.9 16.6M695.6 679.1l5.5-1.2M730 767.9c-7.6 8.3-21.9 27.2-21.9 27.2s34.8 67 35.4 97.4"/>
    <path d="M745.5 710.8c5.4 3.8 8.4 15.9 7 21-1.4 5.1-3.6 4.2-3.6 4.2s-2.2-12.2-12.6 2.6c-8.9 12.7-12 20.9-12.3 29.3-.1 4.2 3.8-3.4 4.7-2.1M662 701.7c22 15.8 30.9 17.7 45.6 12.3 14.8-5.4 29.8-13.7 31.7-12.6"/>
    <path d="M727.9 759.8c0 2.7 16.6 63.2 19.2 66.4 1.9 2.3 44.8 66.4 44.8 66.4M605.8 849.8c-.5 1.8-4.7 16.5-5.9 21.5-4.6 19.2-4.6 29.8-4.6 29.8M630 791.9c-2.6 2-9.9 23.9-18.3 40.7M683 827.7c5.5 7.4 10.2 15.3 14 23.7M685.6 787.6c7.8 4 19.3 4.3 19.3 4.3M681 785.7l21.8-19.9M610.7 701.1a23.9 23.9 0 0 1 4 15.2M749.1 735.6l17 75.8c.8 3.4 26.6 52 26.6 52"/>
    <path d="M791.9 888.1c-.4 6.1 1 12.6 3 15.9.4.7.8 1.3 1.4 1.9M818.8 882c1.1.4 12.9 11.4 11.8 17.1-1.1 5.7-6.8 4.6-11 1.1-6.2-5.1-28.1-23.9-28.5-26.2-1.2-7.1.4-11.8 6.1-9.9 5.7 1.9 9.5 7.2 9.5 7.2"/>
    <path d="M805.2 877.8s11 11.4 11.4 10.2l64.9-194-2.3-29.2-22.4 24.7-51.6 188.3Z"/>
    <path d="M810.9 878.2c6.5-19.4 57.3-181.5 57.3-181.5M797.7 904.7c-1.1.8-7.3 9.6-5.7 13 1.6 3.4 6.1 8 8.4 4.9 2.3-3 4.2-8.7 4.2-8.7M798.5 886c.2 4.5 3 8.3 5.2 10.5 2.2 2.2 5.5 2.7 6.3 1.1.8-1.6.2-3.3-1.1-4.9-.9-1.2-1.7-2.5-2.5-3.9"/>
    <path d="M819.3 900.3c-.8.3-5.4.3-7.7.1-2-.2-9.6-1.8-10.4-3.5a5 5 0 0 1-.3-3.4"/>
    <path d="M816.9 900.6c.5 2-.4 4.7-2.6 4.9-3.6.1-7.1-.5-10.5-1.6-3.8-1.3-5.7-2.4-5.5-4.5.3-2 2.8-2.6 2.8-2.6"/>
    <path d="M814.4 905.6c0 2-.5 5.1-3 5.4-2.5.3-9.3-2.2-10.8-3.6s-3.8-2.8-3-3.9c.5-.7 1.1-1.1 1.9-1.4"/>
    <path d="M811.1 911.3c-.2 1.8-.9 4.4-4.5 3.3-3.6-1.1-7.7-2.9-8.8-4.5-2.1-2.8-.4-4.4 1.3-4.1M634.8 773.8l-.9 4.1v1.2c.3.7 1.2.7 1.9.6 3.5-.5 6.7-2.4 9.7-4.3a256 256 0 0 0 21-14.8M647.7 725.7c-3.2-1-6.5.6-9.3 2.5-6.1 4-11.7 8.8-16.5 14.3M664.9 736.9c0 2.8-2.6 4.7-4.9 6.3-7.4 5.1-14.2 11-20.3 17.6M652.6 709.7a48.4 48.4 0 0 0 53.2 23.5M612.5 831.4a53.2 53.2 0 0 0-7.9 17.7c1.3.8 3-.3 4.1-1.4l28.2-27.1M636.2 837c8.4-9.8 17.7-18.7 27.8-26.7.7-.6 1.7-.8 2.6-.6.7.1 1.2.6 1.3 1.3.7 2.6.7 5.4-.1 7.9-4.7 17.1-5.7 35-2.9 52.5M612.1 879.4c-.2 1.9.1 3.8.7 5.6a5.4 5.4 0 0 0 4.2 3.4c2.6.2 4.7-2.1 6.3-4.2l24.1-31.1M686.8 807.3c-1.1 3.2 12.7 16.8 15.1 19.1 2.4 2.3 5.5 3.8 8.3 5.7a38.6 38.6 0 0 1 13.5 17.1c2.9 6.8 4.5 14 5.7 21.3M627.4 814c5.3 1.8 11-.8 15.5-4.1s28-13.1 33.3-14.9M709.7 770.8a34 34 0 0 0-5.9 10.7c-.4 1.3-.8 2.7-.2 3.9.9 1.9 3.6 2.1 5.7 2M673.2 780.5a212.3 212.3 0 0 0 35.7-25.4M674.3 637.2c-5.5 6.8-12.4 10.7-16.1 10.9-6.4.3-7.2-5-10.9-8.7-4.2-4.2-3.8-5.8-3.8-5.8M695.3 614.5c-12.7.8-26.7 7-34.7 7.4-8.1.4-18.3-.5-21.3 2s-5.9-2.6-5.1-9c.8-6.4-4.2-6.8.4-9.8 4.7-3 7.6-4.7 14.4-4.2 6.8.4 21.2-.8 32.7.8 11.5 1.6 13.6 2.1 14 3.4.4 1.3 1.3 1.3 1.3 4.7 0 3.4-1.7 4.7-1.7 4.7Z"/>
    <path d="M696.3 607.1c5.9-2.1 7.5-3.6 8.7 1.5 1.3 5.1 5.9 8.9 5.9 8.9s-5.5-1.7-8.9-3c-2.2-.9-4-2.6-5.1-4.7M704.3 623.5a19 19 0 0 0 3.6 1.6l-5.9-10.6M636.8 603.5c-.2-1.1-.2-2.2.1-3.2"/>
    <path d="M670.1 585.2c-.9 1.6-3.7.7-4.3 1.9-.2.3 0 1.2-2.2 3.2-5.7 5.2-9.2 5-15.8 6.4a36.9 36.9 0 0 0-17.9 7.9c1.9-13.6 8.1-13.6 9.8-17.4 0 0-2.5 0-9.6 9 1-5.5.1-12.3 8.9-16.5 14.1-6.9 10.2-8.9 19.1-9.3 8.9-.4 18.2-4.2 25.5 3.4 7.2 7.6 11 5.9 11.5 14.4s3.5 9.9 3.3 11.8c-.5 5.3-2.5 5.2-2.5 5.2"/>
    <path d="M663.4 590.4a21.6 21.6 0 0 1 6.6 10.5M675.4 618.6c.4 6.8.4 2.7 4.2 11.6 3.8 8.9 3 11.5 1.3 19.5-1.7 8.1-1.3 25.5-.8 18.7.5-6.8 6.4-26.7 6.8-22.5.4 4.2-3 19.1 3.8 35.6s14 21.6 14 21.6-5.9-14.4-8.1-20.8a60.1 60.1 0 0 1-3-16.5c.8 2.2 8.1 14.4 15.3 21.6 7.2 7.2 14 18.7 14 18.7s-8-19.9-8.8-26.7c-.8-6.8 3-13.1-3.8-25S698 634.9 698 634.9"/>
    <path d="M692.7 614.5c.2.5 1.1.8 2.4 1.6 4.2 2.5 7.8 5.8 10.9 9.6 7.7 9.3 7.9 15 9.2 27.3 1.3 12.3-1.3 19.9-1.3 19.9M638.4 624.4s2.8 8.3-4 20.4c-6 10.8.7 12.1.3 17.6M640.5 655.3c-.8 13.6-2.1 5.5.4 17.8a57 57 0 0 0 1.8 6.8c.1.4.5.6.9.4.3-.1.5-.4.5-.7 0-2.4.3-4.7 1.1-6.9 3-9.8 2.5-3.9 5.5-10.2 4.9-10.3 3.7-14.6 3.7-14.6M649.1 630.7s-9.4 5.9-8.8 1.1c.9-6.1.7-8.5.7-8.5M646.9 636.8c.9.6 2.7-1.1 6.1-1.5 2.1-.3 4-1 5.7-2.3M634.5 611.9a16 16 0 0 1 6.6-2.4c2.4-.2 4.7-.3 7.1-.2M657.5 615.1c5.8-1.2 12.1.7 17.7-1.1 3-1 5.9-3.1 9.1-2.7M679.2 606.7c6.8-.6 11.5-.3 17.9 2.3M649.5 639.8c1.2.1 2.4-.2 3.4-.7M544.6 556.6l.5 55.3 3.8-.4-4.3-54.9ZM553.3 614.8c-.6-3.8-2.5-6.9-4.4-6.9"/>
    <path d="M544.8 607.9c-3.4.9-4.6 10.5-4.1 14.4.6 5 3.7 7.9 7.5 7.9s5.2-3.3 5.7-6.6c.3-2.1.3-4.2 0-6.3"/>
    <path d="m540.2 619.9-16.7 2.8s.3 6.1-1.9 4.8c-.8-.5-2-3.1-1.7-7 .2-3.1 1-5.6 2.3-4.6.7.6 1.1 5.1 1.1 5.1 1.4-.5 8.7-2 17.5-3.7M547.1 616.1l30-5.6s1-9.1 2.4-7.6c1.4 1.4 2.9 9.5 1.4 12.4-1.4 2.9-4.3-1.9-4.3-1.9l-29.5 5.3M487.7 762c1.4-2.4 33.9-134 33.9-134l31.1 130"/>
    <path d="M513.8 752.2c0-1.9 8-124.6 8-124.6M553.3 766.1c-4 4.7-17.5 8.8-32.7 8.8-18.3 0-33.2-5-33.2-11.2 0-6.2 14.8-11.2 33.2-11.2 13.7 0 25.5 2.8 30.6 6.9"/>
    <path d="M492.1 764.2c15.5-4.5 37-6.6 54.3-.3M639.3 761.4c0 4-5.6 7.7-14.4 10.2-7.8 2.2-18.2 3.6-29.6 3.6-24.3 0-44-6.2-44-13.8 0-7.6 19.7-13.8 44-13.8s44 6.2 44 13.8Z"/>
    <path d="M560.8 762.9c22.1-5.7 49.5-6.1 70.9 1.9"/>
    <path d="M551.7 761.3c0-2.4 27.9-145.4 27.9-145.4l59.3 143.2M580 748.8l-.5-132.7M547.5 615.1c-.7 1-.7 4.1.4 4.4 1.2.3 1.6-1 1.6-1M809 896.9c.2-.6-.4-1.2-.7-1.7-.4-.5-.4-1.5.3-1.6M801.2 902a2 2 0 0 0 2.2-1.7v-.7M800 906.4c.8-.2 1.3-.9 1.2-1.7M798.5 910.2a3 3 0 0 0 1.5-1.6"/>
  </g>
  <g opacity=".8" stroke="#333" stroke-width=".7" stroke-miterlimit="10">
    <path d="M691.4 174.4a235 235 0 0 0-52.7 22.3l-26.3 18.4-3.4-6-3 8s-9 6.4-8 6.4c1.6.2 3.3.6 4.9 1.2 0 0-1.9 9.8-1.2 8.6a26 26 0 0 1 7.2-6.4h7.1l-1.2-6.4s23.7-21.1 32.8-26c9-5 43.8-20 43.8-20ZM617.7 191.4s-5.7 6-4.6 5.3c1.2-.7 8.6-4.1 8.6-4.1l3.4 5 1.6-6.9 5.6-1.5-6-2.7-1.2-4.9-4.9 5-7.5.6 5 4.2ZM631.2 168.5l-1.5 6.3 6-5 7.5 4-1.9-6.5 5.3-3.7-8.2-.9-3.4-4-2.4 5.2-7.8 1.2 6.4 3.4ZM654.5 153l-.8 5.6 6.1-2.5 6 4.4-1.9-6.4 5.6-2.3-8.2-2.2-4.2-6-1.5 5.7-7.1-.5 6 4.2ZM683.8 151.8l-1.5 5.3 5.4-1.5 4.8 4.6-.7-7.2 3.4-1.2-6.1-3-2.3-5.2-1.8 4.2-6-.9 4.8 5ZM707.2 152.2l7.2.5.7-6.1 2.7 5.6 5.6-.3-4.2 4.2 2.3 4.8-5.6-2.3-5.7 3 2.3-5.2-5.3-4.2ZM740.7 151.8l-1.9 6.5 6-5h5.3l-2.2-3.7 5.2-4-6 1.8-1.6-4.2-3.3 5.6-6 1.5 4.5 1.5ZM727.5 171.9l3-6.5 1 4.5 6.5-1.9-4 5.7 1.8 5.7-6.4-2-4.5 5 1.5-5.7-5.2-3.8 6.3-1ZM713.5 193.3l2.7-5.3 2 5.3 7 .7-5.2 3 1.9 6-5.7-4-6 3.7 2.6-5.7-5.2-4.5 6 .8ZM690.3 204.9l6.7 2.3 2-5.2 3.7 6.6 6.4 2-5.7 2.6 3 5.6-6.8-3.7-6.3 1.8 1.9-6.7-5-5.3ZM665.8 212.9l6.4 1.5 3-5.8 2.3 7.3 6.3 1.9-5.6 2.9 3 6.4-7.1-4.9-6.1 3.4 2.7-7.5-5-5.2ZM643.6 214.7l3-6.4 2.7 6.4h7.1l-6 4.1.7 8.3-5.6-4.9-6.4 5 2.2-7.2-5.6-5 8-.3Z"/>
    <path d="M786 113H562.6v149.5H786V113.1Z"/>
  </g>
</svg>
