<svg width="925" height="1000" fill="none" xmlns="http://www.w3.org/2000/svg">
  <path d="M651.4 238.6c95 46 188.8 124 196.5 229.2 1.6 21.3-.7 43.3-10 62.5-8.6 17.5-22.4 31.7-36 45.6l-243 248.3c-16.3 16.8-33.3 34-54.7 43.6-21.1 9.6-45 11.1-68.2 12-43 1.5-86 1.2-129-.9-42.2-2-88.5-7.8-117-39-30.8-33.5-30-84.2-31.3-129.8a807.8 807.8 0 0 0-50.4-259.2C90 401.7 66.4 349 81.3 298.7c16.2-54.4 72.5-86.8 127.2-101.6 66.7-18.1 140.8-41.4 208.7-31.5a808 808 0 0 1 234.2 73Z" fill="#EAF7DF"/>
  <g opacity=".8" stroke="#333" stroke-width=".7" stroke-miterlimit="10">
    <path d="M288 522a577 577 0 0 1 53.6-.1c5.5.2 15.7-1.3 20.8-1 4.5.2 4 2.3 8 2.6 19.1 1.5 33 3.1 36.5 3.8 7 1.5 13.8 4.1 19.8 8 7 4.3 4.8 7 8.5 11.3 3.8 4.3 31.6 20.8 38 22.5 6.6 1.6 48.7 16.5 62.1 17.1 13.4.6 34.8 1.1 47.7-2.7 12.8-3.8 15-4.8 27.8-10.1s36.4-5.9 28.4-15.6c-8-9.6-21.4-8.5-37-15.5-15.5-7-24.6-7.5-6.4-12.3 18.2-4.7 29-4.8 39-4.8 10.2 0 27.3-3.3 39.7-5.4 12.4-2.1 36.4 0 36.4 0"/>
    <path d="m420 605.1-9.6-1.3c-14-2.1-11.2-5.4-16-13.4-4.9-8-12.9-5.4-8.6-8 4.3-2.6-2.9-3.5-2.9-10.4 0-4.3-4.3.6-5.2-5.3-.3-2.4 6.7.6 13.6 0 7-.5 6.1-2 5.6-7.3-.6-5.3-6.8-8.5-13.3-9-6.4-.5-4.8-3.7-8.5-3.2-3.7.6-8.6 0-7-3.1 1.6-3.2 5.9 0 7-5.4 1.1-5.4-2.7-2.7-7.5-3.8-4.9-1 1.5.6 8.5-4.2 7-4.9-13.5-3.2-19.2-3.2-4.3 0-17.2 2.7-25.7 1.1-8.6-1.6-12.9-4.3-21.4-3.7-8.6.5-22.5-.6-31-.6h-19.3M737 518.7s-14 .5-18.3 0c-4.2-.6-14 3.1-26.2 4.3-12.3 1-14-1.1-28.4 1-14.4 2.3-17.6 1.2-25 3.2-7.5 2.1 2 4.9 1 11.3-1.2 6.4 8.5 4.8 18.6 12.3 10.2 7.4 10.2-3.2 17.7-2.2s12.9-.5 30.5 3.8c17.7 4.2 17.7 5.8 23.6 10.6 5.8 4.9-5.9 3.8-8 12.3-2.2 8.6 9 6.5 3.1 12.3-5.9 5.9-40 14-50.8 15.6-10.7 1.6-19.2 2.2-25 5.9-6 3.7-33.3 0-40.7 1.6-7.5 1.6-34.8 4.3-40.7 6.4-5.9 2.1-17.7 0-29-1.1-11.2-1.1-47 2.1-60.4-2.2-13.4-4.2-11.3 0-23 2.2-11.7 2.1-11.8 1-16.5-4.3a18.3 18.3 0 0 0-9.8-5M481.4 507.1c6.1-.6 11-1 21.6-1.2 18.7-.5 23 5.3 49.3 5.3M296.5 508.5c39.6-2.1 63.1-1 76-1.6 12.8-.4 2.1 2.7 28.3 1.6 26.3-1 40.2 2.7 61.6.6l12.9-1.4"/>
    <path d="M537.9 514.4c33.7-5.4 31-9.1 48.2-8.6 17 .6 19.2 4.3 40.6 2.2 21.4-2.2 27.3-5.9 52.5-1.1 25.2 4.7 58.9 6.4 65.9 5.8 7-.5 11.2-.5 32.6-.5 12.5-.1 25.1 1 37.5 3.2M621.3 526.7a8.3 8.3 0 0 1 3-5.5M389.6 555.5c-.4-4.3.5-8.5 2.7-12.3M390.7 558.9c.5-4 2-7.8 4.6-11M391.8 562c1-1.9 2.9-3.5 5-3.8 2.3-.2 4.7 1.5 4.7 3.7M384.8 557.1a32 32 0 0 1 2.4-13.9"/>
    <path d="M386 561.5c.6-5.2 3-10 6.8-13.4M389.6 561.2c2.3-3.5 5-6.9 7.8-9.9M384 554.4c-1-2.3-1-5-.3-7.3.8-2.4 2-4.7 3.4-6.8M391.3 563c3.5.8 6.3 3.3 7.3 6.6M388.3 564.6c4 1 6.8 4.4 6.8 8.4M423.5 532c-2.2-.6-4.5.5-5.2 2.8v.4M412.7 534.1c1.4-2.3 4-3.8 6.7-4-3-2.2-5.5-4-8.8-2.5M427.2 534.9a19 19 0 0 0-5.1-6.1 58.6 58.6 0 0 1-6.8-5.8M428.8 538c-1.5-.5-3.1-.6-4.7-.5-1.6.4-3.1 1.5-3.3 3.1M430 535a33.5 33.5 0 0 1-4.7-8.3M435 538.2c0-2.3-.2-4.5-.8-6.8M436 540.5c0-1-1.5-1.5-2.6-1.6-2.6-.2-5.3 0-8 .3M437.6 546.1a9 9 0 0 0-9.4 1.2M402.3 528.4c-.6-3.4-3-6-6.2-7M394 527c-2-2.5-4.5-4.6-7.1-6.3M405.5 526c-1.2-3-2-6-2.4-9.1M406.9 530.7c-.1-4.4.2-8.8 1-13.1"/>
    <path d="M438 554.1a118 118 0 0 0-2-13.9M442.5 555.1c-.4-4.2 0-8.4.8-12.5"/>
    <path d="M440.2 548.6a5.5 5.5 0 0 0-4.8-1.3 17 17 0 0 0-4.8 1.7M446.8 556.8c.1-5.2-.1-10.4-.6-15.5"/>
    <path d="M452.8 557.2c-3.2-1.4-7-1-9.7 1.3M451.5 551.3a16 16 0 0 0-14.6 6.9M454.6 557.7c-3.1.4-5.4 3-5.4 6.1M457.7 559.2a7.8 7.8 0 0 0-3.4 7M389.3 592.3c2.7-4.5 7.6-7.3 12.8-7.1M392 594.7c1.7-2.9 4.5-4.8 7.7-5.4M386.1 598.4l4.1-19.3M381.2 593c.6-8.1-1.3-16.2-5.5-23.3M383.4 593.3c.5-5.3 2-10.4 4.6-15.1"/>
    <path d="M390.3 598c-1.3-6.9.8-14.1 5.8-19.2M393.6 604.8c-.4-4 1-7.9 3.8-10.7M397.8 606.6c.4-3.7 1.7-7 4-10 2.1-2.8 4.6-5.4 7.3-7.8M405.1 607.8c0-3.8 1.1-7.6 3.1-10.7M377.8 551c2-2.4 4.4-4.6 7.1-6.4M373.7 549.7c2.5-2.7 5.4-5 8.5-6.8M463 619.4a45 45 0 0 0-1-13.9M466.4 616.3v-8.5M458.3 618.4c-.2-2.5-.9-5-2-7.1M451 619.4a7 7 0 0 0-1-8M454.4 622.7c-1.4-2.7-1.3-6-.8-9 .6-3 1.7-5.9 2.1-9M459.3 619c-.1-2.6.4-5.1 1.7-7.4M447.1 619.4a43.1 43.1 0 0 0-4-16.2M492.8 618.4l1-6.1M519.6 581.1a10.2 10.2 0 0 0-2.8 7M525 580.8l.3 6.1M535 581.9c-.8-4-2.4-7.8-4.7-11.2M538 590.3l.8-18.3M544.1 587.2l3.1-13.1M555.6 592c.6-7.4-.1-14.8-1.9-22M561.5 590.3v-26.8M568 589.3v-24M577 560.3l1-3.9M572.3 588.9c.5-7 1.5-14.1 3-21M578.7 587.5l2.7-21.9M552.5 554l-1-2.6M564.1 593.3c-2.4-10-5.2-20-8.4-29.7M566.3 592.6l-1.9-29.4M554.4 592.4l-3-19M546 595a72 72 0 0 0-1.8-16M561.8 594.7v-10.2M588.6 592c.8-9.2 2-18.3 3.4-27.4M601 582.6c2.6-6.9.4-14.7 2.4-21.7M610.9 576c.8-7.5 1.4-15 1.6-22.6M614.8 576.4c2.6-7.2 4.5-14.7 5.5-22.3"/>
    <path d="M605.7 576c-2.7-11.8-4.3-18.6-6-30.7M608.9 579.8c.6-7.5 0-15-1.8-22.3M596.7 580.8c-2.6-9-4.8-18.1-6.8-27.4M596 588l1.2-28.8M613.3 582.5c2-3 3.4-6.5 3.8-10.2"/>
    <path d="M599.5 572c-1.2-2 .4-4.3 2-6a61 61 0 0 1 7.5-6.7M585 580.4c1-6.3 2.6-12.6 4.9-18.5M590.6 578.2c2-1 4.3-.7 6 .6 2.5 1.9 3.2 5.1 3.6 8.1"/>
    <path d="M593.1 572.5a8.1 8.1 0 0 1 13 5M585.4 577.7a49.1 49.1 0 0 1 11-15M582.1 579.8c-1.1-5.2-3.3-10-6.3-14.3M619.7 568c3.4 1.9 6 5 7.1 8.7M624 566c2.8-1.1 5.9-1.3 8.7-.4 2.9.9 5.6 2 8.2 3.5M624.3 560.5c4.5-4.8 10-8.6 16-11M639 560c2.4-.9 5 .3 6 2.6l.2.6M674.1 606.8l-.5.9c2-5.8 5-11.2 8.6-16.2M679.7 606.2c.7-4.1 3-7.9 6.3-10.4M666.7 608.6c.1-3.2 0-6.4-.7-9.6M661.7 608.8a21.2 21.2 0 0 0-5.7-5.6c-.4-.4-1.3-.7-1.6-.1M700.4 600.5c-1.4-2-2.8-4-4.9-5-2-1.1-4.9-1.2-6.6.5M709.2 596.8a10.5 10.5 0 0 0-6.6-5.3M712.3 556.8 710 541M715.4 558.5l.3-13.2M709 555.8l-4.1-20.6M712.2 562.5a72.7 72.7 0 0 1 6-30M701.5 554.4c-.1-3.7-1-7.3-2.4-10.8M722.4 559.4l4.3-8.7M726.6 561.9c1.6-2.2 3.5-4.2 5.4-6.1M728.6 579.5c-4-1.8-8.7-1.3-12.2 1.2M728.6 588a7 7 0 0 0-6.5-3.1M722.9 594.7l-2.1-5M736 583.5a37 37 0 0 0-7.4-7.8c-3-2.1-6.9-3.3-10.3-2.2M735.4 590.6l-10.9-22.3M737.1 583.2c-.8-5.2-1-10.6-.1-16M742.8 577.4l4.4-8M733 574a39.2 39.2 0 0 0-6.1-9c-.8-.9-1.8-1.8-3-1.8M559.8 594.1l-1.2.5-.3.3c0 .2.3.4.6.4h5.1M567.5 591.8c.5-.2.9.4.6.9-.2.4-.7.7-1.1.8-1 .3-2.1.4-3.1.3M573.3 588.8c.4 0 .6.5.4.8-.2.3-.5.5-.9.6-1 .3-2 .3-3 .1M580.2 586.4c.2.5.2 1-.2 1.4a3 3 0 0 1-1.4.6c-1.4.3-2.8.3-4.3-.1M536.2 589.4c-.3 0-.6 0-.9.2-.2.2-.3.5-.2.8 0 .2.3.2.4.3.7.3 1.5.7 2.3.8M544 594.4c-.5 0-.6.7-.3 1 .3.3.7.6 1 .6 1.3.1 2.5 0 3.6-.5.4-.1.8-.4.7-.8-.1-.1-.2-.3-.4-.3-.6-.4-1.3-.4-2-.4M523 587c-.2.8.3 1.6 1 1.8a5 5 0 0 0 2.5.1M529.2 587.2c.4.7 1 1 1.8 1 1.5.3 3 .4 4.4.3M538.7 596.7a23 23 0 0 0 12 2M555 594.8a1 1 0 0 0-.5 1c.2.5.5.9.9 1 1.1.7 2.4 1 3.6 1 3.3.3 6.6.2 9.9-.2M570 593.6c1.9-.5 3.9-.7 5.8-.8M584.5 586a2 2 0 0 1 .6 2.7c-.5 1-1.3 1.6-2.4 1.7-1 .2-2 .2-3 0M586.3 591.7c-.5 0-1.1.4-1 .8 0 .5.7.7 1.2.7 1.5 0 3.1-.1 4.3-1M593.4 588.6c-.1.1-.1.5.1.6.3.2.5.2.7.2l3-.1c.6 0 1.2-.3 1.5-.8M598.1 586.8l2.1.6c.8 0 1.6 0 2.2-.6M611 581.9c-.1.3 0 .7.2.9l1 .4c1.8.3 3.6 0 5.2-.6"/>
    <path d="M618.5 572.6a46.6 46.6 0 0 0 8.3-1l6.3-1.2M632.1 569.6a85.3 85.3 0 0 0 11.5-4c.4-.5.6-1.1.3-1.7M657 553.6c2.1 1.5 4.4 3.1 7 3.5a10 10 0 0 0 6.5-1.4M670.7 553.6a10 10 0 0 1 5.3-2 28 28 0 0 1 5.8.1M590.7 536c-.7-.2-1-1-1-1.6.2-.4.5-.7.9-.9a35.4 35.4 0 0 1 11.5-3.2M618.2 528.7c-2.3-.6-4.7 0-6.5 1.6M597 536.6c-3-.9-2.2-2.1.8-3.5s12.5-1.4 12.5-1.4M552.7 591.6c-.3 0-.7 0-.8.5v.3c1.6.3 3.2.3 4.8 0M558.9 591.6l.5.8c-1.5.9-3.1 1.3-4.9 1.2M460.3 565.2c6.6 5.3 30.4 14.7 39.6 15.5M431.4 603.2c3.1 1 6.1 2.3 8.8 4.3 2 1.5 4.2 3.5 6.6 2.9M419.4 600.8l8 1.3M484.4 611.2c5.6 1.6 11.5-.7 17.4-1.1 9.3-.7 18.4 3.8 27.6 2.3M380.9 528c-2.8 4.9-6 5.2-6 5.2M398.7 554.4c2.8 1.5 7.7 6 3.2 11.5-4.5 5.6-13.3 5.2-16.4 4.5M390 529c8 1 22 1.4 26.9 11.5 4.9 10 21.6 21.6 21.6 21.6"/>
    <path d="M402.6 538.4c11.9 9.4 21.3 25.9 36.3 32.1a355 355 0 0 0 46.4 14.3c11.2 2.8 37 9.7 37 9.7"/>
    <path d="M438.2 583.4c27.6 4 37 15.4 61 17.9 24.2 2.4 45.4 5.9 56.6 9.4 11.2 3.5 52.7.3 61.4-7.3 8.7-7.6 7.7-4.5 25.1-9.4"/>
    <path d="M603.9 599.4c13-7.2 9.6-12 39.5-14.6 26.8-2.5 64.6 2 68.4-11.5M626.2 531c-12.2 4.2-12.9 7.3-8 10.5"/>
    <path d="M666.4 573.3c.4-5 2.5-8.7 10.5-8.7s10.8-9.5 14.6-3.2c3.8 6.3 6.7 7.3 6 10.5-.7 3.1 1.4 3.5-9.4 5.2-10.9 1.7-21.8-1.7-21.7-3.8ZM664.2 570c-1 .4-2 1.2-2.7 2-.7.9-.7 2.2 0 3.1 1 1 2.7.6 3.5 1.7"/>
    <path d="M666.8 565.3c-8.4 2-14 5.5-9.8 10.4 4.2 5 18.1 5 19.2 5M684.6 579.2c9-.3 24.8-3.5 22-7.7-2.5-3.8-7.1-5.8-11.6-4.9M552.5 553.7c-1.2 1.5-.4 3.2.5 5.4 1 2.2 1.5 5 3 4.3 1.4-.7-1.3-4.1-1.5-6.4-.4-3.5-2-3.3-2-3.3ZM576.8 559.9c-2-.3-1.1 1.3-2 3.2-.7 1.8-1.3 4.8.5 4.8 1.7 0 1.5-1.5 1.7-3.3.1-1.9.9-4.6-.2-4.7ZM474.5 499.5c.4 8.5 1.5 19.8 2 28.4M482.3 501.2c-1.3 8.2-1.2 20-.6 28.4"/>
    <path d="M475.7 492.5c-4 .3-4.6-1.2-4.8-4-2.4-2.2-4.2.5-5.5.4l-6.5-1.3c-1.2-.1-3.8 1.4-4.6.8-.8-.5 0-2.6-3.2-2.3-3 .6-.3 2.5-1.5 2.8-1.2.3-3.4-1.3-4.3-2-2.1-.9-.3 2.1-1.7 2.6-1.3.5-2.5 1.7-1.5 2.6l4.1.7c-1.3-.3-2.8.6-2.5 1.6 3.4.5 2 2.1 5.4 2.7 1.3.3 3.6 2.4 5.6 1 .8-1.1 2.5 1 4.7 1.4 2.8.4 3.5-2 4.5-2 1-.1 2.3 2.3 2.8 3 2 .1.8-3 1.5-3.2.7-.2-.8 4.4 1.8 4.3 1.9-.8-1.2-6 2-5.8.6 0 .4 2.8 2 3.6 2.1.5 2.2-1.7 3.5-3.2l1.6 1c.7.9 1.5 4.4 5.4 5 4 .5 8.8 0 9.5-1.8.7-2 0-3.3 3.4-3.8 3.5-.5 4.9-2.6 4.9-2.6 1-.4 1-1.2 1.5-2 .5-.7.4-1.8-.3-2.3l-.5-.3c2.4-.3 3.5-2 2.8-3.8-.7-2.6-1.9-5.5-6.5-2.7-.6 1-6.8 1-8 1-1.1-.2-2.6.3-2.5 1.1M497 480.7c6-.4 2.4-3 3.7-3.3 1.3-.3 4.2 2.7 5.2 1.9.3-.2.3-.4.3-.7.1-1.5.8-2.2.4-4.2.2-2.8-1.9-4.8-3.4-5.6 1.5-.8 2.7-2.4 1.4-3.4a3.4 3.4 0 0 0-3.7.2c-.7.7-1.1 1.7-1 2.8-1.3-.2-3-3-3.9-.4l-.5 2.9c-2.4.1-5-1.5-5-3.3 0-1.7 2.5.7 3.6-1.6-.1-.6 6.9-2.7 8.2-3.3 2.8-1.6-2.1-3.3-1.3-3.4 1 0 4.3 0 3-2.8-3-1.8-5.6-.1-5.8-1-.3-.9 8.8-4.2 5.2-5-1-1-4.8-5.1-5.9-4.4-.8.7-1.4 1.8-1.5 2.9-1-.2-2.9-1.9-2.8-2.6 0-1-2.2 1-2.2-.3-.1-1.2 1.2-2 2.6-2.4 1.3-.5 3.2-.3 3.6 0 3.8 3.4-.7-5.5-3.5-6.8-1.8-1-1.5 1.6-2.9 1.7-.6-.6-6.2-.2-4.9 1.1-.2 1.3 5 2 4.7 3.3"/>
    <path d="M500.5 482.4c-.4-.1-3.2-1.4-3.7-1.4-1-1.2-1.4-2.6-.9-3.8 1.6-3.2 2.7-5.4-4-2.7-1.3.6-3.2 2.5-3.3 1.2-.6-.7-6.1-6.5-6-5.4-1.3-.1-2 2.3-2.4 4.6-1.6.8.2 3.2-.6 3.8-.8.5-2-.8-2.4 0-.5 1.2.8 2.6 2.5 3 1.7.5 3.5 4.2 3 4-.6.3-.5.9 0 1.3l1.5 1c.7.4 1 1.4.6 2l-.2.3c-.9.7-2.1.9-3.2.5M460 487.7c-1.5.2-3-.5-4-1.7s-1.2-4-.2-5.1c-2-1-2 3.6-4.6 3-1-.3-2-2.8-2.6-3.4-.8-.9-2.5-1.1-4-1.4-1.3-.4-3-1.3-2.4-2.3-1-.2-1.3.7-2 1-1 .6-3-.2-3.2-1.1-.3-1 .7-2 2-2.3a12 12 0 0 1 4-.3h1.4c4.7-1.4-5.4-5.4-5.6-6-.4-1.1 2-1.9 1.4-3-.6-1.1-3-.5-4.3-1.3-.7-.5-1-1.3-.8-2.1 0-.7.4-1.4 1-2a3 3 0 0 1 2.6-.4c.7.4 1.2.8 1.7 1.4.5.4 1.6.8 2.1.4.4-.7 1.8-2.3 2.2-3.1.3-.8 2.9-2.3 3-3 1.4-1.5 2.3.4 3.3.3 1-.2 2.2-1.5 1.7-2.3 4-5.6 8.5.5 8.4 3-.3 1.4-2 5-1.8 6.4 0 .3.2.5.3.6"/>
    <path d="M470 477.3a4 4 0 0 0 .6-4.5 4.1 4.1 0 0 0-3.3-2.3c-1.5-.2-5 1.7-5.8.8-.4 0-2.8.2-2.9-.6 0-.8.4-1.5.3-2.3-.1-1.6-3.5-1-5.4-.4.5-.2-1-5.4-5.4-.7l-.8 1.6M486.2 458.8c1.6-1 3.2-2.2 3.3-4 0-.9-.4-1.7-1.2-2.1-1.5-1-3.3-.6-4.8-.3-.5.2-1.1.1-1.6 0l-.6-.7-3-4.3c-.2-.4-.4-.6-.7-.8l-1.2-.2c-2.2 0-4.3.9-5 2.2v1.3c-1.4.2-2.9-.4-3.8-1.5-.7-.9-.9-2-.6-3.1 0-.3-.8-1.4-1.2-1.5-.8-.3-3.5-.1-3.6.1-.2.6-1.4.8-2 .4-.8-.4-1.3-1.6-5.1-2.4-3.2-4.2-6.2 3.7-7 4-.6 0-.9.5-.8 1l.2.5c.8 1 2.4 1.2 3.6 1.9 1.7.8.7 2.6 2 3.7"/>
    <path d="M489 438.3c-.4-.5-1.3-.7-1.8-1-1-1 2-3 .8-3.2-6.3-1-7.1 4.5-9.6 2.6 2.2-2.8 2.6-5.8.1-6.1-.3 0-.3.6-.7.7-.5.1-1.1-.2-1.7-.3-1.4-.4-3.4-.7-3.6.3-.2 1-3 1.3-2.5 2.3-2.3-1-3.4 1.8-1 3.4.8.5 1.1 1.2.7 1.6-.7 1-2.4 0-2.8-1-.5-.8-1.6-1.8-2.6-1.4-.7.6-1 1.5-.8 2.4l-1.4 1.9c-.4.5-.8 1-.6 1.7.1.6.6 1.6 1.2 1.2M610 620.8c-.4-.2-1-.4-1.2 0v.6c.3 1 .9 1.7 1.8 2.2.2.2.5.2.8 0 .2-.1.3-.4.2-.5l-.1-1.5c-.2-.4-.5-.8-1-1M609.8 620c.3-1 1.2-1.6 2.2-1.4l.4.2.5.3c.4 0 .8 0 1 .2l.3.4.3-.1c1.1-.3 2.3-.1 3.2.7.8.8 1.3 1.8 1.6 3 .2.5.3 1 .2 1.6-.1.5-.6 1-1.2 1a2 2 0 0 1-1.3-.7 6 6 0 0 1-1.8-2.4c0-.2-.2-.5-.5-.5"/>
    <path d="M611.4 620.3c2.4-2.6 5.3-5 8.6-6.2a3 3 0 0 1-.7 2.3l-1 .8a13 13 0 0 1-6.5 3.3v-.1h.1M613 621.7c.6.9.6 2 .6 3.2l-.1.2c-.1.2-.3.1-.5.1s-.3.2-.2.3c.4 0 .8-.2 1-.6l.3-1.2c.2-.9.3-1.9-.5-2.4M616.4 624.3c.5-1 1.5-1.6 2.5-1.6M617 625.2c.5-.8 1.4-1.2 2.4-1.2M615.5 623.3c.3-1.1 1.2-2 2.4-2.2"/>
    <path d="M614.8 622.2c-.4 0-.8 0-1-.3a2 2 0 0 1-2.1.3l.7 1.7c0 .4-.1.8-.4 1 .5-.6.7-1.5.5-2.3M610.2 621.9c-.1-.3-.4-.4-.6-.5-.2 0-.6.2-.5.4l.1.3c.2.3.3.4.6.5.2 0 .5 0 .7-.2 0-.2 0-.4-.2-.7l-.6-.3M611.9 618.4c1.7-1.8 3.7-3.2 5.9-4.4v.9M615 622.3c0-1.1.9-2 1.9-2.5M614.2 621.8c-.5-.6-.4-1.5.2-2l.2-.1M502.4 532c.2-.2.5-.4.8-.2v.3c0 .5-.2 1-.6 1.5-.2 0-.3.2-.5.1l-.1-.3-.2-.8c0-.2.2-.5.4-.6M500.2 532.2l-1-.4c-.6-.1-.8.4-1.1.9-.3.5-.5 1.2-.5 1.9 0 .3 0 .6.2 1 .1.3.5.4.8.4l.5-.6c.3-.5.6-1 .6-1.6l.2-.3M502.4 531.4c-.3-.4-.9-.7-1.4-.4l-.2.1-.3.3"/>
    <path d="M501.6 531.8a14.8 14.8 0 0 0-5.7-2.2 1.9 1.9 0 0 0 1.3 1.5c1.3.6 2.7 1.1 4.1.9M500.9 532.9c-.3.6-.2 1.2 0 1.9l.1.1h.3s.2.1.1.2c-.2 0-.4 0-.6-.2a2 2 0 0 1-.4-.6c-.2-.5-.4-1 0-1.4M499.2 535.4c-.4-.3-1-.5-1.5-.3M499.7 534c-.4-.5-1-.9-1.7-.8"/>
    <path d="m500 533.3.6-.3c.3.2.8.2 1.1-.1l-.1 1c0 .2.1.4.4.5-.4-.3-.6-.7-.6-1.1M501 530.8c-1.3-.7-2.7-1.3-4-1.6v.5M500.2 533.1c.3-.4.1-.9-.3-1l-.1-.1M692.9 571.4c.2-.2.3-.4.3-.7.1-.5-.5-1.3-.5-1.5 0-.3-2.3-2.3-2.6-2.6l-1.3-.8-1.4-1-1.6-1c-.1 0-.4-.6-.8-.6s-.6.3-1 .5c-.2.2-.8 0-1.1.2 0 0-.3.1-.2.8.2.6.4 1.1.8 1.6.2.4.7.6.7 1l.2 1.2.9 1.2"/>
    <path d="M688.3 572.4a17 17 0 0 1 4-1.1c.5 0 1 0 1 .6 0 .4-.3 1-.7 1.2-.6.3-2 1.6-2.6 1.8l-2.3.1c-.5 0-1.6.6-1.5.3.1-.2 1.3-.4.8-.6h-2.4c-.4 0-.8 0-.3-.1s2 0 1.8-.1l-.6-.2h-.8l1-.1h.7c-.3-.1-1.5-.3-1-.3h1.2"/>
    <path d="M690.6 570.6c-.9 0-1.7.3-2.3.9-.6.4-1 1-1.4 1.8-.1.4-.2.8.1 1 .3.3.4.4 1.7 0 1-.1 1.9-.6 2.7-1.3M689.6 566.2c.1-.6.1-1 .4-1.2.2-.1.4-.2.8-.1.3 0 .7.7 1 1a6.3 6.3 0 0 1 1.9 3M691 565.6l.2 1.4"/>
    <path d="M693.1 570s.4.5.7.5c.3 0 .5-.3.6-.5v-1.2a10 10 0 0 0-1.2-2l-1.3-1M686.4 569c0 .3.4.8.4 1.2v.6c-.6.7-1.1 1.3-1.8 1.8-.6.2-.7.4-.9-.1-.1-.5-.3-.2-.5-.8-.1-.6 0-.5-.3-.7-.3-.2-.8-.5-.5-.4.3 0 .8.8.8.5 0-.2.1-.6 0-.8-.2-.1-.4-.3-.2-.3.1 0 .3 0 .4.4l.2.9.1-.9v-.3l.2.6c0 .4-.1.7 0 .8.2.2.4 0 .4-.2.1-.2.8-.8.8-1l-.1-1"/>
    <path d="M686.7 570.8c.4.4.9.7 1.4.9M684.4 564.8c-.2 0-.4 0-.5.3 0 .4 0 .6.4.7.2 0 .4 0 .5-.3 0-.3-.2-.6-.4-.7Z"/>
    <path d="M684.1 565.1c.2 0 .3.2.4.3h-.2l-.2-.3Z"/>
    <path d="M683 564c.1.3.5.5.8.5.4 0 .8 0 1 .3.3.3.5.6.6 1 0 .4.3.8.5 1.2l3.2 3c.2.3.5.4.9.6M683 564.6c.1.3.5.5.7.6M684.6 565.8c.2.6.5 1 1 1.6.3.5 3.7 3.2 3.8 3.3M687.2 564.5c.5-.2 1.1 0 1.5.3.3.3.5.7.5 1.1M419.2 611.6c-.2-.3-.4-.5-.4-.8 0-.6.6-1.5.6-1.8 0-.2 2.7-2.6 3-3 .5-.4 1-.5 1.6-1 .5-.5 1.1-.7 1.6-1.2l1.8-1.1.4-.4c.2-.2.3-.3.5-.3.5 0 .8.3 1.2.5.3.3 1 0 1.4.3 0 0 .4.1.2.8-.1.8-.5 1.4-.8 2-.4.4-1 .7-1 1.2s0 1-.2 1.4l-1 1.5"/>
    <path d="M424.5 612.8c-1.5-.6-4-1.5-4.6-1.3-.8.1-1.2.1-1.1.6-.1.6.2 1.2.7 1.5.6.4 2.3 1.8 3 2l2.7.3c.5 0 1.8.6 1.7.4 0-.2-1.5-.6-1-.7h3c.3 0 .8-.1.1-.2-.6-.1-2.3 0-2-.1.1-.2.3-.2.7-.3h1c-.5-.1-.8-.2-1.3-.1h-.7c.4 0 1.7-.3 1-.3h-1.4"/>
    <path d="M421.8 610.6c1 0 2 .4 2.8 1.1.6.7 1.2 1.4 1.6 2.2.2.5.2 1 0 1.2-.4.2-.6.4-2 .1a9.1 9.1 0 0 1-3.2-1.6M423 605.4c-.2-.6-.1-1-.4-1.3-.3-.2-.7-.3-1-.2-.4 0-.9.8-1.2 1.2-.6.5-1 1.2-1.6 1.9-.3.4-.5 1-.6 1.5"/>
    <path d="M421.5 604.8c-.2.7-.4.9-.4 1.5M419 609.9s-.4.6-.8.6c-.4.1-.6-.4-.7-.6v-1.3c.3-.8.8-1.6 1.4-2.3.4-.5 1-1 1.5-1.2M426.8 608.8c0 .4-.4.9-.4 1.3l.1.8c.6.8 1.2 1.5 2 2 .7.3.8.5 1 0 .3-.6.4-.3.7-1 .2-.7 0-.6.4-.9.4-.3.8-.5.4-.5-.4.1-.8 1-.8.7v-1c.2 0 .4-.3.2-.2-.2 0-.4-.1-.4.5 0 .4-.1.7-.3 1V610c-.3.2-.3.4-.3.7.1.3 0 .6-.1 1-.2.2-.4-.2-.5-.4 0-.2-.8-1-.9-1.1l.2-1.3M426.4 611c-.4.4-.9.7-1.5.9M429.1 603.8c.4 0 .5 0 .6.3 0 .4 0 .6-.3.7-.3.1-.6 0-.7-.2-.1-.3.2-.7.4-.8Z"/>
    <path d="M430.8 602.9a1 1 0 0 1-.9.5c-.4.2-1 0-1.1.3-.4.3-.6.7-.7 1.2 0 .6-.3 1-.6 1.4l-3.7 3.6-1 .6M430.8 603.6c-.2.4-.5.6-.9.7M429 605l-1.1 1.9c-.5.7-4.5 3.8-4.5 3.9M425.9 603.5a2 2 0 0 0-1.8.4c-.3.4-.5.9-.5 1.3"/>
  </g>
  <g opacity=".8" stroke="#333" stroke-width=".7" stroke-miterlimit="10">
    <path d="M655 951.7c0-8.7 2.5-181.5 2.5-181.5M665.5 951.7c0-6.4-4.2-180.9-4.2-180.9"/>
    <path d="M653.6 769.3c-1.1-2.6-.7-4.8 1.5-5 2.2-.3 10.2-.7 11.5.8 1.3 1.6 1.5 2.2 0 4-1.5 1.8-6.2 1.5-8 1.3-1.7-.2-5-1-5-1Z"/>
    <path d="M663.9 764.5c.6-1.7 1-3.5 1.3-5.3l1-.3.3 6.2M653.2 766.4c-1.6-2.2-33-66.4-36.6-74.4a365 365 0 0 1-12.8-30.7c0-1.8 1.3-.2 3 4 1.8 4.1 12.5 24.1 14.5 27.6v-.2c1.1 2 22.4 38.5 24.6 42.6 3.2 6.6 5.7 13.4 7.7 20.3 1.1 4.9 2 4.5 4.4 8.2M657.6 771.5c-1 .9-29.9 42.1-31.9 45.6-2 3.6-31.9 51.2-33 51.4-1 .2.7-4.2 4-8.8 3.3-4.6 16-28.8 20.8-37 4.9-8.4 14.3-25 19.8-32.5 5.5-7.4 16.2-20.8 16.2-20.8M667.4 766.2c.9 0 101.2 10 100.7 11-.4 1.1-5.7.7-11.3 0-5.6-.6-50-1.5-57.6-1.3a151.8 151.8 0 0 1-37.6-5.7"/>
    <path d="M661.6 766.4c-.4.8-.5 1.7-.4 2.6.2.9 1.2 1.5 2 1M654.7 767.8c1-.3 2-.4 3-.3M301.8 947.3c2.4.5 249.4 2.4 249.4 2.4"/>
    <path d="M368.3 959c50 2 222.8-12.1 237.4-13.1 14.5-1 48.5-2.9 48.5-2.9M664.8 942c3-.4 61.7.5 98.1 2.4 36.5 2 91.3 6.9 102 6.3M666.4 947.3c10.7-1 35 .5 72.9 7.3 37.8 6.8 83 13.1 86.8 13.1"/>
    <path d="M653.7 945.5c-2-.5-30-.5-34.5-.5M322.1 961.9c57.8 5.8 279.1 8.2 292.7 8.7 13.6.4 184.5-2.4 201-2.4"/>
  </g>
  <path d="m223.7 626.3-3.5 3 .5-5.8 3.6-4.2 3.5-.2.7 26.7s-4.6.6-4.4-.5c.1-1-.4-19-.4-19ZM234.3 626l-3.7-.2s-.5-4.3 1.6-6.5a6.1 6.1 0 0 1 5.9-2.3c2 .3 4.7.8 5 3.9.6 3.3-.3 6.8-2.5 9.3-1.6 1.8-3 3.6-4 5.6a9 9 0 0 0-1.2 4.6l6.5-1v4.4s-10.8 2-10.8.8c0-1-1.8-5 .6-8.5s6-7 6.6-9.5c.7-2.4 1.2-5.9-.9-5.7-2.1.1-2.7-.3-2.8 1.8 0 1 0 2-.3 3.2ZM253.4 624.5c0-1.1 2.2-8.7 2.2-8.7l2.7 8M259.7 622.5l.3-6.7s3.5 7.6 3.5 6.5l.5-9.5M268.7 614c.4-2-3.4-1.3-3.5.4-.1 1.8 3.3 2.6 3.3 5s-3 2.1-3 2.1l-.7-1.6M270.4 612.2l2.4 7 2.1-8.2M275.3 620.5c0-1.4 3-11.4 2.8-10-.1 1.6 1.6 8.5 1.6 8.5M281 619.5c.2-1.5.4-3 .4-4.4l-.2-5s3.5-1.5 3.1 1.5c-.4 3.1-1.7 3.5-1.7 3.5l2 4M286.7 608.8l.3 9.4 2-.7M290.8 608.3l-.1 9.5M296.2 609.8c0-2-1.6-3-2.4-1-.8 2-1.5 5.5-1 6.9.3 1.3 3.2.9 3.2-.6" stroke="#333" stroke-width=".7" stroke-miterlimit="10"/>
  <path d="m294.8 612.8 1.6-.4-.4 5.4M299.5 615.6l-.3-8.4M301.6 607.1l-4.4.5M253.6 639.4l.1-4.1.4-5.1 3.3-.1M256 634.9l-2.3.4M261 629.8c-1.6 0-2.9 1.9-2.6 4.5.2 2.7-.1 4.4 1.6 4.4 1.7 0 1.7-3.8 1.9-5.6 0-1.7-.3-3.3-1-3.3ZM263.9 637.5c0-.5 0-2.2.2-4l.6-5.6s3.7.6 3 2.6c-.6 2-.8 3.4-1.7 3.4-1 0 2 4.5 2 4.5M269.6 636l.1-8.9s2.7 0 2.7 2-1.9 2-1.7 2.7c0 .8 2.6.3 2.6 2.3 0 2-3.7 1.9-3.7 1.9ZM275 635l.2-8.8s3.8-.8 3.4 1.9c-.5 2.6-2.2 3.2-2.2 3.2l2 3.7M281 624.6s-1.8 9.6.4 9.5c2.1-.2 2.8-9 2.8-9.6M288.8 625.5c-.6-1.6-2.4-2.2-2.6.4-.3 2.7-1.5 6-.2 6.8 1.4 1 2-1 2-1" stroke="#333" stroke-width=".7" stroke-miterlimit="10"/>
  <path d="m287.5 628.7 1.7-.4-.1 6.2M255.7 646.5c-1.3-.3-2.1 2.5-2.1 5.6 0 3 2.7 4 3.3 2.7.7-1.4.3-8-1.2-8.3ZM262.7 645.6c-1.1-1.4-2.4-2-2.8.8-.4 2.8-.8 8.2 0 8.6 1 .4 2.9-4.2 2.9-4.2" stroke="#333" stroke-width=".7" stroke-miterlimit="10"/>
  <path d="m261.2 649.7 2.4-.4v4.8M267.3 653.3v-3.7l.2-6.6s3.2-1.4 3.7.6c.7 2.5-.4 5.3-3 4.8M254.1 621.1l3.2-.7M276.8 617l2.8-.7M273 651.6l.5-9.6s3 0 3 1.2c0 1-2.1 3.6-2.1 3.6l1.7 3.6M280.8 640.7c-1.6 0-2.4 2.4-2.4 4.7 0 2.3.7 5 2 5 1.4-.2 1.6-3.4 1.6-5.8s-.6-4-1.2-3.9ZM283.8 648.9v-9.2s4.6-.3 4.5 2.7c-.1 2.9.3 3.8-1.2 5.2-1 .8-2 1.2-3.3 1.3ZM289.8 638.4c0 2.8-.3 8.1.5 8.8.8.6 2 .4 2.7-.4l.2-.6c.4-1.3-.2-8.5-.2-8.5M295.1 637.3v9.3M298.3 636l-2.7 5.8 3.4 4.3M301.5 645.4l-.1-9M299.1 637l4.5-1M304.9 635.4v9M308.7 634.7c-1.3 0-1.4 2-1.7 5-.3 3-.1 4 1.2 4s1.9-2.8 1.7-4.6c-.1-1.7-.4-4.4-1.2-4.4ZM312.3 643c.2-2.4 0-7.7 0-7.7s3.1 6.8 3.1 6.4v-8.8M275 674.1c1.3 1.5 2.5 3 3.5 4.6 0 0 6.3-11.2 13.7-13.2 7.3-2 12 1.6 12.7 8.8.6 7.2.4 11.7-5.5 16.5-5.9 4.8-11 4.4-15.2 2.2-4.3-2.3-15.7-22.9-21.7-24.5a25.1 25.1 0 0 0-25.9 8.6c-6.5 8.7-8 16.3-6.7 25.5.6 3.8 6 10.7 15.5 10.7s16.6-8 16.6-8 3.6 2.3 4 1.1c.4-1.2 2.7-15 2.7-15s-14.4 7.6-14 7.6c.4 0 2.6 2.6 2.6 2.6s-5.7 5.1-11.9 4.4c-6-.6-10.4-6.8-8.8-14 1.6-7.2 4-11.6 10.9-15 6.9-3.3 13.7-2 17 2.2 3.1 4.3 9.4 16.6 14.5 19.6 5 3.1 11.7 4.3 19.6-.2a23.4 23.4 0 0 0 12-15c1.6-5.3 1.9-17-2.1-21-4-4.2-11.8-6.1-18.6-3.2a50.9 50.9 0 0 0-14.8 14.7ZM165.7 604.3l-1.3 1 .1-4.5 1.3-2.1 1.4 1 .3 22.2s-1.8-1.3-1.8-2.2v-15.4ZM169.8 607.9l-1.4-1.6s-.3-3.7.5-4.8c.8-1 1.6-.7 2.4.3 1.3 1.4 2 3.2 2.1 5.2.2 2.4.2 5-1 6.8-.7 1-1.2 2-1.6 3-.4 1.1-.6 2.2-.4 3.4l2.7 1.9v3.7s-4.5-3-4.5-3.7c0-.8-.8-5.1.3-7 1-1.9 2.4-3.5 2.7-5.2.3-1.7.4-4.4-.4-5.2-.8-.8-1-1.2-1 .4 0 1-.2 2-.4 2.8ZM177.9 614.3l.5-5.6 1.6 7M180.7 615.3l.2-4.5s1.4 6.7 1.4 6l.1-8.2M184.7 611.5c.1-1.6-1.6-2.4-1.6-1 0 1.3 1.6 3.7 1.6 5.7s-1.4.5-1.4.5l-.2-1.7M185.3 610.7l1 5.5 1-4.7M187.8 620.2c0-1.2 1.1-9 1.1-7.8 0 1.3.8 8.3.8 8.3M190.6 622v-4l-.2-4.6s1.6.1 1.5 2.8c-.1 2.7-.8 2.4-.8 2.4l1 4.5M193 614.7l.4 8.7.9.3M195 616l.2 8.7M197.9 619.8c0-1.9-1-3.5-1.2-1.9-.4 1.9-.5 3.9-.5 5.9.1 1.3 1.7 2.4 1.7 1.2" stroke="#333" stroke-width=".7" stroke-miterlimit="10"/>
  <path d="m197.2 622 .8.5-.1 4.9M199.6 627l-.2-8M200.7 620l-2.3-1.7M178 627.4l.1-3.5v-4.2l1.6 1.3M179 624.5l-.9-.6M181.2 622.2c-.7-.5-1.2.4-1 3 0 2.5 0 3.8.7 4.5.8.6.8-2.6.8-4 0-1.2-.1-2.3-.5-3.5ZM182.5 630.5c0-.6 0-2 .2-3.6l.2-4.6s1.8 2.2 1.4 3.6c-.4 1.5-.3 2.7-.8 2.3-.6-.4 1 4.8 1 4.8M185.2 631.7v-8c.8.9 1.4 2 1.4 3 0 1.9-.8 1.8-.8 1.8.8.9 1.1 2.1 1.3 3.3-.1 1.7-1.9-.1-1.9-.1ZM187.8 633.4v-8c1 .7 1.7 2 1.5 3.3 0 2.3-.9 2-.9 2l1 4.2M190.5 626.6s-.8 7.9.2 8.8c1 1 1.3-7 1.3-7.5M194.3 631.1c-.4-1.8-1.2-3.2-1.4-.9 0 2.3-.6 4.7 0 6.3.7 1.6 1.1 0 1.1 0" stroke="#333" stroke-width=".7" stroke-miterlimit="10"/>
  <path d="m193.8 633.4.8.4v5.8M179 634.6c-.5-1-.9 1.2-.9 3.9 0 2.6 1.2 4.8 1.5 3.9.3-1 0-6.9-.5-7.8ZM182.1 636.9c-.4-1.6-1-2.8-1.2-.6 0 2.3-.2 7 .2 7.8.4.8 1.2-2.4 1.2-2.4" stroke="#333" stroke-width=".7" stroke-miterlimit="10"/>
  <path d="m181.5 640 1 .7v4.3M184.3 646v-9c1 .3 1.7 1.2 1.7 2.3.3 2.5-.1 4.7-1.3 3M178.1 611.8c.6.1 1 .4 1.4.6M188.4 617.8l1.3.5M187 647.3v-8.4c.8.8 1.3 1.7 1.6 2.7a4 4 0 0 1-1 2.1l.8 4.3M190.5 641.3c-.8-.7-1 1-1 3s.2 5 1 5.5c.8.6.8-2.4.7-4.5a10 10 0 0 0-.7-4ZM192 650.4v-8.6a7 7 0 0 1 2.2 4.7c0 2.7 0 3.7-.6 4.3-.6.5-1.6-.4-1.6-.4ZM194.8 643.6c0 2.5 0 7.4.4 8.5.4 1 1.2 1.7 1.5.7.3-1-.1-8.2-.1-8.2M197.6 645.3l.2 9M199.2 645.7 198 650l1.7 5.8M201.1 656.5l-.1-8.8M199.8 647l2.4 1.4M202.7 648.5l.1 8.8M204.7 650.1c-.7-.7-.8 1-1 3.7 0 2.7 0 4 .7 4.6.7.6 1.1-1.8 1-3.4-.2-1.6-.2-4.5-.7-4.9ZM206.8 660.1v-7.6l1.8 8.2-.2-8.7M188 669.2c.3.5 1.6 6 1.6 6s3-7 6.7-4.8c3.7 2.3 6.3 8.7 6.7 16 .4 7.4.2 11.9-2.8 12.8-3.1 1-5.6-2.6-7.8-7.3-2.1-4.7-7.7-30-10.4-34.6-3.5-5.9-8.5-9.6-11-5.3-2.6 4.3-3.3 10-2.7 18.5.2 3.6 2.5 12.5 6.4 17.5 3.8 5.1 7.3 2.4 7.3 2.4s1.6 4.2 1.9 3.4c.3-.8 1-12.3 1-12.3s-6.5-1.2-6.2-1a26 26 0 0 1 1.2 3.8s-2.6 1.5-5.2-2.7c-3-5-4.3-11-3.8-16.7.7-5.3 1.6-8.1 4.6-7.6 2.9.6 6.1 5 7.4 10.7 1.4 5.6 4.6 20.4 7.1 26.4 2.6 6 5.9 11.5 10 12.2 4.2.7 5.6-2.7 6.4-7 .8-4.5.8-15.9-1.4-22.4-2.3-6.5-6.4-12.7-9.8-13.6-3.3-1-7.2 5.6-7.2 5.6ZM184.3 588.4l-2.6 1-1.6-1.1 2.2-1.1 3.3-.4 10.6 5-4.8.3c-.3-.4-7.1-3.7-7.1-3.7ZM194.8 587.2l-3.7.4s-2-.7-1-1.3c1.7-.7 3.3-1 5-1 2.1-.2 4.3-.2 6.3.2 1.3.4 2.4 1 1 2-1.3.9-1.3.8-1.7 1.4-.4.7.5 1 .5 1l6.2-1 1.6.8s-10 1.5-10.4 1.4c-.4-.2-4-.8-2.7-1.8 1.2-.9 3.3-2 3-2.4-.2-.4-1-1.2-3-.9-2 .3-2.8.3-2 .7l1 .5ZM213 585a9 9 0 0 1-1.3-1.7l5.7 1.1M218 584.1l-1.4-.9 5 .7-3.3-1.6M223.1 581.9c-.4-.4-3.6.1-3 .4.8.2 4.2.1 5.2.5.9.4-2 .7-2 .7l-1.4-.3M224 581.3c.7.2 4.6.6 4.6.6l-1-1.1M232 582.3c-.6-.3-2-2.2-1.4-1.9.5.3 4.8 1.2 4.8 1.2M236.9 581.6l-1.6-.7-2.2-.8s2.5-.5 3.4 0c1 .6-.1.7-.1.7l3.4.4M237.6 579.3l4 1.5 1.6-.3M241 579l3.8 1.4M246.4 578.7c-.8-.3-2.7-.3-2.4 0 .4.5 1 1 1.8 1.2.8 0 3.4-.2 2.8-.4" stroke="#333" stroke-width=".7" stroke-miterlimit="10"/>
  <path d="m246.4 579.2 1.3-.1 2 .8M251.8 579.3l-3.7-1.3M250.1 577.7l-3.6.6M219 587.7l-1.5-.8-1.7-.9 3.2-.4M219.5 586.7l-2 .2M222.2 585.3c-1.3.2-1.9.7-.5 1.1 1 .5 2.1.8 3.3.7 1.6-.1.1-1-.5-1.2-.7-.4-1.5-.5-2.3-.5ZM228 586.4l-1.3-.8-1.7-1s3.7-.3 3.9 0c0 .5.6.7-.3.9-1 .1 3.7.5 3.7.5M233 585.5l-3.5-1.6c1.1-.2 2.3-.2 3.4 0 .8.4-.5.6-.5.6 1.2 0 2.2 0 3.4.2.8.5-2.8.8-2.8.8ZM237.8 584.8l-3.6-1.6s3-.5 3.9 0c.8.5-.7.7-.7.7l3.5.4M238.9 582.4s2.3 1.9 4.1 1.6c1.9-.3-1.2-1.7-1.4-1.9M246.5 581.9c-1.3-.3-3-.2-2.3.2.8.7 1.8 1.1 2.8 1.2 1.6 0 1.4-.4 1.4-.4" stroke="#333" stroke-width=".7" stroke-miterlimit="10"/>
  <path d="m246.5 582.5 1.3-.2 2.7 1M224 588.8c-1.4.1-1 .7.3 1.4 1.4.6 4.3.5 4.4 0 .2-.3-3.1-1.5-4.6-1.4ZM230.3 587.9c-1.6-.2-3-.2-2.4.4a9 9 0 0 0 4 1.6c.4 0 .8-.4.8-.8v-.3" stroke="#333" stroke-width=".7" stroke-miterlimit="10"/>
  <path d="m230.8 588.8 2-.3 2 .8M238 588.8l-1.5-.7-2.7-1.2c1.2-.2 2.6-.4 3.8-.2 1.7.4 1.8 1-.8 1.2M212.2 584.4l2.8-.4M232 581.6l2-.4M242.9 587.9l-3.7-1.8 3.4-.1c.6.1-.4.8-.4.8l3.2.5M245.4 585.2c-1.4.1-1.2.7-.2 1 1.3.6 2.6.9 4 .7 1.2 0 0-.8-1.1-1.2-.8-.2-1.7-.5-2.7-.5ZM251.8 586.4l-4-1.6s4.2-.4 5.2 0c1.1.4 2 .7 1.2 1-.6.2-1.4.5-2.4.6ZM252.6 584c1.5.7 3 1.2 4.5 1.5 1 0 2.4-.2 2.2-.4-1.3-.6-2.6-1.1-4-1.5M257 583.2l4.3 1.6M259.4 582.7l.3 1.2 5 .4M266.7 584l-4.2-1.6M260.7 582.8l3.6-.7M265 582c.6.1 4.2 1.5 4.2 1.5M268.3 581.5c-1.1.1-.4.4.5.9a4 4 0 0 0 2.8.5c1.2-.1.4-.6-.4-.9-1-.3-1.9-.4-3-.5ZM275 582.5l-3.4-1.3 5.7.8-4-1.5M255 592l5.4.5s.7-2.8 6.7-4c5.2-1 10.6-1 15.9.3 4.1 1.2 6.1 2.1 3 3.7-3 1.6-8.1 2-13.5 2.2-5.3.1-26.1-2.7-32.7-2.4-8.8.4-19.5 2.1-22.6 4.7-3 2.5-1.3 4.4 4.3 6.4 2.4.8 11.6 1.6 21.7.4 10-1.2 13.4-4 13.4-4s4.8 0 4.7-.2c-.1-.2-4.7-3.4-4.7-3.4l-10.5 3.2c.4-.2 4 .2 4 .2a26.9 26.9 0 0 1-10.3 2.4c-6.8.7-14.1-.1-15.7-2-1.7-1.8-1.1-3 4.5-4.4 5.9-1.5 12-2 18-1.5 5.1.6 17.3 2.3 24 2.3 6.2 0 13.7-.5 18.9-2.3 5.2-1.7 5-3 3.6-4.2a25.2 25.2 0 0 0-12.3-3.6c-6.3-.4-12.4 0-18.5 1.3-2.7.7-5.4 2.1-7.3 4.4Z" stroke="#333" stroke-width=".7" stroke-miterlimit="10"/>
  <path d="M160 584.1v102.3l55.3 40.6 105.6-21-.6-110.6s-56.7-22.7-59.1-23.3c-2.4-.5-101.2 12-101.2 12Z" stroke="#333" stroke-width=".7" stroke-miterlimit="10"/>
  <path d="m162.1 586.1 52 25.8 106-15.2M214.7 724.3c-.4-4.6-.7-112.4-.7-112.4M268.5 761.4v102.3l55.3 40.5 105.6-21-.5-110.6s-56.9-22.7-59.2-23.2a4361 4361 0 0 0-101.2 12Z" stroke="#333" stroke-width=".7" stroke-miterlimit="10"/>
  <path d="m270.7 763.4 52 25.7L428.4 774M323.3 901.6a8383 8383 0 0 1-.7-112.5M336.1 802.6v17.8l4.7-.5.1-24.2-3.6.5-4.5 5.2.6 3.9 2.7-2.7ZM355.9 796.9l-.3-3.6-10.8 1.6-.6 12.8 3.8-.3a4.5 4.5 0 0 1 3-2.6c2.2-.7 1.7 5.8 1.7 6.9 0 1-1.2 3-3.1 3-1.9 0-2.2-4.2-2.2-4.2l-3.3.1s-.8 5.6 1 6.7c2.9 1 6 1 8.8-.4 2.5-1.5 2.8-5.5 2.9-9.4.1-3.8-1.2-5.7-3-5.7-2 0-5.3 1.7-5.3 1.7l.8-5.6 6.6-1ZM370.3 792l-.2 9 2.7-.4M374.7 791.7v9M377 791.4l2.6 7.2 2.4-8M386.7 789.8l-2.8.5-.1 8.5 3-.3M386.6 794l-2.8.3M390.3 797.5l.1-8.2M388.4 789.7l5.5-1M370.3 815l-.2-3.3v-5.6s3.5-.5 3.5 2.3-3 2.8-3 2.8M375.2 814.4a88 88 0 0 1 2-8.6l2.6 7.5M384.4 804v8.6l3.1-.4M376 811.3l2.7-.7M377.9 802.4c0 .4-.4.6-.8.8-.3 0-.7-.2-.7-.4v-.2c0-.4.4-.6.8-.8.3-.1.7.2.7.6Zm0 0c0-.2 0 0 0 0ZM389 812.4l2-8.6 2.6 8M395.6 811.3v-7.7l3.5 5.4v-7.2M401.4 809.8v-8s3.7-1 3.9 2c.2 3.4 0 5-1.1 5.5-1 .3-1.9.5-2.8.5ZM389.6 809.3l3.4-.7M374.2 860.8l-.3 9 4.8-.7.3-8.7-4.8.4ZM365.9 859.2c.7 0 17.7-1.7 19.5-2.8 1.7-1 6.3-4.6 6.8-7 .5-2.4.5-7.3-1.6-9a15.5 15.5 0 0 0-5.9-2.5s2.2-3 .8-5.8c-1.6-3.2-5-5-8.7-4.6-4.6.5-5.7 1.8-7.2 3.3a11.6 11.6 0 0 0-2.8 5.7c-1.4.4-3 1-4.3 2a7 7 0 0 0-3.1 5.4c-.4 3 2.6 5.2 3.4 5.3a5.7 5.7 0 0 0-2.3 4.3c0 1.9.7 3.6 2.2 4.8.8.7 2 1 3.2 1ZM392 834.8a5.8 5.8 0 0 1 3.4-3.3c1.4 0 3 .2 4.4.8 1-1.1 2.4-1.9 3.7-2.6 1.5-.4 4.2-.5 5.4.8l-4.6 1.6c-3.3 1.1-4 3.2-4 3.2-1-1-2.5-1.7-4-1.6-1.5 0-3 .4-4.4 1.1ZM404 824.3c1.7-1.6 2.5-1.8 4-1.6 1 0 2 .6 2.9 1.3 1.3-.7 2.8-1 4.1-.7 1 .4 2 1.4 2.4 2.6-1.2-.8-2.6-1.1-4-.7a9 9 0 0 0-3.6 1.3c-.3-.9-1-1.7-1.9-2.1a9.9 9.9 0 0 0-4-.1ZM398 848.6c1-2 1.7-3.4 4.3-4 2-.3 4.2 0 6 .6 1.4-1.3 3-2.3 4.8-2.7 2.8-.4 6 2 6 2-2-.4-4.4 0-6.4 1a8.4 8.4 0 0 0-4.4 3.9 6 6 0 0 0-4.6-2.3c-2.2-.1-4 .4-5.8 1.5ZM356.1 876.6c-.1.3.2 4.5.2 4.5s64-11.8 63.8-12.2l-.1-4.2-63.9 11.9ZM356 883.7l-.1 4.4 64.2-12.7-.1-4.1-64 12.4ZM275.9 780l-.4 15 2.1 1.5.5-20.6-1.6-1-2 2.8.2 3.4 1.2-1.2ZM284.8 783l-.1-3.2-5-3-.5 10.7 1.8 1.4s.4-1.5 1.3-1c1 .3.7 5.8.7 6.7 0 1-.6 2.3-1.5 1.4-1-1-1-4.6-1-4.6l-1.4-1.2s-.3 5.2.5 6.8a4 4 0 0 0 3.9 2.3c1.9-.7 1.3-3 1.5-6.4.1-3.4-.4-5.6-1.4-6.4-.6-.6-1.6-.8-2.4-.7l.6-4.5 3 1.7ZM291.8 784.7l-.3 8 1.3.7M293.9 786.2l-.1 8M295.1 787s1 7.5 1.2 7.6c.5-2 1-4 1.3-6.1M300.3 790l-1.7-1-.4 7.2 2.3 1.3M300.2 793.5l-1.8-.9M301.8 798.5l.1-7.5M300.9 790.5l2.8 1.6M291.5 805.3v-8c1.2.8 1.7 2.3 1.7 3.7 0 2.4-1.4 1.2-1.4 1.2M293.9 806.9c0-1.2 1-6.8 1-6.8l1.3 8M298.6 801.7l-.7 7.5 2 .9M294.3 804.5l1.3.7M295.4 797.3c0 .3-.2.5-.4.4-.3-.3-.4-.5-.4-.8 0-.3.1-.5.4-.4.2.1.4.4.4.8ZM300.4 811s1.4-7.4 1.6-6.8c.8 2 1.2 9 1.2 9M304.3 813.8l.1-8.1c.3-1.8 2 9.2 2 9.2.2-.7.4-9 .4-9M308.3 815.7v-7.6c1.4.8 2.2 2.1 2.2 3.7 0 3.4 0 4.7-.7 4.7-.5-.1-1-.5-1.5-.8ZM301.3 809l1.7 1.1M292.7 849.5s-.1 8.4-.3 8.3l2.4 2 .3-8.3-2.4-2ZM288.6 843.6c.2.1 9 7.9 9.8 7.9 1 0 3.4-1 3.8-3 .4-3.3.1-6.5-.7-9.5-.8-2-1.9-4-3-5.7.7-1.6.9-3.3.5-5-.7-3.4-2.4-7.2-4.4-8.7-2.3-1.8-3-1-3.7-.5-1 .8-1.4 4-1.4 4-.7-.4-1.4-.6-2.2-.4-.8.2-1.3.8-1.6 3.3 0 2.3.6 4.7 1.6 6.7-.5.3-1 1.2-1.2 2.8 0 1.9.3 3.7 1 5.5.1 1 .8 2 1.4 2.6ZM302.2 834.3c.5-1.4 1.2-1.9 1.9-1.5.9 1 1.7 2 2.3 3 0 0 1.3-.7 2-.3 1.4.8 2.5 2.1 3 3.6l-2.5-1c-.7-.4-1.6 0-2 .6-.2.1-.2.3-.2.4-.4-1.4-1.2-2.7-2.1-3.8-.8-.5-1.6-.9-2.4-1ZM308.7 830.4c1-.5 1.4-.3 2.2.5.6 1 1.2 1.9 1.6 3 .9.1 1.8.6 2.2 1.6.7 1.2 1.1 2.5 1.4 3.8a5.2 5.2 0 0 0-2.3-2.8c-1.5-.9-2-.5-2-.5-.1-1-.5-2.1-1-3-.5-1.1-1.1-2-2-2.6ZM305.3 850.8c.6-1.2 1-2.2 2.3-1.4a17 17 0 0 1 3.4 4.1c.8-.5 1.9-.5 2.7.1 1.6 1.1 3.4 5.4 3.4 5.4a8.4 8.4 0 0 0-3.7-2.7c-1-.4-2.1.3-2.5 1.2-.6-1.9-1.5-3.5-2.7-5a4 4 0 0 0-3-1.7ZM283.6 854.4v4.3s34.2 26.3 34 26v-4.5l-34-25.8ZM283.3 861.1v4l34.2 26.6V887l-34.2-26Z" stroke="#333" stroke-width=".7" stroke-miterlimit="10"/>
  <path d="m287.2 765 8.4 3.2 4.8-.6-11-4.4-3.8.4-2.5 1.4 2.4.6 1.7-.6ZM306.3 762.2l-2-.7-11 1.2 5.3 2.4 4-.4s-.1-.4 2-.8c1.7-.1 3.6.3 5.2 1 .4.2.1.7-1.9.9-1.4 0-3-.2-4.4-.6l-3.6.3c1.4.7 2.8 1 4.3 1 3 0 6.3-.2 9.3-.7 2.2-.5.6-1.2-1.3-2-2-.7-4-1-6.1-.8-1.7.1-3.4.4-5 .8l-1.7-1 7-.6ZM319.5 760l4 1.6 2.7-.2M324.2 759.6l4.1 1.6M326.5 759.4l6.1 1-1.2-1.6M336.1 758.3l-2.8.3 3.9 1.6 3-.4M337.8 759l-2.6.4M343.6 759.4l-3.9-1.5M337.8 758.2l5.4-.7M330.4 764.2l-1.6-.6-2.8-.9c1.6-.3 3.3-.1 4.9.1 1.2.6-1.9.8-1.9.8M335.4 763.6a11 11 0 0 1-1.8-1.7l6.2 1M340.2 761l4.2 1.6 3-.4M334.8 763l2.5-.3M332.6 761.2c.2 0 0 .2-.4.3h-1c-.2 0 0-.1.4-.3h1ZM349.2 762l-2-1.6 6.5 1.2M355.7 761.4 352 760l6.4.7-3.4-1.3M361 760.6l-3.8-1.4a16 16 0 0 1 5 0c2 .5 2.5 1 1.4 1l-2.5.4ZM348.4 761.5l3.2-.4M356.5 772.2l4.2 1.6 4.8-.5-4-1.6-5 .5ZM346.8 772.7l19.6-2.2c1.2-.3 4.4-1.5 3.9-2-1.9-.8-3.9-1.4-6-1.4h-7.6s.8-.7-2-1c-3.8-.5-7.6-.6-11.5-.2-4.7.5-5.4.8-6.3 1.2-1.3.5-.3 1.4-.3 1.4-1.3 0-2.5.4-3.7.6-1.4.4-1.9.7-1 1.4 1 .6 5.5.6 6.5.6-.8.3-1.2.7-.4 1.1 1.4.4 3 .7 4.5.7s2.8 0 4.3-.2ZM363 766c0-.5.7-.9 2-1l5.1-.3c.8-.4 1.8-.7 2.7-.8 2-.3 4-.4 6-.3l-4.1.7c-3 .5-2.7 1-2.7 1a33 33 0 0 0-5 0c-2.5.2-4 .6-4 .6ZM370.7 763c1-.4 2.3-.7 3.4-.7h3.8c1.3-.3 2.7-.4 4-.5 1.2 0 2.5 0 3.7.2-1.4 0-2.9 0-4.4.3l-3 .5-3-.2-4.5.4ZM376 767.8c.3-.4.3-.8 2.7-1.1 2.3-.3 4.4-.4 6.7-.4 1.2-.5 2.4-.8 3.7-1a41 41 0 0 1 7 0 50 50 0 0 0-6.2.7c-3 .6-2.8 1.1-2.8 1.1a48.4 48.4 0 0 0-11 .7ZM344.5 776.7l2.4.8s62.8-8 62.5-8.1l-2.3-.8-62.6 8.1ZM347.9 778.2l2 .8 62.7-8.3-2.3-.7-62.4 8.2ZM81.4 787v102.3l55.3 40.6 105.6-21.1-.6-110.6S185 775.5 182.6 775c-2.4-.5-101.2 12-101.2 12Z" stroke="#333" stroke-width=".7" stroke-miterlimit="10"/>
  <path d="m83.5 789 52 25.8 106-15.2M136.1 927.2c-.5-4.6-.7-112.4-.7-112.4M154.3 830.5l-2.4 2.5-.3-5.1 4.2-4.4 2.5-.4.5 25.2-4 .4-.5-18.2ZM163.6 831.2l-3.2.1s-.1-5.6 1.8-7.4a6 6 0 0 1 5.9-1.8c1.8.6 2.8 3.5 3 6.7 0 2-.8 3.9-2.4 5 0 0 2 .4 2.4 3.4.4 3 .7 6.8-.8 8.4-1.5 1.6-1.7 2.6-4.5 2.4-2.8-.1-4.6-1-4.8-3.3-.3-2.3-.2-5.6-.2-5.6l3.1-.3s-.4 4.4.8 5.4c.8.6 2 .5 2.7-.5.3-.4.4-.8.4-1.2a21 21 0 0 0-.8-6.4c-.6-.8-3.2-.9-3.2-.9l.3-2s3.3-.3 3.6-2.8c.2-2.5 0-5-1-5.2-1-.3-2 0-2.5 2-.4 1.3-.5 2.7-.5 4ZM180.8 820.7V831M184 820.5a49 49 0 0 0-2.7 5.3l2.8 4.2M185.8 820.3c-.1.8.1 9.3.1 9.3l4-.6M191.3 819.3l.1 10M194.3 828.5s-.2-8.6.2-8.9c.4-.3 1.6 5.2 1.6 5.2s1.6-6 1.8-5.9c.3.2.4 9 .4 9M200.2 827.6s1-8.4 1.4-9.3c.4-1 1.8 9 1.8 9M199.8 824.3l3.4-.1M204 822.7l2.5-.2M180.8 835.4v10.2M183.7 845c-.2-.8-.4-9.2-.3-9.5.1-1.5 3.7 9 3.7 8.7l-.2-9.6M189.5 843.6c-.2 0-.5-9.2-.5-9.2s2.7-.6 2.8 1.8c.1 2.4.4 6.1-.1 6.7a7 7 0 0 1-2.2.8ZM197.1 835.6c-.8-2.2-1.3-2.6-2.4-1.8-1 .8-1.2 2.2-.5 3.3l.1.1c1 1 2.4 1.6 2.4 2.6s.7 2.5-.9 2.8c-1.6.2-1.9-2.6-1.9-2.6M199 842c0-.9 1.6-9 1.6-9l1.6 8.4M204.6 840.7l-.3-8.4M199.2 839.4l2.4-.2M202.4 833l4.4-.7M211 833c-.2-1.2-.6-2-2-1.4-1.3.6-.8 2.3-.2 3.2.5 1 2.2 1.9 2.2 3.4 0 1.4 0 1.8-1.6 1.7-1.6-.1-1.6-1.9-1.6-1.9M159.6 892.1c2.3-2.8 11.2-18.8 23.8-25.2a42.8 42.8 0 0 1 32-4.2c8.2 2.6 19 14.6 19 14.6s-7 10.8-13 16.7c-5.8 5.9-14.4 13.3-25 13.5-10.5.1-21.2-1.9-27.7-7.1a66.8 66.8 0 0 1-9-8.3Z" stroke="#333" stroke-width=".7" stroke-miterlimit="10"/>
  <path d="M191.1 868.9c3.1-1.6 7.1-4.3 12-2.7 4.7 1.6 10.2 10.7 10.2 11.9 0 1.2-2.4-.1-2.5 1-.2 1 1.7.9-.3 2-2 1-2.6 1.8-2.6 3s3.7 1.7 2.6 2.4c-1 .6-2.4-.3-3.3-1.6-1-1.3-1.6-3.6-2.4-3.2-.9.4-.3 2.3-1.4 3.2-1 1-2.7 3-2.4 2.3.3-.8 1.3-2-.3-2.6-1.6-.6-2-2-3.4-2.8-1.5-.8-2.8-1-2.2 0 .7 1 3.2 1.9 2.6 2.8-.7 1-1 2.4-2 1.4-1.1-1.1-2.7-2.3-2.2-1.1.6 1.2 1.4 2.3 2.3 3.3 1 1 1 3.5 1 3.5s0 2-1.3 2.4c-1.2.4-.8 1.9-1.6 2.7-.8.8-1.3 2.6-2.5 3.4-1.2.8-1-1.3-1.5-2.8-.4-1.6-1.6-2.9-3-3.7-1.1-.3-1.7.8-2.3.4-.7-.4-1.6-2.3-1.6-4.3s-.7-4.6.8-5.3a7 7 0 0 1 4-1c1.5 0 3.7 1.1 3.7-.3 0-1.5-2.2-1.5-3.4-1.6-1.2-.2-6.4 1.8-4.4.9 2-1 2.2-2.5 3.2-3.4.9-.8 2.8 0 3-.8.3-.8-3.5-.9-2.3-1.8l3.5-2.4c1-.7 4.8-2.4 3.2-1-1.6 1.5-4.3 2.4-3.5 3.5.8 1 2.2-.1 3.7-1.3 1.4-1.2 3.4-1 2.4-2.7-1.1-1.7-.8-3-2.3-3l-3.5-.7ZM187.7 873.4c.2-1.3.2-1.6-1-.3-1.2 1.4-2 3.7-1.3 3.2 1-.9 1.7-1.8 2.3-2.9Z" stroke="#333" stroke-width=".7" stroke-miterlimit="10"/>
  <path d="M184 879.6c0-1.5 1.5-2.7 1.8-2.3.3.4.3.4-.3 1.5-.2.5-.9.9-1.4.8ZM193.3 902.4c1.7-1.9 1.7-4 4.5-3.5 2.8.6 3 1.6 5 1 1.8-.7 1.7-2 3.4-2.3 1.8-.4 2.4-.7 0 1.3s-2 2.4-5.2 3.5c-3.2 1-4.8 1.3-6 1-.7 0-1.3-.5-1.7-1ZM205.8 894.5c.1-3.5-1.5-3.5.8-4.4 2.3-1 5.4-4.5 5.6-2.8.3 1.9-.2 3.7-1.4 5.2-1.5 2.4.2 3-2.2 2.8-2.4-.3-2.8-.8-2.8-.8ZM213.7 880.2c.4 1.6 1 4.2-.1 4.8-1.2.7-1.5 0-1.1-1.6.3-1 .7-2.2 1.2-3.2ZM106.2 791.6l-1.7.8-2-1.1 2.6-1.5 2.6-.4 10.4 5.2-4.1.6-7.8-3.6ZM116.4 790.4l-3.4.4s-2.3-1.1-1-1.8a19 19 0 0 1 5.4-1.2c2-.1 4 .2 5.8 1 1.4.6-.6 1.3-.6 1.3 1.4-.1 2.6 0 3.9.4 1.6.5 3.5 1.3 2.5 1.9-.9.5-.8.8-4 1.2-3.2.4-5.3.4-6.4 0l-2.4-1.1 3-.5a6 6 0 0 0 3 1c1.8 0 3.1-.4 2.6-.8-1.1-.5-2.3-.9-3.4-1.2l-3.7.3-.4-.4s3.5-.5 2.8-1c-.8-.7-2-1.1-3-1-1.4.1-2.2.3-2 .8l1.3.7ZM130.5 786l3.9 2M133.7 785.4a5 5 0 0 0-1 1.5l4.8.4M135.3 785.1c.1.2 3.9 2 3.9 2l3.9-.8M140.7 784.4l4.1 1.8M147.5 785.7c-1.2-.6-2.4-1-3.5-1.8l3.7.8s-.8-1.3-.4-1.3c1.5.4 2.8 1 4.2 1.6M153 784.8l-2.5-2 5.7 1.4M151.5 784l3.3-.3M155.2 783.3l2.3-.4M136.4 788.9l4 2M143.2 790.4a45 45 0 0 1-4.3-2c-.4-.2 7.8 1.4 7.5 1.3l-4.3-1.9M148.8 789.3c-.4 0-4.3-1.8-4.3-1.8 1.2-.2 2.4-.2 3.8 0 1.2.5 3 1.3 2.6 1.4l-2 .4ZM153.3 786.8c-1-.3-2-.3-3.2 0-.8.2-.2.6 1.1.6 1.2 0 2.4 0 3.5.2.4 0 1.7.4.3.6-1.1.2-2 0-3.1-.2M157.9 787.7l-2.2-2 5.3 1.5M163.4 786.6l-4-1.6M157 787.1l2.4-.4M157.6 785.4l4.3-.6M166.6 784.4c-1-.3-1.8-.3-2.7 0-1.2.2.1.5 1 .6 1.3 0 2.5.2 3.8.4.7.3.8.4-1 .6a5 5 0 0 1-2.3-.2M137.2 804.1c1.2-1 4.3-5.9 15-9a152 152 0 0 1 32-5.4c9.5-.7 26.2.4 26.2.4a20.9 20.9 0 0 1-5.5 5.3c-3.3 2.2-9 5.1-20.2 6.7a219.7 219.7 0 0 1-33.8 2.7l-13.7-.7Z" stroke="#333" stroke-width=".7" stroke-miterlimit="10"/>
  <path d="M161.4 794.2c3.6-1.3 7.4-2 11.3-2.2 5.5-.2 10.8 0 16.2 1 .5.3-2.6.3-2.3.6.3.2 2.3 0 .7.5-1.6.5-1.8.8-1.4 1 .4.3 4.7 0 3.8.2-1.4.3-2.8.4-4.3.1-1.3-.2-2.7-.4-4-.2-.7.2.7.5.1.9-.5.4-1.4 1-1.4.8 0-.3.5-.5-1.5-.5l-5-.2c-2 0-3.7.2-2.4.3 1.4.1 4.3 0 4 .3-.2.2 0 .6-1.5.5H171l3.8.4c1 0 2 .3 2.7.7 0 0 1 .4-.3.6-1.1.3 0 .6-.3.8-.5.3-.2.8-1.1 1.2-1 .4-1.6-.1-3-.4-1.6-.2-3.3-.4-5-.4-1.4.2-1.4.4-2.3.4-1.2 0-2.5-.2-3.6-.6-1-.4-2.8-1-1.6-1.4 1.2-.4 2.5-.6 3.9-.8 1.6-.2 4.5-.2 3.8-.6-.6-.4-3 0-4.4 0-1.3.2-6 1.4-4.4.9 1.6-.6 1.4-1 2-1.2.7-.3 3-.4 3-.7-.2-.3-4.2.3-3.3-.1l2.7-1c1-.5 4-1.3 3-.8-1.1.6-3.5 1.1-2.2 1.2 1.2 0 2.3-.2 3.4-.8 1.2-.4 3.3-.6 1.3-.9-1.2-.3-2.4-.4-3.7-.3-1.5.6-4 .7-4 .7ZM159.6 795.7c-.3-.3-.4-.4-1.2.1-.8.6-.7 1.1 0 .8.5-.1 1-.5 1.2-.9Z" stroke="#333" stroke-width=".7" stroke-miterlimit="10"/>
  <path d="M158.4 797.6c-.8-.3.4-.8 1-.7.5.1.5 0 .2.4-.2.4-1.2.3-1.2.3ZM178.8 801.3c1-.7 0-1 3.4-1.5 1.9 0 3.9-.2 5.7-.5 1.8-.4 1-.7 2.7-1 1.7-.5 2.3-.6.5.2-1.2.8-2.5 1.4-4 1.6-2 .5-4 1-6 1-.8.2-1.6.2-2.3.2ZM188.6 797.7c-1.5-.8-3.2-.5-1.2-1 2-.6 3.6-1.8 4.5-1.5 1 .2 1.4.6 1 1.3-.4.7 1.7.7-.8 1l-3.5.2ZM190.2 793.4c1.2.3 3 .7 2 1.1-1 .4-1.5.3-1.9-.1-.1-.3-.2-.7-.1-1ZM89.4 812.7 88 814l.2-5.5 2.4-3 1.3.8-1 25.8-2-1.7.5-17.8ZM94.3 817.6l-1.7-1.3s.2-6 1.4-7.4c1.2-1.3 2.4-.6 3.5.7 1 1.3 1.4 5.3 1.2 9-.1 3.6-1.7 4.2-1.7 4.2.8 1.4 1.2 3 1 4.6 0 3.2-.2 6.9-1 7.7-.8.8-1 1.5-2.6 0a7.3 7.3 0 0 1-2.2-5.3l.2-5.4 1.6 1s-.5 4 .2 5.7c.6 1.6 1.4 1.6 1.6 0v-6.7c-.4-1-1-1.7-1.6-2.4l.2-2s2 1.2 2.3-1.3c.4-2.6.5-5.4-.1-6.2-.7-.8-1.2-.9-1.6 1.1-.4 1.2-.7 2.7-.7 4ZM105.5 814.3l-1.3 11.3M107.5 815.6l-2.5 4.7 1.2 6.3M108.8 816.1c-.3 1-1.3 10.9-1.3 10.9l2.7 1.3M112.6 818l-1.6 11.5M113.2 830.4s1.3-10.3 1.7-10.3c.1 2.4.3 4.9.1 7.1 0 0 2.3-6.3 2.6-6 .2.7-1.4 10.8-1.4 10.8M117.3 832.7s2.4-9.5 3-10.4c.5-1-.6 11.9-.6 11.9M117.8 828.7l2.4 1.7M121.3 829.4l1.7 1.1M103.7 830.4l-1.2 10.2M104.2 841.4c0-.8.8-9.2 1-9.6.2-1.4 1 11 1.1 10.6.2-.4 1.1-9.7 1.1-9.7M107.8 843.4c-.1-.3 1-9.5 1-9.5 1.1.7 1.8 2 1.5 3.3-.2 2.6-.5 6.4-1 6.6-.6.1-1.5-.4-1.5-.4ZM113.8 839.6c-.1-2.8-.4-3.6-1.2-3.3-.8.3-1.2 2-.8 3.5.4 1.4 1.4 2.9 1 4-.2 1 0 3-1 2.2-1-.6-.8-3.6-.8-3.6M114 847.2c0-.9 2.6-8.1 2.6-8.2l-.4 9.6M118 849.4l1.4-9M114.5 844.7l1.6 1.2M117.8 839.9l3.2 2M124 845.5c0-1.6 0-2.7-1.2-2.8-1.2-.1-1.1 1.9-1 3.2.2 1.3 1.2 3.4.8 5-.4 1.6-.4 1.8-1.4.8-.7-.8-1-2-.7-3M89.5 866.2c1-.8 5.9-7.6 12.4-6 7.5 1.9 14.3 8.5 18.9 15.8a122 122 0 0 1 9 23.9s-6.6 2-11 1.8a18.6 18.6 0 0 1-14.3-7c-4.8-5.7-8.8-12-11.6-18.9l-3.4-9.6Z" stroke="#333" stroke-width=".7" stroke-miterlimit="10"/>
  <path d="M105.8 866c3 .5 5.5 2.3 7 4.9a44 44 0 0 1 4 15.2c-.2.8-1.3-1.6-1.5-1-.3.7.8 1.8-.5 1.3-1.4-.6-1.6-.3-2 .5-.2.8 1.8 3.5 1.2 3-.7-.3-1.2-1.5-1.6-3-.4-1.5-.4-3.5-1-3.6-.5-.1-.4 1.3-1 1.3-.7 0-1.8.4-1.5.2.3-.3 1-.6.1-2-.8-1.2-.8-2.6-1.5-4-.6-1.3-1.3-2.3-1-1.1.3 1.2 1.5 3 1 3.5-.6.4-.9 1-1.3-.3-.4-1.4-1-3-1-1.9.2 1.2.5 2.4.9 3.5.3 1 .3 1.9.1 2.8 0 0-.3 1.3-.8.8-.5-.6-.5.8-1 .8-.6 0-.9 1-1.5.7-.7-.3-.3-1.4-.4-2.6-.2-1.3-.6-2.8-1.1-4-.5-.8-.8-.4-1-1a8.4 8.4 0 0 1-.5-3.5c.2-1.4 0-3.5.8-3.2.8.2 1.5.8 2 1.4.7.8 1.8 3 1.9 1.8.1-1.2-1-2.3-1.6-3.1-.7-.8-3.2-2.1-2.3-1.7 1 .4 1.4-.6 1.9-.7.5-.1 1.5 1.6 1.6 1 .1-.5-1.6-2.6-1-2.6.7 0 1.4 0 2 .3.7 0 2.9.9 1.8 1-1 .2-2.5-.6-2.3.6.3 1.2 1.1 1 2 1.2 1 0 2 1.3 1.6-.7-.4-2 0-2.7-.8-3.6a15 15 0 0 1-1.7-2.2ZM103.5 867.5c.3-.8.3-1-.4-.8-.6.3-1.3 1.6-.9 1.6s1.3-.8 1.3-.8Z" stroke="#333" stroke-width=".7" stroke-miterlimit="10"/>
  <path d="M101.1 870c0-1 1-1.1 1.1-.6.1.5.1.5-.3.8-.4.3-.8-.1-.8-.1ZM103.5 890c1-.2 1.2-1.4 2.6.5 1.3 1.9 1.3 2.7 2.3 3.5.9.8 1-.2 2 .6.9.8 1.3 1.1-.2.8-1.5-.2-1.3.3-3-.9-1.1-.8-2-1.7-2.9-3-.4-.5-.6-1-.8-1.5ZM110.5 892.4c.5-2.2-.3-3 1-2.3 1.1.8 3.4.3 3.3 1.6 0 1-.6 2-1.5 2.4-1 .7-.3 2-1.5.5-.5-.8-1-1.4-1.3-2.2ZM116.8 887.8c0 1.4 0 3.5-.8 3.1-.8-.4-.8-1-.4-1.7.2-.6.6-1 1.2-1.4Z" stroke="#333" stroke-width=".7" stroke-miterlimit="10"/>
  <g opacity=".8" stroke="#333" stroke-width=".7" stroke-miterlimit="10">
    <path d="m553.8 326.7.6-95.5 55.5-77.4 91.4-29 90.7 29.6 56 76.3 1.2 95.4-57.2 78-91.4 30.1-91.9-30.6-54.9-77ZM610.2 154.1l181.5 249.7M701 125.7l-.1 307.8M791.7 155.3 609 403.8M848.3 230.8l-293.8 96M848.6 325.6 555.1 232"/>
    <path d="m604.7 246.9 37.5-49.7 59.6-18.5 60.1 18.5 35.9 51.5 1.1 62.3-37 51.5-61.3 18.5-60-19-36.5-51 .6-64.1Z"/>
    <path d="M653.3 295.5v-32.4l17.9-25.5 30-9.2 30.2 8.7 18.5 26.6.5 31.8-17.9 26-30 9.2-31.9-9.8-17.3-25.4ZM624.7 178l1.5-2.5 3-.1M635.2 175.3l65.9-1.3 62.5 11M766.6 185.6l3 .5 1.6 2.6M774.1 193.6l29 46.2M804.7 242.2l1.6 2.6-1.6 2.5M801.4 252.5l-30.7 48.2-11.9 49.2M758 353l-.7 2.8-2.4-1.6M750.2 351.1l-44.5-28.6"/>
    <path d="m703.4 321-2.6-1.6-2.6 1.5M693.2 323.7l-37.6 21M653 346l-2.6 1.5-2.8-1M641.8 344.7l-66.5-21.3M572.5 322.4l-3-1 .7-3M571.6 312.5l15.5-71 36-60.8"/>
  </g>
  <g opacity=".8" stroke="#333" stroke-width=".7" stroke-miterlimit="10">
    <path d="M377 230.2a34.8 34.8 0 0 0-5.2 10.2c1.4-3.5.4-6 2.1-9.5M365.8 241.5a150 150 0 0 1 3.8-10.1M362.8 242.1l.3-10M358.1 240c.7-3.1.9-6.4.6-9.5-.6 2.5-1.6 5-2.8 7-.2-2.8-.8-5.4-1.7-8.1M351 237.4a23 23 0 0 0-3.3-8.6M342.2 237.3c-1-2.5-.8-6-2.7-7.8 3 1.9 5.4 4.7 6.5 8M339.3 237.3a7.7 7.7 0 0 0-4.2-5c.3.8.3 1.6.3 2.4-.2.2-.4 0-.6-.2l-4.2-5.5M316.4 234.8l-1.2-9.5M284 233c.2-2.5-.2-4.7-1.3-6.9M272 233.8c-1.2-3-2.6-5.8-4.2-8.5-.5.8-.7 1.7-.7 2.7M250.7 233.3l-.2-10.8M250.3 240.3a27.3 27.3 0 0 0-13.5-14.6M243.1 237.7c-1.4-4.8-6-7.9-10.9-7.6M230.4 236a5 5 0 0 0-3.1-6M222.8 235.9c.5-2.8.8-5.8.5-8.8 0-.3-.1-.5-.3-.7 0-.1-.5.2-.4.3M218 233.8c.4-2.9.8-6.1-.9-8.4a2.8 2.8 0 0 0-2.4-1.2c-1 .1-1.7 1-1.5 2M209.3 235.9c-1-2.7-2.5-5-4.6-6.8M193 235.8a23 23 0 0 1 2.8-9.2l.1 1.4M183.6 236.6c.7-2.4 2.3-4.5 4.3-6.2M179.4 230c.4-.6.3-1.5-.4-1.9l-.2-.1c-.7-.3-1.5-.2-2.2.1-2.4.9-4.5 2.1-6.7 3.5M164 226.3c-3.4.7-6 3.6-5.8 7.2M156.5 228.1c.4 3.4-1.4 6-4.5 5.3-3.1-.7-5-5.8-7.4-8.1M165.5 233.3c0-3.6 2.2-7 5.4-8.6M141.2 230.4c.6-2.6.9-5.1.8-7.7 0-1.2-.5-2.6-1.5-2.8M108 224.9c-.8-2.4-2-4.7-3.2-7M104.2 225a16 16 0 0 0-5-6.3M96.7 226.1a19.4 19.4 0 0 0-5.9-4M381.7 241.7a50 50 0 0 1 3.8-5.7M389.2 241.8l2-3.7M499.7 235.2l-7.2 9.3c.4-1.4-1.7-3.8-1.3-5.2v1.3M483.7 246c.7-1.6.9-3.6.7-5.4M477.4 246.3a10 10 0 0 0-1.7-6.3M469.3 243.8c-1-2.4-2.4-4.5-4.2-6.4M465 245.4a20.4 20.4 0 0 0-5.3-8.1M459.3 242.7c-1.4-2-3.3-3.8-5.1-5.4M364.8 241.1a63 63 0 0 1 4.8-15.1M409.7 240.8c.8-3.8 2.2-7.3 4.2-10.6M426 245a19 19 0 0 1 5.2-13.8M423.1 247.8l-.3-9.7M417.8 248.3c.4-4-1.2-8.3-4.2-11.1M435.3 247.9c1.1-3.2 2.6-6.4 4.8-9.2M448.3 246.2c0-2.4 1.1-4.7 3-6"/>
    <path d="M460.7 248.6c.3-6 1.5-11.9 4-17.4M501.8 247c2-4.3 4.5-8.1 7.8-11.7M512.1 245.2c3 .2 5.8-1 8-3.1M497.1 248.5l4.1-13.9M487.6 249.6c.4-3.1-.5-6.2-2.2-8.6M479.6 249.5a42.8 42.8 0 0 0-4-7.1M399.4 248.9c.1-3.5-.4-7.2-2-10.5M390 250c.8-2.7.2-5.6-1.5-7.9M386.2 247a12 12 0 0 0-4.5-6.7M380.6 247.3c-1.4-.5-1.7-2.7-1.6-4.2a72 72 0 0 1 2.9-16.4M376.2 243.5l.3-8.2M373.2 241.4l-.5-2.5.1 1M389 246l4.2-13.8"/>
    <path d="M385.1 250.6c.6-5.4 1.4-10.8 2.5-16M373.1 252.3c.4-3.4-.1-7-1.8-10M362.6 251.1a16 16 0 0 0-3-8.6M408.6 246.8l2-4.1M325.8 246.3c.1-2.6 0-5.5-.6-8.2M323.5 256l-1-4.6M318.6 256a34 34 0 0 0-10-11M317.4 247.5c.2-3.7-.1-7.4-.7-11M331.6 246.5a8.5 8.5 0 0 0 2.5-8.2M327.3 227.5l-.3-9.6M391.6 227.3c.1-2.4.7-4.7 1.7-6.8M388.8 226.4a6 6 0 0 0-1-5.8M382 224.3l-4-6.2M443.3 233.6l3.1-6.9M439.8 230l.6-8.2M433.9 221.9c.8 2 1.2 4.2 1.2 6.4-1-1.7-4.8-4.7-6.3-5.8M432.9 237.4l.2-4.5M425.2 231.4a22 22 0 0 0-3-7.2M405.6 217.2l.3-4.5M368.7 225.6a11 11 0 0 0-2.5-5M337.5 226.4c.1-2.4.7-4.8 1.7-6.9M333 224.7a2 2 0 0 0-1.9-2.2h-.3M318.8 224.7a9 9 0 0 0-2.5-5.5M322.5 235.9a21 21 0 0 0-6-6.8M331.6 238.4l-4.6-10.3M324.8 241.3c-.2-2.4-1-4.6-2.6-6.4"/>
    <path d="M318.6 244.2c-1-1.8-2.6-3.4-4.3-4.6M302.3 243.8c-.1-2.1-.8-4.2-2.2-6M276 241.3l-.3-8.2M286 240.5c0-2.6.8-5.2 2.3-7.3M291.9 246.8a9 9 0 0 0 .5-5.1M269.8 249.2c-.3-2.6-1.1-5.1-2.4-7.4M260.8 253.6c-.4-3-1.7-5.7-3.7-8M251.5 247.9l-.2-5.5M251.6 232a28 28 0 0 0-5.8-9.4M232.7 230.7c.4-3-.2-6-1.4-8.7M225 230.4c-.7-2.1-1.5-4.1-2.8-6M234.5 249.7c.4-4.2 1.7-8.3 3.7-12M243.5 245.8l-1-5M229.1 240.7l-2.2-4.1M219.8 246l-3.4-5M209.3 248.2c-2-2.3-3.5-4.8-5-7.5M201 232c-.7-3.5-.1-7 1.3-10.1M192.8 230.4c-.1-3-.7-6-2-8.8M189.3 231.4c-.4-3.1-1.3-6.1-2.4-9M183 231l-3.5-7.6v1.3M180.4 246.2c-.2-2.7-.3-5.5-.2-8.3 0-1.3.8-3.2 1.9-2.7M193 236.6c0-.4-.6-.4-.9-.1-.3.2-.3.7-.3 1l-.6 6.9c-.2-3.4 1.2-6.3 1.6-9.6.1-1 .7-2.2 1.4-1.9M203.1 236c-.1-.5-.4-1-.8-1.4l-2.7 6.5a29 29 0 0 0 8-5.8M212.6 244.4l1.1-2.3M171.3 248.2l-6-7.5M116.5 243.8c-.7-2-1.5-3.8-2.7-5.7-.1-.4-.4-.7-.8-.8-.4-.1-.9.3-.7.7M107.8 248.2a12 12 0 0 0-7.5-7.4M97.7 245.8a49 49 0 0 0-7.5-7M133 223.3l-.1-5.8c0-1 .3-2.2 1.1-2M135.9 219.2l4.6-11-.4 1.3M162.1 221.6c1.6-4.4 4.3-8.3 7.7-11.4M188.1 220.5l2.9-8.2M200.7 221c-1-2.8-.1-5.9 2.1-7.9M159.9 249.5c0-1.6-1-3.2-2.4-3.9M142.6 258.6a10 10 0 0 0-4-7M130 263.4l-2.6-3.6M121.3 265.6l-3.5-5.4M133.8 247.5l-.3-12.3M127.4 245.3c.1-1.4-.2-2.8-.4-4.2-.5.6-.6 1.3-.5 2M123.2 249.6c-1-3.7-3-7-5.8-9.8M117.8 249.7c-2-3.8-4.8-7.2-8-10M106.3 255c-2-3-4.2-5.7-6.7-8M96.7 256l-4.6-5.3M101.7 235c-1.9-3.8-3.6-7.6-5.1-11.6M89.5 236.3a16.8 16.8 0 0 0-6.8-5.8M83.6 235.6a12.9 12.9 0 0 0-4.5-3.3M68.8 237.7l-6.1-4M106.5 231.8c-1.6-2.7-4-5-6.8-6.2M114.5 233.8c-1.8-5-4-9.8-6.2-14.4M107.9 220.3a30 30 0 0 0-6.8-10.8"/>
    <path d="M90.5 240.4c.2-4.8-.6-9.5-2.1-14M83.3 241.1a32 32 0 0 0-4.8-8.2M70.4 242.3l-3.8-2.7M137.8 243.2a20 20 0 0 1 2.3-8.3M190.7 216c2.5 3 4.5 6.5 5.8 10.1-1.6-3.5-.4-6-2.3-9.4M203.1 227.3c-1.2-3.6-2.7-7-4.2-10.2M206.4 227.8l-.3-10M211.5 225.7c-.8-3.1-1-6.4-.6-9.5.6 2.6 1.5 5 3.1 7.1.3-2.8.8-5.5 1.8-8.2M219.2 223.2c.6-3.1 1.9-6.1 3.7-8.6M228.7 223c1.1-2.5.7-6 2.8-7.6a14.7 14.7 0 0 0-7 8M232 223a8.5 8.5 0 0 1 4.5-5c-.3.8-.3 1.6-.3 2.5.3.1.4-.2.6-.3l4.5-5.5M275.6 207.8l6 11.6c0-2 2.3-5.3 2.3-7.1l.5 3.1c2-2.4 3-2.4 4-5.4.5.5.6 1.2.6 1.9M292 218.8c-.1-2.4.3-4.7 1.4-6.8M302.6 219c.1-2.2.8-4.3 2.3-6.2-.2 2.3 0 4.6.4 6.8 1.2-3 2.6-5.8 4.3-8.4.6.8.9 1.7.8 2.6M328.4 219.4l.3-11M328.9 226.1c2.8-6.5 8-11.7 14.7-14.5M336.6 223.6c1.8-5 6.7-8 12-7.6M350.5 222a5 5 0 0 1 3.2-6h.2M358.8 221.9a26 26 0 0 1-.7-8.8l.3-.7c.3-.1.6.2.4.3M364 219.8c-.5-2.9-1-6.1 1-8.4a3 3 0 0 1 2.4-1.2c1 0 1.9 1 1.8 2M373.5 221.9c1.1-2.7 2.9-5 5.1-6.8M391.2 221.9c-.3-3.2-1.3-6.4-3-9.2v1.4M401.5 222.7c-.9-2.5-2.5-4.6-4.7-6.2M406 216.3c-.6-.6-.1-1.8.6-2a4 4 0 0 1 2.5.1c2.6.9 5 2.1 7.2 3.7M422.8 212.6c3.7.5 6.4 3.5 6.4 7.2M421.1 219.5c0-3.8-2.4-7.2-5.9-8.6M464.8 207.5c-3.4-2.3-6-5.4-7.8-9M470 212.3a44 44 0 0 1-.1-9.6M474.3 208.8c1-2.7 2.5-5.3 4.6-7.2M465.8 211.3c-1.1-4.4.3-9 3.5-12.2"/>
    <path d="M458.6 210c.3-3.8 2.4-7.2 5.6-9.2M475.7 213.3c-.6-3.8.4-7.8 2.8-10.9M483.9 211.3a46 46 0 0 1 3.5-7M488 211.4a16 16 0 0 1 5.5-6.3M496.2 212.6c1.8-1.7 4-3.1 6.3-4.1M185.8 227.3c-1.3-2-2.7-4-4.3-5.8M177.6 227.4l-2.2-3.7M57.3 220.5l8 9.3c-.5-1.5 1.8-3.8 1.3-5.2v1.3M74.7 231.5c-.7-1.7-1-3.7-.7-5.5M81.5 231.6c-.2-2.2.5-4.5 1.8-6.3M90.2 229.3c1.2-2.4 2.7-4.6 4.7-6.4M95.2 230.7c1.2-3.2 3-5.8 5.6-8M101.3 228.1a33 33 0 0 1 5.5-5.3M143.4 230.7l.2-11M204.3 226.8a64 64 0 0 0-5.3-15M155.4 226.4c-.9-3.8-2.4-7.3-4.6-10.6M137.7 230.5a18 18 0 0 0-5.8-13.7M140.7 233.3l.3-9.6M146.5 234A13 13 0 0 1 151 223M113.3 231.7a8 8 0 0 0-3.3-6.1"/>
    <path d="M99.8 234c-.2-6-1.7-11.8-4.3-17.3M55 232.2a49 49 0 0 0-8.6-11.6M43.7 230.5c-3 .2-6.2-1-8.6-3M60 234l-4.5-14M70.6 235c-.4-3 .4-6.2 2.2-8.6M79.2 234.9c1.1-2.5 2.7-5 4.4-7M166.5 234.5c-.3-3.6.6-7.2 2.1-10.5M176.7 235.6a8.6 8.6 0 0 1 1.7-7.8M180.8 232.6c.7-2.6 2.5-5 4.8-6.5M187 233c1.6-.5 1.9-2.6 1.7-4.3a69.7 69.7 0 0 0-3-16.4M191.7 229.3l-.3-8.2M195 227.1l.5-2.5-.1 1.1"/>
    <path d="M182 236.3c-.5-5.4-1.5-10.7-2.8-16M195.2 238c-.6-3.4.2-7 2-10M206.5 236.9a14 14 0 0 1 3.4-8.6M156.5 232.3l-2.1-4M246.6 232c-.1-2.6 0-5.4.6-8.1M249.2 241.7l1-4.5M240.4 232.2c-2.4-2-3.5-5-2.8-8.2M245 213.4l.2-9.6M185.3 210l4.3-6.2M122.5 215.5l-.8-8.2M129 207.5c-.9 2-1.5 4.2-1.5 6.3 1.2-1.7 5.3-4.5 7-5.7M138.3 216.8c.7-2.5 1.8-5 3.4-7.2M200 211.3a9.7 9.7 0 0 1 2.8-5M234 212.2c-.2-2.4-1-4.8-2-7M238.7 210.4a2 2 0 0 1 1.9-2.2h.3M254.1 210.4c.3-2 1.3-4 2.9-5.3M266.9 209l.2-9.6M250.2 221.8c1.7-2.7 3.8-5 6.5-6.8M240.4 224.2l4.8-10.3M247.8 227.1c.1-2.4 1.1-4.6 2.6-6.3M283.5 232.6a7 7 0 0 1-.6-5M317.4 239.6c.5-3 1.9-5.7 4-8M327.6 233.8l.1-5.5M319.6 220.8a18 18 0 0 0-2-13.5M313.5 221.2c0-2.4.8-4.8 2.4-6.8M327.5 218c1.4-3.6 3.5-6.7 6.3-9.4M322 225.6l2-10.5M348 216.7c-.3-3 0-6 1.5-8.6M356.3 216.4c.7-2.1 1.8-4.1 3.1-6M346.1 235.8c-.4-4.3-1.8-8.4-4-12M336.2 231.8l1-5M352 226.7l2.3-4.1M362.2 232l3.8-4.9M373.5 234.2c2.1-2.3 3.8-4.8 5.4-7.5M382.6 218c.7-3.4.3-7-1.4-10M391.5 216.4c.1-3 .8-6 2-8.8M395.4 217.5c.6-3 1.4-6 2.6-9M402.2 217.2l3.8-7.4.2 1.2M391.2 222.8c.1-.5.7-.5 1-.2.3.3.4.7.4 1.1l.7 6.8c.3-3.4-1.3-6.2-1.7-9.6-.1-1-.7-2.1-1.7-1.8M380.3 222c.1-.5.4-1 1-1.4l3 6.5a30.4 30.4 0 0 1-8.8-5.8M370 230.4l-1.3-2.3M464.8 223.4c.3-3 1.6-5.9 3.8-8M474.7 230c.7-1.9 1.7-3.7 3-5.6.1-.4.5-.7 1-.8.4-.2 1 .3.8.7M484.1 234.5c1.5-3.6 4.6-6.3 8.2-7.4M495.2 232c2.4-2.5 5.2-4.9 8.2-6.8M456.6 209.6l.1-5.8c0-1-.4-2.2-1.2-2M451 218.8l-5-11 .4 1.2M424.8 207.8a29.2 29.2 0 0 0-8.3-11.5v1.3M417.5 209.3l-2.7-2.8M396.5 206.6l-3-8.2M382.9 207c1-2.8 0-5.9-2.3-7.8M427.4 235.6c0-1.7 1-3.1 2.5-3.8M446.3 244.8c.4-2.8 2-5.4 4.4-7M460 249.7l2.8-3.5M469.5 251.7l3.8-5.4M455.9 233.6l.3-12.3M462.8 231.7c-.1-1.5.2-2.9.6-4.3.4.6.6 1.3.4 2M467.3 235.9c1.2-3.8 3.3-7.2 6.3-9.8M473.1 236a37 37 0 0 1 8.8-10M485.9 241.3c2-3 4.6-5.7 7.3-8M496.2 242.5l5-5.3M490.8 221.5c2-3.8 3.8-7.6 5.5-11.6M504 222.7c2-2.5 4.5-4.5 7.3-5.7M510.4 222c1.4-1.4 3.1-2.5 5-3.2M526.7 224.2l6.6-4.1M485.4 218c1.7-2.8 4.4-4.9 7.4-6.1M476.8 220c2-4.9 4.3-9.7 6.8-14.3M473.1 218.7c.2-4.6 1.7-9 4.5-12.6M468.8 218.5c3-6.5 4.6-13.6 5-20.6M484 206.6c1.6-4 4.1-7.9 7.4-10.8"/>
    <path d="M503 226.7c-.2-4.8.7-9.5 2.4-14M510.7 227.4c1.3-3 3-5.6 5.1-8M524.7 228.7l4.1-2.7M451.4 229.5c-.2-3-1-5.8-2.4-8.3M294.8 223V98.8h6.1V223h11l-13.7 14.3-13.6-14.3s9.7-.5 10.2 0ZM274.5 52.6c.3-.8 7.6-7.9 7.6-7.9S274 33.8 260 33.8c-12.7 0-21.2 5.5-25.8 15.3-4.3 9-5.5 24.3 3.6 33.6 9.2 9.4 18.4 10.3 25.5 9 12.4-2 17.2-10 17.2-10l-7.6-8.2s-4.5 6.7-12.2 7.4c-10.3.8-17-5.5-17.6-14.3-.6-10.6 1.8-16 10-19.5 8.2-3.4 14.8.9 17.2 2.1 1.9.9 3.2 2.2 4.3 3.4ZM287.2 66c-.9-12.4 4.2-31.5 28-31.5 23.7 0 29.2 19.1 28.8 28.9-.6 14-8.2 28.2-27.3 28.2-19 0-28.5-13.1-29.5-25.6Z"/>
    <path d="M316 45.1A17.1 17.1 0 0 0 299 64c1 12.8 11 17.3 16.7 17.3 5.8 0 16.4-6.7 16.4-15.8 0-9.2-5-20-16-20.2ZM339.8 106.7c-.3-1.2-8.5-4.8-8.5-4.8s3.4-7.3 10.8-9.4c7.5-2.1 12.8-1 16.4 1.8 5.6 4.3 7.7 12.4 5.3 16.7-2.4 4.2-16.4 20.6-16.4 20.6l18.5.6v9H332l-.3-8.5s20.7-20.3 22-22.7c1.3-3 .4-6.6-2.5-8.5-3.4-2.1-6-.6-7.9 1.6-1.1 1.4-2.4 2.5-3.6 3.6ZM168.8 208.6l-.9-1.5c-.4-.7-2-2.3-2-3.7 0-1.7.3-3.4 1.3-4.7 1-1 2.4-1.5 3.8-1.2.6.1 1.2.4 1.4.8 1.8.6 3.2 1.6 4.2 2.8 1 1.8-.8 3.6-2.2 4.3a18.3 18.3 0 0 0-5 3.2M168.8 208.6c-.2.2-.4-.1-1.3-.7-2.2-1.3-3.8-2.8-5.5-2.7-1.5 0-3 .7-4 1.7a7.5 7.5 0 0 0-1.5 3.8s3.5 4.7 6 4.1c2.2-.5 3.9-2 5.2-3.8.7-1.2 1.1-2 1.4-2"/>
    <path d="M169 208.6c.5-.3 5.3-1.7 8.1-1s1.9 5.3 1.4 6.3c-.4 1-2 4.5-5 3.2a7.1 7.1 0 0 1-4.4-4.8 5.5 5.5 0 0 1 0-3.7ZM413.2 228.5c-.1.5-.4 1-.4 1.4a9.3 9.3 0 0 1-1 3.4c-1 1-2.2 1.7-3.7 1.9-1 0-2.2-.6-3-1.6-.2-.4-.2-1 0-1.4a7.2 7.2 0 0 1-.6-4.2c.4-1.7 2.5-1.6 3.8-1.2.8.5 1.7.8 2.7.9l2.4.4"/>
    <path d="M413.2 228.7c.2 0 .2.3.3 1.3.4 2 .4 4 1.6 4.9.8.8 2 1.4 3.2 1.4a5 5 0 0 0 3.3-1.3s.8-5-1-6a7.4 7.4 0 0 0-5.3-.9c-1 .3-2 .6-2 .3M413 228.5c-.5-.1-4.2-2.2-5.3-4.3-1.1-2.2 2.3-4.1 3-4.4.7-.3 4-1.3 5 1.3.6 1.8.5 3.8-.5 5.5-.4.8-1.3 1.5-2.3 2ZM444.6 206.8l.6 1.1c.1.3 1.4 1.6 1.5 2.5 0 1.3-.3 2.6-1 3.7-.7.9-1.7 1.3-2.7 1.3-.4-.2-.7-.3-1-.6a5 5 0 0 1-3-1.8c-.8-1.3.7-2.7 1.6-3.4l2.2-1.4 1.8-1.4"/>
    <path d="M444.6 206.8c.1 0 .3 0 1 .4 1.5.8 2.7 1.8 4 1.5 1 0 2-.7 2.8-1.5.7-.8 1-2 1.1-3 0 0-2.5-3.2-4.2-2.6a7.2 7.2 0 0 0-3.6 3.2c-.5 1-.8 1.7-1.1 1.7M444.3 207c-1.8 1-3.7 1.3-5.8 1.3-2-.2-1.3-3.8-1-4.5.3-.7 1.6-3.7 3.7-2.8 1.6.4 2.8 1.7 3.1 3.4.4.7.4 1.7 0 2.5ZM267.4 224.6c5.4-7.2 2.4-10-.7-11.3-3.1-1.4-4.8-.6-5.5.8-.7 1.5-2.3 4.1.3 7a12 12 0 0 0 5.9 3.5Z"/>
    <path d="M266.7 224.2c-2.8-1.3-8-1.2-9.3 0-1.3 1-4.3 5.6-.3 6.2 4 .6 5.5 3.8 8 .3a8.2 8.2 0 0 0 1.6-6.5ZM267.7 224.7c2.3 1.4 10 4.1 11.7 1.2 1.7-3 3-3.7-.5-6.3-3.6-2.5-5-2.2-7.7-.1a15 15 0 0 0-3.5 5.2Z"/>
  </g>
  <g opacity=".8" stroke="#333" stroke-width=".7" stroke-miterlimit="10">
    <path d="M244.1 389.4c.8-3.5 0-70 0-70s13.3-5.4 35.1-4.2c18.4.3 31.7 5 31.7 5v69.2M176.6 389.4c.6-3 0-61.4 0-61.4s15.2-4.5 31.2-4.1c16 .3 27 5.4 27 5.4V359"/>
    <path d="M134.4 389.3c16-1.1 309.2 2 309.2 2"/>
    <path d="M311.3 367.6c3.5-.4 77 0 77 0l-.4 23.4"/>
    <path d="M424.1 391.8v-6S399.5 368 398.3 368a784 784 0 0 1-10.1-.3"/>
    <path d="M310.9 350.7c3-3 16-10.9 37-10.9 33.2 0 47.7 12.5 54 21a41.1 41.1 0 0 1 5 13M244.1 359l-9.3.2c-2.1 0-4.2 0-6.3-.2-1.1-.3-23.4 17.2-23.4 17.2V389M228 389.4c.4-2.7 0-12.9 0-12.9l16.4-12M205 376.2l23 .3M182 338.7v38.1M184 386.3V357M248.8 386.3v-48.6M252 386.3v-56.2M298.2 385.5v-44.9M301.2 389.8v-37.5M303.8 386v-54"/>
    <path d="M341.5 355.3c.2-.7.5-1.3 1.2-1.7 4.5-3.7 10.1-6 16-6.3M350.4 355.8c6.9-5 15.2-7.4 23.7-6.9M129.3 389.2l-26.6.1M137 369.5c-1.3 9.8-3.4 22.8-4.7 32.6M130.4 370.2c.2 9.7-1.2 23.5-2.7 33"/>
    <path d="M133 367c.4 1 .4 2 .2 3.1-.8.5-2 .2-2.8-.1-1-.3-2.3-.3-2.8.6l-.4.7c-.8.6-1.5-1.4-2.4-1.2-.7.1-.7 1.1-1 1.8-1.1 1.7-4.2-.7-5.7.7-.7.6-.5 1.8-.8 2.7-.3 1-1.8 1.5-2.1.6.2.8-.7 1.5-1.5 1.6-.8 0-1.7-.2-2.5 0-1.6.3-2.6 2-4.3 2.3-1.5.2-2.8-.8-3-2.3v-.8c.2-.7.6-1.4 1-2 1-2 0-2.3-.1-4.6.2-2.3 3.6-2.5 5-2.7 1.7-2.1-2.4-1.8-3.5-2.6a5.4 5.4 0 0 0 2.7-3.8c2 .4 4.7.6 5.5-1.3.2-.4.3-1 .8-1 .8 0 .9 1.7 1.6 1.4.2-.7.7-3.7 3-3.7 2.3-1-2 3.2-1.8 4l.4.8c.5.4 1.2.4 1.7 0 .4-.5.7-1 .8-1.6-.2 1.1 1.3 2 2.5 1.6 1.1-.3 4.1-3.2 2-2.6l1.5 2.6"/>
    <path d="M136.8 361c3.2 1 3.8-.5 4.3-3.9 2.2-2.1 3.4 1.3 4.4 1.3 1 0 3-2.8 3-3.8 2.7 0 1.4 3.4 2.4 3.5 1 0 1.1-.7 2.3.7 0 1-2 .7-1 1.2a2 2 0 0 0 2.3-.3c.6-.5.3-3 3-2 2.2 1 0 2.8.9 3.5.9.6 2.8-.9 3.7-1.7 1.9-.7 0 2.6 1 3.3 1.2.7 2 2.3 1 3.2l-3.4.1c1 0 1.9.7 2 1.7l-.1.6c-2.9.2-1.8 2.2-4.7 2.3-1 0-3.2 2.2-4.6.2-.5-1.3-2.1.8-4 1-2.3 0-2.6-3-3.4-3.1-.9-.2-2.1 2.4-2.7 3-1.7-.2-.3-3.6-.9-3.9-.5-.3.2 5.1-1.9 4.7-1.4-1.2 1.6-6.8-1-7-.5 0-.7 3.2-2 3.9-1.8.2-1.6-2.4-2.5-4.3l-1.4 1a3 3 0 0 0-4.1-.4c0-.6-.7-1-1.3-.9-.6 0-1 .6-1 1.2V365l-1-.1M115 358.8c-.9-.7-.6-1.6-1-2.6-.5-1-.1-2.4.9-2.8-2-.9-3-3-2.5-5.2l-2.8-.1c1.7-2.7 5-4.2 8-3.5.5 1.3.7 2.6.6 4 1-.3 1.8-1 2.4-1.9-.5.9.4 2 1.4 2.2 1 .2 2-.1 3 0 .9.1 2 .9 1.9 1.8 0 .4-.9.5-.9 0M120.8 344.1c-5-1.3-2.4-7-3.4-7.6a2 2 0 0 0-2.8.8v.1c.2-1.2-2.4-.8-3.2-2a2 2 0 0 1-.3-.8c.1-1.8 2.7-2.8 4-1.5-.2-1.6.6-3.2 2-4-1.1-1-2-3-.8-4 1-.7 2.4-.2 3 .9.5 1 .8 2.2.5 3.4l3.2.1.1 3.6c1.8.5 3.8-.5 4.3-2.3a3.4 3.4 0 0 0-3.6-4.4c.3-.7.3-1.5 0-2.2-.2-.7-1.2-1.1-1.7-.6.3-1.7-2.2 0-3.6-1.1-2.1-2.3 2-3.5 1.4-3.7-.7-.3-3.5-.8-2-3.8 2.5-1.6 4.5.7 4.8-.3.4-1 0-2.1-1-2.8.7-2.8-5.5-5-2.4-5.6.8-1 4.2-3.5 5-2.5.8 1 .9 2.4 1 3.7.8-.2 1.4-1 1.4-1.8.5 1.2 2.7.5 3-.8.1-1.3-.9-2.5-2-3.3-1-.8-2.3-1.3-3-2.5.5-.4 1-1 1-1.7s-.9-1.4-1.4-.9c1-1.3 2.4-2.6 4-2.8 1.7-.3 3.6 1.4 2.9 2.9.1-.4 4.3.4 3.1 1.7 0 1.5-4.2 1.5-4.1 3"/>
    <path d="m117.8 345.5 3-1c1-1.3.7-3.1-.5-4l-.7-.6c-.3-.6.2-1.3.8-1.6.5-.3 1.3-.5 1.5-1.1.5 1.3 2.6 1.5 3.6.5s1.4-2.5 1.6-4a2 2 0 0 1 2.5-.3 4 4 0 0 1 1.7 2.1c.4 1.3.5 2.7.3 4l3.3.3c-.5.8 0 2 .6 2.7.7.7 1.5 1.5 1.7 2.4.3 1.5-.9 2.9-2.3 3.2-1.5.2-3-.3-4-1.3.6 1.8.5 3.7-.2 5.5h1.3c.4.4.2 1-.1 1.4-.4.4-1 .5-1.3.9-1 .7-1.2 2-.5 3 .6.7 1.6 1 2.4.7M150.7 356.3c1.4.4 1.8 1.6 2.8.5 1-1.2 1.5-4.6.8-6 1.8-.8 1.3 4.6 3.4 4.1 1 0 2-2.7 2.6-3.4.8-1 2.2-.9 3.3-1 1.2-.2 2.6-1 2.2-2.2.8 0 1 1 1.6 1.5.8.9 2.4.2 2.8-.9.2-1.1-.3-2.3-1.4-2.9-1-.6-2.2-.9-3.3-1a2 2 0 0 1-1.1-.2c-3.7-2.3 5-5.4 5.2-6 .4-1.3-1.5-2.7-.8-3.8.6-1.1 2.5-.2 3.6-.9.8-.4.9-1.4.9-2.3a4 4 0 0 0-.6-2.3 2 2 0 0 0-2.1-.9c-.7.2-1 .9-1.5 1.3s-1.4.7-1.8.1a1.8 1.8 0 0 0-2.1-1.2c.5-.8.8-1.8.7-2.8-.1-1-1-1.9-2-1.6v-2.3c-1-2-2 .2-2.9-.3-.8-.4-1.4-1.5-.8-2.3-1.7.5-3.4 1-5 1.8 0 1.6 0 3.1-.3 4.6 0 .5-.3.8-.7.8h-.4l-2.3-.5c-.4 0-.9-.2-1.2-.5-.8-.9 0-2.2-.2-3.3-.4-1.5-2.5-1.5-4-1.1l-.1 2.2c-.6-2-2.7-3.2-4.7-2.6l-.2.1c.9 1.1-1.4 2.4-1.4 3.8 0 .9.6 1.5 1.1 2.2 1.2 2.1.5 4.7-1.6 6l-.7.2"/>
    <path d="M143.1 344.5a6.3 6.3 0 0 1 0-5.3c.6-1.2 1.7-2.3 2.9-2.2 1.2 0 2.2 1.9 1.3 2.7 1.2.5 2.6.2 3.4-.8.3.2.5.6.5 1 .8.6 1.8-.3 2-1.2 0-.8-.2-1.8 0-2.6a3 3 0 0 1 3.4-2.3l.9.4.3 2.6c.7-.5 1.6-.4 2.2.4l.2.2c.5-.5 1.2-.9 1.9-.9l.4 2M133 320.6c-1-1.5-2.3-3-2.2-5 0-1 .5-1.9 1.3-2.4 1.3-.8 2.6-.1 3.8.5.4.2.9.3 1.3.1.3-.1.5-.4.7-.6l3-4.6c0-.3.3-.6.6-.8h1c1.9.3 3.4 1.5 3.9 3.3l-.2 1.5a3 3 0 0 0 3.3-1.1c.7-1 1-2.3.8-3.5 0-.4 0-.7.2-1.1.2-.3.6-.4 1-.4l2-.3.8.1c.2.2 0 .7 0 1 .2.5.8.9 1.4.7h.3c.6-.5 1-1.1 1-1.8 2 .5 3.3 2.3 3.2 4.4h2.3c-.4.6.5 1.3 1.1 1.2.7-.1 1.4-.5 2-.2.7.5.7 1.3.4 1.8-.9 1-2.2 1.1-3.3 1.6a4 4 0 0 0-2 4c.1.5-.3 1-.8 1.1h-.3c-.5-.1-1-.4-1.5-.7M132 296.2c.3-.5 1-.6 1.5-1 1-1 .2-2.4-.2-3.7-1-2.8-4.8-4.6-2.5-6.6 1-3.7 8.3.7 9 2.6a2 2 0 0 1 2.7-.6c.3.2.5.4.7.8.1.3.1.7.5.9.4.3 1 0 1.4-.2 1.2-.2 2.2 1 2.3 2.2-.1 1.2-.5 2.3-1.1 3.3 2-.7 4.2 2.5 2 3.9-.7.4-1 1.1-.7 1.9.4 1.2 2 .3 2.4-.7.5-1 1.5-2 2.3-1.3.4.9.6 2 .4 2.9l1 2.4c.3.7.4 1.4.3 2.1-.2.7-1.3 1-1.7.4"/>
  </g>
</svg>
