<svg width="925" height="1000" fill="none" xmlns="http://www.w3.org/2000/svg">
  <path d="M632 321.9c41.6 17.6 88 27.1 122.3 56.5 57 49 61.5 134.1 61.6 209.3 0 30.7-.3 62.9-14.6 90-18.9 35.7-57.6 55.3-93.9 72.7L490 854.5c-42.3 20.3-89.8 41-134.5 26.9-43.1-13.6-70-55.4-93.3-94.3-50.2-83.7-101-168.8-125.5-263.3-27.6-105.6-69-320.9 75-357.7 169.6-43.3 280.9 96.7 420.5 155.8Z" fill="#E6CFCC"/>
  <path d="M362.3 519c-.5-4.5-32.6-114-36-120.3-3.4-6.3-26.4-26.8-29.8-26.8-3.4 0-5.8 2.4-2.5 6 3.3 3.4 15.6 14 21 22.3 5.5 8.2 33.7 119.4 35.1 120.8 1.5 1.5 163.2 10.3 166.2 9.8s51.7-14.6 52.6-16.6c.9-2 .5-77.5.5-77.5" stroke="#231F20" stroke-width=".7" stroke-miterlimit="10"/>
  <path d="M445.7 498.7c-.4-4-23-111.7-24.3-113.6-1.4-2-23-20-24.9-20.5-1.9-.4-4.4 1.5-4.4 1.5" stroke="#231F20" stroke-width=".7" stroke-miterlimit="10"/>
  <path d="M395.5 373.4s19 14.6 19.6 16.1c.5 1.5 19 111 19 111l135 13.7M296.6 372c2 .4 99-6 99-6s5.6 4.2 2 6.1c-4.2 2.3-91.3 6-91.3 6M305 388.4a4 4 0 0 1 2-3.1c1.1-.7 2.3-1 3.6-1.1M402.5 378.7l2.6-1.8c1.4-1 3.1-2 4.7-1.4 0 .3-.3.4-.5.3h-.1" stroke="#231F20" stroke-width=".7" stroke-miterlimit="10"/>
  <path d="M312.5 371.7c.4-.2.9.2 1.2.6 1 1.5 1.4 3.4 1.2 5.1M335 370c2 1.5 2.3 4.3.8 6.2l-.6.8M363.3 368.1c1.1 0 2.1.7 2.6 1.7.4 1 .7 2 .8 3.1 0 .8 0 1.7-.6 1.9M380.8 367.2a4.2 4.2 0 0 1 1 6.2M319.3 390c1.7 0 86-8.2 86-8.2M318.8 409.8s180.2 38.8 191.8 39.4c11.6.6 59-9.1 59-9.1M416.3 398.6l143.6 36M332.9 458.9c1.8-.7 168.6 21.9 179.4 20.7 10.9-1.2 57.2-10.3 56.6-12.2-.7-1.8-144.8-23.7-144.8-23.7M344.3 500.2c.5 0 156.6 10.3 167.5 9.8 10.8-.6 56-12.2 57.7-13.4 1.8-1.2-138.7-15.8-138.7-15.8s-87 19.4-86.5 19.4Z" stroke="#231F20" stroke-width=".7" stroke-miterlimit="10"/>
  <path d="M359.7 508.1c1.8-.6 73.6-16.4 73.6-16.4s135 11.7 136.3 15.2c1.3 3.6-50.5 15.2-55.3 15.9a6406 6406 0 0 1-166.1-11c-2.4-.6 11.5-3.7 11.5-3.7ZM326.4 398.7c.4-.2 170 36.1 187.1 36.1 17 0 56.6-6.8 57.5-8.7 1-2-155.1-35-155.1-35s-90 7.8-89.5 7.6Z" stroke="#231F20" stroke-width=".7" stroke-miterlimit="10"/>
  <path d="M499.6 433.4c0 1.4-1.3 11.1.8 11.7 4.5.7 9 .9 13.6.4 3.6-.4 7.2-1 10.7-2l.4-9.1M559.7 429.1c0 1.5-.9 7.7 2.6 8.1 3.4.5 9.2-.4 9.7-2 1.6-4.5-1-9.2-1-9.2" stroke="#231F20" stroke-width=".7" stroke-miterlimit="10"/>
  <path d="M562.3 423c.1 1.9.6 3.7 1.4 5.4M511.7 445.8l4 84.5M552.2 430l.7 89.8M556.8 429.7l1.2 88.9M562.3 437.2v80M567.1 437l-.5 79M546.4 431.5l1.3 90M540 432.2l2.8 90.6M534.2 432.7l3 92.5M529.5 433.7l2.4 93.3M524.7 443.6l3.5 83.4M517.9 444.9l4.8 84M504.5 445.5l1.7 85M495.3 432.4l2.6 97.6M486.8 431l1.8 98.6M477 428.7l4.1 100.4M469.6 427.8l4 100.4M460.3 426l7 101.8M453.2 424.3l7.5 103M445.7 423.4l8.4 103.9M436.5 421.3l9.6 105.2M428.4 419.9l10.2 107M420.5 419.4l11.5 107M413.2 416.8 425.7 525M405.4 415.1l13.7 110M398.4 413.5l14 110.8M390 411.4l15.5 112.4M382 410.1l16 113.7M372.7 408l17.7 115.3M363 407l21.7 116.8M351.9 404.8l25.7 117.7M371.4 522.9l-29.7-120.3M332.9 400.4l33.9 121.8M430.8 394l5 27M438.5 395.7l3.2 26.4M445.3 397.3l3.5 26.1M451.4 398.2c0 3 3.2 27 3.2 27M458.4 400l3.5 26.4M465.6 401.3l2.7 26M472.6 403l2.2 25.3M480.2 404.8l1.7 24.8M489 406.6l1 24.8M497.3 408.5l.6 24.4M505 410.1l-.1 23.8M512.4 411.7c.1 1.8-.4 22.8-.4 22.8M520.4 414.1l-1.4 20.4M527.7 415.6l-1 18.1M532.9 416.8v16.7M538.1 417.7l-.5 15.5M544 419l-.3 12.9M550.3 420.4l-1.1 10.6M555.8 422.1l-.8 8M409.9 392l4.3 24.5M403.5 392.2l3.8 23.1M395.7 392.5l4.5 21.5M388.6 393.7l3.9 18.5M381 394.4l3.7 16.2M373.1 395.1l3.2 13.8M365.2 396.4l2.6 9.8M356.3 396.4l3.1 8.9M347.5 396.4l2.2 7.1M338.2 397.7l1.8 4M506.7 627.8s-.6-6.6-2-9.3a59.7 59.7 0 0 0-10.4-10.6 9331 9331 0 0 0-125.7-85.8c-6.1-3.6-11.5-1.8-16.4.9-4.9 2.6-39.6 63.7-40.4 66.8" stroke="#231F20" stroke-width=".7" stroke-miterlimit="10"/>
  <path d="M493.4 626.4c0-4.9-3-8.4-7.5-13.2-4.4-5-113.7-80-119-81.5-5.3-1.3-8.4-1.3-11.5 1.8-3.1 3-32.7 55.7-32.7 55.7" stroke="#231F20" stroke-width=".7" stroke-miterlimit="10"/>
  <path d="m325.3 589.3-18.1 24.3-2.6-2.7 1.8-19 2.6-2.1 16.3-.5ZM486.8 626l21.7 1.7-18.2 21.2s-5.7 0-5.3-1.3c.3-1.3 1.8-21.6 1.8-21.6Z" stroke="#231F20" stroke-width=".7" stroke-miterlimit="10"/>
  <path d="M320.4 596.1a14.1 14.1 0 1 1-14.3-3.5M407.7 570.7c4.7 5.7 4 14-1.8 18.8a13.3 13.3 0 0 1-21.8-10.3c0-5.6 4.4-10.7 9.2-12.8M503.1 634.4a15.6 15.6 0 1 1-17-6M548.2 614.6a15.1 15.1 0 1 1-24 18.6 15 15 0 0 1-3.2-9.3c0-7.3 6.1-13.5 13-14.9" stroke="#231F20" stroke-width=".7" stroke-miterlimit="10"/>
  <path d="m393.5 563.6-.2 3.1-.7 16.4s4 1.3 4.9 0l12.8-17.2-16.8-2.3ZM398.6 564.2l5-8M410.5 560.7l-2.6 4.6M408 548.1l13.8-22M414.3 552.5l15.5-25.2M480.6 529.6s61.6 58 65 61.9c3.6 4 6.7 11.5 6.2 14.2M532.3 590.4l7.6 7.3c3 3.1 2.2 7.9 2.2 7.9M467 528.7l60.8 57.5" stroke="#231F20" stroke-width=".7" stroke-miterlimit="10"/>
  <path d="M530.7 623c.9-1.7 2.4-9.8 3.7-14.5.6-2.2 1.1-3.7 1.6-3.7 1.3 0 18.2 2.2 18.2 2.2l-16.4 20.3-7.6-.9.5-3.5ZM491.2 606c2.2-.9 42-15 43.4-17.2 1.4-2.2 0-4.4-2.7-4-2.6.5-46 16.5-46 16.5M130.3 255.4c0-3.7-3-5.2-9-13.2-6-8-12-28.4-10.6-39.3 1.5-11 9.9-30.5 20.8-39.8a64.3 64.3 0 0 1 37.8-12.5c11.5.3 16.3 4.5 19.7 1.5 3.4-3 19-27.2 18.5-33.3-.4-6.1-5.3-5-13.2-5.7-8-.8-33-1.2-45.8 1.1a102.5 102.5 0 0 0-69.7 48.5c-5.3 10.2-13.6 37.4-9.8 58.7A126 126 0 0 0 86.8 263c2 1.6-2.6 8.7-7.1 15.1s-11 19.3-11 20.8c0 2.8 10.2 3.8 16 3 5.6-.6 15.8 1.6 19.6-.3 3.8-2 26-46.2 26-46.2ZM234.7 113.3c-4.5.7-3 0-6.8 6.4S204.1 159 204.5 161c.4 2 6.8 9.5 10.2 13.3a79 79 0 0 1 10.9 31.4c0 8.4-2.3 25-11.3 35.5a61.4 61.4 0 0 1-42.4 23.9c-20.1 1.6-17.5-5.7-23-2.6-5.6 3-20.8 29-21.6 32.1-.7 3 1.2 6.4 9 6.4 8 0 43.1 2 55-1.1 11.7-3 32.1-9.9 48-26a105 105 0 0 0 26.8-51.5c1.4-11.7.7-39.3-8-55.2-8.7-15.9-10.2-12.5-8.7-17.4 1.4-5 18.5-32.2 18.2-33.7-.8-2.8-4.3-2.6-7.6-2.6l-25.3-.1Z" stroke="#231F20" stroke-width=".7" stroke-miterlimit="10"/>
  <path d="M137.5 196.5c-1.9-.5-5.7 1.5-6.4 8-.4 3.3 3.8 8.7 8 13.2l11.8.4s-8.3-8.3-10.7-12.8c-1.1-3-2-6-2.7-8.8ZM145.8 199c1.5 2.4 13.7 17.4 14.7 18.6 1 1.1 3.4.4 3.4.4v-14.4c-3.2.2-6.4-.2-9.5-1.2a59 59 0 0 1-8.6-3.3ZM172 204.4l.4 13.3 2.3.4s13.3-12.8 14.4-15.4c1.2-2.7 1.5-3.8 1.5-3.8a35.6 35.6 0 0 1-8.8 3c-6 1.4-9.8 2.6-9.8 2.6ZM184.8 217.3c5.3-5.7 10.2-9.5 11.4-12.9l1.9-7.1s3.7.4 5.2 2.3a8.2 8.2 0 0 1 1.2 9c-2 4.2-8 9.5-8 9.5l-11.7-.8ZM148.1 191.2c-1 1.2 12.8 4.5 15.9 4.5 3 0-2.3-5.2-6.1-6.4-3.8-1.1-7.5-.8-9.8 1.9ZM171.6 196l10.2-2.6c2-.5 3.8-1.3 5.6-2.3 0 0-1.4-4.2-7.5-2.6-6.1 1.5-6.9 4.9-6.9 4.9l-1.4 2.6Z" stroke="#231F20" stroke-width=".7" stroke-miterlimit="10"/>
  <path d="M135.6 226s-12-13.3-12.5-16.3c-.4-3-1.2-11.8 2.6-15.1 3.8-3.4 9.8-5.3 14-6.1 0 0 5.7-6.9 12.5-8 6.9-1.2 10.2 1.9 12.5 3.3 1.4 1 2.6 2.1 3.4 3.4 0 0 3-6.1 12.8-6.4 5.8-.2 11.3 2.6 14.4 7.5 0 0 8.3-1.1 13.3 5.3s5.7 11.4 3.3 15.9c-2.3 4.5-12 16.3-12 16.3l-64.3.2ZM136 229.8v7.4l63.5-.7.4-7.1-63.9.4Z" stroke="#231F20" stroke-width=".7" stroke-miterlimit="10"/>
  <path d="M168.2 170c-3 0-5.3 3-5.3 6 0 3.1 2 5 5.3 5 3.9 0 6.4-3.4 5.3-6.4-2-5-4.9-4.6-5.3-4.6ZM288.5 186.8c-.2-2 .2-4.3 3.1-4.4 2.2-.1 4.5 0 6.7.4 0 0 .8-3.7.4-3.8-3-.4-6.2-.3-9.2.4-4 1-5 3.3-5.4 5-.3 1.9-.3 5.9 2.1 7.5 2.5 1.7 7.8 4 8.8 5.2 1 1.1 1.8 4-.3 5.7a9.5 9.5 0 0 1-6.6 1.6c-2 0-3.4-.3-3.4-.3l-.5 3.5s7.7 1.3 10.8-.1c3-1.4 5.4-4 5.4-6.5 0-2.6-1-6.9-4.5-8.8-3.5-1.9-5.3-1.8-6.3-3a4 4 0 0 1-1.2-2.4ZM302.3 189.6l.4-3h4.5v-4.4l4-1.5v6.2l5.1.1v3H311s0 12.5.3 13 .3 1.9 2.4 1.9l3.2-.1-.2 3a15 15 0 0 1-5.7-.1c-3-.7-4-2.4-4-3.8l.2-13.7-4.9-.6ZM322.1 189.5l-.2-2.7s8.5-1.4 11-.1c2.3 1.2 4.7 3 4.7 7.1l.2 13.8-3.4-.1-.4-2.3a5.9 5.9 0 0 1-4.5 3c-3.5.2-7.6-.4-8.8-3.6-1.1-3.1 0-6.7 2.1-8 2.2-1.4 6.8-2 8.2-2 .9 0 1.7 0 2.4-.2 0 0 1.7-2.6-1.7-4-3.5-1.5-9.6-.9-9.6-.9Z" stroke="#231F20" stroke-width=".7" stroke-miterlimit="10"/>
  <path d="M333.8 197.3s.4 3.8-1 5.4c-1.4 1.5-3.4 2.2-6.4 1.7-2.3-.3-2.5-3.7-1-5.3 1.2-1.3 3.4-1.7 5.1-1.7l3.3-.1ZM350.4 186.5l-.2-5.8-3.8 1.7.2 4.6h-4.8l.4 3h4.4v13.2c0 1 1 4.3 4 4.6 1.9.2 3.9.1 5.8-.1 0 0 .3-3-.1-3-.5 0-3.4.7-4.5 0-1-.8-1.4-2.8-1.4-4l.2-11 5.3.5v-3.4l-5.5-.3ZM372.4 189.8v-3c-2.4-.6-4.9-.6-7.3 0a5.2 5.2 0 0 0-4.4 4.8c-.1.7.6 4.7 3 5.5a12 12 0 0 1 5.4 3.7c.7 1 .5 2.4-.5 3.1l-.4.2c-1.6 1-6 .3-7.3.5l-.3 3s5.6 1.3 8.2.1c2.5-1.1 4.5-3 4.7-5.1.2-2.1.7-4.1-5.2-7.2-5.8-3-3.3-4.6-3-5.1.3-.6 3-1 4-1 1 .1 2 .2 3 .5ZM378.6 195l.2 3.1H389v-3h-10.5ZM289 235.1l-.1-17.8h-4l.4 30.7s3.7.4 3.7-.1l.2-10.1 9 9.9h5.2l-10.7-11.5s10.2-9.1 9.8-9.1H297l-8.1 8ZM304.9 237c-.1-3 .7-10.3 10.5-10.6 7.8-.3 10.5 7.4 10.2 11-.5 4.9-3.5 10.8-10.1 10.8-7.6 0-10.4-5.7-10.6-11.2Z" stroke="#231F20" stroke-width=".7" stroke-miterlimit="10"/>
  <path d="M315.3 229.8c6 0 6.4 5.4 6.3 8.7-.1 3.3-3 7-6.5 6.7a7.2 7.2 0 0 1-6.5-7.4c0-4.2 2.3-8 6.7-8ZM330.7 277.3c0-3 .8-10.3 10.5-10.6 7-.3 10.4 6 10.2 11.7 0 5.4-3.4 10.1-10 10.1-7.7 0-10.6-5.6-10.7-11.2Z" stroke="#231F20" stroke-width=".7" stroke-miterlimit="10"/>
  <path d="M341 270c6 0 6.4 5.5 6.2 8.8 0 3-3 7-6.5 6.7a7.2 7.2 0 0 1-6.4-7.5c0-4.2 2.3-8 6.7-8ZM367.7 277.2c0-3 .8-10.3 10.5-10.7 7-.4 10.4 6 10.2 11.7 0 5.4-3.4 10.1-10 10.1-7.6 0-10.5-5.7-10.7-11.1Z" stroke="#231F20" stroke-width=".7" stroke-miterlimit="10"/>
  <path d="M378.1 269.8c6 0 6.4 5.5 6.3 8.8 0 3.1-3 7-6.5 6.7a7.2 7.2 0 0 1-6.4-7.5c-.1-4 2.2-8 6.6-8ZM386 237c-.2-3 .7-10.3 10.4-10.6 7.8-.3 10.5 7.4 10.2 11-.4 4.9-3.4 10.8-10 10.8-7.6 0-10.5-5.7-10.7-11.2Z" stroke="#231F20" stroke-width=".7" stroke-miterlimit="10"/>
  <path d="M396.3 229.8c6 0 6.4 5.4 6.2 8.7-.2 3.3-3 7-6.5 6.7a7.2 7.2 0 0 1-6.4-7.4c0-4.2 2.3-8 6.7-8ZM335.2 230.2l.3-3-3.8-.2.3 20.6 3.5.1s-.4-11.4.3-13.1c.6-1.7 2.4-5.4 6.4-4.8 4 .5 4 6 4 6l.2 12 3.7-.4s.4-12.8-.1-15.1c-.6-2.3-1.6-4.6-5.5-5.5-3.9-.8-5.7.6-6.5 1.3-1.2.5-2 1.2-2.8 2ZM357.8 227l.4-5 3.6-.8.4 5.8h5.1l.1 3-5.7.4s-.3 10.8.4 12.2c.6 1.3.3 2.3 2.7 2.4h3v3s-5 1-7.2-.7c-2.3-1.7-2.7-5.5-2.7-6.5l-.2-10.5h-4.3v-3.4l4.4.1ZM376 230.2v-3l-3.6-.4.2 20.7h3.6s-.4-10 .4-12c.7-2 1.4-5.4 4-5.7 2.7-.4 3.5.3 3.5.3l-.3-3.2a8 8 0 0 0-4.4 0 8.6 8.6 0 0 0-3.5 3.3ZM412.7 217l3.8.4-.1 30.4-3.8-.3.1-30.4ZM423.9 217.4h4l-.3 30.4-3.8-.3v-30.1ZM438 238.6l14.6-.3s1.4-11.9-9.2-11.6c-10.6.4-9.9 10.1-9.6 12.2.6 3.4 2.7 9.2 10 9.5 6.7.3 7.4-1 7.4-1v-3.2s-6 1.4-10.1-.1c-2.7-1-3-5.5-3-5.5Z" stroke="#231F20" stroke-width=".7" stroke-miterlimit="10"/>
  <path d="m437.8 235.2 10.8.2s-.3-5.8-5.2-5.8c-5 0-5.6 5.7-5.6 5.7ZM476.1 238.6l14.5-.3s1.5-11.9-9.1-11.6c-10.7.4-10 10.1-9.6 12.2.5 3.4 2.6 9.2 9.9 9.5 6.7.3 7.4-1 7.4-1v-3.2s-6 1.4-10-.1c-2.8-1-3.1-5.5-3.1-5.5Z" stroke="#231F20" stroke-width=".7" stroke-miterlimit="10"/>
  <path d="m475.9 235.2 10.7.2s-.2-5.8-5.1-5.8c-5 0-5.6 5.7-5.6 5.7ZM461.7 229.9l-.1-2.7h-3.5v20.3h3.7s-.4-9.4.4-12.1c.9-2.8 1-4.9 3.5-5.4 1.4-.3 2.8-.2 4.1.3l-.1-3.8s-3.2-.4-4.6.4c-1.3.8-2.5 1.8-3.4 3ZM502.4 230.4c0-.4 5.1-.3 5.1-.3v-3h-5.3l-.1-6-3.5 1.4v4.4l-4.8.2v3h4.5l.3 13.8c0 .8 1.4 4 4.3 4h5.4l-.4-3s-2.7.4-4-.3c-1.2-.7-2-2.2-1.7-3.7-.1-1.7.2-10.5.2-10.5ZM289.8 283l7-12.4s-5-2.7-7.7 3c-1.6 3-1.4 6.6.7 9.4ZM291.5 284.5l7.4-12.8s3.8 4.7 1.3 9.2c-2.4 4.4-5.2 4.8-8.7 3.6Z" stroke="#231F20" stroke-width=".7" stroke-miterlimit="10"/>
  <path d="M298.8 267.7s-9.4-2.8-13.5 3.7c-5 8 2.4 15 2.4 15l-1.4 2.9 1.8 1 1.4-2.4s9.3 3.2 13.9-4.8c4.6-8.1-3.2-14.6-3.2-14.6l1.7-2.6-1.9-1.2-1.2 3ZM314.9 275.5v-17.9H311v30.6h4V278l9.1 10.4h5.7l-11.5-12 10.1-9-5.7-.1-8 8.2ZM361.2 287.8l.3-30.2h-3.9v30.2h3.6ZM407.4 271.5a4.5 4.5 0 0 0-5.4-1.3c-2.3 1-4 3.1-4 8 0 4.8 2 6 5.5 6.3 3 .4 6.3-3 6-6.7-.1-3.7-1-5-2.1-6.3Z" stroke="#231F20" stroke-width=".7" stroke-miterlimit="10"/>
  <path d="M409.9 270.8c-1-1.5-.8-4.1-7.5-3.7-6.7.4-8 6.2-8.5 10.7a9 9 0 0 0 7.8 9.9c3 .4 6-.5 8.2-2.6 0 0 .6 4-1 6-1.5 2-4 3-6.5 2.7-3.3-.1-6-.4-6-.4v3.1s7.3 1.4 10.4.4c3.2-1 6.5-4 6.5-7.3V267l-3.4-.1v3.7ZM420.8 267.7l3.8-.3v20.4h-3.7v-20ZM420.7 262.6l.1-4.3h4v4l-4 .3ZM442.8 270l.2-2.9c-3-.6-6-.4-8.8.6-2.8 1-4 4.2-3 6.9 1 3.2 6.1 4.3 8.1 6.3s-.4 4.4-3.1 4.3l-5-.1.1 3s6.8 1 9.8-.4c3.4-1.7 4-6.4 2.6-8.2-1.3-1.8-7-4.2-8-5.1-1-1.1-1-2.7.2-3.6a2 2 0 0 1 1.4-.7 12 12 0 0 1 5.5 0ZM453.7 275.4v-17.8h-4V288h3.7l.2-10.2 9.2 10h5.4l-10.8-11.3 9.3-9.2-4.9.1-8 8ZM676 946l-61.6-52.7-7.9-206.8 177.3-5.1-.9 39.5" stroke="#231F20" stroke-width=".7" stroke-miterlimit="10"/>
  <path d="m675.2 904 .3 42.5 234-51.1 1.2-38.7L675.2 904ZM660.6 871.9C642.6 821.2 613 740 613 740M662 876l-.5-1.8M674.5 911.6c0-.3-4.5-13.6-11.4-32.6M777.9 724l1.8-39.4-169.2 6.7 2.5 47.2M760.3 727.6l16.6-1.3M744.9 728.5l7.9-.6M732.2 729.6l6.2-.5M674.4 733.6l51.6-3.3M661 734.6l2.3-.3h.8l1.6-.1M647.7 735.5l8.3-.5M642 736l4.7-.5M633.3 736.5l.8-.1M635.2 736.3l5.7-.4M613.3 737.9l17.3-1.3M853.7 800.4l51.6 56.9M794.4 734.9l57.5 63.4M790.4 730.4l1.9 2.1M806.6 755l4.8-.8M760.4 760.3l45-5.1M716.6 765.3l4.6-.5 34-3.6M682 769.3l34.7-4M672.9 770.4l9.5-1.1M631.7 775.2l39.2-4.6M767.8 804.2l73.4-10.2M761.5 805.3l4.4-.6M754 806.4l1.4-.3M728.6 809.9l21.7-3M723 810.8l3-.5M720.9 811.1l2.3-.2M688.6 815.7l30-4.3M649.2 821.3l36.6-5.2M861.8 824.5l5.9-1M854.2 826l4.5-.9M839.5 828.8l9.6-1.8M813.6 833.8l21-4.2M810.6 834.5l1.3-.3M674.9 860.9 807.4 835M658.5 864.3l13.8-2.9M643.4 685v-4.1M652.3 685l-.3-4.3M723.5 625.6l-1.4 52.6 45.2-.6.5-51.7-44.3-.3ZM743 681.9V679M750.3 681.9l-.7-3.8M639.8 774.2c-1-2.3 0-10-1.7-12-.5-.5-1-1-1.3-1.7-.5-.8-.8-1.7-1-2.6l-2.2-8.5c-.2-.6-.3-1-.3-1.6.2-1.3 1.3-2 2.5-2 .5.2 1 .4 1.3.7.9 1 .8 2.4.8 3.7 0 3.5 1 6.8 2.2 10.1.9 2.8 3 10.3 2.6 13.6M647 767c.6-5.2-.3-10.5-1.4-15.7-.5-2.2-1-4.5-2.5-6.2-1 0-2 .6-2.3 1.7 0 .6 0 1.4.3 2l5.4 18.2" stroke="#231F20" stroke-width=".7" stroke-miterlimit="10"/>
  <path d="M636 758.5c-1.6-2.8-3.8-3.7-5.8-6.1a4 4 0 0 1-1.3-2.4c0-.9.5-1.7 1.4-2 1-.2 2.9.2 3.3 1M638.6 755c3.4 5.3 6.3 10.8 8.7 16.5-.8-2.5-4.8-8.5-6.9-10.2M637.9 747.1c-.2-.6-.2-1.4 0-2 .4-.6 1.3-1 1.7-.4.2.1.2.3.3.5l.8 2.3M643.4 756.3c-.1 2.2 1.4 6.1 1 8M644.2 773.8c-.5-2-.3-4.4-2-5.8" stroke="#231F20" stroke-width=".7" stroke-miterlimit="10"/>
  <path d="M644.1 764.8c.1 2.6 1.5 6 2.2 8.8M645 749.1c.3-1 1.8-1.1 2.6-.4.6.8 1 1.8 1 2.9.6 7 1 14 1.7 21-.5.6-2.4-4-3.4-6.3M631.5 753.9a47.8 47.8 0 0 1 1 15.4c.3.4.6.5 1 .4.2 0 .3-.3.4-.4.6-1.5.4-3.2.5-4.8.2-2 .7-4.1 1.5-6M635.1 745.6c-.2-2.6-2.6-4.5-4.7-6 .9-.2 1.9 0 2.7.5 0-1-.8-1.7-1.4-2.5a7.7 7.7 0 0 1-1.5-5.3c-.2 1.3.6 2.5 1.9 2.8.3.1.8 0 .7-.4 0 1.6.5 3.1 1.5 4.3v-4c0-.4 0-1 .4-.8l1.4 11.1M641.9 745c-.4-1.5-1.2-3-2.1-4.2-.4-.3-.5-.7-.6-1.1 0-.4.3-1 .7-.8.7.1 1 1.4 1.5 1l-.4-4.8v-.6c.1-.2.5-.2.5 0l.2 3.3c0 .5.2 1.2.7 1.3.3 0 .5-.2.9-.1.4 0 .8.6.7 1.1a7 7 0 0 1-.7 1.4c-.5 1-.6 2.1-.3 3.2M629 748.7a2.9 2.9 0 0 0-4.1-.6 3 3 0 0 0-1.3 2.3c0 .8.3 1.6-.2 2.2-.6.7-1.6.7-2.2.1-.7-.7-.9-1.5-.9-2.4l1.4-.3c-.8-.5-1.7-1-2.6-1.3a5 5 0 0 1 3.7-.4 3 3 0 0 0-2.3-2c.7-.5 1.6-.6 2.3-.3.8.2 1.6.5 2.4.5.9 0 2-.5 2.7.1l.7 1c.2.2.4.5.7.6M631.4 747.4c.6 3-.4-2.7-1.3-4.2-1-1.5-3-2.1-4.7-2.8 2-.3 4 .7 4.8 2.5.1.3.4.8.8.6.3-.1.2-.5.1-.8.7 0 1.2.7 1.3 1.4l.4 2c.1.3.4.4.5.2" stroke="#231F20" stroke-width=".7" stroke-miterlimit="10"/>
  <path d="m638.5 744.3-.5-4 .1-1 .6-.4c.6-.6 1-1.5.7-2.4-.6-.3-1.4-.1-2 .3-.4.5-.7 1.3-.6 2 .2.5.2 1 .2 1.5-.1.5-.8.8-1.2.5v1c.7 0 1 1 1.1 1.6.2.7.4 1.6 1.1 1.5M646.1 748.2a7.2 7.2 0 0 1-.9-6c.2.3.6.5 1 .4l.2-5.3c0-.9.2-1.8 1-2.3l.3 7c.3-.2.7.2.6.5 0 .4-.3.7-.5 1a4.6 4.6 0 0 0-1 4.6M665.2 757.2c0-1.7-.8-3.3-1.3-5-.4-1.8-.4-3.8.9-4.9.7-.6 1.7-.6 2.5 0l.4.7c.3.6.5 1.4.5 2.2.6 7 1.4 13.4 1.1 20.5-.5 0-1 .3-1.1-.1-1.2-4.5-2.3-9.2-3-13.8M674.6 770.1c-1-4.7-3-9-5.7-13" stroke="#231F20" stroke-width=".7" stroke-miterlimit="10"/>
  <path d="M667.9 748.6c-.3-1.8 2.6-2.5 4.4-2.3 1.7.6 2 12.6 2.9 19.6.2 1.4.3 2.9.2 4.3M657.4 772.2a4 4 0 0 0 2-1.5c.2-.7 2.8-3.2 2.8-4 0-1.7-.2-5.4.8-6.8M663.9 748.9c-1-1.5-1.8-3-3.5-3.5-.3-.2-.7-.2-1 0-.6.2-1 .6-1 1.2s0 1.2.2 1.7c1.3 6.4-1.5 17.4-2.6 24.1" stroke="#231F20" stroke-width=".7" stroke-miterlimit="10"/>
  <path d="M662.6 771.6c-.2-1.8.1-4-.5-5.3M664.8 754.8c.5 4 1.1 11.8-.4 16.4M671.4 745.7c.2-1 1-1.7 1.9-2 1-.2 2-.2 3 0 .3 0 .5 0 .7.2.2.3.4.5.4.8l.4 3.4.1 2.7a39.6 39.6 0 0 1 2.9 14.7c-.6-4.1-4.9-6.8-6.4-10.7M659.5 745.3a5 5 0 0 0-1.7-3.6l-2.7-3-1.1-2.2c-.2-.3-.2-.9 0-1.1.2-.3.9.1 1.1.6.7 1 .7-1.4 1-.3.4-2.4-1.4-1.2-1-3.6.1.2.6.1.8 0a1 1 0 0 0 0-.9l-.2-2c1.2 1.8 2.2.9 2.4 3 0 .5 0 .9.2 1.2.2.4.3 1.5.7 1.3 0-.8 0-1.6.2-2.3.9-7 1.6.2 1.8 2.3-.7 3.5-1.5 7.3-1 10.9M665 747a9.8 9.8 0 0 1-2.4-5.8c.6.8 1.3 1.5 2.2 2 0-2.4.2-5 1.8-6.7.5 1.7.6 3.4.3 5-.3.7-.3 1.5-.3 2.3l.4 1c0 .8-.4 1.6-1.2 1.9" stroke="#231F20" stroke-width=".7" stroke-miterlimit="10"/>
  <path d="M672.9 743.5c-.6-1-1.2-2-2.3-2.2l-1.6-.1c-.5-.2-1-1-.5-1.3l1.1-.2c.5-1.6-2.6-2.4-2.2-4 0-.2-2.4-2.4-2.3-2.7.2-.5 2.8-.8 2.8-1.3 3.7-7 7-1.5 7.4-.6.3 1-4 1.3-3.1 1.5 2.8 1 2.4 1 2.6 1.4.7 1.7-2.5-.5-4 1.3-1.1 1.2 3.5 6.8 3.7 8.4M669.3 746.4c-.5-.8-.6-2-.4-2.9-.5-.6-1.2-.9-2-.9M670.4 746.1v-4.7M694.3 744.2c-1.4-.4-3 .1-3.9 1.3-.3.5-.4 1-.2 1.5.1.4.4.7.7 1 3 3.7 5 8 7 12.2l2 4.6a4 4 0 0 0 0-3.1c-.3-1-.9-2-1.3-3-.4-1.2-.8-2.5-1-3.8l-.7-4.5c-.5-2.4-.7-5-2.7-6.5M706.9 749.6c-.4-.5-.7-1.4-1.3-2.1-.6-.7-1.6-1-2.6-.9-.3 0-.6.2-.8.6 0 .3 0 .5.2.8l1.8 4.8c1.3 3.6 2.9 7 4.6 10.5 0-4.8 0-9.8-2.1-14.3" stroke="#231F20" stroke-width=".7" stroke-miterlimit="10"/>
  <path d="M693.7 744.2c-.4-.8.8-1.7 1.4-2.3.6-.6 1.5-.7 2.3-.4.8.4 1.4 1.1 1.6 2 .2.7.3 1.6.3 2.4.2 5.7 2.8 11.2 3 16.9-1.6-2-3.3-3.7-4.6-6M688.5 748.8c-1.8-.3-3.5 0-5 .7-.7.5-1.4 1.2-1 1.8 0 .3.3.5.7.7 2 1.1 3.8 2.8 5 4.9l1 2.2c1.1 1.4 3 2.2 3.3 3.8.8-1.3 1-3 .3-4.2a6 6 0 0 1-.8-1.5l-.1-1.5c-.3-.5-.5-1.1-1-1.6l-1-3c-.5-1.1-.6-2.1-1.8-2.3" stroke="#231F20" stroke-width=".7" stroke-miterlimit="10"/>
  <path d="M684.7 749.2c-.4-.6 0-2.8.6-3.2.6-.4 1.2-.6 2-.6.3-.1.7 0 1 .1l.6.6a37 37 0 0 1 3.4 4.6c2.8 4.5 3.5 10 4.2 15.1-.4.2-.8 0-1-.3-.2-.3-.4-.7-.4-1.1-.3-1.2-1-2.2-2-2.8M703.5 751.3c-1 2-1.6 4.4-1.7 6.7M703.6 766.6c.2-1 0-2.2 0-3.3.3-2.3.9-4.6 1.9-6.7M701.5 761.3c0 1.6 0 3.8.3 5.8M674 741.6c1 0 1.3.5 2.2.9 0-1.1-.4-2-1.2-2.8.2-.6 1.2-.6 1.6-.2.4.5.6 1 .7 1.7.2.7.5 1.4.9 2 .7 1.3 3 1.7 4 2.8 1 .9 1.5 2 1.5 3.4" stroke="#231F20" stroke-width=".7" stroke-miterlimit="10"/>
  <path d="M682.8 750.2c-1-2.8-1.7-4-4.8-4.4M684.9 746.8a4.7 4.7 0 0 0-3.6-3.2c0 .5-.7.6-1.1.5-.8-.3-1.3-1-1.6-1.8a12 12 0 0 0-.9-2.2l3.8 1c-.2-.6-.2-1.2 0-1.7.2-.6 1-1 1.4-.4.3.3.4.6.3 1l-.1 2.5c1.1.5 2.1 1.5 2.4 2.7" stroke="#231F20" stroke-width=".7" stroke-miterlimit="10"/>
  <path d="M690.4 745.3c-1.8-.6-1.6-3.7-3-4.7-2-1.1-4.2-1.6-6.3-2.6-.9-.5-1.8-1-2.6-1.7-.5-.5-1-1.4-.5-1.8 2 .8 3.7 2.1 5 3.7.4-.2.6-.7.3-1.1l-.5-1.2c-.2-.8.3-1.7 1-1.8 1.3.9.5 3.2 1.9 4 1 .6 2.6 0 3.2 1l.1.9c.2 1.6 1.3 3 2.5 4.3M695 742.2c-.2-1.1-1.3-2.1-2.1-3l-.6-.3c-.4 0-.6.5-1 .8-.6.3-1.3-.2-1.7-.7-.3-.3-.5-.7-.6-1.2.1-.5.5-.9 1-1 .5 0 1 0 1.6.2-.4-.6-1-1-1.4-1.5-.4-.5-.4-1.5.3-1.6.7 0 1.1.6 1.3 1.4 0 .6.2 1.4.9 1.7.8.3 1.6-.6 2.2-1.2.9-.8 2-1.2 3.3-1.1.4 0 .9.2 1 .7 0 .5-.6.9-1.2 1a7 7 0 0 0-1.8.7c-.7.4-1.5 1.1-1.3 2 .2.7 1.2 1.3 1 2.1M702.7 746.5c-.6-1-2.2-1.5-3-.7.6-.5 0-1.2 0-2-.2-.8-.7-1.6-1.2-2.2 1-.2 2-.2 3-.1a3 3 0 0 0 1.7 2.1l.6-3c.1-.4.5-.8.7-.6.2 2.4 1.4 1 1.1 3.4.3 0-.7 2.7-.8 2.5M705.7 747c.3-1.5 1.2-2.4 1.5-4 0-.3.2-.7.4-1 .2-.3.7-.4 1-.1l-.6 3.9c1 .4 2-.6 3.2-.6.8.1 1.5.4 2.1 1 .2 0 .4.3.3.5 0 .2-.2.2-.3.2l-2.8 1.1 2.4.7c.7.3 1.5 1 1 1.7s-1.2.5-1.8.5l-2.4-.3c-.8 0-1.5.5-1.8 1.2M728.8 737.7a4 4 0 0 1 4.3 1c.3.5.5 1 .4 1.6-.2.5-.3.9-.6 1.3-3.1 4-4.8 8.8-6.6 13.6l-1.7 5c-.5-1-.7-2.2-.3-3.2.3-1.2.8-2.2 1.2-3.3.4-1.4.7-2.8.8-4.2l.5-5c.2-2.4.6-5.3 2.7-7M715.7 744.7c.4-.5.6-1.6 1.2-2.4a3 3 0 0 1 2.8-1.2c.4 0 .7.2.9.5l-.1 1-1.7 5.2c-1.1 4-2.4 7.9-4 11.7a35 35 0 0 1 1-15.4" stroke="#231F20" stroke-width=".7" stroke-miterlimit="10"/>
  <path d="M728.6 738.2c.2-1-.2-2.1-1-3-.7-.5-1.7-.6-2.5-.1-.8.4-1.4 1.3-1.5 2.2-.2 1-.2 1.8-.1 2.8.2 6.1-2 12.2-1.8 18.3 1.5-2.3 2.8-4.7 3.9-7.2M736.3 742.2c1.5-.5 3.1-.3 4.5.4.8.4 1.6 1.2 1.2 1.9-.1.3-.4.6-.7.7a14 14 0 0 0-5 5.7c-.2.8-.6 1.7-1 2.5-1 1.5-3 2.6-3.2 4.4-1-1.3-1.2-3-.6-4.6l.7-1.6v-1.7c.1-.6.5-1.2.8-1.7l1-3.5a3.7 3.7 0 0 1 2.3-2.5" stroke="#231F20" stroke-width=".7" stroke-miterlimit="10"/>
  <path d="M739.4 742.4c.4-.7-.2-3-.9-3.4-.6-.4-1.3-.5-2-.5-.5 0-.9.1-1.3.4l-.6.6a56.5 56.5 0 0 0-3.2 5.2c-2.5 5.2-2.9 11-3.2 16.6.4.1.9-.1 1-.5l.4-1.2c.2-1.3.9-2.4 2-3.2M719.5 746.1a17 17 0 0 1 2.3 7.1M721.6 764.5c-.4-.9-.6-1.8-1-2-1.1-.2-.1-2.3-.3-3.5-.5-2.4-1.3-4.8-2.5-7M722.4 756.7c.2 2.5.3 5.1 0 7.7M741.8 743c1.3-4.5 8.2-6.7 10-7.5.4-.2 0-.5.3-.8.2-.2.3-.7 0-1-.3-.2-.7-.3-1-.1-1 .1-2 .4-3 .8-.2-1.1.1-2.3 1-3.1-.3-.6-1.3-.5-1.8 0-.4.4-.6 1-.6 1.7-.2.8-.4 1.6-.8 2.4-.8 1.3-1.9 2.5-3 3.6-1 1.3-1.8 2.7-1.7 4.2-.2-.1-.4-.3-.2-.6v-.1" stroke="#231F20" stroke-width=".7" stroke-miterlimit="10"/>
  <path d="M739.2 739.9a5 5 0 0 1 3.5-3.8c0 .5.8.7 1.2.4a3 3 0 0 0 1.5-2c.1-.8.4-1.7.7-2.5l-4 1.3c.3-.5.3-1.2 0-1.8-.2-.4-.9-.7-1.5-.4h-.1c-.3.4-.3.8-.2 1.2l.4 2.7c-1.3.6-3 2.2-3.3 3.5" stroke="#231F20" stroke-width=".7" stroke-miterlimit="10"/>
  <path d="M732.6 738.6c1.8-1.4 2.8-4 4.4-5.1 1.7-1.2 3.6-2.4 5.5-3.4 1-.6 1.8-1.3 2.6-2 .6-.6 1.1-1.6.5-2-2 1-1.6-1-2.8.7-.4-.1-2.8 2-2.6 1.6.1-.5.3 0 .4-.5 0-1-.5-1.7-1.4-1.8-1.2 1.1-.2 3.5-1.5 4.5-1 .6-2.8.1-3.4 1.2v1c0 1.8-1.2 3.5-2.3 5M728.1 736.1c.3-1.4 1-2.7 1.8-3.8.2-.2.3-.4.6-.4.5-.1.6.5 1 .8.7.3 1.4-.4 1.8-1 .4-.3.5-.7.5-1.1-.1-.6-.6-1-1.1-1-.6 0-1.2 0-1.7.2.4-.6 1-1 1.4-1.7.4-.6.3-1.6-.5-1.7-.7 0-1.2.8-1.2 1.5 0 .8 0 1.7-.8 2-.9.4-1.7-.5-2.4-1-1.1-.9-2.4-1.2-3.7-1-.4.1-.9.4-1 .8 0 .5.8.9 1.3 1 .7.1 1.3.3 2 .6.8.4 1.7 1 1.5 2-.1.8-1.2 1.6-.9 2.4M719.9 741c.6-1.1 2.2-1.8 3.3-1-.9-.4-.2-1.3-.2-2.2.2-.9.5-1.7 1-2.4-1.2-.1-2.2 0-3.4.2-.1 1-.7 1.9-1.5 2.5l-1-3.3c0-.3-.4-.7-.6-.5 0 2.5-1.4 1.1-1 3.7-.3 0 1 2.8 1.1 2.6M716.8 741.7c-.4-1.6-1.5-2.5-2-4.1 0-.4-.2-.8-.4-1-.4-.4-.8-.4-1.1-.2l.9 4.2c-1 .6-2.3-.4-3.4-.4a4 4 0 0 0-2.2 1.2c-.2.2-.4.4-.4.6.1.2.3.3.5.3l3 .9-2.5.9c-.8.4-1.4 1.4-.9 2 .6.7 1.3.5 2 .3.9-.3 1.7-.4 2.6-.5.9-.1 1.6.4 2 1.2M745.1 762c-2.2-7 6.9-25.9 8.7-26.5.7 0 1.1 2 1.8 2 .3 0 1.2-1.3 1.3.9l-.3 2.8c.5 5.7.7 4.3-2 9.2a40.9 40.9 0 0 1-6.1 7.9c-1 1.4-2.1 2.7-3.4 3.9M757.8 755.3c-.5-1.3.1-3.2.2-5.1a56.1 56.1 0 0 1 2.6-13.4c.7-.6 1.9-.5 2.4.4v.1c.5 1 .6 1.9.5 2.9a81.6 81.6 0 0 1-4.5 20c-.8-1.5-.8-3.7-1.2-5" stroke="#231F20" stroke-width=".7" stroke-miterlimit="10"/>
  <path d="M756.9 741c.3-.6 1-1 1.6-.6l.5.4M754.3 751.3c-.2 5.5-5 8.2-2.3 9 .5 0 1.9-3.2 5.4-6.8M763.6 739.8c.5 0 1.6-1 2.1-.8 1.3.6 1 1.5 1 3.3 0 1.3-.1 2.6-.4 4-.1 2.7 1.7 2.4 1.9 5 .2 3.5-2 4.6-3.4 7.7-2 .6-1.5-2.3-2.3-4-.7-1.6-.4-4.6-.3-6.3M753.5 735.9c.6-.5 1.6-2 1.3-2.8a28 28 0 0 0-1.1-2 9.8 9.8 0 0 1-1-4c0-.3 0-.6.3-.7h.4c.6.4 1 1 1.2 1.7.3-1.4.3-3 0-4.3-.4-1.5-.1-3 .6-4.2.2 2.6 1.5 4 1.7 6.7 0 1.3.7 1 .7 2.4.8-1.1 0-2.4 1.7-2.1.9 0 1 .6.9 1.3 0 .5-.2 1-.5 1.5-.2 1.2-2.8 1.4-3.3 2.5-.4 1.2-.3 4.6.1 5.7" stroke="#231F20" stroke-width=".7" stroke-miterlimit="10"/>
  <path d="M755.8 733.9a5 5 0 0 0 2.9.6c-.5.3-1 .7-1.2 1.2.4.4 1-.2 1.7-.4.6-.1 1.2.2 1.2.8v.4" stroke="#231F20" stroke-width=".7" stroke-miterlimit="10"/>
  <path d="M762.2 736.8c.4-.4.4-.9.3-1.4a4.2 4.2 0 0 0-2.6-3c-.5-.2-1-.3-1.5-.1l-.9.6a2 2 0 0 1-1.4.1" stroke="#231F20" stroke-width=".7" stroke-miterlimit="10"/>
  <path d="M765.6 739.4c.4-1.8.8-3.9-.3-5.4l-.9-1.1c-.9-1.3-.1-1.5 0-3 .2-.7.2-1.4.1-2-.3-.6-2.3-.2-2.7.2-.4.5-.5.6-.3 1.2l1 1.7c.3.6 1 .5.8 1.1-1-.5-2.9-2.7-2.9-1.4 0 1 3.1 4 4 6.4.3.6-.4 2.1-.8 2.6M758 740.2c-.3-1-.6-2.3.2-3 .4-.4 1.1-.7 1-1.3M773.3 753.3c-.4-4.8.5-9.7 2.8-14 .9-1.6 2.1-3.1 2.7-4.8l.7-2.3c.4-1 1.4-1.8 2.4-2 1.1 0 2 .7 2.2 1.8v.2c-.1.5-.4.9-.6 1.3-4 6.2-5.4 13.5-8.5 20.2-1.5 3.4-1.7 3.3-1.5 2.4V753M779.6 752.7c.9-7 2-14.3 6-20 .4-.7 1-1.3 1.8-1.7.8-.4 1.7-.3 2.3.4.6.9 0 2.2-.6 3.2-1.8 3-2.8 6.3-4 9.6-1.3 3.2-3 6.4-5.8 8.5" stroke="#231F20" stroke-width=".7" stroke-miterlimit="10"/>
  <path d="M767.4 749.6a25 25 0 0 1 7-6.2M779 733.3c0-1-1-1.8-2.1-1.8-1 0-2 .5-2.6 1.4-.6.8-1 1.8-1.4 2.8-1.5 3.6-3.3 7-5.5 10.2l-1 1.4M788.2 736.5a2 2 0 0 1 2-.6 8 8 0 0 1-.3 4.4l-1 3.9-1.2 4c-1 2.7-2.3 5.2-4 7.5-.2-2.3 0-4.7.6-7v-.5c0-.2-.2-.4-.4-.2" stroke="#231F20" stroke-width=".7" stroke-miterlimit="10"/>
  <path d="M776.6 731.5c1-1 .5-3.2.5-4.5a5 5 0 0 1 1.8-3.8c.1 1 .2 1.9.1 2.9.7-.3 1.2-1 1.7-1.6.6-.6 1.4-1.2 2.1-.8.4.3.3.8 0 1-.4.3-.8.5-1.2.5a5.4 5.4 0 0 0-2.8 2.5 25 25 0 0 0-1.5 3.7l-.2.2c-.2 0 0-.3 0-.1" stroke="#231F20" stroke-width=".7" stroke-miterlimit="10"/>
  <path d="M781.5 730.3c.1-1.3-.3-2.5-1-3.6l2.3.1c-.5-1.5 1-3 .8-4.6-.1-.4-1.3-.3-1.3-.7.1-.4 1.6-1.3 1.8-1.1.2 1.6.4 3.3.4 4.8.6.5 1.4-1 2-.6.4.3.5.7.3 1-.3.2-.6.5-1 .6a7 7 0 0 0-1.7.7c-.6.3-1 1-1 1.6 0 .6.4 1.3 0 1.7" stroke="#231F20" stroke-width=".7" stroke-miterlimit="10"/>
  <path d="M786.3 731.4c0-.8-.5-1.5-1.3-1.8-.1 0-.2-1.8 1-1.1.4.1-.3-2 .1-2 .7 0 1 1.3 1.3 1.1.5-1.5.9-1.5.4-3l-.3-1.4c0-.5.6-1 1-.7.5.3.5.6.5 1 0 1.5.4 1.5.4 3 .4.2.1.9.4.6.2-.3.7 0 .9-.4.3-.8 1-1.4 1.8-1.8l.4-.1c.4.2 0 .7-.3 1-1 .8-1.8 1.8-2.4 3 .4.3.5.8.2 1.2a3 3 0 0 1-1.3.8M789.8 736.4c1.2-1.2 2.9-2.2 4.4-1.7 1.3.4 2.2 1.7 3.5 2 .2 0 .5 0 .5-.3a2 2 0 0 0-.8-2.2c-.7-.5-1.6-.5-2.4-.1-.2-.4 0-.8.3-1h.3c.4-.2.1-.8-.2-1h-1.1a7 7 0 0 0-1.8.8c-1.4.7-2.6 1.6-3.7 2.7M682.6 809c-1-2.8-2.4-5.3-4.2-7.6-.6-.6-1.1-1.3-1.5-2l-1-2.9-2.1-9.5c-.2-.6-.2-1.2-.2-1.8.2-.9.8-1.7 1.7-2 1-.2 2 0 2.6.8.9 1 .7 2.7.7 4.1-.2 3.9.9 7.6 2 11.4l2.6 9M688 807.1c.9-5.7.1-11.6-.8-17.3-.5-2.5-1-5-2.6-7-1.1-.2-2.2.5-2.6 1.7-.1.7 0 1.5.2 2.3l5.2 20.3" stroke="#231F20" stroke-width=".7" stroke-miterlimit="10"/>
  <path d="M676.2 797.2c-1.7-3.1-3-2.2-5.2-5-.6-.7-2.4-3.7-2.4-4.7s.7-1.9 1.7-2.1c1.5 0 2.8.6 3.7 1.8M679.3 793.6c3.3 5.6 6 11.6 8.3 17.8-2.4 1.4-4.2-7.1-6.3-9.2M678.9 784.7c-.2-.7-.2-1.4.1-2.2.3-.6 1.4-1 1.8-.4.2.2.2.4.3.7l.8 2.6M684.5 795.2c-.3 2.5 1.6 7.4.4 8.8M686.6 787.3c.3-1.1 2-1.2 2.8-.4.6 1 1 2 .9 3.3.4 7.7 3.5 21.8 1.5 22.5-1.5-2.2-3-3.8-4-6.2" stroke="#231F20" stroke-width=".7" stroke-miterlimit="10"/>
  <path d="M671.8 793a46.5 46.5 0 0 1 .2 16.2c.2.4.5.5.9.5l.5-.6c.7-1.6.6-3.5.7-5.3.2-2 .7-4 1.5-6M675.8 783c-.1-3-2.7-5.2-5-7 1.1-.2 2.2 0 3 .7 0-1.1-.8-2-1.5-2.9a8 8 0 0 1-1.4-5.8c1.3-.9-.3.1 3.5-.8 2.6-.6-2.2 1.6-1.6 3 0 1.7 1.2 4 2.3 5.4V771c0-.4 1.8.2 1.3 1 .3 4 0 6.4.5 10.5M683.3 782.6c-.4-1.7-1.1-3.3-2.2-4.8-.3-.3-.5-.8-.6-1.3 0-.5.4-1 .9-.9.7.2.9 1.6 1.5 1.2l-.2-5.3c0-.3.8-1.7 2-1.4.7.3 1.2.7 1.8 1.3 0 1.2-1.5 1.4-1.5 2.7 0 .6-1.3 1.7-.8 1.8h1c.5 0 .7.7.7 1.3l-.8 1.4c-.7 1-.9 2.4-.5 3.5M668.8 786.1c-1-1.5-3-1.9-4.4-.9-.9.6-1.4 1.5-1.5 2.5-.1.8.1 1.8-.3 2.5-.7.6-1.8.6-2.4 0v-.1c-.7-.7-1-1.6-.9-2.6l1.6-.2a9.6 9.6 0 0 0-2.8-1.6 6 6 0 0 1 4.1-.3 3.2 3.2 0 0 0-2.4-2.3c.7-.5 1.7-.5 2.5-.2.8.4 1.7.6 2.5.8 1 0 2.2-.4 3 .3l.7 1c.2.4.5.6.8.8M672 785.6c-.2-2-.7-3.8-1.7-5.5-1.1-1.6-3.1-2.5-5-3.2 2.2-.3 4.3.9 5.2 3 .1.3.4 1 .9.7.4-.2.2-.6.2-1 .7 0 1.3.9 1.4 1.6 0 .8.1 1.5.3 2.2 0 .3.5.5.6.3" stroke="#231F20" stroke-width=".7" stroke-miterlimit="10"/>
  <path d="m679.6 781.6-.3-4.4c-.1-.4 0-.7.1-1l.7-.6c.8-.6 1.1-1.6.9-2.5a2 2 0 0 0-2.2.2c-.6.6-1 1.3-.8 2.1v1.7c-.1.5-.9.9-1.2.5v1.2c.7 0 1 1 1.2 1.8 0 .7.4 1.7 1.2 1.7M687.9 786.3a8 8 0 0 1-.8-6.7c.2.4.6.6 1 .5h.1l.6-6c0-.9.2-2 1.1-2.4l.1 7.8c.3-.2.8.3.7.7-.1.4-.4.7-.7 1a5.2 5.2 0 0 0-1.1 5M713.1 812c-1.8-2.1-1.5-4.5-2.6-7.2-.8-2.2-3.5-4.4-4.1-5-.7-.5-1.3-3-1.8-3.8l-5.3-8.2c-.4-.5-.7-1-.8-1.7-.3-1.3.6-2.6 1.9-2.9.5 0 1 0 1.6.3 1.2.7 1.6 2.3 2 3.6 1.2 3.7 3.5 6.9 5.7 10 1.8 2.5 6.2 10.2 5.7 14.3M719.5 802c-1.2-5.7-3.9-11-6.7-16a14.3 14.3 0 0 0-4.8-5.7c-1.1.2-2 1.3-1.9 2.5.2.7.5 1.4 1 2l11.9 17.4" stroke="#231F20" stroke-width=".7" stroke-miterlimit="10"/>
  <path d="M704.2 796.2c-3-.8-2.6-.6-5.7-2.4-.9-.4-3.5-2.7-3.9-3.6-.3-1 0-2 .9-2.6 1.3-.5 2.8-.4 4 .5M706.6 792.7c4 3 17.6 12.3 15.6 15.3-1.8-.1-8.2-5.2-10.8-8.1M702.7 784.3c-.2-.7-.3-1.6 0-2.3 0-.8.8-1.4 1.6-1.1l.5.5 1.6 2.1M711.4 783.7c0-1.1 1.6-1.7 2.5-1.2a5 5 0 0 1 2 2.8l9.3 21.4a33.5 33.5 0 0 1-5.9-5.4" stroke="#231F20" stroke-width=".7" stroke-miterlimit="10"/>
  <path d="M699.8 794.7c2.5 4.4 1.4 6.9 2.3 11.9l1.3 4.8c.3.4 1-1.7 1.3-2 .1-.9.2-1.8.1-2.7 0-1.8 1.7-3.5 1.2-5.2-.5-2-.1-3.7-1.8-5.5M699.8 783.4c-1.2-2.7-4.3-3.9-7.1-4.8a4 4 0 0 1 3-.3c-.3-1-1.4-1.6-2.4-2.2-1.7-1.1-2.9-3-3.4-5a2.8 2.8 0 0 0 3 2.3c.4 0 .8-.4.6-.6.6 1.6 1.6 3 3 4l-1.4-4.3c-.1-.4 2.3-4.3 3.1-.9 1.7 3.8 1.3 7.9 3 11.7M706.8 780.6c-1-1.5-2.2-2.8-3.7-3.8-.4-.2-.8-.5-1-1-.1-.4 0-1 .5-1.1.8 0 1.5 1.2 1.9.7l-2.1-5c-.1-.3-.2-.4-.1-.7 0-.2.3-.4.6-.2.4 1.1 2.7.7 3.2 1.9.1.5-.9 3-.3 3 .3-.1 1.8-1 2.1-1 .6-.2-.6.6-.5 1.1 0 .6-.1 1.2-.3 1.7-.2 1.2.6 2.9 1.2 3.9M694.3 788.8a3.3 3.3 0 0 0-5 3.6c.2.8.8 1.5.5 2.3-.4.8-1.4 1.3-2.3.8h-.1a3.7 3.7 0 0 1-1.6-2.2l1.4-.8c-1.1-.4-2.2-.5-3.2-.5 1-1 2.3-1.7 3.8-1.7-.7-1-1.9-1.5-3-1.3.5-.7 1.4-1.1 2.3-1.1.9 0 1.8 0 2.6-.2 1-.4 2-1.1 2.8-.8.4.3.8.5 1 .8.4.3.7.4 1 .4M697 787.3a12 12 0 0 0-3.3-4.7c-1.7-1.1-3.8-1.2-5.8-1.3 2-1 4.3-.6 5.8 1 .3.3.8.7 1 .4.4-.3.1-.6 0-.9.7-.2 1.5.2 1.8 1l1.2 2c.1.2.5.4.6 0" stroke="#231F20" stroke-width=".7" stroke-miterlimit="10"/>
  <path d="m703 780.9-1.8-4-.3-1 .4-.8c.6-.8.5-2 0-2.8a2 2 0 0 0-2 1c-.3.8-.3 1.6 0 2.3l.7 1.5c0 .5-.6 1.1-1 .9 0 .4 0 .8.3 1.1.7-.1 1.3.7 1.6 1.3.4.7 1 1.5 1.7 1.2M712.3 782.4a8.2 8.2 0 0 1-3-6c.3.3.7.4 1 .2h.2l-1.5-5.8c-.3-1-.4-2 .2-2.7l2.8 7.3c.2-.3.8 0 .9.4 0 .5 0 .9-.3 1.2-.8 1.7-.5 3.7.6 5.2M767 798.2c-1-2.6-2.5-5.2-4.3-7.4l-1.4-2c-.4-1-.8-2-1-3l-2.1-9.5c-.2-.5-.3-1.2-.2-1.8a2.5 2.5 0 0 1 2.8-2c.5 0 1 .4 1.4.8 1 1 .8 2.7.8 4.2-.2 3.8.9 7.5 2 11.3l2.5 9.1M772.3 796.4a54 54 0 0 0-.8-17.4c-.4-2.4-.9-5-2.5-7-1.1-.1-2.3.6-2.6 1.7-.2.8 0 1.6.2 2.3l5.2 20.4" stroke="#231F20" stroke-width=".7" stroke-miterlimit="10"/>
  <path d="M760.5 786.5c-1.6-3-4-4.3-6.2-7a4.8 4.8 0 0 1-1.3-2.7c0-1.2 1-2.2 2-2.2.9 0 1.7.5 2.1 1.2M763.6 782.9c2.9 4.3 5.2 9 7 13.7-.7-2.8-3-5-5.2-7M763.2 774c-.1-.8-.1-1.5.2-2.2.3-.7 1.4-1 1.8-.4.2.1.3.4.4.6l.8 2.6M768.8 784.4c-.2 2.4 0 4.9.6 7.2" stroke="#231F20" stroke-width=".7" stroke-miterlimit="10"/>
  <path d="M769.3 793.8c0 3.5 2 8 .2 8.2-1-2.5-1.8-3-2.2-5.7M771 776.5c.3-1 2-1.1 2.7-.3.7.9 1 2 1 3.2.3 7.8.5 14.5 1 22.3-.7.8-2.5-3.5-3.4-6M756.2 782.2a46.5 46.5 0 0 1 .2 16.2c.1.4.5.6.9.5.2-.2.4-.3.5-.6.7-1.6.5-3.5.7-5.3.2-2 .6-4 1.5-5.9M760.1 772.2c-.1-3-2.7-5.1-5-7 1.1-.2 2.2 0 3 .7 0-1-.8-2-1.5-2.8a8 8 0 0 1-1.5-5.9c-.2 1.5.6 2.9 2 3.3.4 0 1-.1.8-.4 0 1.7.5 3.4 1.5 4.8 0-1.5-.6-2.6-.5-4.1 0-.4 1.2-1 1.6-.8l1.2 13M767.6 772c-.4-1.8-1.1-3.4-2.2-4.9-.3-.3-.6-.8-.6-1.3s.4-1 .9-.9c.7.2.9 1.7 1.5 1.3l-.2-5.4v-.7h.6l.1 3.8c0 .6.2 1.2.7 1.4.3 0 .6-.2 1-.1.5 0 .7.7.7 1.3-.2.6-.5 1-.8 1.5-.7 1-.9 2.3-.5 3.5M753.2 775.4c-1-1.5-3-2-4.5-1-.8.6-1.4 1.5-1.4 2.6-.1.8.9.8.4 1.5-.8.6-2 .5-2.6-.2-.7-.7-1.3-.7-1.3-1.7l1.5-.2a9.6 9.6 0 0 0-2.8-1.6c1.3-.6 2.8-.7 4.2-.2a3.3 3.3 0 0 0-2.5-2.4c.8-.5 1.8-.5 2.6-.2.8.4 1.7.6 2.5.7 1 0 2.2-.3 3 .3l.6 1c.3.4.5.6.9.8M755 774.7c-.2-1.7-.8-3.3-1.8-4.6-1.1-1.7-1.6-3.2-3.5-4 2.2-.3 4.2 1 5.1 3 .2.4.5 1 1 .7.3-.1.2-.6.2-.9.7 0 1.3.8 1.4 1.6l.3 2.2c0 .2.5.5.6.2" stroke="#231F20" stroke-width=".7" stroke-miterlimit="10"/>
  <path d="m764 771-.4-4.5c0-.3 0-.7.2-1l.6-.6c.8-.5 1.2-1.6 1-2.6-.8-.4-1.6-.2-2.3.3-.5.5-.9 1.3-.8 2 .2.7.2 1.1.1 1.7-.2.5-.9 1-1.2.5-.2.4-.2.8-.1 1.2.7.1 1 1 1.1 1.8.1.7.5 1.7 1.2 1.7M772.3 775.6a8 8 0 0 1-.8-6.7c.2.4.6.7 1 .5l.7-6c0-.8.2-2 1-2.4.2 2.6.2 5.2.2 7.9.3-.2.8.2.7.6l-.7 1a5.2 5.2 0 0 0-1.2 5.1M652 804.6c-.8-1.7-2.4-3-3.6-4.3-1.3-1.4-2.4-3.4-1.6-5.2.1-.4.5-.8.8-1.1.7-.4 1.6-.3 2.3.2a5 5 0 0 1 1.6 2c4.3 6.5 8.2 13.4 11.6 20.4-.4.4-1 0-1.3-.5-3.5-3.8-6.8-7.8-9.8-12" stroke="#231F20" stroke-width=".7" stroke-miterlimit="10"/>
  <path d="M650.3 794.7c-1.2-1.7 1.3-3.7 3.1-4.4 2-.4 8.4 11.4 12.8 17.8 1.3 1.9 2.6 3.9 3 6.2-3.8-5-8.7-9-14.2-12M646.6 797.1c-1.5-1-3.3-2-5.1-1.7a2 2 0 0 0-1 .5c-.5.5-.7 1.2-.4 1.8a62.7 62.7 0 0 1 11.9 21c.9-.3 1.4-1.3 1.2-2.2-.2-1-.6-1.7-1-2.5a9.6 9.6 0 0 1-.8-5.6" stroke="#231F20" stroke-width=".7" stroke-miterlimit="10"/>
  <path d="M651 803c3 4.4 4 8.4 6.3 13.2-2-1.1-3.8-2.4-5.4-3.9M652.3 790.2a3 3 0 0 1 1-3c.8-.6 1.8-1.2 2.8-1.5.3-.2.6-.2 1-.2.3.1.4.4.7.6.8 1 1.4 2 2 3.2l1.6 2.6 2.2 2.3a44 44 0 0 1 8 10.6c-2.7-3.9-8.2-4.3-11.7-7.4M640.4 795.8c-.7-1.4-2-2.4-3.4-2.8-1.5-.4-2.9-.9-4.2-1.5a13 13 0 0 1-2.2-1.6c-.3-.3-.7-.7-.4-1.1.1-.4 1-.3 1.3 0 1.2.6 2.2 1.4 3 2.4-.7-2.7-4-3.8-5-6.3.3.1.7-.1.7-.4 0-.4 0-.7-.3-1l-1.2-1.7c2.2 1.2 4 3 5.3 5l.9 1c.4.3.9.3 1.2 0-.4-.5-.8-1-1-1.5 0-.6.2-1.3.9-1.4 1.2 3.8 3 7.5 5.3 10.8M646.8 794.7c-2.2-1-4.1-2.5-5.4-4.5 1 .5 2.1.8 3.2.9-1.1-2.4-2.2-5-1.5-7.5 1.4 1.3 2.4 3 2.8 4.7.2.8.5 1.6 1 2.4l.8.8a2 2 0 0 1-.2 2.5M652.8 787.3c-1-.7-2.2-1.4-3.4-1.1l-1.7.6c-.7.1-1.4-.4-1.2-1l1-.7c-.3-1.8-3.7-1-4-2.7l-.1-.8c0-.5-.3-1.1-.7-1.5.9-.7 2 0 2.8.8.8.7 1.8 1.5 2.7 1.1.4-.1.7-.5 1.1-.4.2.1.6.2.7.4 1.3 1.3 2.5 2.6 3.6 4" stroke="#231F20" stroke-width=".7" stroke-miterlimit="10"/>
  <path d="M650.7 791.9a4.2 4.2 0 0 1-1.8-2.6c-.8-.3-1.7-.3-2.5.1M651.6 791l-2.2-4M733.3 777.4c-1.6-.6-3.3 0-4.4 1.4-.3.5-.5 1-.4 1.6a49.5 49.5 0 0 1 7.9 15l2.1 5.1c.5-1 .6-2.3.1-3.4-.3-1.1-.9-2.2-1.3-3.3a19 19 0 0 1-.9-4.2l-.7-5c-.3-2.7-1-5.5-3-7.2M747 783.8c-.4-.7-.8-1.4-1.4-2.1a3 3 0 0 0-2.8-1.1c-.4 0-.7.2-1 .6 0 .3 0 .7.2 1l1.8 5.3c1.3 4 2.9 8 4.7 11.9.2-5.3.4-10.9-1.7-15.8" stroke="#231F20" stroke-width=".7" stroke-miterlimit="10"/>
  <path d="M733.6 778c-.3-1.1 0-2.2.7-3 .7-.6 1.7-.8 2.6-.4a3 3 0 0 1 1.7 2.3c.2.9.3 1.9.2 2.9 0 6.2 2.6 12.4 2.5 18.7-1.6-2.3-3.3-3.8-4.6-6.4M725.8 782.4a5.8 5.8 0 0 0-4.6.5c-.8.4-2.8 1.7-2.4 2.5.4.7.8 1.4 1.4 2 2.2 1.6-.1 3.3 1 5.6.3.8 3.4 3.5 3.9 4.2 1 1.5 4.2 5.3 4.4 7.2a25 25 0 0 0 1.6-11c-.4-.5-.6-1.1-.8-1.7v-1.6c-.3-.6-.5-1.3-1-1.9-.4-1.1-.8-2.2-1.1-3.5a3.6 3.6 0 0 0-2.5-2.5" stroke="#231F20" stroke-width=".7" stroke-miterlimit="10"/>
  <path d="M722.5 782.7c-.5-.7.2-3 .7-3.5.7-.4 1.4-.7 2.2-.6.4 0 .8 0 1.3.3l.5.6c1.3 1.6 2.5 3.4 3.5 5.2 2.9 5.2 3.4 11.2 4 17-.4.1-.9-.1-1.1-.5-.2-.4-.4-.8-.4-1.2a5 5 0 0 0-2-3.2M743.1 785.8a17.7 17.7 0 0 0-2 7.3M740.6 796.7c-.2 3 0 6.2.4 9.3 1-.8 1.5-2 1.6-3.2.2-1.2 0-2.4.3-3.7.4-2.5 1-5 2.3-7.3M711.8 774.4l1.6.4a4 4 0 0 0-1.2-3.1c.3-.6 1.3-.6 1.8 0 .4.4.7 1 .7 1.7.1.8.5 1.6.9 2.4.8 1.4 1.5 1.2 2.7 2.4 1.1 1.2 1.4 1 1.8 1.8.8 1.1.9.9 1.3 2.4M720.5 783.7c-1.1-3-2.8-4-4.7-5.2a9.3 9.3 0 0 0-2.7-1.5" stroke="#231F20" stroke-width=".7" stroke-miterlimit="10"/>
  <path d="M722.7 780a5.2 5.2 0 0 0-3.7-3.7c0 .5-.8.7-1.3.5a3.2 3.2 0 0 1-1.6-2c-.2-1-.5-1.7-1-2.5l4.2 1.3c-.2-.7-.2-1.3 0-2 .3-.5 1-.7 1.5-.5l.2.1c.2.3.3.7.2 1.1l-.2 2.9c1.3.6 3.5 2 3.8 3.3" stroke="#231F20" stroke-width=".7" stroke-miterlimit="10"/>
  <path d="M728.7 779.2c-.7-1.7-1.4-5-3-6-2-1.3-4.6-2-6.7-3.1-1-.6-2-1.3-2.8-2-.5-.6-1.1-1.6-.5-2.1 2.2 1 4 2.4 5.5 4.3.4-.2.6-.8.3-1.3-.1-.5-.5-.9-.5-1.4-.2-.9.4-1.8 1.3-2 1.3 1.2.3 3.7 1.7 4.6 1.1.7 2.9.1 3.5 1.2.2.3.2.7.2 1 0 1.8 1.4 3.5 2.5 5M733.6 775.8a7.3 7.3 0 0 0-1.7-3.8l-.5-.4c-.5 0-.8.6-1.2.8-.6.4-1.3-.2-1.8-.8-.4-.3-.6-.7-.6-1.2 0-.6.6-1 1.1-1 .6-.2 1.2 0 1.7.2-.4-.7-1-1.1-1.4-1.7-.4-.7-.4-1.8.5-1.8.7-.2 1.2.8 1.3 1.5.2.8.2 1.6 1 2 .8.4 1.7-.6 2.4-1.3 1-.9 2.3-1.3 3.6-1 .5 0 1 .2 1.1.7 0 .6-.7 1-1.3 1a9 9 0 0 0-2 .8c-.8.4-1.7 1.2-1.6 2.1.2 1 1.3 1.6 1 2.5M742.1 780.9c-.7-1.1-2.3.8-2-1.8.8-.5 1.8-1 1.6-1.9 0-.9-4.9-3.5-3.2-5 .7-1 4.4 4.5 5 5M746.4 781.7c.4-1.7 1.3-2.2 1.7-3.9 0-.4-.3-1.9 0-2.2.3-.3.8-.4 1.2-.2l-.8 4.4c1 .5 2.3-.6 3.5-.5a4 4 0 0 1 2.3 1c.2.2.4.4.3.7l-.4.2-3.1 1c.8.4 1.7.7 2.6.9.8.3 1.6 1.3 1 2-.4.8-1.2.5-2 .4-.8-.2-1.7-.4-2.6-.4-.9 0-1.7.5-2 1.3M815.9 793.5c-5-6.5-6-15.1-5.7-23.3l2.4-.5h.9c.3.1.5.5.6.8 2.6 5.8.3 12.5 1.6 18.7.3 1.6.9 3.3.1 4.8-.3 0-.5-.4-.5-.6M821.8 790.1c-.4-2.1-1-4.1-1.8-6.1a58.8 58.8 0 0 1-2.2-15c.5-1 2-1 2.8-.3.8.7 1.3 1.7 1.4 2.7 2 7.5 3 15 3 22.7a14.7 14.7 0 0 1-3.2-5" stroke="#231F20" stroke-width=".7" stroke-miterlimit="10"/>
  <path d="M809.5 775c0-1-.3-2-.9-2.8-.6-.8-1.7-1-2.6-.7-.7.5-1.1 1.3-1.1 2 0 .9.2 1.7.6 2.4l4.2 11.4c1.1 2.9 1.9 6 3.8 8.5.2-1.8.2-3.7-.2-5.5M815.5 774.9c0-.8.7-1.3 1.5-1.2.2 0 .5 0 .6.2M815.3 780.2a128 128 0 0 0 6.6 17.2c.1-2.7 0-5.4-.5-8.2M822 771.1l1.6-.6c.3-.3.8-.3 1 0 .2.2.2.4.2.6.7 3 1.5 5.9 2.7 8.7 1.4 3.5 3.7 6.9 3.4 10.6-.7-2-1.8-4-3.3-5.6-1.3-1.4-2.8-2.7-3.4-4.5M810.9 769.7c.2-.5.2-1.2-.1-1.7l-.4-.6c-.7-.6-1.3-1.2-2-1.6-1-1.2-1.9-2.5-2.4-3.9-.1-.2-.3-.5 0-.7h.5c.7 0 1.3.5 1.8 1.2 0-1.6-1-3-1.7-4.5-.7-1.4-1.3-2-.9-3.5 1.2 2.7 2.8 3.2 4 5.9.5 1.3 0 2 .4 3.3.4-1.4 1-1.3 1-2.8.3-.3.7.3.7.7 0 1.4 0 2.7-.3 4v2.6l.7 1.4M805 772.4c0-.5-.3-1-.7-1.5-.3-.5-.9-.8-1.4-.7-.4.1-.6.3-.8.5-.6.6-1.1 1.2-1.4 2l-.2.4-.2 1.1c-.4.3-.8-.2-1-.6-.5-.7-1.1-1.3-1.9-1.6a3 3 0 0 0 2.8-2 5 5 0 0 1-5.4-2.2c1-.3 2-.2 2.8.2.8.5 1.7 1 2.7 1.3 1 .3 2.3-.3 2.2-1.4 1.4.8 2.4 2 3 3.5" stroke="#231F20" stroke-width=".7" stroke-miterlimit="10"/>
  <path d="M811.8 767.9h1c.7 0 1.5-.1 2.1-.5-.4.5-.6 1-.7 1.7.7.2 1-.7 1.6-1 .6-.4 1.3-.2 1.6.3l.1.4M810 766.6l-1.2-.2c-.4 0-.7.5-.5.8.1.3.4.3.8.3l1.1.1" stroke="#231F20" stroke-width=".7" stroke-miterlimit="10"/>
  <path d="M819.5 768.5c.2-.6.2-1.1-.2-1.6a4.8 4.8 0 0 0-3.8-2.2 2 2 0 0 0-1.5.5l-.8.9a2 2 0 0 1-1.1.6M824 769.9c-.3-2-.6-4.2-2.2-5.5l-1.3-.8a6.9 6.9 0 0 1-2.8-4 2 2 0 0 0-.4-1.2c-.5-.3-1.2-.2-1.6.3l-.1.3c-.2.7 0 1.5.6 2 .4.5 1 .8 1.6 1.3.6.4.9 1.2 1 1.8a7.5 7.5 0 0 1-3.2-1.5c2.5 1.3 4.7 3.1 6.5 5.3.6.5.8 1.3.7 2M816.5 773.6c-.8-1-1.6-2.2-1-3.3.2-.6.9-1 .6-1.6M801.9 791c-4.8-2-10-4.3-12.9-8.7-1.1-1.7-1.8-3.7-3.2-5.2l-1.8-2c-.8-1-1-2.3-.6-3.4a2.3 2.3 0 0 1 3-1c.4.3.8.7 1 1.2 3.8 7.1 12.3 11.4 14.9 19 0 .2.2.7 0 .8-.3.2-.6-.4-.2-.3M804 786.1a48.7 48.7 0 0 1-16.3-16.6c-.5-.8-.7-1.7-.7-2.7a2 2 0 0 1 1.7-2c1.2 0 2.1 1.3 2.8 2.3 2 3.4 4.7 6 7.1 9a21 21 0 0 1 5.2 10.2" stroke="#231F20" stroke-width=".7" stroke-miterlimit="10"/>
  <path d="M784.9 776.3c-1-.5-2.4 0-3 1a4 4 0 0 0 0 3.4c.5 1 1.2 1.9 2 2.8 2.7 3.3 5 7 7 10.8 1 2.2 2 4.6 3.8 6.1 1-1.1.3-2.7-.3-4a27.7 27.7 0 0 1-2.4-10.2M800.5 772.5l.7.7a29.8 29.8 0 0 1 7.6 10.4c-2.3-1-4.5-2.4-6.3-4.2l-.5-.3c-.3 0-.5 0-.4.3M798 770l.8.9M792.9 769c-.4-.7-.1-1.6.5-2.2.5 0 1 .3 1.5.6" stroke="#231F20" stroke-width=".7" stroke-miterlimit="10"/>
  <path d="M781.1 777.2c-.4-1.4-2.2-1.8-3.4-2.6a5.6 5.6 0 0 1-2.8-3.8c1 .4 2 .9 2.9 1.6 0-1-.2-1.8-.7-2.6-.3-.8-.3-2 .5-2.4.4-.2.9.2 1 .6 0 .5 0 1-.2 1.3-.3 1.5 0 3 .9 4.2.8 1.2 1.8 2.4 2.7 3.4.1 0 .2.3.1.4 0 .1-.3 0-.1-.1" stroke="#231F20" stroke-width=".7" stroke-miterlimit="10"/>
  <path d="M783.3 772.8a7 7 0 0 0-4-1.5l1.3-2.2c-1.7-.3-2.3-2.7-4-3.3-.4 0-1-.2-1.2-.4-.4-.2-.5-.9-.1-1.1 1.6.6 3.2 1.4 4.9 2.3.8-.4-.2-2 .5-2.5.4-.1.8 0 1 .3.2.5.2.9 0 1.3l-.1 2.2a2 2 0 0 0 1 1.8c.6.3 1.5.3 1.6.9" stroke="#231F20" stroke-width=".7" stroke-miterlimit="10"/>
  <path d="M787 766.6c-.8-.5-1.8-.5-2.5 0l-.5.1c-.4 0-.4-.6-.1-1 .5-.5 0-1.3.7-.9-1.3-1.3-1.7-1.5-3.5-1.7a3 3 0 0 1-1.4-.5c-.4-.3-.6-1-.1-1.3.4-.2.8-.1 1.1.1l4.7 2.4c.4-.3.5-.8.2-1.2l-.8-1.1c-.6-.8-1-1.8-.8-2.8l.1-.4c.4-.2.8.4.9.8.2 1.5.8 2.9 1.7 4.1.4-.2 1 0 1.2.3v.1c.2.5.2 1 .1 1.6M793.8 767.4c-.6-1.7-.7-4 .7-5.2 1-1 2.8-1.1 3.7-2.2l.2-.4c0-.1 0-.3-.2-.4-.6-.6-1.7-.8-2.6-.4-.8.5-1.4 1.4-1.4 2.3a.7.7 0 0 1-.7-.7v-.4c0-.4-.6-.5-1-.2-.3.3-.5.7-.5 1.1-.4 2.4-.4 4.8.3 7.1M762.4 840.7a30 30 0 0 0-4.7-7.3c-.6-.5-1.2-1.2-1.7-2a12 12 0 0 1-1-2.8l-3-9.3-.3-1.8c.1-1 .8-1.7 1.7-2 .9-.4 1.8-.2 2.5.5 1 1 1 2.6 1 4 0 3.9 1.4 7.6 2.7 11.2l3.3 9M768.3 840.4c1.7-5-1.2-13.7-2.6-19.3-.5-2.4-1.3-5-3-6.8-1.2-.1-2.3.7-2.5 1.9 0 .8 0 1.5.3 2.2 2.2 6.7 5.5 22.2 7.9 22" stroke="#231F20" stroke-width=".7" stroke-miterlimit="10"/>
  <path d="M755.2 829.4c-1.8-3-4.3-4.1-6.7-6.6a4.2 4.2 0 0 1-1.6-2.7c0-1 .6-2 1.6-2.2.9-.4 2.7-.6 3.2.3M758 825.4c3 4.2 5.8 8.7 7.8 13.4-1.6 2.8-3-3.7-5.3-5.5M757 816.6c-.3-.7-.3-1.4 0-2.2.3-.6 1.2-1 1.7-.5.2.1.3.4.4.6l1 2.5M763.3 843.2c0-1.4 0-1-.6-3.4" stroke="#231F20" stroke-width=".7" stroke-miterlimit="10"/>
  <path d="M764.8 839.4c.2 3.2 0 2.3.1 3.5M765 818.6c.2-1.1 1.9-1.3 2.7-.5.7 1 1.1 2 1.1 3.2 1 7.7.7 11 1.7 18.8-.5 1-1.1 2.5-2.2 0M750.8 825c-3 7.4 1.3 10.3 1 15.3v1.2c.2.3.6.6 1 .4.2-.2.3-.3.3-.7.7-1.7.4-3.5.4-5.3 0-2 1.3-3.4 2-5.3M753.9 815c-.5-3-3-5-5.5-6.7 1-.2 2.1 0 3 .6 0-1-.9-2-1.6-2.8a7.9 7.9 0 0 1-1.9-5.7c-.2 1.4.8 2.7 2.2 3 .3.1.9-.1.7-.4.1 1.7.8 3.4 1.8 4.8l-.2-4.6c0-.4.1-1 .6-1 .7 4.6 4 10.1 2.2 13.1M761.3 814.3c-.5-1.7-1.3-3.3-2.5-4.7a3 3 0 0 1-.7-1.2c0-.5.3-1 .8-.9.7.2-1-3.6-.5-4-.2-1.8 1.7 1.6 1.5-.2v-.7c.2-.1.6-.2.6 0 .1 1.2 1 2 1 3.4 0 .6-.4 1.6.2 1.6l1-.1c.5 0 .9.7.8 1.2-.1.5-.6 1-.8 1.5-.4 1.5 1.4 9.2-.2 3.6M747 818.7c-1-1.4-3-1.7-4.5-.6a3 3 0 0 0-1.2 2.6c0 .8.3 1.7-.1 2.5-.7.6-1.8.7-2.4.1-.7-.8-1-1.7-1-2.6l1.5-.2a8 8 0 0 0-3-1.4c1.3-.7 2.8-.9 4.2-.5-.4-1.1-1.4-2-2.6-2.2.7-.5 1.7-.6 2.5-.3.8.2 1.7.5 2.6.5 1 0 2.1-.5 3 .1l.8 1c.2.4.5.6.8.7M749.7 817.2c0-1.7-.6-3.3-1.6-4.6-1.3-1.6-3.3-2.2-5.2-2.9 2-.5 4.3.6 5.3 2.5.1.5.5 1 .9.8.3-.2.2-.6.1-1 .7 0 1.3.8 1.6 1.5 0 .8.2 1.5.5 2.2 0 .3.4.5.5.2" stroke="#231F20" stroke-width=".7" stroke-miterlimit="10"/>
  <path d="m757.6 813.5-.7-4.5.1-1c.2-.3.4-.5.7-.6.7-.7 1-1.7.6-2.6a2 2 0 0 0-2.2.4c-.6.5-.8 1.3-.6 2.2l.2 1.6v3.5c.3.7.7 1.6 1.4 1.6M766.2 817.6a8.1 8.1 0 0 1-1.3-6.7c.2.5.6.6 1 .5l.3-6c0-.9.1-2 1-2.5l.5 7.8c.3-.2.8.3.7.7 0 .4-.3.7-.6 1a5 5 0 0 0-.8 5.2M668.2 862.2c-1.4-4.4-2.5-9-3.2-13.5" stroke="#231F20" stroke-width=".7" stroke-miterlimit="10"/>
  <path d="M664.8 849c0-1.9-.9-3.6-1.4-5.5-.6-1.8-.7-4 .8-5.3.3-.4.7-.6 1.2-.6.8 0 1.6.5 2 1.2.4.7.6 1.6.7 2.4.9 7.5 1.7 13 1.7 20.5M675.3 861c-1.4-5.3-2.9-7.5-6.1-12" stroke="#231F20" stroke-width=".7" stroke-miterlimit="10"/>
  <path d="M667.5 839.4c1.7-3.4 2.9-2.9 4.8-2.7 1.9.5 2.7 13.9 4 21.6.2.8.3 1.7.3 2.5M663 839.9c-1-1.6-2-3.3-3.9-3.8-.4-.2-.8-.2-1.2 0-.5.2-1 .8-1 1.5 0 .6 0 1.3.2 1.8a63.5 63.5 0 0 1 1.5 22.2c.9.2 1.8-.5 2-1.4.2-.9.3-1.8.2-2.7 0-2 .5-3.8 1.6-5.4" stroke="#231F20" stroke-width=".7" stroke-miterlimit="10"/>
  <path d="M664.2 845.9c.7 5.3.4 10.6.4 15.9-1.3-1.8-2.8-3-3.7-5M671.3 836c.2-1 1-2 2-2.2 1.2-.3 2.3-.4 3.4-.2.3 0 .6 0 .9.2l.4.8a30 30 0 0 1 .8 6.8c.2 1 .5 2 1 3 1.5 4.2 2.4 8.6 2.6 13-.8-4.6-5.7-6.6-7.5-10.9M657.6 836.3c.1-1.5-.4-2.9-1.5-3.9-1-1-3.8.5-4.7-.8-.6-1-1-2-1.4-3-.1-.4-.7-1.2-.3-1.4.3-.3 1.3-.6 1.6-.2.8 1 3 2 3.6 1.9.4-2.5-3-2.8-3.2-5.2 0-.3.1-1.5 1.4-.9 2.8.7 1.8-.4 1-.9-.3-.1 1.6.5 1.5.1 0-.7.8-.5 1.8.4 1.5 2-1.6.6-1.4 3 0 .5.1 1 .4 1.3.2.4.7.7 1.1.5-.1-.5-.2-1.1-.1-1.7.1-.5.7-1 1.3-.9-.6 4 1.8 8.2 1 12M664.4 837.8a12 12 0 0 1-3-6.4c.8.9 1.6 1.6 2.5 2.2 0-2.6.1-5.5 1.8-7.5.7 1.7.8 3.7.5 5.5-.2.8-.3 1.6-.1 2.5 0 .3.3.7.4 1a2 2 0 0 1-1.2 2.2" stroke="#231F20" stroke-width=".7" stroke-miterlimit="10"/>
  <path d="M673 833.7c-.7-1.1-1.4-2.2-2.6-2.4-.7 0-1.2 0-1.8-.2-.6-.1-1-1-.6-1.3l1.3-.3c.3-1.7-3-2.5-2.6-4.2l.2-.7c.3-.5.3-1.1.1-1.7 1-.1 1.8 1 2.2 2 .4 1 1 2.2 2 2.2.5 0 .9-.2 1.2 0l.5.8c.6 1.6 2.1 4.4 2.5 6.1M669 837c-.5-1-.7-2.1-.5-3.2-.6-.6-1.5-1-2.3-.9M670.3 836.6l-.2-4.6M697.3 830.7a3.8 3.8 0 0 0-4.6-.4c-.5.4-.8.8-1 1.3 0 .5 0 1 .3 1.4 1.4 5 1.3 10.3 1.3 15.5l-.1 5.6c.9-.8 1.4-2 1.4-3.1v-3.6l.9-4.3 1.3-5c.6-2.5 1.3-5.4 0-7.8M707.3 841.7c.2-.9 0-1.2-.3-2.2-.3-1.1-1.1-2-2.2-2.2a1 1 0 0 0-1.1.2c-.2.2-.3.6-.2.9l-.4 5.7c-.2 4.2-.9 6-.7 10.2 2.3-4.8 5-7.4 5-12.8" stroke="#231F20" stroke-width=".7" stroke-miterlimit="10"/>
  <path d="M697.3 831.1a3 3 0 0 1 1.7-2.2c1-.3 2 0 2.6.6.6.7.9 1.8.7 2.8-.2.9-.5 1.8-1 2.7-2.3 5.8-2.3 12.5-4.9 18.3-.9.9-1.5-5.5-1.6-8.3M689.1 832.7c-1.5-1.1-4.2-1.4-6-1.3-1 0-2.7 1.2-2.6 2.1 0 1 0 1.8.2 2.7 1.5 2.2 3.1 3.3 2.4 5.8-.4 1.2.5 2.2.2 6-.1 3.2-1.8 7.4 1.3 5.8 1.4-1 4.2-7.4 4.2-9.1v-1.8c.1-.6.5-1 .6-1.6l-.1-2c0-1.3 0-2.5.2-3.7 0-1.3.5-2.4-.6-3" stroke="#231F20" stroke-width=".7" stroke-miterlimit="10"/>
  <path d="M685.1 831.4c-.1-.7 1.3-2.8 2-3 .8-.1 1.6 0 2.3.4.5.1.8.4 1.1.7l.3.8c.6 2 1 4 1.3 6.2.5 5.9-1.2 11.7-2.9 17.2a1 1 0 0 1-.9-1c0-.3 0-.8.2-1.2.2-1.3 0-2.6-.8-3.8M703 842.8c-2.2 1.7-3.8 3-5 5.4M695.1 856.7c.7-1 1.9-1 2.5-2.2 1.3-2.2 3-4.2 5-5.8M695.6 852.2c-.9 2-2.1 2.7-2.8 5.2M682.8 831.5c.2-3.3-2.4-8-4.5-8.6-2.2 1.4.9 2.3-.7 3.2-1.8.2-4.2-1.9-3.3-1.6-1-1.8 3.6-2.8 2-4.2-.3-.2-.5-.5-.7-.9-.2-.3 0-.8.3-1 .4 0 .8 0 1.2.2a12 12 0 0 1 2.6 1.9c.5-1 .6-2.3.1-3.4.5-.5 1.4 0 1.7.6a4 4 0 0 1 0 2c-.2.8-.2 1.7-.1 2.5.3 1.6.8 3.2 1.5 4.6.6 1.6 1 3.3.2 4.7.2 0 .5-.3.5-.5l-.1-.2" stroke="#231F20" stroke-width=".7" stroke-miterlimit="10"/>
  <path d="M686.5 828.6c-.9.2.4-3.2-1-4-.3.4-2.1-.1-2.5-.5-.6-.6 0-2 0-3 .2-.9 1.5-1.2 1.3-2.1 1.1.9.4 1.9 1.6 2.8 0-.7.2-1.3.7-1.8.5-.4 1.1-.4 1.5 0l.1.2c0 .4 0 .8-.2 1.2l-1.3 2.6c1 1.3 1.6 2.9 1.6 4.6" stroke="#231F20" stroke-width=".7" stroke-miterlimit="10"/>
  <path d="M692.4 830.7c0-1.8.5-5.2-.6-6.8-1.4-2-3.4-3.6-5-5.5a11 11 0 0 1-1.8-2.9c-.3-.7-.4-1.8.4-2 1.6 1.4 3.9-5.5 3 4.3.5 0 1.1 1.3 1.1.8V817c.2-.9 1-1.4 2-1.3.9 1.6-1 3.5-.1 5 .7 1 2.7 1.1 2.8 2.4 0 .3-.1.7-.3 1-.6 1.7 0 3.7.5 5.6M698.6 829c.2-1.3 0-2.7-.5-3.8l-.4-.6c-.5-.2-1 .3-1.3.4-.8 0-1.3-.9-1.4-1.6a2 2 0 0 1-.1-1.4c.3-.5.9-.6 1.5-.5.5.2 1 .5 1.4 1 0-.8-.5-1.4-.7-2.3-.2-.8.4-1.7 1.1-1.4.8.2.9 1.2.7 2-.2.6-.5 1.5 0 2.1.7.7 1.9.2 2.8-.1 1.3-.5 2.7-.3 3.9.4.4.2.8.6.7 1-.2.6-1 .6-1.6.5h-2.1c-1 0-2 .3-2.3 1.2-.2 1 .5 2 0 2.8M704.3 837.2c-2-2.1 1.7-5.9 1.9-6.8.2-.9-4.5 0-2.7-2.3.6-2.3 2.9.4 3.8 1 1.3 1-1.6 4.6-1 5.4l2.2-2.8c.2-.2.7-.6.8-.1-1 2.4 0 2.9-1.3 5 .2.2-2.3 1.4-2.3 1M707.3 840.6l3.5-4.9c.1-.3.5-.6.8-.8.4-.2.8 0 1 .3l-2.4 3.7c.8.9 2.4.4 3.4.9.8.4 1.4 1 1.7 1.9.2.2.3.5.1.7h-.5l-3.2-.2c.6.7 1.3 1.2 2 1.8.7.7.9 1.8.2 2.3-.8.5-1.5 0-2-.5-.8-.6-1.5-1-2.4-1.4-.8-.3-1.7-.1-2.4.4M728.9 844a37 37 0 0 1-7.4-22.9l2.3-.7c.3-.2.6-.2.9 0 .3 0 .6.3.7.6 3 5.7 1 12.6 2.8 18.7.4 1.5 1.1 3.3.5 4.8M734.6 840.3c-.5-2-1.3-4-2.2-5.9a63.1 63.1 0 0 1-3.3-14.8c.4-1 1.9-1.2 2.8-.5.8.7 1.4 1.6 1.7 2.8 2.4 7.2 4 14.8 4.5 22.4-1.6-1.3-2.8-3-3.7-4.9" stroke="#231F20" stroke-width=".7" stroke-miterlimit="10"/>
  <path d="M721.8 825.7c-.3-1-.9-1.9-1.7-2.5-.7-.8-1.8-1-2.7-.4-.7.4-1 1.3-1 2 .1.9.4 1.6.8 2.4l5 11c1.3 2.9 2 8 4.4 8.3 1.4.1.6-3.2.1-5M727.2 825.5c0-.7.7-1.3 1.4-1.3.2 0 .5.1.7.3M727.3 830.9c2.2 5.8 4.8 11.4 7.8 16.8 2.1-1.5.1-5.2-.5-8M733.6 821.3l1.4-.7c.3-.2.5-.3.8-.2.3 0 .4.4.5.7 1 3 2 5.8 3.3 8.6 1.7 3.4 4.2 6.6 4.1 10.4-.8-2-2-3.8-3.6-5.4-1.4-1.3-3-2.4-3.8-4.2M722.3 820.6c.2-.8 0-1.7-.7-2.2l-2-1.6c-1.2-1-2-2.3-2.8-3.7-.2-.2-.2-.5 0-.7 0 0 .2-.1.4 0 .8 0 1.5.4 2 1-.2-1.6-1.2-3-2-4.3-.8-1.4-1.5-3-1.2-4.6 1.3 2.6 3.6 4.3 4.9 7 .6 1.2-.2 2 .3 3.4.3-1.5 1.9-2 1.6-3.5.4-.2 2.5.6 2.6 1 .2 1.3-2.8 2.8-2.8 4a5 5 0 0 0 1 4M716.5 823.7c-.2-.5-.4-1-.8-1.5-.3-.5-1-.7-1.5-.6-.3 0-.6.3-.7.6a6 6 0 0 0-1.6 3.6c-.3.4-.8-.1-1.1-.5a4.8 4.8 0 0 0-1.9-1.5 3 3 0 0 0 2.6-2.3c-2 .6-4.2-.1-5.5-1.8.9-.4 1.8-.4 2.8 0 1 .4 1.8.8 2.8 1 1 .3 2.2-.4 2.1-1.4 1.5.7 2.6 1.8 3.4 3.3" stroke="#231F20" stroke-width=".7" stroke-miterlimit="10"/>
  <path d="M723 818.6c1 0 2.2 0 3.2-.6-.4.5-.6 1-.7 1.7.7.3 1-.7 1.6-1.1.5-.3 1.2-.2 1.6.3l.1.4" stroke="#231F20" stroke-width=".7" stroke-miterlimit="10"/>
  <path d="M730.7 819c.3-.6.1-1.3-.2-1.7-1-1.3-2.5-2-4-2-.6 0-1.1.3-1.6.6l-.6 1c-.7.8-.4 1-1.5.8M735.4 819.9c-.4-2-1-4.2-2.6-5.4l-1.4-.7a6 6 0 0 1-3-4 2 2 0 0 0-.5-1 1 1 0 0 0-1.6.4l-.1.4c-.1.7.1 1.4.7 2l1.7 1.2c.7.4 1 1 1 1.8a7.9 7.9 0 0 1-3.3-1.2c2.6 1.1 5 2.8 7 4.8.5.4.8 1.1.8 1.8M728 824c-.8-.8-1.7-2-1.2-3.1.3-.6 1-1.2.6-1.7M823.2 823c7.4 2.5 16.9-1.5 23.5-4.7l-.5-2.5-.3-.9c-.3-.2-.6-.3-1-.3-5.7-.5-10.4 4.2-16 5-1.5.3-3.1.4-4 1.6.1.3-1.7 1.8-1.4 1.7M824.5 813.6l1.8.1M825.4 814a27 27 0 0 1 5.8-.4c4.2 0 8.2-1.3 12.1-2.4.5 0 1-.3 1.2-.7.6-.8 0-2.2-1-2.8-.8-.5-1.9-.7-2.8-.5-3.5.4-6.8 1.1-10 2.1" stroke="#231F20" stroke-width=".7" stroke-miterlimit="10"/>
  <path d="M843.5 819.8c.8-.2 1.3.4 2.2.8 1 .4 1.6 1.3 1.6 2.3a2 2 0 0 1-1.3 1.7c-.7.3-1.4.4-2.2.3l-11.1-.2c-2.9 0-7.8 3.4-10.6 2.5 0-1.4 2.1-3.2 3.7-3.5M840.7 814.8c.8-.4.7-2-.2-2.5M824.5 814.6l1.7-.5M836.3 817c-4.1.2-8.2.2-12.2 0M823.6 808.6c.8.1 1.8 0 2.6.2M841 807.1v-1.7c0-.2.9-1.4.8-1.6-.6-1.3-2.8-1-3-1-2.8.2-4.4 2.3-7.2 2.1-2.2-.3-4.5-.5-6.8-.5M846.8 817.5c.5-.6 1.4-.8 2-.4l2.3 1.3c1.3.6 2.8 1 4.1 1 .3 0 .6 0 .6-.3l-.1-.5c-.5-.6-1.1-1.1-1.8-1.3 1.3-.5 2.8-.2 4.4 0 1.4.2 3.1 1.7 4.2.8 4-3-1-3.6-3.6-3.7-1.3-.1 2.2-2.5 1-2.4-1.5-3.3-5.2-5-6-2.3 3 4-.5 3.7-.8 3.8-1.2.4-2.2 1-3.2 1.7s-2.3 1-3.5.6" stroke="#231F20" stroke-width=".7" stroke-miterlimit="10"/>
  <path d="m847 824.1 1.6.1c.5.2 1 .7 1.1 1.2v1a5 5 0 0 1-2.3 2.9c0 .5.6.7 1 .8.7.1 2 .4 1.6-.6-.5-1.2 1.2-3.2 2-4 .4 2.1 1.5 5.5 3.4 6-.2-1 0-2-.6-2.6-.6-.8 0-2-.6-2.9-.8-1.2-1.4-2.6-1.8-4 0-.7-.7-1.1-1.3-1.1-1.3.1-3 .9-4 .9M844.2 808.7c.4-.4 1-.5 1.4-.4 1.6.4 2.8 1.5 3.4 3 .2.5.3 1.1.2 1.6l-.4 1c-.2 1.2 0 2.4.9 3.3.3.3.5.7.6 1 .1.5 0 1-.4.9-.4-.1-.5-.4-.7-.7L848 816c-.4-1-.5-2-.3-3-.3-1-1.3.8-1.8 1.1-.4-.4.1-1.2.2-2 0-.6-.7-1.5-1.4-1.3M841.6 804c1.2-1.4 2.7-2.8 4.7-2.8l1.5.1c1.7.2.8-1.5 1.9-2.5 1-.3 2.2-.6 3.3-.6.8-.1.8 3.5.6 4.2-.1.6.2 1.2-.6 1.3-.7 0-1.5-1.7-2.2-1.6a2 2 0 0 0-1.8.8c1.1.5 6 1.8 3.6 3.6-.4 4.4-4-2-6.8-.8-.7.4-4.7.4-4.7.5" stroke="#231F20" stroke-width=".7" stroke-miterlimit="10"/>
  <path d="M841.3 813.5c1 .4 2.5.7 3.1-.2a2 2 0 0 1 1.6-.8M806.5 830.4c-.7-5.2-.4-9.5 2-14.2.8-1.8 2.1-3.5 2.7-5.5l.7-2.6c.4-1.1 1.5-2 2.7-2.3a2 2 0 0 1 2.4 1.9v.2c-.1.5-.4 1-.7 1.5-4.1 7-2.2 15.7-7.6 21.9-.1.2-1.3 1.6-1.5 1.4a9 9 0 0 1-.8-2.1M812.7 831c.8-7.8 1.7-16 6-22.5a5 5 0 0 1 2-2c.8-.4 1.9-.2 2.5.5.8 1 .1 2.4-.5 3.5-1.8 3.4-2.9 7.2-4.2 10.8-1.3 3.6-3 7.4-6 9.8" stroke="#231F20" stroke-width=".7" stroke-miterlimit="10"/>
  <path d="M796 834.3a19 19 0 0 0 10.5-12.2" stroke="#231F20" stroke-width=".7" stroke-miterlimit="10"/>
  <path d="M811.4 809.5c-.1-1.2-1.1-2-2.3-2-1.2 0-2.2.7-2.9 1.7l-1.5 3c-1.4 4-12.5 23.4-8.3 22M821.8 812.7c.5-.7 1.4-1 2.2-.8a10 10 0 0 1-.3 5v.2l-1 4-1 4.4c-.9 2.2-2.1 4.4-3.7 6.3-.7.6-1.6.8-2.6.9-1.8.2-1.6 0-1.1-2.1l1-2.2c-.1-.2 1.3-2.4 1.1-2.2M809 807.4c1-1 .2-3.5.1-5 0-1.6.7-3.3 2-4.3.2 1 .2 2.2.1 3.2.9-.3 1.3-1.2 2-1.8.5-.7 1.5-1.3 2.3-1 .4.3.2 1-.1 1.2a4 4 0 0 1-1.2.5 5.8 5.8 0 0 0-3.1 3c-.7 1.2-.7 2.7-1 4.2" stroke="#231F20" stroke-width=".7" stroke-miterlimit="10"/>
  <path d="M814 806a6 6 0 0 0-1.1-4c.9 0 1.5-.7 2.3-.6 1.4-1 1.4-2.7 1-4.5-.2-.4-.3-.9-.3-1.3s.5-.9 1-.6l.4 5.4c.7.5 1.6-1.2 2.4-.8.3.3.4.8.1 1-.2.4-.5.7-1 .7l-2 1c-.6.4-1 1-1 1.7s.4 1.4 0 1.9" stroke="#231F20" stroke-width=".7" stroke-miterlimit="10"/>
  <path d="M820.4 806.7c0-.9-2.2.7-3 .3l-1.2-1.8c-.1-.4 3.4-2.2 3.8-2.2.7.2 1.7-2 1-3.7-.2-.5-.4-1-.3-1.6 0-.4.7-1 1.2-.7.4.3.4.7.4 1 .2 1.8-.4 5.2-.1 4.8l1.9-2.6c.3-1 1.3-.3 2.2-.7l.5-.1c.4.1.1.8-.2 1-1.2 1-1 1.7-1.6 3.1.4.2-.5 1.4-.8 1.8-.3.4-.8.7-1.3.8M823.6 812.6c1.3-1.4 3.1-2.5 4.8-2 1.4.3 2.5 1.7 4 2h.3l.2-.4c.3-1-.1-2-1-2.4-.9-.5-1.8-.5-2.7 0-.2-.3-.1-.8.3-1h.3c.4-.4.1-1-.3-1.1h-1.3c-2.3.9-4.3 2.3-6 4M780.2 837.5c-.7-5.2 1-10 3.3-14.7.9-1.8 2.2-3.5 2.8-5.5l.8-2.6c.4-1.2 1.4-2 2.7-2.3a2 2 0 0 1 2.3 1.9v.2c0 .5-.3 1-.6 1.5-4.2 7-2.6 15.5-8.6 21.2-1.4 1.3-2.6 1.7-2.8 1.7-.3-.2-.2-.8 0-1.8M787.9 837.7c.8-7.9 1.7-16 6-22.5a5 5 0 0 1 2-2c.9-.5 2-.2 2.6.4.7 1 0 2.5-.6 3.5-1.6 2.8-2.4 5.9-4.1 10.8-1.3 3.6-3.1 7.2-6.1 9.6" stroke="#231F20" stroke-width=".7" stroke-miterlimit="10"/>
  <path d="M786.6 816.2c-.2-1.3-1.2-2-2.4-2-1.1 0-2.2.7-2.8 1.6-.7 1-1.2 2-1.5 3.1-1.5 4-3.4 8-5.8 11.5-1.3 2-2.9 4-3.2 6.5 1.4.3 2.4-1.2 3.3-2.3 2-2.9 5.1-2 7.3-7M784.1 814.1c1-1 .3-3.6.2-5 0-1.7.7-3.3 2-4.3.1 1 .2 2.2.1 3.2.8-.3 1.3-1.2 1.8-1.9.5-.6 1.6-1.3 2.4-.9.4.3.2 1-.1 1.2l-1.2.5a5.8 5.8 0 0 0-3.1 2.9c-.7 1.3-.7 2.8-1 4.2" stroke="#231F20" stroke-width=".7" stroke-miterlimit="10"/>
  <path d="M789 813a7 7 0 0 0-1-4.2c1 0 1-.5 1.8-.5-.5-1.7 2-2.9 1.6-4.7-.2-.4-.2-.9-.2-1.3s.4-.9.9-.6c.2 1.8.4 3.6.4 5.3.8.5 1.6-1.1 2.4-.7.3.3.4.7.2 1-.2.4-.5.6-1 .7a9 9 0 0 0-2 1c-.6.3-1 1-1 1.7s.5 1.4 0 1.9" stroke="#231F20" stroke-width=".7" stroke-miterlimit="10"/>
  <path d="M795.5 812.7c0-.9 0-1.5-.7-2-.1 0-.4 0-.4-.2-.2-.5-.3-.6 0-.6.8.1-.2-2.2 1.4-1.3.5-1.7 1.1-.8.5-2.5-.3-.5-.4-1-.4-1.6 0-.5.6-1 1.1-.7.5.2.4.6.5 1l.4 5.3c.4.1.9-.1 1.1-.5.3-.4.5-.8.5-1.3.4-.9 1-1.7 2-2 .1-.2.3-.2.5-.2.4.2 0 .9-.3 1.1a10 10 0 0 0-2.6 3.5c.4.2.6.8.4 1.2l-.1.1c-.4.4-.8.7-1.3.8M822.8 873.7c-3 .4-3.5-5.7-5.5-8-.7-.6-1.1-1.3-1.6-2-.5-1-1-2-1.2-3l-2.8-10.1c-.3-.6-.4-1.3-.4-2 .1-1 .8-1.8 1.7-2.1.9-.4 2-.1 2.6.5 1 1 1 2.9 1 4.4 0 4.2 1.4 8 2.8 12 1.2 3 4 7.7 3.4 10.2M827.6 871c.4-6.1-.7-12.4-2-18.4-.7-2.7-1.4-5.4-3.2-7.4-1.2 0-2.3.8-2.5 2 0 .9 0 1.7.3 2.5L827 871" stroke="#231F20" stroke-width=".7" stroke-miterlimit="10"/>
  <path d="M814.8 861.4c-1.8-3.2-4.4-4.4-6.8-7a5.4 5.4 0 0 1-1.6-2.8c-.1-1 .5-2 1.5-2.5 1-.3 2.8-.6 3.3.3M817.9 858.6c4.1 5.4 9.2 13.2 7.1 14.4-.9-3-1.5-3-3.9-5M815.7 847.3c-.1-.8.6-1.1 1-1.8.3-.8 1.2-1.2 1.8-.6.2.2.3.4.3.7l1.1 2.7" stroke="#231F20" stroke-width=".7" stroke-miterlimit="10"/>
  <path d="M823.1 858.6c0 2.6 2.5 7.9 1.8 10.5M829 873.4c-.6-1-1-2-1.5-3.2M824.7 849.9c.2-1.2 2-1.4 2.9-.6.7 1 1.2 2.1 1.2 3.3l2.3 20.2M809.9 856.2c-3.3 6-.3 12 1.3 17v1.2c.2.4.6.6 1 .5.3-.2.5-.4.5-.7.6-1.8.3-3.8.4-5.7 0-2.2 1.4-3.9 2.2-6M813.4 846.1c-.4-3-3.1-5.3-5.6-7 1-.3 2-.1 3 .5 0-1.1-1-2-1.7-3-1.3-1.6-4.2-2-4-4.2.9-1.7 1 1.4 2.4 1.8.3 0 1.3-2.4 2.6-2.4.1 1.8.8 5.2 2 6.6l-.3-4.9c0-.4 1.2-.7 1.6-.6.6 4.4.7 9.2 1.4 13.6M821 845.2a16 16 0 0 0-2.5-5 4 4 0 0 1-.7-1.2c-.1-.5.3-1.2.8-1 .7.1 1 1.6 1.7 1.2l-.6-4.2c0-.3 1-.8 1.2-1 .1-.2 1.6-.7 1.8-.4l.1 1.5c.1.6.4 1.3 1 1.4.3 0 0 1.4.3 1.4.6 0-.7.7-.8 1.3-.1.6-.4 1-.6 1.6-.6 1.2-.2 4 .1 5.2M809.1 848.4c-.1-1.8-3.5-1.1-4-2.8-.8-2.9-5.4-4.5-3-5.2 2.2-.5 4.5.7 5.5 2.8.2.4.6 1 1 .7.4-.2.2-.5.1-.9.8 0 1.4.8 1.6 1.6 0 .8.3 1.6.5 2.3 0 .3.5.5.6.3" stroke="#231F20" stroke-width=".7" stroke-miterlimit="10"/>
  <path d="m817.2 844.4-.6-4.8v-1l.7-.7c.7-.7 1-1.8.7-2.8a2 2 0 0 0-2.2.4c-.5.7-.8 1.5-.6 2.4l.2 1.7c0 .6-.9 1-1.2.6-.2.4-.2.9 0 1.3.7 0 1.1 1 1.2 1.8.2.8.6 1.8 1.3 1.7M826 848.8a9 9 0 0 1-1.3-7c.2.3.6.5 1 .4l.2-6.4c0-1 .2-2.2 1-2.8 4.4-.2.5 5.6.6 8.3.3-.2.8.3.7.7 0 .4-.3.8-.6 1a5.6 5.6 0 0 0-.9 5.6M873.6 863.9c-1-3.8-1.7-7.7-2.5-11.5" stroke="#231F20" stroke-width=".7" stroke-miterlimit="10"/>
  <path d="M871 852.9c0-2-.9-4-1.5-6-.7-2-.7-4.4.8-5.7.3-.4.7-.6 1.2-.7 1 0 1.7.5 2 1.3.5.8.6 1.7.7 2.5.7 6.3 1.4 12.7 1.6 19M880.4 862.5c-1.3-3.4-3-6.6-5.2-9.5M873.8 842c-.3-2 2.8-2.6 4.8-2.3 4.2 1.5 2.7 14.5 4 22.8v.3M866.6 865.3l.1-.5c.2-1 .3-1.9.2-2.9 0-2 .6-4 1.7-5.8" stroke="#231F20" stroke-width=".7" stroke-miterlimit="10"/>
  <path d="M869.2 843c-1.1-1.6-2.2-3.4-4-4H864c-.7.4-1.1 1-1.1 1.7 0 .6 0 1.4.2 2a69.7 69.7 0 0 1 1.6 23.2M869.6 864.6c-.8-1.4-1.6-2.8-2.1-4.3M870.5 849.5c.6 5 .1 9.8.2 14.8M877.3 839.5a4.3 4.3 0 0 1 2.5-2.9 9 9 0 0 1 3.3-.2l.9.3c.2.2.3.6.4.9a34.2 34.2 0 0 1 .8 7.2 15 15 0 0 0 1 3.3c1.5 4.1 2.3 7.5 1.7 11.9-.2 1.7.7.1 0 1-4.4.4-4.2-3-6.1-7.6M864.1 839c0-1.7-.7-3.2-2-4.3a33 33 0 0 1-3.2-3.4l-1.2-2.4c-.2-.4-.3-1 0-1.3.3-.4 1 .1 1.3.5.7 1.2 2.1 3 1.9.4.4-2.9-2.4-2.1-2-5 0 .3.6.2.7 0 .2-.4.2-.7.1-1l-.3-2.4c1.4 2.2 2.4 4.6 2.7 7.3 0 .5.1 1 .4 1.4.1.4.7.6 1.1.5 0-4.7 2-3 2-3.5.2-.6 3.1 1.2 2.3 3.2-6.8 2.9-2.7 2.2-2 6.4a16 16 0 0 1-.5 3.4M870.6 840.8c-1.8-2-2.8-4.4-3.1-7 .7 1 1.6 1.7 2.6 2.4 0-2.8 0-5.9 1.8-8 .7 1.9 1 4 .5 5.9a6 6 0 0 0-.1 2.7c0 .4.3.7.4 1.1.2.9.3 2.4-.6 2.8M879.3 836.4c-.6-1.2-1.4-2.4-2.6-2.7l-1.8-.1c-.6-.3-1.1-1-.6-1.5l1.3-.2c.4-1.8-3.1-2.7-2.8-4.6l.3-.7c.2-.6.2-1.2 0-1.8 1.1-.2 1.8 1 2.2 2.1.5 1 1 2.4 2 2.4.5 0 .9-.2 1.2 0 .3.2.4.5.5.8.7 1.8 2 4.1 2.4 6" stroke="#231F20" stroke-width=".7" stroke-miterlimit="10"/>
  <path d="M875.4 839.9c-.6-1-.9-2.2-.6-3.4-.6-.6-1.5-1-2.4-1M876.6 839.5c-.1-1.6.8-3.9.7-5.5M851 868.4c-1.1-4-2-8-2.7-12" stroke="#231F20" stroke-width=".7" stroke-miterlimit="10"/>
  <path d="M848 856.8c0-2-.8-4-1.5-5.9-.5-2-.6-4.4.8-5.7.4-.4.8-.6 1.3-.7.9 0 1.7.5 2 1.3.4.8.6 1.7.6 2.5.8 6.6 1.4 13.2 1.7 19.8" stroke="#231F20" stroke-width=".7" stroke-miterlimit="10"/>
  <path d="M858 867.4c-1.5-4-3.6-8-6.1-11.5M850.8 846.4c-.3-2.1 2.9-3 5-2.9 1.9.6 2.7 15 4 23.2v.3M846.3 847c-1-1.7-2.2-3.5-4-4-.4-.2-.8-.2-1.2 0-.7.3-1 .9-1 1.6 0 .6 0 1.4.2 2a70.5 70.5 0 0 1 1.5 23.7c.9.3 1.8-.5 2.1-1.4.2-1 .3-2 .2-2.9 0-2 .6-4 1.7-5.9" stroke="#231F20" stroke-width=".7" stroke-miterlimit="10"/>
  <path d="M847 869.2c-.9-1.6-2.3-2.5-3-4.3M847.3 853.1c.7 5.2.5 10.6.5 15.8M865 863c-1.7-3.4-5.1-6-6.6-9.7M854.7 843.5c.2-1.3 1-2.4 2.3-3a9 9 0 0 1 3.3-.2c.3 0 .6 0 .9.2.2.3.4.6.4 1a34.2 34.2 0 0 1 .8 7.2l1 3.2c.6 1.8 1.2 3.7 1.6 5.6M841.2 842.9c0-1.7-.7-3.2-2-4.3a33 33 0 0 1-3.2-3.4l-1.2-2.4c-.2-.4-.3-1 0-1.3.3-.3 1 .1 1.3.6.7 1 1.3 2.4 1.7 3.7.5-2.8-4-5.5-3.8-8.4.2-1.5 1 1.2 1.9.5.4-.4.7-1 .9-1.5-.1-.9 1-1.3 1.7.3 1.5 2.1.3 2 .6 4.5 0 .5.2 1 .3 1.4.2.4.8.7 1.2.5-.2-.6-.3-1.2-.2-1.8.2-.5.8-1.1 1.3-1-.5 4.4-.5 8.7.2 13M847.7 844.7c-1.8-2-2.8-4.4-3.1-7 .7 1 1.6 1.8 2.6 2.4 0-2.8 0-5.9 1.8-8 .7 1.9 1 4 .5 5.9a6 6 0 0 0-.1 2.7c0 .4.3.7.4 1.1.2 1-.3 2-1.2 2.4M856.5 840.3c-.7-1.2-1.5-2.4-2.7-2.6l-1.8-.2c-.6-.2-1-1-.6-1.5l1.3-.2c.4-1.8-3-2.7-2.8-4.6.1-.2 1.8 1 1.8.8.3-.5-.2-2.2-.4-2.8 1-.2.8.6 1.2 1.6.5 1 1 2.4 2 2.4.5 0 .9-.2 1.2 0 .3.2.4.5.5.8.7 1.8 2.5 4.3 2.8 6" stroke="#231F20" stroke-width=".7" stroke-miterlimit="10"/>
  <path d="M852.5 843.8c-.6-1-.8-2.2-.6-3.4-.6-.6-1.5-1-2.4-1M853.7 843.4l.2-5.7M781.5 855.7a4 4 0 0 1 4.7 1.6c.4.6.5 1.2.4 1.8-.2.5-.4 1-.8 1.3-3.5 4.5-5.7 10-7.8 15.2l-2.2 5.7a5.2 5.2 0 0 1-.1-3.8l1.5-3.7c.4-1.5.8-3 1-4.7l.7-5.6c.5-3 1-6.1 3.4-8M767.2 862.3c1-2.2 3.2-3.5 4.3-3.3.4 0 .8.3 1 .7v1l-2.1 6c-1.4 4.5-3.1 8.9-5 13.1-.2-6-.4-12.1 1.9-17.6" stroke="#231F20" stroke-width=".7" stroke-miterlimit="10"/>
  <path d="M781.6 856c.4-.8-.4-2.4-1.1-3-.7-.7-1.8-.8-2.8-.4-1 .5-1.6 1.3-1.8 2.4l-.2 3.2c-.1 7-2.9 13.8-3 21a49 49 0 0 0 4.7-8.1M788.5 861.4c2-.5 4-.2 5.7.7.9.5 1.7 1.4 1.3 2.3a2 2 0 0 1-.8.8 15.2 15.2 0 0 0-5.7 6.2c-.3 1-.7 1.8-1.2 2.7-1.1 1.7-3.4 2.9-3.6 5a5.6 5.6 0 0 1-.5-5.3c.4-.6.6-1.2.9-1.9l.1-1.7 1-2.2c.5-1.2.9-2.5 1.2-3.8.5-1.3 1.4-2.5 2.8-2.8" stroke="#231F20" stroke-width=".7" stroke-miterlimit="10"/>
  <path d="M792.9 861.8c.5-.7-.2-3.4-.8-4-.6-.4-1.4-.7-2.2-.7-.5 0-1 0-1.3.3a47.7 47.7 0 0 0-4.4 6.5c-3 5.8-3.8 12.4-4.4 18.8.4.1 1 0 1.2-.5l.4-1.4c.3-1.4 1-2.7 2.3-3.5M771.4 864.9c1.1 2.6 1.8 5.4 1.8 8.3M771 884.4c-2.7-.4-1.8-5.3-2-6.7-.2-2.8.9-3.6-.2-6.2M773.6 877.2c0 2.2.8 4 .5 6.6" stroke="#231F20" stroke-width=".7" stroke-miterlimit="10"/>
  <path d="M795 863c1.2-3.4 8.8-7.8 10.8-8.5.4 0 .8-.3 1-.6.4-.4.5-.8.2-1.3-.3-.3-.7-.4-1.1-.3-1.1 0-2.2.4-3.3.7 0-1.3.4-2.5 1.3-3.4-.3-.6-1.3-.6-1.8-.1s-.8 1.3-.8 2c-.2.9-.5 1.8-1 2.6-1 1.5-2.1 2.8-3.4 4-1.2 1.3-3.8 1.2-3.7 3-.3-.2.3.7.6.4" stroke="#231F20" stroke-width=".7" stroke-miterlimit="10"/>
  <path d="M792.5 858.5c.3-1.8 2.3-3.4 4.1-3.7 0 .5.8.7 1.3.5.9-.3 1-1.5 1.7-2.2.5-.5.5-1.7 1-2.7 0-5-2.3-1.4-4.4 1.3.2-.7.2-1.5 0-2.2-.3-.6-1.2-1-1.6-.5-.3.5-.4.9-.3 1.3l.3 3.2c-1.4.7-3.6 2.3-4 3.8" stroke="#231F20" stroke-width=".7" stroke-miterlimit="10"/>
  <path d="M786.2 857.4c.7-2 2-3.9 3.6-5.2l7-4.4c1-.5 2-1.3 3-2.2.6-.6 1.2-1.7.5-2.2-2.3 1-4.4 2.6-5.8 4.7-.4-.4-.6-1-.3-1.5l.6-1.5c.2-1-.4-2-1.4-2.2-1.4 1.3-.4 4.1-2 5-1 .8-3 0-3.6 1.3l-.1 1.2c-.1 2-1.5 3.9-2.8 5.5M781.1 854.1c.3-1.6 1-3.2 1.8-4.5.2-.2.4-.4.7-.4.5 0 .7.7 1.1 1 .7.3 1.5-.3 2-1 .5-.3.6-.9.7-1.4 0-.6-.6-1-1.2-1.1-.7 0-1.2 0-1.8.2.4-.8 1.1-1.3 1.6-2 .4-.6.4-1.8-.5-2-.8-.1-1.3 1-1.4 1.8-.1.8-.2 1.7-1 2.2-1 .4-1.8-.7-2.5-1.4-1.1-1-2.5-1.5-3.9-1.3-.5 0-1 .3-1.1.8 0 .6.7 1 1.4 1.2.7.2 1.4.5 2 .9 1 .5 1.9 1.4 1.7 2.4-.2 1-1.4 1.7-1.1 2.7M772.3 859.2c.7-1.3 3-2 4-1.1a2.8 2.8 0 0 1-1-2.6c.1-1 .5-2 1.2-2.8-1.2-.1-2.5-4-3.8-3.9-1.6 0-.7 6-1.7 6.6l-.9-3.7c0-.5-.5-1-.7-.6-.2 2.7 0 5.4.2 8M768.3 860.9c-.4-2-1.4-4.3-1.7-6.2a3 3 0 0 0-.5-1.2c-.4-.4-.8-.5-1.2-.2l.8 4.8c-1.1.6-2.4-.7-3.6-.7a4 4 0 0 0-2.5 1.2c-.2.1-.5.4-.3.7 0 .2.2.3.4.3l3.3 1.3-2.8.9c-.9.4-1.6 1.4-1.1 2.2.4.7 1.3.7 2.2.5.9-.3 1.8-.5 2.7-.5 1 0 1.8.7 2.2 1.5M682.3 897.5a34.2 34.2 0 0 1-7.8-22c.1-2.7 2-2.3 2.8-2.6.3 0 1.6-1.5 2-1.5a8 8 0 0 1 1.8 1.8c3 5.8-1.1 13.3.6 19.7.4 1.6 1.1 3.4.5 5M688 892.9c-.8-1-1.6-3.4-2.4-5.4a66.4 66.4 0 0 1-3.3-15.4c.5-.9 1.7-1.2 2.5-.7l.2.1c.8.8 1.4 1.8 1.7 2.8 2.4 7.6 3.9 15.3 4.4 23.2a15.5 15.5 0 0 1-3.5-5" stroke="#231F20" stroke-width=".7" stroke-miterlimit="10"/>
  <path d="M674.7 878.7c0-1-.5-2-1.1-2.8-.7-.8-1.8-1-2.7-.5-.7.5-1 1.4-1 2.2.2 1.1.6 2 1 3l4 9.4c1.3 2.6 3 8.3 4.4 10.8.3.5 1 .6 1.4.4.3-.2.4-.3.5-.6.2-.7-.3-4-.6-5M680 871.8c1.1-2.4 2.3-2 2.8-.4M681.5 886.1c2 6 5 16.8 6.6 15 0-2.8 1-4.1.5-7M687 873.9l1.4-.8c.2-.2.5-.3.7-.2.3.1.4.4.6.8.9 3 2 5.9 3.2 8.8 1.7 3.5 3.9 8 3.8 12-1.8 1.7-2.8-3.6-4.2-5a14.6 14.6 0 0 1-2.8-5.2M675.7 873.2c.2-.8 0-1.8-.7-2.4l-2-1.6c-1.2-1-2-2.4-2.7-3.9-.2-.2-.2-.5 0-.7h.3c.8 0 1.5.4 1.9 1.2-.2-1.7.2-3.4-.6-4.8-.8-1.5-1.4-5 .3-4.4 1.3 2.7 2.4 2.7 2.2 6 0 1.5.5 1.1 1 2.5.3-1.5 1.8-.9 1.6-2.4.3-.3 1.2 1.3 1.3 1.8.2 1.3-2.2 2.8-2.3 4.3-.2 1.4.2 2.8 1 4M670 876.4c-.2-.5-.4-1.1-.8-1.5-.3-.5-1-.8-1.4-.6-.4 0-.6.3-.8.6-.9 1-1.4 2.3-1.4 3.8-.4.3-.8-.2-1.2-.6-.5-.6-7.3 7.4-4.1.1a5 5 0 0 1 1.7-2c1.3-1 2.8-1.6 3-2-2 .7-4.1-.1-5.4-2a4 4 0 0 1 2.8 0c.9.4 3.7-.3 4.1-1.2.4-.7-1.5-5.4 2.8-1.3 1.4.7.5 4.2 1.2 5.7" stroke="#231F20" stroke-width=".7" stroke-miterlimit="10"/>
  <path d="M688.6 872.5c-.3-2.1-.9-4.4-2.5-5.5-.4-.4-.9-.5-1.4-.8a6.7 6.7 0 0 1-3-4c0-.4-.2-.8-.5-1.2-.5-.5-1.4 0-1.6.8-.2.7.2 1.4.7 2l1.7 1.4c.6.4 1 1 1 1.8-1-.2-7.2-1.6-5.4 1.8 2.5 1.2 7.1-.2 9 2 .6.9.7 2 .6 3M695.8 889c2.3-6.6 7.2-13 12.4-17.7l2 1.4.6.7c0 .3 0 .7-.2 1-2.4 6-7 4.7-9.7 10.6-.8 1.6-3 3.7-4.6 6.3M701.2 894.2c1.3-1.8 2.4-3.7 3.3-5.6a62.5 62.5 0 0 1 9.5-12.3c1-.3 2 .8 2.2 2 0 1.1-.5 2.2-1.1 3a69.8 69.8 0 0 1-15.2 17.7c0-1.7.5-3.4 1.3-4.8M692.1 889.2c-.5 1.3-.2 1.2-.5 2.6.4 1 1 .4 1.9-.5M704.7 874.6c.6-1 1-2 1-3.1.2-1.1-.4-2-1.3-2.6-.8-.1-1.6.1-2.2.7-.5.6-1 1.3-1.3 2l-5.4 11.3-1.3 2.4" stroke="#231F20" stroke-width=".7" stroke-miterlimit="10"/>
  <path d="M708 878.2c.8-.7 2.4.5 2.4 1.5M694.7 894c-3.1 5.5-5 4.6-.5 5.5 2 .1 4.7-1.7 6.4-3.9M706.2 898l-.3-1.5c.1-2 1.8-4.6 2.8-6.3M715.5 881l1.5.7c.2 0 .5.3.5.5.1.3 0 .7-.2.9a72.2 72.2 0 0 0-4.6 8.1c-.9 1.8-1.5 4-2.3 5.7M710.7 871.1l-.5 1.3M709 871.5c.8-.3-1.6-2.2-1.4-3 0-1 1.9-3.6 1.9-4.5 0-1.6 1.4-.4 2-1.8 0-.3.3-.6.5-.5.2 0 .3.1.3.3.4.7.5 1.6.4 2.3 1.1-1.1 1.6-2.9 2.2-4.4.7-1.9 2-3.4 3.6-4.6 2.3.4-.1 3.9-1.3 6.6-.5 1.4-2.1 2.7-2.8 4 1.3-.8 5.4-4 4.5.5-1 1.4-3 1-3.3 1.3-1 1-2 .5-3.1 1.3l-1 1M703.1 868.8c.3-.4.6-1 .7-1.6.2-.6 0-1.2-.4-1.5-.3-.2-.6-.3-1-.3-1.3 0-2.6.4-3.7 1.2-.5-.1-.4-.8-.2-1.3.2-.8.2-1.7 0-2.5.8 1 2.2 1.2 3.3.7a5.4 5.4 0 0 1-2-5.7c.9.5 1.4 1.4 1.8 2.3.3 1 3.1.9 3.6 1.7.3.5-1.2 2 .2 2 1 0 2 .8 2 1.9l-.2.8-1.8 3.9" stroke="#231F20" stroke-width=".7" stroke-miterlimit="10"/>
  <path d="M715.7 877.2c.5 0 .9-.7 1-1.3a5 5 0 0 0-1-4.4c-.3-.5-.8-.8-1.3-1l-1.2.1c-1.2-.1-2.2-1-2.6-2 0-.5-.3-.8-.6-1.1a.7.7 0 0 0-.9 0v.1c-.1.3 0 .7.3 1l1.6 2.1c.6 1 1.5 1.7 2.5 2.1a4 4 0 0 0-1.8.7c.3.6 1.2.3 1.8.5.7.2 1 .9.8 1.5l-.2.4" stroke="#231F20" stroke-width=".7" stroke-miterlimit="10"/>
  <path d="M717.6 881.6c1.3-1.6 2.8-3.4 2.6-5.5l-.2-1.6c-.3-1.7 3.5-3.2 4.5-4.6.2-.3.5-.6.5-1-.1-.7-.6-1.1-1.3-1h-.3c-.6.5-1 1.1-1 1.8-.1.8-3.3 1-3.3 1.8s.6.4 0 1c-.6-1.1 0-5.2-1.8-2.4.7 2.8.9 5.7.5 8.7-.3 1-1 1.8-1.7 2.3M709.9 878.5c.1-1.3.5-2.8 1.7-3 .6-.2 2.3 0 2.5-.6M732.5 890.6c-.7-6-1.4-12.5 1.2-18 1-2 2.4-4 3-6.2l.9-3a3.9 3.9 0 0 1 2.9-2.5c1.3-.2 2.5.8 2.6 2v.4a5 5 0 0 1-.7 1.7c-4.5 8-3.7 19-9.6 26-.2.2-.5.5-.8.3-.3-.1.2-.7.3-.4M738.4 889.8c.9-9 1.9-18.3 6.6-25.8.5-.9 1.2-1.7 2.1-2.2.9-.5 2.1-.3 2.8.5.8 1.2 0 2.8-.7 4.1-2 3.8-3 8.2-4.5 12.4a24.5 24.5 0 0 1-6.7 11" stroke="#231F20" stroke-width=".7" stroke-miterlimit="10"/>
  <path d="M737 865.2c-.2-1.3-1.3-2.4-2.6-2.3a4 4 0 0 0-3.2 2c-.6 1-1.2 2.2-1.6 3.5-1.7 4.7-3.8 9-6.3 13.2-1.5 2.4-3.2 4.7-3.6 7.4 1.6.3 2.8-1.3 3.7-2.7a31 31 0 0 1 8.3-8.3M743 890.8a6.3 6.3 0 0 1-.4-4.3c0-.5-.2-1.1-.4-1.7 0-.2 1.8-3.8 1.6-3.6M748.3 868.8c.6-.8 1.6-1.1 2.5-.8.5 1.7.1 3.7-.3 5.6l-1.1 4.9-1.3 5c-.7 2.1-1.5 4.2-2.5 6.2" stroke="#231F20" stroke-width=".7" stroke-miterlimit="10"/>
  <path d="M733.7 863c1-1.2.9-4.3.9-5.9 0-1.8-3.7-3.6-2.3-4.8 2.3-2.7 4.7 1.2 4.6 2.4 1-.4 1.3-.2 2-1 .6-.8 1.7-1.5 2.5-1 .4.3.3 1-.1 1.3-.3.4-.8 1.7-1.2 1.8-1.6.6-2.8.7-3.5 2.2-.7 1.5 0 3.7-.4 5.2" stroke="#231F20" stroke-width=".7" stroke-miterlimit="10"/>
  <path d="M739.8 861c.2-1.3-2.6-3.1-1-3 1 0 1.6-1.3 2.6-1.3-.7-2 1.2-3.9.8-6-.2-.4-.2-.9-.3-1.4 0-.5.5-1 1-.7.3 2 .4 4 .5 6 .8.7 1.7-1.2 2.6-.7.4.3.5.8.3 1.2a2 2 0 0 1-1.1.8l-2.2 1c-.7.6-1.1 1.3-1.1 2.2 0 .7.5 1.6 0 2.2" stroke="#231F20" stroke-width=".7" stroke-miterlimit="10"/>
  <path d="M747.3 861.5c0-1-.5-2-1.3-2.5-.2 0-.5-.2-.5-.4-.2-.4.4-.8.9-.7.8.1 1.2.6 1.5.1.5-2 .3-2.5-.4-4.5-.2-.5-.4-1.1-.4-1.7 0-.5.7-1.1 1.2-.9.5.3.5.8.5 1.3l.4 6c.5.1 1-.1 1.2-.5.3-.4.4-1 .6-1.4.4-1 1.1-2 2.2-2.4.2-.1.3-.2.5-.1.5.2 0 .9-.3 1.2a9.9 9.9 0 0 0-3 4c.5.4.7 1 .4 1.6-.4.4-1 .8-1.5 1M750.4 868.7c1.3-1.6 3.3-3 5.2-2.3 1.6.5 2.7 2 4.3 2.4h.4c.2-.1.2-.3.3-.4.3-1.1-.1-2.2-1-2.8-1-.5-2-.6-3-.1-.2-.4 0-.9.4-1.1l.4-.1c.3-.3 0-1-.4-1.2-.5-.2-1-.1-1.4.1-2.5 1-4.7 2.5-6.5 4.6M737.8 661.4c0-.7-.6-1-1.7-2.5a14 14 0 0 1-2-7.5 14 14 0 0 1 4-7.5c1.4-1.3 4.5-2.5 7.2-2.4 2.2 0 3 .9 3.8.3.6-.5 3.5-5.2 3.5-6.3-.1-1.2-1-1-2.6-1-1.5-.2-6.2-.3-8.7.2A18.6 18.6 0 0 0 728 644c-1 1.9-2.6 7.1-1.8 11.2.5 3.3 3 7.6 3.4 8 .4.3-.5 1.6-1.4 2.9-.9 1.2-2.1 3.7-2.1 4 0 .5 2 .7 3 .6 1-.2 3 .3 3.8-.1.6-.7 5-9.1 5-9.1ZM757.8 634.2c-1 .2-.6 0-1.3 1.3-.8 1.2-4.6 7.4-4.5 7.9a16 16 0 0 0 2 2.5 15 15 0 0 1 2 6c0 1.6-.4 4.8-2.1 6.8-1.8 2-4.3 4.2-8.1 4.5-3.8.3-3.3-1-4.4-.5-1 .6-4 5.6-4.2 6.1-.1.6.3 1.3 1.8 1.3s8.2.3 10.5-.3c2.2-.5 6-1.8 9.2-5 3-3 4.8-7.5 5-9.8.4-2.3.3-7.5-1.5-10.6-1.6-3-2-2.4-1.6-3.3.3-1 3.5-6.1 3.5-6.5-.1-.5-.8-.5-1.5-.5l-4.8.1Z" stroke="#231F20" stroke-width=".7" stroke-miterlimit="10"/>
  <path d="M739.2 650.2c-.3 0-1 .3-1.2 1.5-.1.7.7 1.7 1.5 2.6h2.3s-1.6-1.6-2-2.4c-.4-.6-.5-1.1-.6-1.7ZM740.7 650.7l2.9 3.5c.2.2.6 0 .6 0v-2.7c-.6 0-1.2 0-1.7-.2-.7-.1-1.2-.4-1.8-.6ZM745.7 651.7v2.5h.5s2.5-2.4 2.8-2.9l.3-.7c-.5.2-1 .5-1.6.6l-2 .5ZM748.2 654.1c1-1 1.9-1.8 2.2-2.4l.3-1.4s.7 0 1 .4c.4.5.5 1.1.2 1.7-.3.8-1.5 1.8-1.5 1.8h-2.2v-.1ZM741.1 649.1c-.1.3 2.5 1 3 1 .6 0-.4-1-1-1.3-.8-.2-1.5-.1-2 .3ZM745.6 650.1l2-.5c.4 0 .7-.2 1-.4 0 0-.3-.8-1.4-.5-1.2.3-1.3 1-1.3 1l-.3.4Z" stroke="#231F20" stroke-width=".7" stroke-miterlimit="10"/>
  <path d="M738.8 655.8s-2.3-2.5-2.4-3c0-.6-.2-2.4.5-3a6 6 0 0 1 2.7-1.1s1-1.4 2.4-1.6c1.3-.2 2 .3 2.3.6l.7.7s.5-1.1 2.4-1.2c1.2 0 2.1.5 2.8 1.4 0 0 1.6-.2 2.5 1 1 1.3 1 2.2.7 3-.5 1-2.3 3.1-2.3 3.1l-12.3.1ZM738.9 656.5v1.4H751v-1.4H739Z" stroke="#231F20" stroke-width=".7" stroke-miterlimit="10"/>
  <path d="M745 645c-.6 0-1 .6-1 1.2s.3 1 1 1 1.2-.7 1-1.2c-.4-1-1-1-1-1ZM624.1 627.9l-1.4 52.6 45.2-.6.5-51.7-44.3-.3Z" stroke="#231F20" stroke-width=".7" stroke-miterlimit="10"/>
  <path d="M638.4 663.7c0-.7-.6-1-1.7-2.5a14 14 0 0 1-2-7.5 14 14 0 0 1 4-7.6c1.4-1.2 4.5-2.4 7.2-2.3 2.2 0 3 .9 3.7.3.7-.6 3.6-5.2 3.5-6.4 0-1-1-1-2.5-1a41 41 0 0 0-8.7.2c-2.8.5-5.4 1.6-7.7 3.2a18.6 18.6 0 0 0-5.6 6.1c-1 2-2.6 7.2-1.9 11.3.6 3.3 3 7.6 3.5 8 .4.3-.5 1.6-1.4 2.9-1 1.3-2.1 3.6-2.1 4 0 .5 1.9.7 3 .5 1-.1 3 .4 3.7 0 .7-.7 5-9.2 5-9.2ZM658.3 636.6c-.9.2-.5 0-1.3 1.2-.7 1.2-4.5 7.5-4.5 8a13 13 0 0 0 2 2.4 15 15 0 0 1 2.1 6c0 1.7-.4 4.9-2.2 6.8-1.8 2-4.2 4.3-8 4.6-3.9.3-3.4-1-4.4-.5-1.1.6-4 5.5-4.2 6.1-.2.6.2 1.2 1.7 1.2s8.2.4 10.5-.2c2.3-.6 6.1-1.9 9.2-5 3-3 4.8-7.6 5.2-9.8.3-2.3.1-7.5-1.6-10.6-1.6-3-2-2.4-1.6-3.4.3-1 3.5-6 3.5-6.4-.2-.6-.8-.5-1.5-.5h-4.9Z" stroke="#231F20" stroke-width=".7" stroke-miterlimit="10"/>
  <path d="M639.8 652.5c-.4-.1-1.1.3-1.3 1.5 0 .7.8 1.7 1.6 2.5l2.3.1s-1.7-1.6-2-2.4l-.6-1.7ZM641.4 653l2.8 3.5c.2.2.7 0 .7 0v-2.7l-1.8-.3c-.7 0-1.2-.3-1.7-.5ZM646.4 654v2.5h.4s2.6-2.4 2.8-2.9l.3-.7c-.4.2-1 .5-1.6.5l-2 .5ZM648.8 656.5c1-1.1 2-1.8 2.2-2.5l.3-1.4s.8.1 1 .5c.4.4.5 1 .3 1.7-.4.8-1.6 1.8-1.6 1.8l-2.2-.1ZM641.8 651.4c-.2.3 2.4 1 3 1 .6 0-.4-1-1.1-1.3-.8-.2-1.5-.2-2 .3ZM646.3 652.4l2-.5c.3 0 .7-.2 1-.4 0 0-.3-.8-1.5-.5-1.1.3-1.3 1-1.3 1l-.2.4Z" stroke="#231F20" stroke-width=".7" stroke-miterlimit="10"/>
  <path d="M639.4 658s-2.2-2.4-2.3-3c-.1-.6-.3-2.3.5-3a6 6 0 0 1 2.7-1s1-1.4 2.3-1.6c1.3-.3 2 .3 2.4.6.2.2.5.4.6.7 0 0 .6-1.2 2.5-1.2 1.1 0 2 .5 2.7 1.4 0 0 1.7-.2 2.6 1 1 1.2 1 2.2.6 3-.4 1-2.3 3.1-2.3 3.1h-12.3ZM639.5 658.8v1.5l12.2-.2v-1.4l-12.2.1Z" stroke="#231F20" stroke-width=".7" stroke-miterlimit="10"/>
  <path d="M645.6 647.4c-.5 0-1 .6-1 1.2 0 .5.4 1 1 1 .8 0 1.2-.7 1-1.3-.3-1-.9-.9-1-.9ZM82 820.2c-.3-8 .4-92.2.8-99 .4-6.7 1.5-13.1 6-17.7 2.6-2.6 5.6-3.4 10.2-3.7 4.5-.4 325.7 9.1 330.2 10.2 8.3 1.8 16.2 6.3 18.5 13.1 2.2 6.8 3 27.1 2.2 41.4-.7 14.3-1.8 98.2-1.8 98.2M90.3 750l.4 69.4" stroke="#231F20" stroke-width=".7" stroke-miterlimit="10"/>
  <path d="m441 766 .2-6.8c0-6.4 2.8-30.9-3.6-36.1-6.3-5.3-9.1-5.3-16.7-5.6-7.5-.4-308-11-311.4-11a95 95 0 0 0-14 .8c-2.3.7-4.9 3.3-5.2 8.6-.2 1.9-.2 15.1-.1 31.7M438.2 862.6c.3-2.8 2.2-68.2 2.8-93.6" stroke="#231F20" stroke-width=".7" stroke-miterlimit="10"/>
  <path d="M89 747.4c3.3-.4 350.7 19.3 352.2 18.6M442.5 769.2c-1.1-1.1-352.5-19.8-354-19.4M220.1 713.4l65.9 2.3M154.9 711.2l61.7 2M92.8 714.4a8.2 8.2 0 0 1 4.6-4.3c3.7-1.3 4-.9 9-.6l43.7 1.5M91.5 736.4l.3-18.5M150.8 749l-50.6-2.6c-2.1 0-7-.8-8.4-5.7M216.3 752.7l-62.5-3.5M286.2 756.5l-66.8-3.7M359.4 760.6l-70-3.9M439.3 757.3c-.7 2.2-2.9 7-8.8 7l-66.4-3.5M439.6 732c0 5.3.1 14.7 0 20.5M364.6 718.4c38.9 1.5 66.5 2.4 67.2 2.6 3.4 1 6 3.6 7.2 6.9M290.6 715.8l69.2 2.4M219.4 716.2l67 2.7M154.2 713.6 217 716" stroke="#231F20" stroke-width=".7" stroke-miterlimit="10"/>
  <path d="m151.3 746-44.8-2.2L93 727.3c.6-1 13-15.7 13-15.7l44.8 1.8M216.6 749.4l-62.5-3M286.5 752.8l-66.8-3.3M360.1 756.5l-70.7-3.5M364.6 722.1l64.3 2.7c2.2.3 4.5 2.5 4.5 6.6s-.7 21.6-.7 23.5c0 1.8-.3 5.3-5.6 5l-64-3.2M290.4 719l70.2 2.9" stroke="#231F20" stroke-width=".7" stroke-miterlimit="10"/>
  <path d="M150.3 708s-.3 6.2 1.6 6.5c1.9.3 2.5-1 2.8-3.2.3-1 .3-2 0-3.1M217 710.1s-1 7.8 1 7.8c1.8 0 2.4-7.8 2.4-7.8M286.8 712.9s-1.6 6 0 6.6c1.6.6 3.2 1 3.5-1 .2-1.9.3-3.9.3-5.8M360 715.1s-.6 6 .4 7c1 .8 3.7 1.8 4 0 .3-2-.3-6.3-.3-6.3M439.9 727.6s-4.7 1-4.7 2.5c0 1.6-.3 2.5 1.8 2.2 1.4-.2 2.8-.5 4-1M441.3 752.5s-4.6.5-5.8 1.5c-.5.4-.9 2.1 1 2.8 1.7.5 3.3.7 5 .7M363.5 762c.3-2.4 0-5.6-.9-5.9-.9-.3-2.2-.9-2.5.3-.3 1.3-.6 5.4-.6 5.4M289.3 758s.7-5.6-1-6c-1.5-.2-1.5.4-1.8 2.6l-.6 3.2M219.5 753.9c0-1.6.7-5-.7-5.3-1.3-.3-2.1 0-2.4 1.5-.3 1.4-.3 2.7-.3 4M153.8 750.8c.3-3.7.3-4.3-.3-5.3s-1.6-.3-2 .7l-.6 4.4M90.1 740.5s3.5.6 4.1-.7c.6-1.3 1-3.1-.6-3.4a9.3 9.3 0 0 0-3.5.1M90.4 716.8c1 .4 1.8 1.4 3.6 1.2.8 0 1.8-.8 1-2.3-1-1.5-4.2-2.3-4.2-2.3M112.7 736c-.6-4.9-.8-9.8-.7-14.8l-2.5.2c.3.6 0 1.2-.5 1.4a2 2 0 0 1-1.5 0v2.2h2.2a175.2 175.2 0 0 0 .3 11h.1l2.4-.3M264.7 733v-9.2h-2.6l-.3 17.6 2.8.1.2-4.4 1-1.3 3.3 6 3 .1-4.4-8 4.1-4.7-3.4-.3-3.7 4.2ZM295.6 730.1l2.6-1s-2-3.6-5-4.2c-3.2-.6-5.7 0-7.4 2.3a12.6 12.6 0 0 0-1.3 10.6c1.3 3 3.4 5.6 6.2 5.5 1.7-.1 3.5-.7 4.9-1.8v1.3l2.3.2.2-10-7.5-.2.1 2.9 4.8.2s-.2 3.5-2.4 4c-2.1.5-4.2.3-5.5-2.4-1.3-2.7-.7-7.7 1.2-9.3 1.2-1 3.3-1 4.5-.3a10 10 0 0 1 2.3 2.2ZM305.3 733.7l-1.1-2.4c1.7-.8 3.5-1.2 5.3-1 2.8.3 4 1.9 4.1 3.4v7.6c.2.7 1 .8 1 .8l-.8 2.3s-2.5-.5-2.6-1.5c0 0-1.7 1.5-3.6 1-1.8-.4-4-2-4-4.5 0-2 1.2-3.4 3.4-3.9 1.3-.3 2.7-.4 4-.3 0 0 .5-2-1.7-2.2-1.4 0-2.8.2-4 .7Z" stroke="#231F20" stroke-width=".7" stroke-miterlimit="10"/>
  <path d="M310.8 737.6s.6 2.4-.8 3.2c-1.4.9-3.2.4-3.4-.8-.2-1.2.5-2 1.8-2l2.4-.4ZM308.5 729.6c-1.1-.6-2.7-1.6-1.6-3.4 1-1.5 3.3-1 4.2-.3a2 2 0 0 1 .5 2.9l-.3.3c-1 1.1-2.8.5-2.8.5Z" stroke="#231F20" stroke-width=".7" stroke-miterlimit="10"/>
  <path d="M308.5 727.9c-.7-.5 0-1.4.9-1.2.9.1 1.1.8.8 1.2-.4.4-1.2.4-1.7 0ZM319.9 744l.3-13 2.4.2.2 1.6s.8-1.5 3.7-1.3l.2 2.9c-.8-.2-1.7 0-2.4.3-.8.5-1.4 1.4-1.4 2.4-.2 1-.2 7-.2 7h-2.8ZM339.2 737.5c0-1.5-1-3.2-2.6-3.2-1.7 0-2.7 1.5-2.9 4-.1 2.4.7 3.9 2.1 4 1.5.2 2.7-.4 3-1.4l.4-3.4Z" stroke="#231F20" stroke-width=".7" stroke-miterlimit="10"/>
  <path d="m342 727-2.7-.2-.2 5.8s-.6-1-2.7-1c-2 0-3.4.6-4.5 2.6-1.1 2.1-.8 5.7-.4 7 .4 1.4 2.3 4 5 4s2.8-1.2 2.8-1.2v1.1h2.7V727ZM348.5 727.4v18.1h2.6l-.2-1s1.2 1.8 4.6 1.5c3.4-.3 4-4.8 4.1-5.2 0-.5.5-4-1.3-6.5-1-1.8-3-2.6-5-2-.6.2-1.2.5-1.7.9l-.2-5.8h-2.9Z" stroke="#231F20" stroke-width=".7" stroke-miterlimit="10"/>
  <path d="M354.2 735c-1-.1-1.9.4-2.3 1.2-.7 1.2-.5 3.5-.5 4.5s1 2 2.6 2.3c1.6.2 2.5-1.3 2.7-2.8a6 6 0 0 0-.8-4.2c-.4-.8-1.7-1-1.7-1ZM365.7 732.9l2.7.2s0 9.2.3 9.7c.5.5.3 1.1 2.4 1 .8-.1 1.5-.7 1.6-1.5l.5-9 2.8.1-.2 13.5H373v-1.5s-1.8 1.7-3.4 1.6c-1.6 0-3.7-.8-4-3.5-.2-2.7 0-10.6 0-10.6ZM384.5 733.9v-4l2.8-1 .1 5s3.4 0 3.2.4c-.3.3-.3 2.6-.3 2.6h-2.9s-.7 6.9-.2 7.5c.4.6.6.7 1.3.7l1.6-.3.5 2.7c-1.2.3-2.5.3-3.7.2-1.3-.2-2.5-1.3-2.6-2-.2-.8.2-9 .2-9l-2.5-.1.2-2.6 2.3-.1ZM396.6 734.5h2.8l-.2 13.5-2.9-.2.3-13.3ZM398.1 729.3c-1.3 0-1.8 1-1.8 1.9-.1.9.6 1.6 1.4 1.8h.4c1.4 0 1.8-.8 1.8-1.6s-.5-2-1.8-2.1ZM406.3 729.7h2.8L409 740c0-.3 4.4-4.7 4.4-4.7l4 .2-4.8 5 4.8 8.4H414l-3.7-6-1.3 1.3v4.3l-3-.1.3-18.6ZM255 731.9c0-.3 1.5-2.3 1.5-2.3s-2-1.7-4.2-1.8c-1.7 0-3.3.6-4.3 2-.5.8-1 2.9 0 4a7.7 7.7 0 0 0 4.5 2.2c2 .3 1.4 1.6.8 2-.7.7-1.9.7-2.7.2l-2.2-1.3-1.6 2.1s2.6 2.5 5 2.4c2.6-.2 4-1.5 4.4-2.5.6-1.2.6-3.7-.9-4.6-1.5-.9-5-1.2-5.1-2.1-.2-1 0-1.3 1.2-1.6 1.4-.2 3.6 1.3 3.6 1.3ZM239.5 727.6l2.7.2-.3 12.7-2.5-.1.1-12.8ZM240.7 722.7c-1.2 0-1.6 1.3-1.5 2 0 1 .8 1.7 1.7 1.6h.2c1 0 1.2-1.2 1.3-1.9 0-.9-.7-1.6-1.6-1.7ZM231.2 728.4v-1h2.4l-.3 13.7c-.2.7-1.2 3.1-4.4 2.8-1.7 0-3.5-.5-5-1.2l1-2.5s2.4 1.2 3.8 1c1.5 0 2-1 2-1.5l.1-1.6c-.8.8-1.9 1.2-2.9 1-1.9-.1-4.4-2.5-4.3-4.8 0-2.8 0-5 1.6-6.1 1.6-1.2 2.7-1.5 4.2-1 .7.2 1.3.7 1.8 1.2Z" stroke="#231F20" stroke-width=".7" stroke-miterlimit="10"/>
  <path d="M230.5 734.7c.3-.9.3-3.3-.3-4-.6-.8-1-1.4-2.4-.7-1.2.6-1.3 1.5-1.5 2.8 0 1.5.3 2.9 1.5 3.2 1.3.3 2.4-.2 2.7-1.3ZM213.6 729.1c-1.4.2-2.6 1.6-2.6 3.5s.7 4 2.3 4c1.6.1 2.7-1.4 2.8-3.1.2-1.7-.5-4.5-2.5-4.4Z" stroke="#231F20" stroke-width=".7" stroke-miterlimit="10"/>
  <path d="M213.4 726.3c-2 0-4.8 1.3-5 6.2-.3 4.9 2 6.6 4.5 7 2.5.2 5.8-1.6 6-6 .2-4.6-2.4-7-5.5-7.2ZM202.7 721.6l-2.5-.3s-.3 15.1-.2 15.7a2 2 0 0 0 1.7 1.8h3l-.3-2.7s-1.5.3-1.7-.2c-.1-.6 0-14.3 0-14.3ZM190 725.3c-3 0-5.5 2.4-5.5 5.5v.7c.4 4.3 1.9 6.6 4.9 6.8 2.9.2 5.4-2.3 5.7-5.7.1-3.5-2-7.2-5-7.3Z" stroke="#231F20" stroke-width=".7" stroke-miterlimit="10"/>
  <path d="M189.7 728.2c-2 0-2.5 2.3-2.6 3.7 0 1.5 1 3.5 2.1 3.5 1.7 0 3.2-1.4 3.2-3 0-2-.4-4.3-2.6-4.2ZM173.9 729.5l.2-9.3h-2.6l-.1 17h2.6v-4l1.2-1.3 2.9 5.7 3 .1-4.3-7.7 3.9-4.7-3.2-.2-3.6 4.4ZM163.4 720.7c-.2 0-2-1.6-4.8-1.3-2.9.3-5 2.7-5.7 5.2a12 12 0 0 0 .3 7.4c.9 1.8.6 1.6.6 1.6l-1.2 1.9s1.5 1.8 1.7 1.5l1-1.4c1.3 1 2.9 1.6 4.5 1.5 2.7 0 4-1.7 5-3 1.6-2.2 1.6-5.4 1.5-7.5-.2-1.4-.7-2.8-1.5-4l1.2-1.8-1.7-1.5-.9 1.4Z" stroke="#231F20" stroke-width=".7" stroke-miterlimit="10"/>
  <path d="m155.7 730.8 6-8s-1.7-1.1-3.2-.6c-1.5.6-2.5 2-3 5-.2 1.1-.2 2.4.2 3.6ZM157 733.1l6-8.2s1 3.6.3 5.6c-.8 2-2.5 3.5-4.3 3.4-1.7-.2-2-.8-2-.8ZM605.5 399.5l98.4-76.3M607.6 461.6l97.7-99.8M666 302l20.6-10.7M604.1 334 656 307M600.6 266.9l121.7-34.7M596.9 197.7l100.6-4.3M594.8 142.8 748 163.5M603.2 295.2c1.2-2.6 3-5 5.2-6.7a4 4 0 0 1 2.8-1.1c.9 0 1.6.6 2.3 1.1l12.6 10c1.3 1 2.8 2.3 2.8 4 0 1.3-.9 2.6-1 3.8-.1 1.7.9 3.2 1.4 4.7 1 3.4-.9 7.1-3.8 9.3-3 1.9-6.6 2.9-10.1 2.9-1.3-.2-2.6.1-3.7.6-.9.4-1.5 1.1-2.4 1.5-2.5 1-5-1.4-6.7-3.5" stroke="#231F20" stroke-width=".7" stroke-miterlimit="10"/>
  <path d="M607.6 294c-2-.8-4.3.8-5.9 2.4a16.8 16.8 0 0 0-3.7 4.1 13.5 13.5 0 0 0-1.2 8.4c.2 2.8 1.1 5.6 1.5 8.3l.2 1 .7.6a12 12 0 0 0 10.3 1" stroke="#231F20" stroke-width=".7" stroke-miterlimit="10"/>
  <path d="M606.8 311.7c2.4 3 6 5 10 5.4 2.1.4 4.4-.4 6-1.8M623.8 289.5a17 17 0 0 1 1.8-11.4c.1-.4.5-.7 1-1 .4-.2 1-.4 1.4-.4 2 0 3.8.3 5.6.8 1.3.4 2.4 1 3.3 1.8a4 4 0 0 1 1.1 3.5l5 .1M630 308.6c2.2 1.3 4.9 2.7 7.4 2 .7-.3 1.4-.7 2-.8.6-.2 1.9-.3 2.8-.6.9 0 1.6-.8 1.8-1.8 0-.3.2-.6.3-.8.2-.3.3-.6 0-.8-.2-.1-.5.5-.1.4M617.8 291.3v-.9c1.4-1.1 3.4-.9 5.2-.6l1.9.2c2.2.2 4.4 1 6.3 2.2l1.4 1.4M668.3 273.4l-.4-6.3c-.2-.7 0-1.6.2-2.3 1-1.6 3.2-1.6 5-1.6 1.7 0 4.1-.4 4.4-2.3a24 24 0 0 1 7.4 5c1 .7 1.7 2 1.2 2.9 1.3-.4 2.6.3 3 1.6l.1.4" stroke="#231F20" stroke-width=".7" stroke-miterlimit="10"/>
  <path d="M666.5 275.9c-.3-1.4.4-2.8 1.6-3.5 1.3-.6 2.5-.8 4-1 2-.1 4.4-.2 5.9 1.2.5.5.9 1.1 1.1 1.9M688.6 263.6c-1.9-.9-4-.5-5.5.8" stroke="#231F20" stroke-width=".7" stroke-miterlimit="10"/>
  <path d="M687.6 267.8a6 6 0 0 1 2.3-6.9c.6-.3 1.4-.7 1.6-1.4.8-1.7-2.1-3.4-1.5-5 .4-.6.9-1 1.5-1.2 3-.8 6-.3 8.4 1.6a44 44 0 0 1 3.3 3.5 6 6 0 0 0 4.1 2.2v1.9M602 256.5c5-1.1 8.2-6.2 9-11.3.2-1.1.2-2.4-.2-3.6-.4-1.2-1-2-1.8-3-1-1.3-2.2-2.6-3.6-3.6a9.7 9.7 0 0 0-10.3.4c-3 2.1-5 5.4-5.4 9-.5 3 0 6 1.4 8.6 1.5 2.6 4 4.3 7 4.6 2.3.3 5-.8 5.5-3M619.8 245.8c-1.4-2.4-2.8-5-3-7.8 0-2.8 1.5-5.8 4.1-6.4 2.2-.5 4.5.6 6.5 1.5 6.6 2.8 14 3 20.6.9 1.2-.5 2.5-.8 3.8-.6 1.2.3 2.2 1.2 2.8 2.4 2 3.1 3 6.8 2.8 10.6.1 1.1-.7 2.3-1.8 2.5-8.5 4-18.5 1.8-27.6-.4-3.6-.8-7.8-2.2-9-5.8M652.3 228.4c-1-2-1.6-4.1-1.9-6.4-.1-1 0-1.8.3-2.6.9-1.9 2.7-2.9 4.8-2.5a10 10 0 0 1 5 2.8c1.4 1.4 3 2.7 4.6 3.8 4.4 2.7 10.5 1.9 14.4 5.2 1.9 1.6 3.2 3.8 4 6 .7 1.7 1.2 3.7.3 5.4-1.1 2-3.8 2.4-6.2 2.5l-7.5.1c-2.6.2-5.4-.2-8-.9-2.6-.6-4.9-2.2-6.4-4.5-1.9-3-1.9-7.2-4.1-10M603 232.8c-.3-3.6.2-7.7 3.1-10 1-.7 2.2-1.2 3.4-1.6 3-1 6.4-.5 9 1.2 2.6 1.7 3.8 5.5 2.2 8.2l-.8.1" stroke="#231F20" stroke-width=".7" stroke-miterlimit="10"/>
  <path d="M611.4 246.8c1.6.2 3.2.2 4.7-.2 1.7-.3 2.7-1.9 2.8-3.5M631.8 234.9c-2.1-1.2-3.9-3-5-5.2a27.7 27.7 0 0 1-2.2-8.6 3.1 3.1 0 0 1 2.7-2.3c3.6-.8 7 2 10.7 2.3 1.8.1 3.6-.4 5.3 0 2 .5 3.7 1.9 4.6 3.9.7 1.9 1.3 4 1.3 6 0 1 0 2.2-.6 3.2-.5 1-1.7 1.3-2.6.7l-.1-.2M683.3 233.1c3.6.8 7.2 1.3 10.8 1.4 2.5.2 5.1-.1 7.5-1.1a7 7 0 0 0 4.2-6.1c-.2-1.8-.7-3.4-1.9-5-1.5-2.5-3-5.1-5.5-6.5-2-1-4-1.5-6.1-1.5-2.7-.4-5.5-.4-8.2 0a9.8 9.8 0 0 0-6.6 4.4 4 4 0 0 1-1.3 1.6c-.9.5-1.9 0-2.8.4-1.6.5-1.5 3-1 4.6M606.8 348.1c4.7-3.5 10-6.8 16-6.4a4 4 0 0 1 1.7.3c1.3.7 2 2 2.9 3 .9.6 1.8 1.3 2.5 2.2.5 1 1 2 1 3 1.4 7.5 1.6 15.2.2 22.8-.2 1-.5 2-1 2.8-1 .8-2 1.3-3 1.5a62.2 62.2 0 0 0-15 7.5c-.4.4-1 .5-1.5.5-.5-.1-.8-.8-1-1.3-2.6-8.8-4.6-17.8-6.1-27-.4-1.8-.4-3.7 0-5.6a4.2 4.2 0 0 1 4.1-3.3" stroke="#231F20" stroke-width=".7" stroke-miterlimit="10"/>
  <path d="M627.5 344.8s-1-6.8.3-9.1c4.3-7.5 14.3-10.3 23-10.4a49.1 49.1 0 0 1 2.2 29.3 7.4 7.4 0 0 1-5 6c-3.9 2-8.2 3.3-12.6 4h-2.8M656 327l-1.4-8.4v-1.4c.2-1 1.5-1.5 2.5-1.9l11.1-3.8c1.2-.5 2.6-.7 3.8-.6 2.8.4 4.5 3.4 5.5 6l5.2 12.5c.6 1.4 1 2.7 1.1 4.3 0 3.6-3.4 6.3-6.6 8.2-3.8 2.3-7.6 4.3-11.6 6-2.3 1-5.3 2-7 .2-1.4-1.3-1.4-3.4-1.2-5.2 0-2.4-.1-4.8-.6-7.2-.2-.6-.8-1.5-1.3-1M610.2 354.3c2.9 1.6 4.4 5 3.6 8.4-.2 1.2-1 2.5-1.2 3.9-.6 2.8.1 5.7 2 7.8.5.5 1.6 1 1.9.3M624.5 361.9c.1 2.9-.5 6-1.5 8.7" stroke="#231F20" stroke-width=".7" stroke-miterlimit="10"/>
  <path d="M645.6 332.7a29.9 29.9 0 0 1 1.3 17.6c-.1.6-.4 1.2-.8 1.7a3 3 0 0 1-1.8 1 5 5 0 0 1-5-2.2 42 42 0 0 0-1.6-3.3c-.8-1-2.6-1.3-3.2-.3M661.3 328.2l1.9 7 .5 1c.4.3.8.4 1.1.4 3.2.4 6.4.1 9.5-.7 0-.3-.1-.6-.5-.6h-.1M676.6 314.4c1-6.7.4-5 8.4-9 0 0 4-11.8 5.6-2.5M686.5 313.8l-1 8.6c0 .9 0 1.8.3 2.5.7 1 2 1.6 3 1.4 1.2 0 2.4-.2 3.6-.1M604.4 163.5v27.6M613.8 195.3c.8-3.6 3.8-6.2 5.1-9.6 1.4-4 .5-8.3-2.4-11.3-1.1-.9-2.1-2-3-3.2-.7-1.2-.2-3.4 1.4-3.5M630.3 191.5a530 530 0 0 0-.9-32M648.6 189.5c-4.8-5.7-9.7-11.8-10.5-19.1 0-.8.4-2 1-1.6M656 187.3a34 34 0 0 1-2.3-13.3c.1-2.3 1-5.3 3.4-5.3M669.5 189c1.3 0 2.7-.4 3.3-1.6.6-1.1 1-2.4 1.2-3.6.7-5.2 1-10.4.6-15.6M687.1 189.7c1.3-6 1.3-12.1.4-18.2h2.9M696.2 187.7l2.4-8.1M601.3 137c-1.2.6-2.8 0-3.3-1.2v-.1a7.3 7.3 0 0 1-.2-4c.5-2.9 1.1-5.8 3.1-7.7 2-1.9 5.6-2.4 8.6-2a39 39 0 0 1 12.4 4.2c2.6 1.3 5.2 2.8 6.6 5.3 1.4 2.5.8 6.2-1.8 7.3M635.6 146.8a13 13 0 0 0-9.4-6.7c-.5.8.7 1.6 1.6 1.9l8.6 2.4c2.7.9 5.7 1.4 8.6 1.5 2.9 0 5.8-1.1 7.7-3.4a6 6 0 0 0 1-5.7c-.5-1-1.1-1.9-1.9-2.6-2.3-2.7-5.6-5.5-8.7-4.3-.4 0-1.2-.3-.8-.4M655.4 146.4c-.3.8.8 1.2 1.6 1a6 6 0 0 0 4.4-6.8c-.5-2.1-2-3.8-3-5.8s-1.3-4.8.6-6c1.5-1 3.7-.3 5.3.4 4 1.8 8.5 4 10.3 8 1.4 3.3.7 7 .1 10.6M679.1 152c-.5-2.5-.4-5 .2-7.5.7-2.4 2.9-4.5 5.4-4.5 3.4 0 5.4 3.7 6.6 6.8.9 2.8 1.6 5.8 2.1 8.8.7-.2 1-.6 1.2-1.2M620 403.1a638.3 638.3 0 0 1-.8 28.7c-.5 1-1.2 1.6-2 2.2-.7.6-1.2 1.5-1 2.5.2 1 1.8 1.3 2 .3M629.7 427.7c-2.7-3.8-2.7-8.8-2.4-13.3.2-4.6.9-9.4-.8-13.7a5 5 0 0 1-.6-3c.5-1.5 2.6-1.8 4.3-2 1.6 0 3.8-.5 3.9-2.2M637.6 417.8c-1.9-5-3.6-10.5-1.1-15 1-2 2.7-3.3 4-5.1 2.7-4.3 2.7-9.8-.2-14M652.6 407.4l-1.7-24.8M664.6 398.2c-2-7.8-6.6-14.7-13.2-19.5M666.3 388c.7-3.8-.7-7.5-3.6-10-1.4-1.2-3.2-2-4.5-3.3-1.2-1.4-2.1-3.4-1-5 .2-.3.5-.6.8-.5.3.2-.3.8-.4.4M673 364.2c-.7 6 0 12 1.7 17.7M683.7 349.5c6 5.4 8.8 13.6 7.2 21.6v1c.1.3.6.5.9.3.2-.3-.1-.8-.4-.5M700.8 360.6a57.6 57.6 0 0 1-2.2-18M700.3 140c7.4-2.3 16.4-1.8 21.6 4 2.6 3 3.8 7 3.3 11-.8-.3-1.5-.2-2.2.3M707.6 153.5l.1-1.8c1.4-.6 3-1 4.5-1 1.6-.2 3 .7 3.9 2M743.4 157.6c1-1.7.6-3.8-.8-5.2a12.5 12.5 0 0 0-4.9-2.7c-2.3-.6-5-1.1-7 .4M771 216.8c2.9 1.8 11.9 3.1 13 10.6 1.1 7.5 2.8 26 1.2 33.3-1.7 7.3-2.8 10-3.7 16.6-1 6.5-1.7 7-1.7 7M738.5 284.6c-11.5.1-21.5.5-26 1.4-2.6.5-10.3 16.7-11.4 18.7-1 2-.3 11.8-.6 11.9M808 316.2c-.3-4.3-1-8.6-1.9-12.8 0 0-10.5-17.4-13.6-17.7l-24-.9" stroke="#231F20" stroke-width=".7" stroke-miterlimit="10"/>
  <path d="m773.5 288.4 18.5.2a49 49 0 0 1 11.4 17.1c.5 4.7.7 9.3.6 14M704 314.3c-.6-1.7-.7-8.3.6-10.9a71 71 0 0 1 9.7-14.8c.9-.5 12.4-.3 25-.5" stroke="#231F20" stroke-width=".7" stroke-miterlimit="10"/>
  <path d="M703.4 307.4a97.6 97.6 0 0 1 21.6-1.8l44.5.2M700.5 311.7c-1.8 1.1-3.4 4.9-.6 6 3.5 1.3 7.2 2.2 10.9 2.8 3.9.5 81.7-.1 84.6 0a20 20 0 0 0 11.8-3.1c.9-1.2 1-2.8.2-4" stroke="#231F20" stroke-width=".7" stroke-miterlimit="10"/>
  <path d="M700.5 308s-7 5.2-7.7 6.8c-.6 1.7.9 3.7 4.5 5.2 4.9 2.2 10 3.6 15.1 4 4 .3 90.6-.4 91.5-.6.9 0 10.7-5 10.7-5" stroke="#231F20" stroke-width=".7" stroke-miterlimit="10"/>
  <path d="M765.2 319.9a18 18 0 0 1 7.4-12.3c3.7-2.8 12-7.7 16.5-6.6 4.4 1.2 3.9 2 7.7 4.6 3.8 2.5 6 5.2 6.8 8.6.6 1.8.1 3.8-1.4 5" stroke="#231F20" stroke-width=".7" stroke-miterlimit="10"/>
  <path d="M757 320.5c6.1-7 17.3-19.6 21.3-22 4-2.4 13.4-4 18.2-4M801 295.2c1.9-.2 7.2 5.7 14.9 4 7.7-1.6 16-.2 15.3 2.6-.6 2.8-8 2.5-4.8 2.8 3.1.2 11.6 1.6 8 3.6-3.7 2-12 1.4-9.5 2.6 2.5 1.1 10.7 4.5 9.3 8.2-1.4 3.7-4.8 1.4-6.8-.6s-3-1-2 2.5c.9 3.4 6.2 2 2.5 5.2s-4.5 5.2-6.8 1.6c-2.3-3.5-3.7-5.7-3.7-3.6 0 2 .6 6.3-4.5 7.4-5.2 1.1.2-8.2.2-8.2s3.2-5 1.1-7.7c-1.7-2-3.9-3.7-6.3-5" stroke="#231F20" stroke-width=".7" stroke-miterlimit="10"/>
  <path d="M803.4 305.7c-1.2-.2-6.6 3.2-5-.2 1.4-3.5 3.3-4 .2-4.9-3.2-.7-4 1.8-4.6-.6-.6-2.4 0-3.4-2-2.5-3.4 1.1-6.8 2-10.3 2.8M705 323.7s3.9 39.8 3.9 41.2c0 1.4 3.9 8.2 12 8.9 8 .6 69.7-.6 71.7-1 4-.5 7.9-6 8.5-9 2-11.7 2.5-39.9 2.5-39.9M779.2 288.1s-4 13-14.2 14.6c-4.8.7-21-5-23.9-11.4l-1.6-3.5c-1.4-3-2.7-6.2-3.6-9.5l1.4-4" stroke="#231F20" stroke-width=".7" stroke-miterlimit="10"/>
  <path d="M740.5 277.5c-3.4-3.7-7.5-8-11.1-9.1-3.7-1.1-8 1.6-10.8-.5-2.8-2.2-4-7.7-4-9.8 0-1.2.3-2.5 1.1-3.6l4.8-2.3M729.4 257.6c-3-2.2-2.6-2.2-5.5-3.9-2.5-1.4-5-3.4-2.8-3.9 2.3-.5 6.6.9 8.3 1.6 1.6.8 6.3 3.2 7.4 4.9 1.2 1.6 10.3 14.8 10.8 14.3" stroke="#231F20" stroke-width=".7" stroke-miterlimit="10"/>
  <path d="M738.7 276.4c-.9 2.5-.6 5 6.2-1.2 3-2.6 4.6-6 2.8-6.2l-1.8-.2" stroke="#231F20" stroke-width=".7" stroke-miterlimit="10"/>
  <path d="M744.8 267.8c1.6-.7 2.5-1.7 4.3.2a117 117 0 0 0 15.4 14.3c4 2.3 3.7 2.3 6.8 5 3.2 2.8 3 1.5 3 1.5M759.9 276.1c-.3-4.8-.6-3.7-.7-9.3-.1-5.7-.9-6-1.1-12.6-.3-4.1.1-8.4 1.1-12.5M704 310a349 349 0 0 1 64-1.3" stroke="#231F20" stroke-width=".7" stroke-miterlimit="10"/>
  <path d="M715.2 320c-.6-1.1-5-2.9-4-4 1-1 12-6.7 12-6.7l9.3 2.6 8.9 8" stroke="#231F20" stroke-width=".7" stroke-miterlimit="10"/>
  <path d="M720.9 317.2a27 27 0 0 1 5.8-4.1M776.6 319.6a5 5 0 0 1 1-1.7c3.5-4.6 9.2-7 15-6.4M773.8 313.2l5.7-2.6M808.3 307.1c-.1-.5.6-2.9 4-2.8 2.3.4 5.9 1.4 6.9 3.5 1 2-.8 4.6-1.8 6.8.5 4 5.5-2.5 5.7.5 0 .8-5.4 6-2.3 6 1.5.6 3 1.6 4 2.9M716.6 254.9c-.5 1-.6 2.1-.1 3.1l1 3.8M718.2 253.3c0 1.6.3 3.2.8 4.6a4 4 0 0 0 2.4 2.9M720.5 253.3c.4 2 1.9 4.7 3.8 5.4M759 277.6a4.8 4.8 0 0 1 2.4 2.4c1.9 4 1.6 8.9 1.4 13.3M785 255c-2.4 5.4-6 10.2-10.7 14a13.4 13.4 0 0 1-6 3M762 257.6c1.1 1.7 2.5 3 4.2 4.2a6.3 6.3 0 0 0 5.5.9M774.5 246.4c3.7-3.3 6.3-7.6 7.6-12.4M709.2 320.3a4 4 0 0 1 1.8-3.3M713.7 359.6l21.1-28.6M721.1 364.2l27.1-37.5M734.8 364.2l26.4-36.8M747.8 363.8l25.7-36.2M761.9 366.3l28-39.5M777.8 365l20.8-28.8M790 363l8.6-11.4M713.2 344.7l11.9-18.2M798 344l-15.4-15.8M797 356.4l-25.3-28.2M792.4 365 756.7 329M776 367.2 740 329.4M761.8 369.7 728.5 329M743.5 365.6l-29.8-35.7M732.3 367.2l-22.7-23.3M728.2 231.6c.3-9.9 3.4-5.6 10.1-13.8a55 55 0 0 1 16.4-14.8c7.2-4.7 6.8-7 10.7-4.6 4 2.5 7 4.3 9.6 10 2.7 5.7-1-.6-10.7 6.2-9.8 6.9-2.8-5.5-10.5 3-7.7 8.4-7.5 7.2-14.8 12-7.4 5-10.5 15.3-13.7 14.3M728.5 225.8c-6.4 3-2.7 3.1-6.5 9.2-3.5 5.7-6 6.7-4.2 9.6" stroke="#231F20" stroke-width=".7" stroke-miterlimit="10"/>
  <path d="M715 254.5c-1-4.6 1-8 4.5-11.1 2.6-2.2 5.6-3.8 8.7-5.1M755.7 215.8c1.9 6.5 5.3 3.1-2.4 13.2-7.7 10.2-12.5 17.3-14.8 20.5-2.3 3.3-3 4.6-3 4.6M729.7 269.5c-1.6 3.2-2 9.8-2 9.8s-11 9.6-11.8 1.6a84 84 0 0 1 .3-16M726.3 200.6c.3-3.7 2.7-4.3 4-3.7 1.5.6 2.5 4 2.5 6.6v2.7M703 196.4c8.1 3.7 6 4.8 12.7 6 6.7 1.3 7.7.6 7.7.6" stroke="#231F20" stroke-width=".7" stroke-miterlimit="10"/>
  <path d="M703 196.7c-1.4-6 .2-12.3 4-17 4-4.8 3-6 9-8 6.1-1.9 10.4-3.9 17.5-1.6 6.5 2 11.7 6.8 14.3 13 2 5 7.4 5.9 8 9.9.6 4-3.8 5.3-3.8 5.3" stroke="#231F20" stroke-width=".7" stroke-miterlimit="10"/>
  <path d="M707.5 191.4c10 4.5 11.1 6 15.4 4.5 4.3-1.5 9.6-3.4 10.9-3.2M733.3 203.5c2.9.9 13.6.5 19.3-4.8M731.4 187.2c6.2 1.1 11.9 4 16.5 8.3M704.6 197.4c0 5 5.8 9 7.2 9.9 1.4.9.2 6.6 1.2 8 1 1.3 3.5-.6 4 .5.7 1 .9 2.9 2.8 2.9s1.5 1.3 1.5 1.3c.2.3.7.6 1.2.7 1 .3-.2 1.4 2.4 2.7 2.7 1.2 3.8.5 3.8.5M714 207l3-1M772.5 211.3s5 .4 9.2 6.5c4.2 6 7.1 13 8.3 20.4 1 7-.5 36.5-.3 41 0 2.1.3 4.1.8 6.2M790.2 289.3l.5 5M792.1 373.8c-.5 2.4-2.6 8-4.5 8-2 0-27.9 5.3-35.3 2.9-7.5-2.4-22.3-5.6-22.3-5.6l-1-5.3" stroke="#231F20" stroke-width=".7" stroke-miterlimit="10"/>
  <path d="M721 374.2c-.2 1.2.5 4.5 3.7 4.5 1.9 0 3.8-.2 5.5-.8M719.7 304.8c.5-5.3 2-16 2-16M714.2 261c.2-.7-29.2 15.4-30.5 16l-2.4 1.3s3.4 15 6.8 14c4.2-1.3 8.1-2.9 12-5 5.1-2.4 10.4-4.6 15.8-6.4" stroke="#231F20" stroke-width=".7" stroke-miterlimit="10"/>
  <path d="M681.8 280.2s-2.8 1.7-8.2.7c-2.7-.5-5.6-3.6-7.8-4.5-2.1-1-6-2.4-9.4-1.4-1.7.5-6.6 5.6-6.6 5.6s.2 2.4 2.1 1c2-1.4 3.4-2.7 4.8-2.4 2.6.7 5.1 1.9 7.2 3.4 1.7 1.1.6 2.1.6 2.1" stroke="#231F20" stroke-width=".7" stroke-miterlimit="10"/>
  <path d="M683.3 288.1c-1.5 0-8.7 4-14.3 2.7-5.6-1.3-13.5 1.9-14-.5s-.3-2.4 2.1-3c3.3-1 6.5-2 9.8-3.3" stroke="#231F20" stroke-width=".7" stroke-miterlimit="10"/>
  <path d="M651 281.6c-1.2-.2-3.2 1.5-4.1 2.3l-3.8 4c-1 .7-1.7 1.9-2 3.1 0 2.3 2.5 4 2.5 6.2a9.4 9.4 0 0 1-1 3.2 5.3 5.3 0 0 0 0 3.4 3 3 0 0 0 2.8 1.8c1.5-.3 2.9-1.8 4.1-1.2.5.3 1 .8 1.3 1.2 1.3.9 3.3-.2 4.4.9.3.4.7.7.8 1.2a3.6 3.6 0 0 0 3.8 1.2c1.3-.5 2.5-1.2 3.5-2 .7-.5 1.3-1 1.8-1.8 1.3-2 .1-4.6-1-6.7 2.6.7 5.6-.8 6.4-3.4.3-1 .3-1.8.2-2.7" stroke="#231F20" stroke-width=".7" stroke-miterlimit="10"/>
  <path d="M647.9 289.4c-.8.2-1 1.3-1.2 2.1-.2 1 0 2 .4 3l1 .7c1.4.6 3 .9 4.2 2 .8.8 1.5 1.8 2.4 1.4M653.6 281.4c1-.9 2.5-.7 3.4.3v.1c.6.8.8 2 1.8 2.2M776.7 383.6c0 1-3 11-2.4 14.6.5 3.7-1.3 8.2 1 10.4 2.3 2.1 15 22 17.4 30.5 2.6 8.4 6.8 21.5 6.8 23.2 0 1.8 2.9 9.5 2.9 10.2 0 .6-8.3 10-8.3 10s-13 5.9-14 .6c-1-5.3-.8-11.1-5.3-22-4.6-10.9-13.8-29.5-16.5-31.5-2.6-2-9.8-7.7-11.3-16.2-1.6-8.5-3.7-8-3.7-14.8-.1-5.5-.6-10.9-1.4-16.2" stroke="#231F20" stroke-width=".7" stroke-miterlimit="10"/>
  <path d="M734.3 380.7a112 112 0 0 0 4 22.6c2 7 4.7 13.5 5.2 19.6.5 6 .3 37.7 1.3 39.2s5.3 3.7 10.6 4.5c5.3 1 12.2 3 12.4 1.3.3-1.6 3.7-13.5 3.7-13.5M800.3 475.4c1.3.2 9 9.8 7.7 13.8-1.2 3.9-7.2 13.5-10.6 17.2-3.4 3.6-6.6 8.2-16.7 10-10.1 2-10.4-1-10.1-5 .2-4 3.4-5.8 7.7-13.8 4.3-8 4.8-11.8 4.8-11.8" stroke="#231F20" stroke-width=".7" stroke-miterlimit="10"/>
  <path d="M763.3 468.8s2.6 13.5-.3 15.4c-2.9 2-11.4.3-17 1.3-5.5 1-7.4 3-14.9 4.5-6.8 1.4-12.4.3-14.5-4-2.2-4.3 5.4-8 10.4-9.6 4-1.4 7.4-2.2 11.8-5.6 2.6-2 4.7-4.5 6.1-7.4M751.6 200.5c1 .7 2 1.2 3.2 1.5M51.4 557h221.5M51.4 526c4-.4 39-21.4 38.2-20-.6 1.3 3.7 3.6 3.7 3.6l9.8-13.5 13.6-1s11.8 5.4 13.2 4.7c1.4-.6 39-25.4 39-25.4l13.5-3.4s53.9-50.2 68.2-63.2" stroke="#231F20" stroke-width=".7" stroke-miterlimit="10"/>
  <path d="m252 410.8 2-6-6.2 1.3 4.2 4.7Z" fill="#231F20"/>
  <path d="M71.4 556.3v-1.8M71.4 550.6v-29.4M71.4 519.3v-1.8M89.3 556.3v-1.8M89.3 550.7v-36.3M89.3 512.5v-1.8M107.2 556.3v-1.8M107.2 550.8l.4-49.3M107.6 499.6v-1.8M125.1 556.3v-1.8M125.1 551v-46.3M125.1 503v-1.7M143.1 556.3v-1.8M143.1 551v-53.4M143.1 496v-1.8M161 556.3v-1.8M161 550.8V486M161 484v-1.7M179 556.3v-1.8M179 550.8v-71.6M179 477.3v-1.8M196.9 556.3v-1.8M196.9 550.9v-85.3M196.9 463.8V462M214.8 556.3v-1.8M214.8 550.8v-102M214.8 446.9V445M232.7 556.3v-1.8M232.7 551V432.4M232.7 430.7v-1.9M250.7 556.3v-1.8M250.7 550.9l.7-134.3M251.4 414.8v-1.9" stroke="#231F20" stroke-width=".7" stroke-miterlimit="10"/>
</svg>
