<?xml version="1.0" encoding="utf-8"?>
<!-- Generator: Adobe Illustrator 26.3.1, SVG Export Plug-In . SVG Version: 6.00 Build 0)  -->
<svg version="1.1" id="Lag_1" xmlns="http://www.w3.org/2000/svg" xmlns:xlink="http://www.w3.org/1999/xlink" x="0px" y="0px"
	 viewBox="0 0 2039.4 99.5" style="enable-background:new 0 0 2039.4 99.5;" xml:space="preserve">
<style type="text/css">
	.st0{fill:#7D9A89;}
	.st1{fill:#8DBEA1;}
	.st2{fill:#558367;}
	.st3{fill:#71AE89;}
</style>
<g>
	<path class="st0" d="M1047.9,37.1c2.2,0.2,95.7-14.9,96.1-14.2c0.4,0.6,8.9-0.2,10.3,1.1c0.2,0.6,3.7-0.3,4.5-0.8
		c2-1.2,7.6-0.8,8-1.4c1.2-1.9,12.4,3.2,14,3.5c-0.8,0.5,13.2,1.1,13.6-0.8c3.4-1.2,7.2-0.1,10.6,1.1c4.6,1.5,24,0.6,25.8-0.1
		c3.6-1.4,11.8,0.9,12.4,0.6c1.4-0.6,2.7,0.8,3.8,1.9c3.4,3.3,9.2,3.8,13.1,1.2c1-0.7,3.9-0.5,4.3-0.3c1.9,1,7.2-1.5,7.9-1.4
		c0.7,0.1,1.3-0.1,2-0.3c1.7-0.5,4.9-0.1,4.8,0.6c0.7-0.6,13.7,6.8,18,13.1c0,0-81.2,8.8-104.1,4.9S1047.9,37.1,1047.9,37.1z"/>
	<path class="st1" d="M565.6,69.9v29.6h954V62.3c-26.5,1-237.5-26.7-264-27.3c-51.9-1.2-107.4,7.2-159.1,0.2
		c-54.9-7.4-199.5-23.6-214.3-22.5c-16,1.1-58.1,0-77.5,4.9c-14.4,6.9-28.9,9.9-42.8,18.2C719,47.4,721.7,51.9,677,50.8
		C643.1,49.9,565.6,69.9,565.6,69.9z"/>
	<path class="st2" d="M701.1,65.3c2.9-0.4,145-17.7,145.7-17.1c0.6,0.5,11.5-2.5,13.6-1.5c0.3,0.5,4.8-1.3,5.7-1.9
		c2.4-1.6,19.5-6.3,19.9-7c1.3-2.2,6.8-8.5,8.9-8.5c-1,0.7,17.2-2.3,17.4-4.2c4.2-2,12-7.3,16.6-7.1c6.2,0.3,28.5-0.1,30.7-1.2
		c4.5-2.3,15.5-2.1,16.2-2.6c1.7-1,3.7,0.1,5.2,0.9c4.9,2.4,12.5,1.5,17.1-2.2c1.2-0.9,5-1.5,5.6-1.4c2.7,0.5,21.5,9.5,28.1,14.7
		c0,0-89.5,29.8-119.8,31.8S701.1,65.3,701.1,65.3z"/>
</g>
<path class="st3" d="M1528.5,60.1c-51.2,3.8-102.7,3-153.9,0.2c-33.8-1.9-67.6-4.6-101.5-3.9c-44.7,0.9-53.4,5.2-93.8-14.7
	c-13.9-6.9-64.9-14.4-79.3-20.1c-14.9-5.9-31.2-7.2-47.2-8.1c-14.8-0.9-22.6,0.7-41.8,10.2l-31.7,9.1c-0.1,2.4-115,15.7-169.9,21.7
	C757.7,60.2,706,65.9,654,66.9c-26.5,0.5-627.5-0.2-654-1v34.8h2039.4V60.1H1528.5z"/>
</svg>
