<svg width="43" height="45" viewBox="0 0 43 45" fill="none" xmlns="http://www.w3.org/2000/svg">
<path d="M14.1494 30.9375H0.375V44.3853H14.1494V30.9375Z" fill="#113612"/>
<path d="M0.973646 12.5352C0.429202 14.6585 0.320312 16.6185 0.320312 18.034V29.2496H14.0948V20.5929C14.0948 19.994 14.0948 19.4496 14.1492 18.8507L0.973646 12.5352Z" fill="#6C0D1F"/>
<path d="M42.6243 29.2494V18.0338C42.6243 16.6182 42.5154 14.6038 41.971 12.4805L28.4688 18.9594C28.5232 19.5038 28.5232 19.4494 28.5232 19.9938V29.1949H42.6243V29.2494Z" fill="#7C845A"/>
<path d="M20.6276 0.884766H17.4698C8.1598 0.884766 3.15091 6.38365 1.51758 10.8481L14.5298 17.0003C14.5298 17.0003 15.1287 14.3325 19.4842 14.3325H20.682V0.884766H20.6276Z" fill="#66BA47"/>
<path d="M42.6245 30.9375H28.5234V44.3853H42.6245V30.9375Z" fill="#AC4902"/>
<path d="M28.1966 17.1637L41.4811 10.8481C39.8478 6.38365 34.7844 0.884766 25.5289 0.884766H22.3711V14.3325H23.7867C27.7067 14.3325 28.1966 17.1637 28.1966 17.1637Z" fill="#BE1E11"/>
</svg>
