<svg width="143" height="134" viewBox="0 0 143 134" fill="none" xmlns="http://www.w3.org/2000/svg">
<path d="M43.4871 96.2122C35.2905 88.4286 30.7433 77.9916 30.8253 67.1503C30.8253 45.0166 49.0582 27.0742 71.566 27.0742C75.3922 27.0744 79.1967 27.602 82.8531 28.6397C83.9774 28.9619 85.1896 28.9041 86.2717 28.4767C87.3538 28.0493 88.2347 27.2803 88.7559 26.3081C90.2029 23.8322 98.204 9.9646 99.5365 7.61077C101.375 4.36316 99.4581 1.01562 95.2676 1.01562H67.9725C30.8434 1.01562 0.756623 30.6549 0.756623 67.178C0.686857 81.3998 5.40057 95.2926 14.2504 106.949C11.4649 111.706 3.79545 125.124 1.38368 129.26C0.105446 131.481 0.78074 133.346 3.54824 133.346H24.0121C26.46 133.346 27.5453 132.236 28.6788 130.315C29.951 128.028 40.9547 108.947 44.2829 103.296C45.3562 101.469 46.5621 99.0768 43.4871 96.2122" fill="#FC0606"/>
<path d="M99.693 38.2053C107.898 45.9999 112.445 56.4519 112.355 67.3062C112.355 89.512 94.0796 107.477 71.5357 107.477C67.6913 107.477 63.8684 106.947 60.1943 105.906C59.0683 105.59 57.857 105.655 56.7783 106.089C55.6996 106.522 54.8243 107.296 54.3096 108.27C52.8867 110.746 44.8676 124.642 43.5351 126.996C41.6901 130.26 43.6135 133.613 47.816 133.613H75.1593C112.361 133.613 142.514 103.913 142.514 67.3062C142.584 53.0595 137.859 39.1427 128.99 27.4688C131.776 22.6723 139.463 9.23777 141.875 5.08527C143.159 2.86468 142.508 0.988281 139.716 0.988281H119.216C116.756 0.988281 115.677 2.09858 114.543 4.03049C113.265 6.31769 102.237 25.437 98.867 31.0995C97.7938 32.9314 96.5879 35.3241 99.6689 38.2053" fill="#FC0606"/>
<path d="M75.449 44.4782C75.3996 45.1741 75.1303 45.8414 74.6742 46.3981C74.2181 46.9548 73.5952 47.3765 72.8821 47.6114C72.169 47.8462 71.3969 47.8839 70.6608 47.7199C69.9247 47.5558 69.2568 47.1971 68.7393 46.688C68.2218 46.1788 67.8773 45.5415 67.7482 44.8544C67.6191 44.1673 67.7111 43.4604 68.0128 42.8208C68.3145 42.1812 68.8128 41.6368 69.4463 41.2547C70.0798 40.8725 70.8208 40.6692 71.5781 40.6699C72.6391 40.7047 73.6419 41.1248 74.3672 41.8385C75.0926 42.5522 75.4816 43.5013 75.449 44.4782Z" fill="#FC0606"/>
<path d="M94.4178 82.7441H48.7148V88.068H94.4178V82.7441Z" fill="#FC0606"/>
<path d="M44.9513 64.864C44.978 63.5476 45.5165 62.2837 46.469 61.3017C47.4216 60.3197 48.725 59.6848 50.1427 59.5124C49.9738 63.4373 52.0359 65.9299 53.5613 67.8396C55.0084 69.6493 57.2694 72.3307 59.5908 74.7512H51.2099L50.1668 73.6409C48.7633 72.2574 47.4829 70.7722 46.3381 69.1997C45.4618 67.9054 44.9825 66.4167 44.9513 64.8917V64.864ZM67.1758 74.7567C64.8785 72.414 59.229 66.1852 58.2341 64.9528C57.2393 63.7204 56.0816 62.1771 55.7741 60.9779C59.8414 62.9216 64.2987 64.076 68.87 64.3699C68.87 66.5905 68.87 74.7567 68.87 74.7567H67.1758ZM74.411 64.3699C78.9822 64.0752 83.4393 62.9208 87.5069 60.9779C87.1934 62.1771 85.9212 63.8758 85.4208 64.492C83.5275 66.7792 78.4086 72.414 76.0993 74.7567H74.411C74.411 74.7567 74.411 66.5738 74.411 64.3699V64.3699ZM83.6602 74.7567C85.9875 72.3363 88.7369 69.0498 89.4303 68.1838C90.1237 67.3177 93.3072 63.9646 93.1143 59.5124C94.5319 59.6848 95.8354 60.3197 96.7879 61.3017C97.7405 62.2837 98.279 63.5476 98.3056 64.864C98.2733 66.3872 97.7986 67.8747 96.9309 69.1719C95.7783 70.7407 94.4963 72.2255 93.0962 73.6131L92.0471 74.7234L83.6602 74.7567ZM85.8609 55.7651H85.8308C83.0874 57.0086 79.7591 58.5075 74.5497 58.9128C74.5497 58.8406 74.5497 58.774 74.5497 58.7241C74.7951 57.5386 75.4078 56.444 76.314 55.5721C77.2203 54.7003 78.3812 54.0887 79.6566 53.811C80.7809 53.5277 81.9715 53.5609 83.0752 53.9062C84.1788 54.2515 85.1448 54.8931 85.8488 55.7485L85.8609 55.7651ZM68.7434 58.9128C63.528 58.5075 60.1997 57.0086 57.4503 55.7651C58.1553 54.9093 59.1224 54.2674 60.2271 53.9221C61.3317 53.5768 62.5234 53.5439 63.6485 53.8277C64.9232 54.1056 66.0832 54.7175 66.9884 55.5894C67.8936 56.4612 68.5052 57.5557 68.7494 58.7407C68.7494 58.7907 68.7494 58.8573 68.7494 58.9295L68.7434 58.9128ZM41.81 72.1475C43.1037 73.9653 44.5641 75.6777 46.1753 77.266L48.8283 80.0861H94.4408L97.0515 77.266C98.6536 75.6706 100.113 73.9589 101.417 72.1475C107.651 62.9987 100.265 53.3558 91.7275 53.9886H91.2572C90.9853 53.5412 90.6874 53.1076 90.3649 52.6896C89.0754 50.9589 87.2414 49.6332 85.1092 48.8909C82.9771 48.1485 80.6493 48.025 78.4387 48.5371C75.723 49.127 73.3119 50.5625 71.6134 52.6008C69.9019 50.5707 67.483 49.1454 64.764 48.5649C62.5534 48.0512 60.225 48.1738 58.0925 48.9163C55.96 49.6588 54.1261 50.9855 52.8378 52.7174C52.5062 53.1559 52.2047 53.5889 51.9394 54.0164H51.4752C43.6972 53.2059 35.1957 62.6545 41.7859 72.1753" fill="#FC0606"/>
</svg>
