<svg width="27" height="27" viewBox="0 0 27 27" fill="none" xmlns="http://www.w3.org/2000/svg">
<path d="M27 25.7786L19.3682 18.0643C20.5867 16.65 21.4204 14.9786 21.8052 13.1143C21.8052 13.05 21.8052 13.05 21.8052 12.9857C21.8694 12.7929 21.8694 12.6 21.8694 12.4714C21.9335 12.0214 21.9976 11.5071 21.9976 11.0571C21.9976 4.95 17.0594 0 10.9667 0C5.00237 0.0642857 0.064133 4.88571 0 10.9286C0.064133 16.9714 4.93824 21.8571 11.0309 21.8571C13.7245 21.8571 16.1615 20.8929 18.0855 19.2857L25.7815 27L27 25.7786ZM11.0309 20.0571C6.0285 20.0571 1.92399 16.0071 1.92399 10.9286C1.92399 5.91429 5.96437 1.8 11.0309 1.8C16.0974 1.8 20.1378 5.85 20.1378 10.9286C20.1378 16.0071 16.0333 20.0571 11.0309 20.0571Z" fill="#333333"/>
</svg>
