<svg width="71" height="26" viewBox="0 0 71 26" fill="none" xmlns="http://www.w3.org/2000/svg">
<path d="M3.15816 16.7204C2.16134 15.0417 1.68461 13.1051 1.78824 11.1555C1.89187 9.20593 2.57121 7.33082 3.74038 5.76726C4.90955 4.20369 6.51605 3.02188 8.35679 2.37121C10.1975 1.72055 12.1899 1.63025 14.0819 2.11174C15.974 2.59322 17.6808 3.62487 18.9866 5.07626C20.2924 6.52765 21.1386 8.33362 21.4182 10.2659C21.6977 12.1981 21.3981 14.1698 20.5572 15.9318C19.7164 17.6938 18.3719 19.1669 16.694 20.1649C15.5797 20.8301 14.3451 21.2687 13.0609 21.4556C11.7767 21.6425 10.4683 21.5739 9.21067 21.2539C7.95305 20.9338 6.77101 20.3686 5.73237 19.5906C4.69372 18.8127 3.81892 17.8373 3.15816 16.7204ZM32.1372 22.7091L22.5015 16.2302C23.6463 13.4987 23.7131 10.4347 22.6884 7.65589C21.6638 4.87705 19.6238 2.58993 16.9797 1.25549C14.3357 -0.0789483 11.2841 -0.361497 8.43992 0.464793C5.59578 1.29108 3.1706 3.16478 1.65315 5.70824C0.135701 8.2517 -0.36119 11.2758 0.262623 14.1711C0.886436 17.0664 2.58457 19.6176 5.01478 21.3105C7.44499 23.0034 10.4266 23.7122 13.3586 23.294C16.2907 22.8757 18.9552 21.3616 20.8152 19.0567L30.299 25.4343C30.299 25.4343 32.0146 26.3294 32.7739 25.1173C33.5331 23.9052 32.1372 22.7197 32.1372 22.7197" fill="#71AE89"/>
<rect x="51.002" y="21.0898" width="25.3485" height="1" transform="rotate(-45 51.002 21.0898)" fill="#393939"/>
<rect x="69.3066" y="22.0137" width="25.8895" height="1" transform="rotate(-135 69.3066 22.0137)" fill="#393939"/>
</svg>
